G04*
G04 #@! TF.GenerationSoftware,Altium Limited,Altium Designer,21.2.1 (34)*
G04*
G04 Layer_Color=128*
%FSLAX25Y25*%
%MOIN*%
G70*
G04*
G04 #@! TF.SameCoordinates,0D780EAB-B6EC-48A9-9064-61573679FFEB*
G04*
G04*
G04 #@! TF.FilePolarity,Positive*
G04*
G01*
G75*
%ADD20R,0.03937X0.04331*%
%ADD23R,0.03543X0.03150*%
%ADD25R,0.03150X0.03543*%
%ADD30R,0.04331X0.03937*%
%ADD44R,0.17953X0.03937*%
%ADD119C,0.05000*%
%ADD120R,0.04331X0.04331*%
D20*
X312800Y127954D02*
D03*
Y134646D02*
D03*
X306700Y127954D02*
D03*
Y134646D02*
D03*
X300600Y127954D02*
D03*
Y134646D02*
D03*
X294600Y127954D02*
D03*
Y134646D02*
D03*
X283900Y103446D02*
D03*
Y96754D02*
D03*
X269400Y86807D02*
D03*
Y100193D02*
D03*
X283900Y155993D02*
D03*
Y149300D02*
D03*
X269800Y139307D02*
D03*
Y152693D02*
D03*
X312800Y179941D02*
D03*
Y186634D02*
D03*
X306700Y179941D02*
D03*
Y186634D02*
D03*
X300600Y179941D02*
D03*
Y186634D02*
D03*
X294600Y179941D02*
D03*
Y186634D02*
D03*
X269400Y192307D02*
D03*
Y205693D02*
D03*
X283900Y208546D02*
D03*
Y201853D02*
D03*
X314500Y233284D02*
D03*
Y239977D02*
D03*
X308400Y233284D02*
D03*
Y239977D02*
D03*
X302300Y233284D02*
D03*
Y239977D02*
D03*
X296300Y233284D02*
D03*
Y239977D02*
D03*
X269100Y241207D02*
D03*
Y254593D02*
D03*
X282600Y259546D02*
D03*
Y252853D02*
D03*
D23*
X212200Y19038D02*
D03*
Y23762D02*
D03*
X211900Y165462D02*
D03*
Y160738D02*
D03*
X216800Y165462D02*
D03*
Y160738D02*
D03*
X221700Y165462D02*
D03*
Y160738D02*
D03*
X199300Y209638D02*
D03*
Y214362D02*
D03*
X194200Y209638D02*
D03*
Y214362D02*
D03*
X187500Y204238D02*
D03*
Y208962D02*
D03*
X195000Y198538D02*
D03*
Y203262D02*
D03*
X199900Y198538D02*
D03*
Y203262D02*
D03*
X206200D02*
D03*
Y198538D02*
D03*
X263000Y106024D02*
D03*
Y101300D02*
D03*
Y124876D02*
D03*
Y129600D02*
D03*
Y158624D02*
D03*
Y153900D02*
D03*
Y177476D02*
D03*
Y182200D02*
D03*
Y211162D02*
D03*
Y206438D02*
D03*
Y228876D02*
D03*
Y233600D02*
D03*
Y281438D02*
D03*
Y286162D02*
D03*
Y263762D02*
D03*
Y259038D02*
D03*
D25*
X208138Y185900D02*
D03*
X212862D02*
D03*
X208138Y190400D02*
D03*
X212862D02*
D03*
X189238Y193700D02*
D03*
X193962D02*
D03*
X189476Y187800D02*
D03*
X194200D02*
D03*
X203362D02*
D03*
X198638D02*
D03*
D30*
X276093Y93500D02*
D03*
X262707D02*
D03*
X276493Y146000D02*
D03*
X263107D02*
D03*
X276093Y199000D02*
D03*
X262707D02*
D03*
X275793Y247900D02*
D03*
X262407D02*
D03*
D44*
X384724Y309567D02*
D03*
Y330197D02*
D03*
Y358780D02*
D03*
Y379410D02*
D03*
Y211142D02*
D03*
Y231772D02*
D03*
Y260354D02*
D03*
Y280984D02*
D03*
Y112716D02*
D03*
Y133346D02*
D03*
Y161929D02*
D03*
Y182559D02*
D03*
Y14291D02*
D03*
Y34921D02*
D03*
Y63504D02*
D03*
Y84134D02*
D03*
D119*
X252700Y100000D02*
D03*
X253300Y152800D02*
D03*
Y205200D02*
D03*
X252800Y256800D02*
D03*
D120*
X269400Y93500D02*
D03*
X269800Y146000D02*
D03*
X269400Y199000D02*
D03*
X269100Y247900D02*
D03*
M02*
