G04*
G04 #@! TF.GenerationSoftware,Altium Limited,Altium Designer,21.2.1 (34)*
G04*
G04 Layer_Physical_Order=6*
G04 Layer_Color=16711680*
%FSLAX25Y25*%
%MOIN*%
G70*
G04*
G04 #@! TF.SameCoordinates,0D780EAB-B6EC-48A9-9064-61573679FFEB*
G04*
G04*
G04 #@! TF.FilePolarity,Positive*
G04*
G01*
G75*
%ADD14C,0.00500*%
%ADD15C,0.01000*%
%ADD20R,0.03937X0.04331*%
%ADD23R,0.03543X0.03150*%
%ADD25R,0.03150X0.03543*%
%ADD30R,0.04331X0.03937*%
%ADD44R,0.17953X0.03937*%
%ADD92C,0.00523*%
%ADD97O,0.08661X0.04331*%
%ADD98O,0.10236X0.05118*%
%ADD99C,0.05906*%
%ADD100R,0.05906X0.05906*%
%ADD101C,0.11024*%
%ADD102C,0.09843*%
G04:AMPARAMS|DCode=103|XSize=70.87mil|YSize=70.87mil|CornerRadius=8.86mil|HoleSize=0mil|Usage=FLASHONLY|Rotation=0.000|XOffset=0mil|YOffset=0mil|HoleType=Round|Shape=RoundedRectangle|*
%AMROUNDEDRECTD103*
21,1,0.07087,0.05315,0,0,0.0*
21,1,0.05315,0.07087,0,0,0.0*
1,1,0.01772,0.02657,-0.02657*
1,1,0.01772,-0.02657,-0.02657*
1,1,0.01772,-0.02657,0.02657*
1,1,0.01772,0.02657,0.02657*
%
%ADD103ROUNDEDRECTD103*%
%ADD104C,0.07087*%
%ADD105C,0.06299*%
%ADD106R,0.06299X0.06299*%
%ADD107C,0.01772*%
%ADD108C,0.02756*%
%ADD109C,0.01968*%
%ADD119C,0.05000*%
%ADD120R,0.04331X0.04331*%
G36*
X201914Y200055D02*
Y199754D01*
X202102Y199300D01*
X202450Y198952D01*
X202904Y198764D01*
X203204D01*
X204078Y197890D01*
Y196613D01*
X204331D01*
Y195669D01*
X198819D01*
X198031Y196457D01*
X192913D01*
Y200394D01*
X201575D01*
X201914Y200055D01*
D02*
G37*
G36*
X189764Y210409D02*
X189504Y210149D01*
X189315Y209695D01*
Y209203D01*
X189504Y208749D01*
X189851Y208401D01*
X190305Y208213D01*
X190606D01*
X192465Y206354D01*
Y206053D01*
X192653Y205599D01*
X193001Y205252D01*
X193455Y205063D01*
X193947D01*
X194401Y205252D01*
X194661Y205512D01*
X195890D01*
X196150Y205252D01*
X196605Y205063D01*
X197096D01*
X197550Y205252D01*
X197811Y205512D01*
X199040D01*
X199300Y205252D01*
X199754Y205063D01*
X200246D01*
X200700Y205252D01*
X200960Y205512D01*
X201969D01*
X203150Y204331D01*
Y201575D01*
X204078D01*
Y201337D01*
X206930D01*
X208213Y200055D01*
Y199754D01*
X208268Y199622D01*
Y197228D01*
X208213Y197096D01*
Y196605D01*
X208268Y196473D01*
Y195276D01*
X205088D01*
X204710Y195669D01*
X204710Y195776D01*
Y196613D01*
X204599Y196881D01*
X204457Y196940D01*
Y197890D01*
X204346Y198158D01*
X203472Y199032D01*
X203204Y199143D01*
X202979D01*
X202664Y199274D01*
X202423Y199515D01*
X202293Y199829D01*
Y200055D01*
X202182Y200323D01*
X201843Y200662D01*
X201575Y200773D01*
X192913D01*
X192646Y200662D01*
X192534Y200394D01*
Y196457D01*
X192646Y196189D01*
X192913Y196078D01*
X197875D01*
X198551Y195401D01*
X198819Y195291D01*
X201670D01*
X201877Y194790D01*
X201575Y194488D01*
Y189922D01*
X201437D01*
Y185678D01*
X201039Y185433D01*
X200378D01*
X200246Y185488D01*
X199754D01*
X199622Y185433D01*
X197228D01*
X197096Y185488D01*
X196605D01*
X196473Y185433D01*
X194079D01*
X193947Y185488D01*
X193455D01*
X193323Y185433D01*
X192520D01*
X191732Y186221D01*
Y190173D01*
X191787Y190305D01*
Y190797D01*
X191732Y190929D01*
Y193323D01*
X191787Y193455D01*
Y193947D01*
X191732Y194079D01*
Y194095D01*
X191721Y194106D01*
X191599Y194401D01*
X191251Y194748D01*
X191163Y194785D01*
Y195766D01*
X191251Y195803D01*
X191599Y196150D01*
X191787Y196605D01*
Y197096D01*
X191599Y197550D01*
X191251Y197898D01*
X190797Y198086D01*
X190305D01*
X189851Y197898D01*
X189370Y198124D01*
Y200787D01*
X189805D01*
X191027Y202009D01*
X191251Y202102D01*
X191599Y202450D01*
X191692Y202674D01*
X192287Y203269D01*
X189650Y205906D01*
X189622D01*
Y206163D01*
X185963D01*
X185827Y206299D01*
Y211024D01*
X189764D01*
Y210409D01*
D02*
G37*
G36*
X205906Y190157D02*
X205906Y185039D01*
Y179127D01*
X205599Y179000D01*
X205252Y178653D01*
X205063Y178199D01*
Y177707D01*
X205252Y177253D01*
X205599Y176905D01*
X205906Y176778D01*
Y175978D01*
X205599Y175851D01*
X205252Y175503D01*
X205063Y175049D01*
Y175038D01*
X204885Y174910D01*
X204687Y174965D01*
X204348Y175139D01*
X204197Y175503D01*
X203850Y175851D01*
X203395Y176039D01*
X202904D01*
X202450Y175851D01*
X202102Y175503D01*
X201914Y175049D01*
Y174557D01*
X202102Y174103D01*
X202450Y173756D01*
X202904Y173567D01*
X203175D01*
X203382Y173067D01*
X191339Y161024D01*
Y133858D01*
X184252D01*
Y158626D01*
X197463Y171838D01*
X197651Y172119D01*
X197717Y172450D01*
X197651Y172782D01*
X197500Y173008D01*
Y176884D01*
X197550Y176905D01*
X197898Y177253D01*
X198086Y177707D01*
Y178199D01*
X197898Y178653D01*
X197550Y179000D01*
X197096Y179189D01*
X196850D01*
Y179867D01*
X197096D01*
X197550Y180055D01*
X197898Y180402D01*
X198086Y180857D01*
Y181348D01*
X197898Y181802D01*
X197550Y182150D01*
X197096Y182338D01*
X196605D01*
X196150Y182150D01*
X195803Y181802D01*
X195615Y181348D01*
Y181102D01*
X194937D01*
Y181348D01*
X194748Y181802D01*
X194401Y182150D01*
X193947Y182338D01*
X193455D01*
X193001Y182150D01*
X192653Y181802D01*
X192465Y181348D01*
Y181102D01*
X191339D01*
X187795Y184646D01*
Y191578D01*
X191163D01*
X191353Y191157D01*
Y190929D01*
X191382Y190859D01*
Y190784D01*
X191408Y190722D01*
Y190381D01*
X191382Y190318D01*
Y190243D01*
X191353Y190173D01*
Y186221D01*
X191464Y185953D01*
X192252Y185165D01*
X192518Y185024D01*
X192493Y184565D01*
X192465Y184498D01*
Y184006D01*
X192653Y183552D01*
X193001Y183204D01*
X193455Y183016D01*
X193947D01*
X194401Y183204D01*
X194748Y183552D01*
X194937Y184006D01*
Y184498D01*
X195226Y184591D01*
X195615Y184162D01*
Y184006D01*
X195803Y183552D01*
X196150Y183204D01*
X196605Y183016D01*
X197096D01*
X197550Y183204D01*
X197898Y183552D01*
X198086Y184006D01*
Y184498D01*
X198376Y184591D01*
X198764Y184162D01*
Y184006D01*
X198952Y183552D01*
X199300Y183204D01*
X199754Y183016D01*
X200246D01*
X200700Y183204D01*
X201048Y183552D01*
X201236Y184006D01*
Y184498D01*
X201191Y184606D01*
X201236Y185088D01*
X201432Y185230D01*
X201636Y185356D01*
X201663Y185393D01*
X201705Y185410D01*
X201745Y185506D01*
X201806Y185591D01*
X201799Y185636D01*
X201816Y185678D01*
Y189643D01*
X201843Y189654D01*
X201954Y189922D01*
Y191732D01*
X204331D01*
X205906Y190157D01*
D02*
G37*
G36*
X152362Y206693D02*
Y205665D01*
X152214Y205567D01*
X151723D01*
X151268Y205378D01*
X150921Y205031D01*
X150733Y204576D01*
Y204085D01*
X150921Y203631D01*
X151268Y203283D01*
X151723Y203095D01*
X152214D01*
X152362Y202996D01*
Y199213D01*
X139748D01*
X139616Y199267D01*
X139124D01*
X138992Y199213D01*
X136598D01*
X136466Y199267D01*
X135975D01*
X135843Y199213D01*
X134755D01*
X134564Y199674D01*
X134918Y200029D01*
X135348Y200129D01*
X135520Y200133D01*
X135975Y199945D01*
X136466D01*
X136920Y200133D01*
X137268Y200481D01*
X137456Y200935D01*
Y201427D01*
X137268Y201881D01*
X136920Y202229D01*
X136466Y202417D01*
X135975D01*
X135692Y202300D01*
X135192Y202553D01*
Y204663D01*
X139190Y208661D01*
X144396D01*
X144622Y208180D01*
X144433Y207726D01*
Y207235D01*
X144622Y206780D01*
X144969Y206433D01*
X145423Y206244D01*
X145915D01*
X146369Y206433D01*
X146717Y206780D01*
X146905Y207235D01*
Y207726D01*
X146717Y208180D01*
X146943Y208661D01*
X150394D01*
X152362Y206693D01*
D02*
G37*
G36*
X135518Y208200D02*
X133770Y206452D01*
X132451D01*
X132212Y206404D01*
X132010Y206269D01*
X132010Y206269D01*
X131133Y205392D01*
X130997Y205190D01*
X130950Y204951D01*
X130950Y204951D01*
Y199213D01*
X130299D01*
X130167Y199267D01*
X129675D01*
X129543Y199213D01*
X127149D01*
X127017Y199267D01*
X126526D01*
X126394Y199213D01*
X124000D01*
X123868Y199267D01*
X123376D01*
X123244Y199213D01*
X122749D01*
Y200200D01*
X122559Y200659D01*
X120624Y202595D01*
X120667Y202822D01*
X120798Y203128D01*
X121172Y203283D01*
X121520Y203631D01*
X121708Y204085D01*
Y204576D01*
X121520Y205031D01*
X121172Y205378D01*
X120718Y205567D01*
X120227D01*
X119772Y205378D01*
X119425Y205031D01*
X119237Y204576D01*
Y204085D01*
X119348Y203816D01*
X119294Y203713D01*
X118803Y203497D01*
X115714Y203514D01*
X115380Y204016D01*
X115409Y204085D01*
Y204576D01*
X115221Y205031D01*
X114873Y205378D01*
X114419Y205567D01*
X113927D01*
X113473Y205378D01*
X113126Y205031D01*
X112937Y204576D01*
Y204085D01*
X112961Y204029D01*
X112626Y203530D01*
X109429Y203548D01*
X109095Y204049D01*
X109110Y204085D01*
Y204576D01*
X108922Y205031D01*
X108574Y205378D01*
X108120Y205567D01*
X107628D01*
X107174Y205378D01*
X106826Y205031D01*
X106638Y204576D01*
Y204085D01*
X106647Y204063D01*
X106313Y203565D01*
X103150Y203582D01*
Y207480D01*
X104331Y208661D01*
X106600D01*
X106826Y208180D01*
X106638Y207726D01*
Y207235D01*
X106826Y206780D01*
X107174Y206433D01*
X107628Y206244D01*
X108120D01*
X108574Y206433D01*
X108922Y206780D01*
X109110Y207235D01*
Y207726D01*
X108922Y208180D01*
X109148Y208661D01*
X119199D01*
X119425Y208180D01*
X119237Y207726D01*
Y207235D01*
X119425Y206780D01*
X119772Y206433D01*
X120227Y206244D01*
X120718D01*
X121172Y206433D01*
X121520Y206780D01*
X121708Y207235D01*
Y207726D01*
X121520Y208180D01*
X121746Y208661D01*
X122348D01*
X122574Y208180D01*
X122386Y207726D01*
Y207235D01*
X122574Y206780D01*
X122922Y206433D01*
X123376Y206244D01*
X123817D01*
X123996Y206047D01*
X124008Y206029D01*
X123981Y205939D01*
X123712Y205567D01*
X123376D01*
X122922Y205378D01*
X122574Y205031D01*
X122386Y204576D01*
Y204085D01*
X122574Y203631D01*
X122922Y203283D01*
X123376Y203095D01*
X123868D01*
X124047Y203169D01*
X124547Y202855D01*
Y202756D01*
X124738Y202297D01*
X125557Y201478D01*
X125536Y201427D01*
Y200935D01*
X125724Y200481D01*
X126072Y200133D01*
X126526Y199945D01*
X127017D01*
X127472Y200133D01*
X127819Y200481D01*
X128007Y200935D01*
Y201427D01*
X127819Y201881D01*
X127472Y202229D01*
X127017Y202417D01*
X126576D01*
X126398Y202614D01*
X126386Y202633D01*
X126413Y202722D01*
X126682Y203095D01*
X127017D01*
X127472Y203283D01*
X127819Y203631D01*
X128007Y204085D01*
Y204576D01*
X127819Y205031D01*
X127472Y205378D01*
X127017Y205567D01*
X126526D01*
X126346Y205492D01*
X125846Y205806D01*
Y205906D01*
X125656Y206365D01*
X124837Y207184D01*
X124858Y207235D01*
Y207726D01*
X124670Y208180D01*
X124896Y208661D01*
X135326D01*
X135518Y208200D01*
D02*
G37*
G36*
X156890Y329528D02*
X156890Y306299D01*
X111614Y306299D01*
X111614Y329528D01*
X156890Y329528D01*
D02*
G37*
%LPC*%
G36*
X197096Y194937D02*
X196605D01*
X196150Y194748D01*
X195803Y194401D01*
X195615Y193947D01*
Y193455D01*
X195803Y193001D01*
X196150Y192653D01*
X196605Y192465D01*
X197096D01*
X197550Y192653D01*
X197898Y193001D01*
X198086Y193455D01*
Y193947D01*
X197898Y194401D01*
X197550Y194748D01*
X197096Y194937D01*
D02*
G37*
G36*
X203395Y185488D02*
X202904D01*
X202450Y185300D01*
X202102Y184952D01*
X201914Y184498D01*
Y184006D01*
X202102Y183552D01*
X202450Y183204D01*
X202904Y183016D01*
X203395D01*
X203850Y183204D01*
X204197Y183552D01*
X204385Y184006D01*
Y184498D01*
X204197Y184952D01*
X203850Y185300D01*
X203395Y185488D01*
D02*
G37*
G36*
Y182338D02*
X202904D01*
X202450Y182150D01*
X202102Y181802D01*
X201914Y181348D01*
Y180857D01*
X202102Y180402D01*
X202450Y180055D01*
X202904Y179867D01*
X203395D01*
X203850Y180055D01*
X204197Y180402D01*
X204385Y180857D01*
Y181348D01*
X204197Y181802D01*
X203850Y182150D01*
X203395Y182338D01*
D02*
G37*
G36*
X200246D02*
X199754D01*
X199300Y182150D01*
X198952Y181802D01*
X198764Y181348D01*
Y180857D01*
X198952Y180402D01*
X199300Y180055D01*
X199754Y179867D01*
X200246D01*
X200700Y180055D01*
X201048Y180402D01*
X201236Y180857D01*
Y181348D01*
X201048Y181802D01*
X200700Y182150D01*
X200246Y182338D01*
D02*
G37*
G36*
X203395Y179189D02*
X202904D01*
X202450Y179000D01*
X202102Y178653D01*
X201914Y178199D01*
Y177707D01*
X202102Y177253D01*
X202450Y176905D01*
X202904Y176717D01*
X203395D01*
X203850Y176905D01*
X204197Y177253D01*
X204385Y177707D01*
Y178199D01*
X204197Y178653D01*
X203850Y179000D01*
X203395Y179189D01*
D02*
G37*
G36*
X145915Y205567D02*
X145423D01*
X144969Y205378D01*
X144622Y205031D01*
X144433Y204576D01*
Y204085D01*
X144622Y203631D01*
X144969Y203283D01*
X145423Y203095D01*
X145915D01*
X146369Y203283D01*
X146717Y203631D01*
X146905Y204085D01*
Y204576D01*
X146717Y205031D01*
X146369Y205378D01*
X145915Y205567D01*
D02*
G37*
G36*
X139616D02*
X139124D01*
X138670Y205378D01*
X138322Y205031D01*
X138134Y204576D01*
Y204085D01*
X138322Y203631D01*
X138670Y203283D01*
X139124Y203095D01*
X139616D01*
X140070Y203283D01*
X140418Y203631D01*
X140606Y204085D01*
Y204576D01*
X140418Y205031D01*
X140070Y205378D01*
X139616Y205567D01*
D02*
G37*
G36*
X145915Y202417D02*
X145423D01*
X144969Y202229D01*
X144622Y201881D01*
X144433Y201427D01*
Y200935D01*
X144622Y200481D01*
X144969Y200133D01*
X145423Y199945D01*
X145915D01*
X146369Y200133D01*
X146717Y200481D01*
X146905Y200935D01*
Y201427D01*
X146717Y201881D01*
X146369Y202229D01*
X145915Y202417D01*
D02*
G37*
%LPD*%
D14*
X127650Y178300D02*
G03*
X128150Y178800I0J500D01*
G01*
X128570Y179220D02*
G03*
X128150Y178800I0J-420D01*
G01*
X129350D02*
G03*
X128930Y179220I-420J0D01*
G01*
X129350Y178244D02*
G03*
X129770Y177824I420J0D01*
G01*
X130130D02*
G03*
X130550Y178244I0J420D01*
G01*
X130970Y179948D02*
G03*
X130550Y179528I0J-420D01*
G01*
X131750D02*
G03*
X131330Y179948I-420J0D01*
G01*
X131750Y177927D02*
G03*
X132170Y177507I420J0D01*
G01*
X132530D02*
G03*
X132950Y177927I0J420D01*
G01*
X133370Y179948D02*
G03*
X132950Y179528I0J-420D01*
G01*
X134150D02*
G03*
X133730Y179948I-420J0D01*
G01*
X134150Y177927D02*
G03*
X134570Y177507I420J0D01*
G01*
X134930D02*
G03*
X135350Y177927I0J420D01*
G01*
X135770Y179948D02*
G03*
X135350Y179528I0J-420D01*
G01*
X136550D02*
G03*
X136130Y179948I-420J0D01*
G01*
X136550Y177927D02*
G03*
X136970Y177507I420J0D01*
G01*
X137330D02*
G03*
X137750Y177927I0J420D01*
G01*
X138170Y179948D02*
G03*
X137750Y179528I0J-420D01*
G01*
X138950D02*
G03*
X138530Y179948I-420J0D01*
G01*
X138950Y177927D02*
G03*
X139370Y177507I420J0D01*
G01*
X139730D02*
G03*
X140150Y177927I0J420D01*
G01*
X140570Y179948D02*
G03*
X140150Y179528I0J-420D01*
G01*
X141350D02*
G03*
X140930Y179948I-420J0D01*
G01*
X141350Y177927D02*
G03*
X141770Y177507I420J0D01*
G01*
X142130D02*
G03*
X142550Y177927I0J420D01*
G01*
X142970Y179948D02*
G03*
X142550Y179528I0J-420D01*
G01*
X143750D02*
G03*
X143330Y179948I-420J0D01*
G01*
X143750Y177927D02*
G03*
X144170Y177507I420J0D01*
G01*
X144530D02*
G03*
X144950Y177927I0J420D01*
G01*
X145370Y179948D02*
G03*
X144950Y179528I0J-420D01*
G01*
X146150D02*
G03*
X145730Y179948I-420J0D01*
G01*
X146150Y178800D02*
G03*
X146650Y178300I500J0D01*
G01*
X168851Y181608D02*
G03*
X169704Y181254I500J0D01*
G01*
X168851Y181608D02*
G03*
X168395Y182063I-455J0D01*
G01*
X168005D02*
G03*
X167551Y181608I0J-455D01*
G01*
X167095Y180342D02*
G03*
X167551Y180798I0J455D01*
G01*
X166251D02*
G03*
X166705Y180342I455J0D01*
G01*
X166251Y181491D02*
G03*
X165796Y181946I-455J0D01*
G01*
X165405D02*
G03*
X164951Y181491I0J-455D01*
G01*
X164496Y180289D02*
G03*
X164951Y180744I0J455D01*
G01*
X163651D02*
G03*
X164105Y180289I455J0D01*
G01*
X163651Y181748D02*
G03*
X163196Y182203I-455J0D01*
G01*
X162805D02*
G03*
X162350Y181748I0J-455D01*
G01*
X161896Y180289D02*
G03*
X162350Y180744I0J455D01*
G01*
X161050D02*
G03*
X161505Y180289I455J0D01*
G01*
X161050Y181748D02*
G03*
X160596Y182203I-455J0D01*
G01*
X160205D02*
G03*
X159750Y181748I0J-455D01*
G01*
X159295Y180288D02*
G03*
X159750Y180743I0J455D01*
G01*
X158450D02*
G03*
X158905Y180288I455J0D01*
G01*
X158450Y181361D02*
G03*
X157995Y181816I-455J0D01*
G01*
X157605D02*
G03*
X157150Y181361I0J-455D01*
G01*
X156695Y179910D02*
G03*
X157150Y180365I0J455D01*
G01*
X155851D02*
G03*
X156305Y179910I455J0D01*
G01*
X155851Y181336D02*
G03*
X155395Y181791I-455J0D01*
G01*
X155005D02*
G03*
X154551Y181336I0J-455D01*
G01*
X154095Y179910D02*
G03*
X154551Y180365I0J455D01*
G01*
X153251D02*
G03*
X153705Y179910I455J0D01*
G01*
X153251Y181336D02*
G03*
X152796Y181791I-455J0D01*
G01*
X152405D02*
G03*
X151951Y181336I0J-455D01*
G01*
X151496Y179910D02*
G03*
X151951Y180365I0J455D01*
G01*
X150651D02*
G03*
X151105Y179910I455J0D01*
G01*
X150651Y181336D02*
G03*
X150196Y181791I-455J0D01*
G01*
X149805D02*
G03*
X149351Y181336I0J-455D01*
G01*
X148896Y179910D02*
G03*
X149351Y180365I0J455D01*
G01*
X148050D02*
G03*
X148505Y179910I455J0D01*
G01*
X148050Y181748D02*
G03*
X147596Y182203I-455J0D01*
G01*
X147205D02*
G03*
X146750Y181748I0J-455D01*
G01*
X146250Y180798D02*
G03*
X146750Y181298I0J500D01*
G01*
X171567Y189034D02*
G03*
X171920Y188887I354J353D01*
G01*
X169353Y191248D02*
G03*
X168808Y191248I-272J-272D01*
G01*
X168575Y191015D02*
G03*
X168575Y190470I272J-272D01*
G01*
X170326Y188175D02*
G03*
X170326Y188719I-272J272D01*
G01*
X169548Y187942D02*
G03*
X170092Y187942I272J272D01*
G01*
X166068Y191421D02*
G03*
X165524Y191421I-272J-272D01*
G01*
X165291Y191188D02*
G03*
X165291Y190643I272J-272D01*
G01*
X169144Y186246D02*
G03*
X169144Y186790I-272J272D01*
G01*
X168366Y186012D02*
G03*
X168910Y186012I272J272D01*
G01*
X166034Y188344D02*
G03*
X165489Y188344I-272J-272D01*
G01*
X165256Y188111D02*
G03*
X165256Y187567I272J-272D01*
G01*
X167588Y184690D02*
G03*
X167588Y185234I-272J272D01*
G01*
X166810Y184457D02*
G03*
X167355Y184457I272J272D01*
G01*
X165736Y185531D02*
G03*
X165191Y185531I-272J-272D01*
G01*
X164958Y185298D02*
G03*
X164958Y184753I272J-272D01*
G01*
X164394Y183903D02*
G03*
X164958Y184753I-63J654D01*
G01*
X141550Y187065D02*
G03*
X141903Y186919I354J353D01*
G01*
X137229Y191386D02*
G03*
X136684Y191386I-272J-272D01*
G01*
X136451Y191153D02*
G03*
X136451Y190608I272J-272D01*
G01*
X140762Y185753D02*
G03*
X140762Y186298I-272J272D01*
G01*
X139984Y185520D02*
G03*
X140528Y185520I272J272D01*
G01*
X135722Y189781D02*
G03*
X135178Y189781I-272J-272D01*
G01*
X134945Y189548D02*
G03*
X134945Y189003I272J-272D01*
G01*
X138512Y184729D02*
G03*
X138512Y185436I-354J353D01*
G01*
X134414Y182998D02*
G03*
X134914Y182498I500J0D01*
G01*
X134414Y183562D02*
G03*
X134029Y183947I-385J0D01*
G01*
X133699D02*
G03*
X133314Y183562I0J-385D01*
G01*
X132929Y182498D02*
G03*
X133314Y182883I0J385D01*
G01*
X132214D02*
G03*
X132599Y182498I385J0D01*
G01*
X132214Y183804D02*
G03*
X131829Y184189I-385J0D01*
G01*
X131499D02*
G03*
X131114Y183804I0J-385D01*
G01*
X130729Y182498D02*
G03*
X131114Y182883I0J385D01*
G01*
X130014D02*
G03*
X130399Y182498I385J0D01*
G01*
X130014Y183562D02*
G03*
X129629Y183947I-385J0D01*
G01*
X129299D02*
G03*
X128914Y183562I0J-385D01*
G01*
X128529Y182498D02*
G03*
X128914Y182883I0J385D01*
G01*
X127814D02*
G03*
X128199Y182498I385J0D01*
G01*
X127814Y183562D02*
G03*
X127429Y183947I-385J0D01*
G01*
X127099D02*
G03*
X126714Y183562I0J-385D01*
G01*
X126214Y182498D02*
G03*
X126714Y182998I0J500D01*
G01*
X158393Y183553D02*
G03*
X158893Y183053I500J0D01*
G01*
X158393Y185405D02*
G03*
X157973Y185825I-420J0D01*
G01*
X157613D02*
G03*
X157193Y185405I0J-420D01*
G01*
X156772Y182641D02*
G03*
X157193Y183061I0J420D01*
G01*
X155992D02*
G03*
X156412Y182641I420J0D01*
G01*
X155992Y186541D02*
G03*
X155572Y186961I-420J0D01*
G01*
X155212D02*
G03*
X154792Y186541I0J-420D01*
G01*
X154373Y182641D02*
G03*
X154792Y183061I0J420D01*
G01*
X153593D02*
G03*
X154013Y182641I420J0D01*
G01*
X153593Y186541D02*
G03*
X153173Y186961I-420J0D01*
G01*
X152813D02*
G03*
X152392Y186541I0J-420D01*
G01*
X151972Y182641D02*
G03*
X152392Y183061I0J420D01*
G01*
X151192D02*
G03*
X151612Y182641I420J0D01*
G01*
X151192Y186541D02*
G03*
X150773Y186961I-420J0D01*
G01*
X150412D02*
G03*
X149993Y186541I0J-420D01*
G01*
X149573Y182641D02*
G03*
X149993Y183061I0J420D01*
G01*
X148793D02*
G03*
X149213Y182641I420J0D01*
G01*
X148793Y186295D02*
G03*
X148372Y186715I-420J0D01*
G01*
X148012D02*
G03*
X147592Y186295I0J-420D01*
G01*
X147092Y183053D02*
G03*
X147592Y183553I0J500D01*
G01*
X153457Y195865D02*
G03*
X153957Y195365I500J0D01*
G01*
X153457Y196516D02*
G03*
X153002Y196971I-455J0D01*
G01*
X152612D02*
G03*
X152157Y196516I0J-455D01*
G01*
X151702Y194404D02*
G03*
X152157Y194859I0J455D01*
G01*
X150857D02*
G03*
X151312Y194404I455J0D01*
G01*
X150857Y196906D02*
G03*
X150402Y197361I-455J0D01*
G01*
X150012D02*
G03*
X149557Y196906I0J-455D01*
G01*
X149102Y194404D02*
G03*
X149557Y194859I0J455D01*
G01*
X148257D02*
G03*
X148712Y194404I455J0D01*
G01*
X148257Y196906D02*
G03*
X147802Y197361I-455J0D01*
G01*
X147412D02*
G03*
X146957Y196906I0J-455D01*
G01*
X146502Y194404D02*
G03*
X146957Y194859I0J455D01*
G01*
X145657D02*
G03*
X146112Y194404I455J0D01*
G01*
X145657Y196906D02*
G03*
X145202Y197361I-455J0D01*
G01*
X144812D02*
G03*
X144357Y196906I0J-455D01*
G01*
X143902Y194404D02*
G03*
X144357Y194859I0J455D01*
G01*
X143057D02*
G03*
X143512Y194404I455J0D01*
G01*
X143057Y196906D02*
G03*
X142602Y197361I-455J0D01*
G01*
X142212D02*
G03*
X141757Y196906I0J-455D01*
G01*
X141302Y194404D02*
G03*
X141757Y194859I0J455D01*
G01*
X140457D02*
G03*
X140912Y194404I455J0D01*
G01*
X140457Y196091D02*
G03*
X140002Y196546I-455J0D01*
G01*
X139612D02*
G03*
X139157Y196091I0J-455D01*
G01*
X138702Y194404D02*
G03*
X139157Y194859I0J455D01*
G01*
X137857D02*
G03*
X138312Y194404I455J0D01*
G01*
X137857Y196091D02*
G03*
X137402Y196546I-455J0D01*
G01*
X137012D02*
G03*
X136557Y196091I0J-455D01*
G01*
X136102Y194404D02*
G03*
X136557Y194859I0J455D01*
G01*
X135257D02*
G03*
X135712Y194404I455J0D01*
G01*
X135257Y195218D02*
G03*
X134802Y195673I-455J0D01*
G01*
X134412D02*
G03*
X133957Y195218I0J-455D01*
G01*
X133502Y194404D02*
G03*
X133957Y194859I0J455D01*
G01*
X132657D02*
G03*
X133112Y194404I455J0D01*
G01*
X132657Y195218D02*
G03*
X132202Y195673I-455J0D01*
G01*
X131812D02*
G03*
X131357Y195218I0J-455D01*
G01*
X130902Y194404D02*
G03*
X131357Y194859I0J455D01*
G01*
X130057D02*
G03*
X130512Y194404I455J0D01*
G01*
X130057Y196091D02*
G03*
X129602Y196546I-455J0D01*
G01*
X129212D02*
G03*
X128757Y196091I0J-455D01*
G01*
X128302Y194404D02*
G03*
X128757Y194859I0J455D01*
G01*
X127457D02*
G03*
X127912Y194404I455J0D01*
G01*
X127457Y196091D02*
G03*
X127002Y196546I-455J0D01*
G01*
X126612D02*
G03*
X126157Y196091I0J-455D01*
G01*
X125702Y194347D02*
G03*
X126157Y194802I0J455D01*
G01*
X124857D02*
G03*
X125312Y194347I455J0D01*
G01*
X124857Y196091D02*
G03*
X124402Y196546I-455J0D01*
G01*
X124012D02*
G03*
X123557Y196091I0J-455D01*
G01*
X123057Y195365D02*
G03*
X123557Y195865I0J500D01*
G01*
X174803Y181102D02*
X176289Y179616D01*
X175241Y176289D02*
X176289Y177337D01*
Y179616D01*
X174188Y176289D02*
X175241D01*
X173139Y175241D02*
X174188Y176289D01*
X173139Y173139D02*
Y175241D01*
X171653Y171653D02*
X173139Y173139D01*
X278408Y144085D02*
X278740Y143753D01*
Y138382D02*
Y143753D01*
X278408Y144085D02*
Y144281D01*
X276690Y146000D02*
X278408Y144281D01*
X276493Y146000D02*
X276690D01*
X274410Y129528D02*
Y136221D01*
X275590Y137402D02*
X277760D01*
X274410Y136221D02*
X275590Y137402D01*
X277760D02*
X278740Y138382D01*
X272441Y104724D02*
Y127559D01*
X274410Y129528D01*
X272441Y104724D02*
X275286Y101880D01*
Y94307D02*
Y101880D01*
Y94307D02*
X276093Y93500D01*
X276387Y156309D02*
Y180699D01*
X275514Y155435D02*
X276387Y156309D01*
X275514Y149864D02*
Y155435D01*
X274315Y182771D02*
Y187777D01*
Y182771D02*
X276387Y180699D01*
X274315Y187777D02*
X279230Y192692D01*
X278008Y197085D02*
X279230Y195863D01*
Y192692D02*
Y195863D01*
X276578Y198515D02*
X276775D01*
X278008Y197282D01*
Y197085D02*
Y197282D01*
X275286Y199807D02*
X276578Y198515D01*
X275514Y149864D02*
X276493Y148886D01*
Y146000D02*
Y148886D01*
X272184Y244488D02*
X275596Y247900D01*
X266535Y244488D02*
X272184D01*
X275596Y247900D02*
X275793D01*
X272835Y206693D02*
Y229528D01*
X269210Y233152D02*
X272835Y229528D01*
Y206693D02*
X275286Y204242D01*
Y202978D02*
Y204242D01*
X275286Y199807D02*
Y202978D01*
X269210Y233152D02*
Y235700D01*
X265748Y239162D02*
X269210Y235700D01*
X265748Y239162D02*
Y243701D01*
X266535Y244488D01*
X314500Y229740D02*
Y233284D01*
X308400Y229740D02*
Y233284D01*
X302300Y230134D02*
Y233284D01*
X296300Y230134D02*
Y233284D01*
X311417Y236564D02*
Y242867D01*
X312782Y235200D02*
X312782D01*
X311417Y236564D02*
X312782Y235200D01*
X312782D02*
X314500Y233481D01*
X309796Y244488D02*
X311417Y242867D01*
X275794Y238367D02*
X281915Y244488D01*
X309796D01*
X299731Y242742D02*
X300582Y241893D01*
X288570Y242742D02*
X299731D01*
X300582Y241696D02*
Y241893D01*
Y241696D02*
X302300Y239977D01*
X286213Y240386D02*
X288570Y242742D01*
X304981Y243593D02*
X308400Y240174D01*
X283121Y243593D02*
X304981D01*
X279914Y240386D02*
X283121Y243593D01*
X308400Y239977D02*
Y240174D01*
X314500Y233284D02*
Y233481D01*
X284207Y238773D02*
X295096D01*
X296300Y239977D01*
X275794Y238234D02*
Y238367D01*
X312800Y176397D02*
Y179941D01*
X306700Y176397D02*
Y179941D01*
X300600Y176791D02*
Y179941D01*
X294600Y176791D02*
Y179941D01*
X275801Y185776D02*
X281124Y191099D01*
X303634D01*
X309842Y183095D02*
Y189370D01*
Y183095D02*
X312800Y180138D01*
Y179941D02*
Y180138D01*
X303634Y191099D02*
X308113D01*
X309842Y189370D01*
X303634Y191099D02*
X303634Y191099D01*
X303281Y190249D02*
X304981Y188549D01*
X304981D01*
X282375Y190249D02*
X303281D01*
X279921Y187795D02*
X282375Y190249D01*
X304981Y188549D02*
X306700Y186831D01*
Y186634D02*
Y186831D01*
X297835Y189399D02*
X298685Y188549D01*
X298882D02*
X300600Y186831D01*
Y186634D02*
Y186831D01*
X298685Y188549D02*
X298882D01*
X287824Y189399D02*
X297835D01*
X286221Y187795D02*
X287824Y189399D01*
X284214Y186182D02*
X294149D01*
X294600Y186634D01*
X275801Y185644D02*
Y185776D01*
X312800Y124409D02*
Y127954D01*
X306700Y124409D02*
Y127954D01*
X300600Y124803D02*
Y127954D01*
X294600Y124803D02*
Y127954D01*
X309842Y131203D02*
X311082Y129965D01*
X309842Y131203D02*
Y136486D01*
X307217Y139112D02*
X309842Y136486D01*
X311082Y129672D02*
Y129965D01*
Y129672D02*
X312800Y127954D01*
X280672Y139112D02*
X307217D01*
X276870Y135309D02*
X280672Y139112D01*
X281963Y138262D02*
X303281D01*
X306700Y134843D01*
X279528Y135827D02*
X281963Y138262D01*
X306700Y134646D02*
Y134843D01*
X298031Y137412D02*
X300600Y134843D01*
X283475Y137412D02*
X298031D01*
X300600Y134646D02*
Y134843D01*
X282283Y136221D02*
X283475Y137412D01*
X284347Y134646D02*
X294599D01*
X294600Y134646D01*
X283391Y202362D02*
X283651Y202103D01*
X276772Y202362D02*
X283391D01*
X253348Y99352D02*
X255648D01*
X257200Y97800D01*
X269400Y93500D02*
X273800Y97900D01*
Y97908D01*
X277000Y97882D02*
X282771D01*
X283900Y96754D01*
X256248Y152152D02*
X257800Y150600D01*
X253948Y152152D02*
X256248D01*
X253948Y204552D02*
X256248D01*
X257800Y203000D02*
X257800D01*
X256248Y204552D02*
X257800Y203000D01*
X253300Y205200D02*
X253948Y204552D01*
X269400Y199000D02*
X273503Y203103D01*
X273800D01*
X276400Y254700D02*
X278700Y252400D01*
X282147D01*
X282600Y252853D01*
X252894Y256706D02*
X256293D01*
X257398Y255600D01*
X252800Y256800D02*
X252894Y256706D01*
X257398Y255600D02*
X257500D01*
X273800Y252600D02*
Y255700D01*
X269100Y247900D02*
X273800Y252600D01*
X189238Y193701D02*
X190551D01*
Y209449D02*
Y219946D01*
X97805Y313591D02*
X189065Y222331D01*
Y221432D02*
X190551Y219946D01*
X189065Y221432D02*
Y222331D01*
X198575Y201937D02*
X199900Y203262D01*
X64684Y331691D02*
X81934Y314441D01*
X98157D01*
X64684Y331691D02*
X64684D01*
X66584Y313591D02*
X97805D01*
X98157Y314441D02*
X190551Y222047D01*
X196850Y172450D02*
Y177953D01*
X195300Y173500D02*
Y179552D01*
X196850Y181102D01*
X125197Y202756D02*
Y205906D01*
X123622Y207480D02*
X125197Y205906D01*
Y202756D02*
X126772Y201181D01*
X112900Y178300D02*
X125817D01*
X127650D01*
X128150Y178800D02*
Y178800D01*
X128570Y179220D02*
X128930D01*
X129350Y178244D02*
Y178800D01*
X129770Y177824D02*
X130130D01*
X130550Y178244D02*
Y179528D01*
X130970Y179948D02*
X131330D01*
X131750Y177927D02*
Y179528D01*
X132170Y177507D02*
X132530D01*
X132950Y177927D02*
Y179528D01*
X133370Y179948D02*
X133730D01*
X134150Y177927D02*
Y179528D01*
X134570Y177507D02*
X134930D01*
X135350Y177927D02*
Y179528D01*
X135770Y179948D02*
X136130D01*
X136550Y177927D02*
Y179528D01*
X136970Y177507D02*
X137330D01*
X137750Y177927D02*
Y179528D01*
X138170Y179948D02*
X138530D01*
X138950Y177927D02*
Y179528D01*
X139370Y177507D02*
X139730D01*
X140150Y177927D02*
Y179528D01*
X140570Y179948D02*
X140930D01*
X141350Y177927D02*
Y179528D01*
X141770Y177507D02*
X142130D01*
X142550Y177927D02*
Y179528D01*
X142970Y179948D02*
X143330D01*
X143750Y177927D02*
Y179528D01*
X144170Y177507D02*
X144530D01*
X144950Y177927D02*
Y179528D01*
X145370Y179948D02*
X145730D01*
X146150Y178800D02*
Y179528D01*
X146650Y178300D02*
X157700D01*
X158645D01*
X125440Y180798D02*
X146000D01*
X169704Y181254D02*
X171085Y182635D01*
X168851Y181608D02*
Y181608D01*
X168005Y182063D02*
X168395D01*
X167551Y180798D02*
Y181608D01*
X166705Y180342D02*
X167095D01*
X166251Y180798D02*
Y181491D01*
X165405Y181946D02*
X165796D01*
X164951Y180744D02*
Y181491D01*
X164105Y180289D02*
X164496D01*
X163651Y180744D02*
Y181748D01*
X162805Y182203D02*
X163196D01*
X162350Y180744D02*
Y181748D01*
X161505Y180289D02*
X161896D01*
X161050Y180744D02*
Y181748D01*
X160205Y182203D02*
X160596D01*
X159750Y180743D02*
Y181748D01*
X158905Y180288D02*
X159295D01*
X158450Y180743D02*
Y181361D01*
X157605Y181816D02*
X157995D01*
X157150Y180365D02*
Y181361D01*
X156305Y179910D02*
X156695D01*
X155851Y180365D02*
Y181336D01*
X155005Y181791D02*
X155395D01*
X154551Y180365D02*
Y181336D01*
X153705Y179910D02*
X154095D01*
X153251Y180365D02*
Y181336D01*
X152405Y181791D02*
X152796D01*
X151951Y180365D02*
Y181336D01*
X151105Y179910D02*
X151496D01*
X150651Y180365D02*
Y181336D01*
X149805Y181791D02*
X150196D01*
X149351Y180365D02*
Y181336D01*
X148505Y179910D02*
X148896D01*
X148050Y180365D02*
Y181748D01*
X147205Y182203D02*
X147596D01*
X146750Y181298D02*
Y181748D01*
X146000Y180798D02*
X146250D01*
X171085Y182635D02*
X171216Y182766D01*
X171920Y188887D02*
X173670D01*
X169353Y191248D02*
X171567Y189034D01*
X168575Y191015D02*
X168808Y191248D01*
X168575Y190470D02*
X170326Y188719D01*
X170092Y187942D02*
X170326Y188175D01*
X166068Y191421D02*
X169548Y187942D01*
X165291Y191188D02*
X165524Y191421D01*
X165291Y190643D02*
X169144Y186790D01*
X168910Y186012D02*
X169144Y186246D01*
X166034Y188344D02*
X168366Y186012D01*
X165256Y188111D02*
X165489Y188344D01*
X165256Y187567D02*
X167588Y185234D01*
X167355Y184457D02*
X167588Y184690D01*
X165736Y185531D02*
X166810Y184457D01*
X165191Y185531D02*
Y185531D01*
X164958Y185298D02*
X165191Y185531D01*
X164040Y183903D02*
X164394D01*
X173670Y188887D02*
X176467D01*
X159608Y183903D02*
X164040D01*
X143903Y186919D02*
X146594D01*
X141903D02*
X143903D01*
X137229Y191386D02*
X141550Y187065D01*
X136451Y191153D02*
X136684Y191386D01*
X136451Y190608D02*
X140762Y186298D01*
X140528Y185520D02*
X140762Y185753D01*
X135722Y189781D02*
X139984Y185520D01*
X134945Y189548D02*
X135178Y189781D01*
X134945Y189003D02*
X138512Y185436D01*
X138512Y185436D02*
X138512Y185436D01*
X136780Y182996D02*
X138512Y184729D01*
X136281Y182498D02*
X136780Y182996D01*
X136053Y182498D02*
X136281D01*
X134914D02*
X136053D01*
X134414Y182998D02*
Y183562D01*
X133699Y183947D02*
X134029D01*
X133314Y182883D02*
Y183562D01*
X132599Y182498D02*
X132929D01*
X132214Y182883D02*
Y183804D01*
X131499Y184189D02*
X131829D01*
X131114Y182883D02*
Y183804D01*
X130399Y182498D02*
X130729D01*
X130014Y182883D02*
Y183562D01*
X129299Y183947D02*
X129629D01*
X128914Y182883D02*
Y183562D01*
X128199Y182498D02*
X128529D01*
X127814Y182883D02*
Y183562D01*
X127099Y183947D02*
X127429D01*
X126714Y182998D02*
Y183562D01*
X123836Y182498D02*
X126214D01*
X123764Y182425D02*
X123836Y182498D01*
X123622Y182283D02*
X123764Y182425D01*
X146594Y186919D02*
X147486Y187811D01*
X138755Y183769D02*
X139986D01*
X125087Y181648D02*
X136633D01*
X138755Y183769D01*
X118985Y184820D02*
X123007Y180798D01*
X159242Y184269D02*
Y186658D01*
Y184269D02*
X159608Y183903D01*
X147486Y187811D02*
X158089D01*
X159242Y186658D01*
X158893Y183053D02*
X161781D01*
X158393Y183553D02*
Y185405D01*
X157613Y185825D02*
X157973D01*
X157193Y183061D02*
Y185405D01*
X156412Y182641D02*
X156772D01*
X155992Y183061D02*
Y186541D01*
X155212Y186961D02*
X155572D01*
X154792Y183061D02*
Y186541D01*
X154013Y182641D02*
X154373D01*
X153593Y183061D02*
Y186541D01*
X152813Y186961D02*
X153173D01*
X152392Y183061D02*
Y186541D01*
X151612Y182641D02*
X151972D01*
X151192Y183061D02*
Y186541D01*
X150412Y186961D02*
X150773D01*
X149993Y183061D02*
Y186541D01*
X149213Y182641D02*
X149573D01*
X148793Y183061D02*
Y186295D01*
X148012Y186715D02*
X148372D01*
X147592Y183553D02*
Y186295D01*
X142042Y183053D02*
X147092D01*
X167153D02*
X169900Y185800D01*
X161781Y183053D02*
X167153D01*
X176467Y188887D02*
X177953Y187402D01*
X182588Y198012D02*
X185776Y194825D01*
Y186276D02*
Y194825D01*
X182266Y182766D02*
X185776Y186276D01*
X124590Y179948D02*
X125440Y180798D01*
X139986Y183769D02*
X140702Y183053D01*
X124238Y180798D02*
X125087Y181648D01*
X121804Y180798D02*
X122654Y179948D01*
X124590D01*
X111024Y185433D02*
X115659Y180798D01*
X118985Y184820D02*
Y199519D01*
X123007Y180798D02*
X124238D01*
X115659Y180798D02*
X121804D01*
X158645Y178300D02*
X159784Y179439D01*
X106300Y184900D02*
X112900Y178300D01*
X140702Y183053D02*
X142042D01*
X117323Y201181D02*
X118985Y199519D01*
X101575Y201056D02*
X106300Y196331D01*
Y184900D02*
Y196331D01*
X159784Y179439D02*
X173317D01*
X174803Y177953D01*
X101575Y201056D02*
Y204331D01*
X171216Y182766D02*
X182266D01*
X182588Y198012D02*
Y201664D01*
X181102Y203150D02*
X182588Y201664D01*
X153957Y195365D02*
X162650D01*
X153457Y195865D02*
Y196516D01*
X152612Y196971D02*
X153002D01*
X152157Y194859D02*
Y196516D01*
X151312Y194404D02*
X151702D01*
X150857Y194859D02*
Y196906D01*
X150012Y197361D02*
X150402D01*
X149557Y194859D02*
Y196906D01*
X148712Y194404D02*
X149102D01*
X148257Y194859D02*
Y196906D01*
X147412Y197361D02*
X147802D01*
X146957Y194859D02*
Y196906D01*
X146112Y194404D02*
X146502D01*
X145657Y194859D02*
Y196906D01*
X144812Y197361D02*
X145202D01*
X144357Y194859D02*
Y196906D01*
X143512Y194404D02*
X143902D01*
X143057Y194859D02*
Y196906D01*
X142212Y197361D02*
X142602D01*
X141757Y194859D02*
Y196906D01*
X140912Y194404D02*
X141302D01*
X140457Y194859D02*
Y196091D01*
X139612Y196546D02*
X140002D01*
X139157Y194859D02*
Y196091D01*
X138312Y194404D02*
X138702D01*
X137857Y194859D02*
Y196091D01*
X137012Y196546D02*
X137402D01*
X136557Y194859D02*
Y196091D01*
X135712Y194404D02*
X136102D01*
X135257Y194859D02*
Y195218D01*
X134412Y195673D02*
X134802D01*
X133957Y194859D02*
Y195218D01*
X133112Y194404D02*
X133502D01*
X132657Y194859D02*
Y195218D01*
X131812Y195673D02*
X132202D01*
X131357Y194859D02*
Y195218D01*
X130512Y194404D02*
X130902D01*
X130057Y194859D02*
Y196091D01*
X129212Y196546D02*
X129602D01*
X128757Y194859D02*
Y196091D01*
X127912Y194404D02*
X128302D01*
X127457Y194859D02*
Y196091D01*
X126612Y196546D02*
X127002D01*
X126157Y194802D02*
Y196091D01*
X125312Y194347D02*
X125702D01*
X124857Y194802D02*
Y196091D01*
X124012Y196546D02*
X124402D01*
X123557Y195865D02*
Y196091D01*
X122928Y195365D02*
X123057D01*
X122307Y195986D02*
X122928Y195365D01*
X122100Y196193D02*
X122307Y195986D01*
X122100Y196193D02*
Y200200D01*
X119633Y202667D02*
X122100Y200200D01*
X116707Y202667D02*
X119633D01*
X115837Y199517D02*
Y201797D01*
Y199517D02*
X117323Y198032D01*
Y198031D02*
Y198032D01*
X115837Y201797D02*
X116707Y202667D01*
X168098Y200813D02*
Y203672D01*
X162650Y195365D02*
X168098Y200813D01*
Y203672D02*
X174803Y210376D01*
Y212598D01*
X169900Y185800D02*
X182650D01*
X184252Y187402D01*
D15*
X381890Y375748D02*
Y382835D01*
X386090Y355118D02*
Y362205D01*
X381890Y355118D02*
Y362205D01*
X386090Y326535D02*
Y333622D01*
X381890Y326535D02*
Y333622D01*
X386090Y305906D02*
Y312992D01*
X381890Y305906D02*
Y312992D01*
X386090Y277323D02*
Y284409D01*
X381890Y277323D02*
Y284409D01*
X386090Y256693D02*
Y263779D01*
X381890Y256693D02*
Y263779D01*
X386090Y228110D02*
Y235197D01*
X381890Y228110D02*
Y235197D01*
X386090Y207480D02*
Y214567D01*
X381890Y207480D02*
Y214567D01*
X386090Y178898D02*
Y185984D01*
X381890Y178898D02*
Y185984D01*
X386090Y158268D02*
Y165354D01*
X381890Y158268D02*
Y165354D01*
X386090Y129685D02*
Y136772D01*
X381890Y129685D02*
Y136772D01*
X386090Y109055D02*
Y116142D01*
X381890Y109055D02*
Y116142D01*
X386090Y80472D02*
Y87559D01*
X381890Y80472D02*
Y87559D01*
X386090Y59842D02*
Y66929D01*
X381890Y59842D02*
Y66929D01*
X386090Y31260D02*
Y38346D01*
X381890Y31260D02*
Y38346D01*
X386090Y10630D02*
Y17717D01*
X381890Y10630D02*
Y17717D01*
X44520Y138342D02*
Y149215D01*
X203691Y15450D02*
X212003Y23762D01*
X203691Y15108D02*
Y15450D01*
X203543Y14961D02*
X203691Y15108D01*
X212003Y23762D02*
X212200D01*
Y19038D02*
X212205Y19033D01*
Y14961D02*
Y19033D01*
X216804Y156761D02*
Y160733D01*
X224322Y163163D02*
Y169379D01*
X221700Y160738D02*
X221897D01*
X224322Y163163D01*
X222047Y171653D02*
X224322Y169379D01*
X216800Y160738D02*
X221700D01*
X211900D02*
X216800D01*
X213937Y184628D02*
X214134D01*
X214363Y184400D01*
X215600D01*
X212862Y185703D02*
Y185900D01*
Y185703D02*
X213937Y184628D01*
X215600Y184400D02*
X215748Y184252D01*
X212862Y185900D02*
Y190400D01*
X199734Y217039D02*
X201593Y218898D01*
X199300Y214362D02*
X199734Y214796D01*
X201593Y218898D02*
X206299D01*
X199734Y214796D02*
Y217039D01*
X194200Y214362D02*
X199497D01*
X203746Y199613D02*
X205125D01*
X203358Y200000D02*
X203746Y199613D01*
X205125D02*
X206200Y198538D01*
X203150Y200000D02*
X203358D01*
X203150Y206116D02*
X206003Y203262D01*
X203150Y206116D02*
Y206299D01*
X206003Y203262D02*
X206200D01*
X203150Y188013D02*
Y190551D01*
Y188013D02*
X203362Y187800D01*
X190550Y190550D02*
X190551Y190551D01*
X189476Y187800D02*
X190550Y188875D01*
Y190550D01*
X200000Y206299D02*
Y208938D01*
X199300Y209638D02*
X200000Y208938D01*
X193701Y209139D02*
X194200Y209638D01*
X193701Y206299D02*
Y209139D01*
X211900Y165462D02*
Y177076D01*
X208138Y180839D02*
Y185900D01*
Y180839D02*
X211900Y177076D01*
X208138Y185900D02*
Y190400D01*
X216800Y165462D02*
X221700D01*
X211900D02*
X216800D01*
X205182Y193553D02*
X208138Y190597D01*
Y190400D02*
Y190597D01*
X203297Y193553D02*
X205182D01*
X203150Y193701D02*
X203297Y193553D01*
X276703Y139439D02*
X276772Y139370D01*
X269932Y139439D02*
X276703D01*
X264072Y239282D02*
X268110Y235245D01*
Y211344D02*
Y235245D01*
X262604Y247900D02*
X264072Y246431D01*
Y239282D02*
Y246431D01*
X286614Y249213D02*
Y285827D01*
X315354Y314567D02*
Y316535D01*
X286614Y285827D02*
X315354Y314567D01*
X311331Y320559D02*
X315354Y316535D01*
X296967Y299016D02*
X313392Y315441D01*
X280906Y299016D02*
X296967D01*
X284646Y247244D02*
X286614Y249213D01*
X276449Y247244D02*
X284646D01*
X306176Y320559D02*
X311331D01*
X262407Y247900D02*
X262604D01*
X262904Y93500D02*
X266400Y96996D01*
Y103682D02*
X268110Y105392D01*
X266400Y96996D02*
Y103682D01*
X266535Y155118D02*
X268110Y156693D01*
X263304Y146000D02*
X266535Y149232D01*
Y155118D01*
X268110Y156693D02*
Y177953D01*
X266142Y179921D02*
Y195565D01*
Y179921D02*
X268110Y177953D01*
X262707Y199000D02*
X266142Y195565D01*
X264072Y253818D02*
X266081Y255826D01*
Y261913D02*
X267976Y263807D01*
X266081Y255826D02*
Y261913D01*
X267976Y286086D02*
X280906Y299016D01*
X267976Y263807D02*
Y286086D01*
X264072Y249369D02*
Y253818D01*
X262604Y247900D02*
X264072Y249369D01*
X266582Y209815D02*
X268110Y211344D01*
X266582Y202677D02*
Y209815D01*
X262904Y199000D02*
X266582Y202677D01*
X262707Y199000D02*
X262904D01*
X263107Y146000D02*
X263304D01*
X268110Y105392D02*
Y128150D01*
X269400Y100193D02*
X270079Y100872D01*
Y106119D02*
X270472Y106513D01*
X270079Y100872D02*
Y106119D01*
X263304Y146000D02*
X266142Y143162D01*
Y130118D02*
Y143162D01*
Y130118D02*
X268110Y128150D01*
X262707Y93500D02*
X262904D01*
X275793Y247900D02*
X276449Y247244D01*
X276290Y93500D02*
X277758Y92032D01*
X270774Y85433D02*
X286221D01*
X290551Y89764D01*
Y94882D01*
X269400Y86807D02*
X270774Y85433D01*
X313054Y241423D02*
X314500Y239977D01*
X308022Y247096D02*
X308744D01*
X313054Y242786D01*
X307874Y247244D02*
X308022Y247096D01*
X313054Y241423D02*
Y242786D01*
X312800Y186634D02*
Y192337D01*
X311811Y193326D02*
X312800Y192337D01*
X307480Y193326D02*
X311811D01*
X269232Y241339D02*
X276367D01*
X277235Y242207D02*
X277444D01*
X276667Y192439D02*
X277535Y193307D01*
X276367Y241339D02*
X277235Y242207D01*
X269531Y192439D02*
X276667D01*
X277535Y193307D02*
X277744D01*
X269100Y241207D02*
X269232Y241339D01*
X311630Y142307D02*
X312800Y141137D01*
X305780Y142307D02*
X311630D01*
X312800Y134646D02*
Y141137D01*
X306676Y100692D02*
Y118255D01*
X270472Y106513D02*
Y106775D01*
Y211707D02*
Y211970D01*
X269400Y205693D02*
Y210635D01*
X270472Y211707D01*
X269800Y152693D02*
Y158438D01*
X270472Y159110D01*
Y159372D01*
X283465Y156428D02*
X283900Y155993D01*
X283465Y156428D02*
Y159372D01*
Y103882D02*
Y106775D01*
Y103882D02*
X283900Y103446D01*
X263000Y129600D02*
X263500Y130100D01*
Y132205D01*
X263197Y101300D02*
X264272Y100225D01*
X264452Y98653D02*
Y99848D01*
Y98653D02*
X264600Y98505D01*
X263000Y101300D02*
X263197D01*
X264272Y100028D02*
Y100225D01*
Y100028D02*
X264452Y99848D01*
X263000Y124876D02*
X263778Y124098D01*
X266142D01*
X263750Y106775D02*
X266142D01*
X263000Y106024D02*
X263750Y106775D01*
X306676Y153292D02*
Y170855D01*
X277000Y150480D02*
X282720D01*
X283900Y149300D01*
X269800Y146000D02*
X273652Y149852D01*
Y150358D01*
X273800Y150505D01*
X263000Y182200D02*
X263500Y182700D01*
Y184803D01*
X264272Y152628D02*
Y152825D01*
Y152628D02*
X264452Y152448D01*
X263000Y153900D02*
X263197D01*
X264272Y152825D01*
X264452Y151250D02*
Y152448D01*
Y151250D02*
X264600Y151103D01*
X263000Y158624D02*
X263748Y159372D01*
X266142D01*
X263781Y176695D02*
X266142D01*
X263000Y177476D02*
X263781Y176695D01*
X306676Y205992D02*
X306693Y205976D01*
X306660Y223572D02*
X306676Y223555D01*
Y205992D02*
Y223555D01*
X264272Y204237D02*
Y205363D01*
X264600Y203700D02*
Y203909D01*
X263197Y206438D02*
X264272Y205363D01*
Y204237D02*
X264600Y203909D01*
X263000Y206438D02*
X263197D01*
X283651Y202103D02*
X283900Y201853D01*
X283465Y208982D02*
X283900Y208546D01*
X283465Y208982D02*
Y211970D01*
X282600Y259546D02*
Y263440D01*
X283465Y264305D01*
Y264567D01*
X279134D02*
X279319Y264382D01*
X264000Y256200D02*
Y258038D01*
X263000Y259038D02*
X264000Y258038D01*
X263807Y211970D02*
X266142D01*
X263000Y211162D02*
X263807Y211970D01*
X263400Y234000D02*
Y237300D01*
X263500Y237400D01*
X263000Y233600D02*
X263400Y234000D01*
X265278Y289493D02*
Y289702D01*
X264272Y288488D02*
X265278Y289493D01*
X264272Y287237D02*
Y288488D01*
X263197Y286162D02*
X264272Y287237D01*
X263000Y286162D02*
X263197D01*
X263000Y228876D02*
X263417Y229292D01*
X266142D01*
X263000Y281438D02*
X263452Y281890D01*
X266142D01*
X263000Y263762D02*
X263805Y264567D01*
X266142D01*
X269100Y254593D02*
Y262932D01*
X270472Y264305D01*
Y264567D01*
X189113Y207887D02*
X192287Y204713D01*
X188575Y207887D02*
X189113D01*
X187500Y208962D02*
X188575Y207887D01*
X190600Y200138D02*
X192287Y201825D01*
Y204713D01*
X190538Y203163D02*
X190551Y203150D01*
X188575Y203163D02*
X190538D01*
X187500Y204238D02*
X188575Y203163D01*
X70453Y355286D02*
X123686D01*
X133800Y365400D01*
X121086Y357686D02*
X133800Y370400D01*
X68553Y357686D02*
X121086D01*
X66653Y359786D02*
X118186D01*
X133800Y375400D01*
X195276Y15017D02*
X206299Y26041D01*
Y174803D01*
X208300Y24048D02*
Y175952D01*
X199213Y14961D02*
X208300Y24048D01*
X206299Y177953D02*
X208300Y175952D01*
X179400Y87000D02*
Y157600D01*
X195300Y173500D01*
X181100Y78200D02*
Y156700D01*
X196850Y172450D01*
X178400Y75500D02*
X181100Y78200D01*
X164600Y70500D02*
X169600Y75500D01*
X178400D01*
X177700Y85300D02*
X179400Y87000D01*
X169400Y85300D02*
X177700D01*
X164600Y80500D02*
X169400Y85300D01*
X26558Y167126D02*
X44127Y184694D01*
Y195567D01*
X44520Y91781D02*
Y102653D01*
X26952Y74213D02*
X44520Y91781D01*
X26952Y120774D02*
X44520Y138342D01*
X44221Y231162D02*
Y242034D01*
X26653Y213593D02*
X44221Y231162D01*
X26920Y260142D02*
X44488Y277710D01*
Y288583D01*
D20*
X312800Y127954D02*
D03*
Y134646D02*
D03*
X306700Y127954D02*
D03*
Y134646D02*
D03*
X300600Y127954D02*
D03*
Y134646D02*
D03*
X294600Y127954D02*
D03*
Y134646D02*
D03*
X283900Y103446D02*
D03*
Y96754D02*
D03*
X269400Y86807D02*
D03*
Y100193D02*
D03*
X283900Y155993D02*
D03*
Y149300D02*
D03*
X269800Y139307D02*
D03*
Y152693D02*
D03*
X312800Y179941D02*
D03*
Y186634D02*
D03*
X306700Y179941D02*
D03*
Y186634D02*
D03*
X300600Y179941D02*
D03*
Y186634D02*
D03*
X294600Y179941D02*
D03*
Y186634D02*
D03*
X269400Y192307D02*
D03*
Y205693D02*
D03*
X283900Y208546D02*
D03*
Y201853D02*
D03*
X314500Y233284D02*
D03*
Y239977D02*
D03*
X308400Y233284D02*
D03*
Y239977D02*
D03*
X302300Y233284D02*
D03*
Y239977D02*
D03*
X296300Y233284D02*
D03*
Y239977D02*
D03*
X269100Y241207D02*
D03*
Y254593D02*
D03*
X282600Y259546D02*
D03*
Y252853D02*
D03*
D23*
X212200Y19038D02*
D03*
Y23762D02*
D03*
X211900Y165462D02*
D03*
Y160738D02*
D03*
X216800Y165462D02*
D03*
Y160738D02*
D03*
X221700Y165462D02*
D03*
Y160738D02*
D03*
X199300Y209638D02*
D03*
Y214362D02*
D03*
X194200Y209638D02*
D03*
Y214362D02*
D03*
X187500Y204238D02*
D03*
Y208962D02*
D03*
X195000Y198538D02*
D03*
Y203262D02*
D03*
X199900Y198538D02*
D03*
Y203262D02*
D03*
X206200D02*
D03*
Y198538D02*
D03*
X263000Y106024D02*
D03*
Y101300D02*
D03*
Y124876D02*
D03*
Y129600D02*
D03*
Y158624D02*
D03*
Y153900D02*
D03*
Y177476D02*
D03*
Y182200D02*
D03*
Y211162D02*
D03*
Y206438D02*
D03*
Y228876D02*
D03*
Y233600D02*
D03*
Y281438D02*
D03*
Y286162D02*
D03*
Y263762D02*
D03*
Y259038D02*
D03*
D25*
X208138Y185900D02*
D03*
X212862D02*
D03*
X208138Y190400D02*
D03*
X212862D02*
D03*
X189238Y193700D02*
D03*
X193962D02*
D03*
X189476Y187800D02*
D03*
X194200D02*
D03*
X203362D02*
D03*
X198638D02*
D03*
D30*
X276093Y93500D02*
D03*
X262707D02*
D03*
X276493Y146000D02*
D03*
X263107D02*
D03*
X276093Y199000D02*
D03*
X262707D02*
D03*
X275793Y247900D02*
D03*
X262407D02*
D03*
D44*
X384724Y309567D02*
D03*
Y330197D02*
D03*
Y358780D02*
D03*
Y379410D02*
D03*
Y211142D02*
D03*
Y231772D02*
D03*
Y260354D02*
D03*
Y280984D02*
D03*
Y112716D02*
D03*
Y133346D02*
D03*
Y161929D02*
D03*
Y182559D02*
D03*
Y14291D02*
D03*
Y34921D02*
D03*
Y63504D02*
D03*
Y84134D02*
D03*
D92*
X166960Y194260D02*
G03*
X166963Y194263I-360J363D01*
G01*
X164280Y191580D02*
G03*
X164281Y191581I-363J360D01*
G01*
X164280Y191580D02*
G03*
X164122Y191201I375J-379D01*
G01*
X162566Y184765D02*
G03*
X164122Y186321I0J1556D01*
G01*
X160553D02*
G03*
X162109Y184765I1556J0D01*
G01*
X160553Y188544D02*
G03*
X160020Y189077I-533J0D01*
G01*
X166239Y194986D02*
G03*
X166236Y194983I360J-363D01*
G01*
X163558Y192304D02*
G03*
X163557Y192304I359J-365D01*
G01*
D02*
G03*
X163099Y191201I1098J-1103D01*
G01*
X162566Y185788D02*
G03*
X163099Y186321I0J533D01*
G01*
X161576D02*
G03*
X162109Y185788I533J0D01*
G01*
X161576Y188544D02*
G03*
X160020Y190100I-1556J0D01*
G01*
X166815Y219372D02*
G03*
X166054Y218610I0J-762D01*
G01*
X164531Y218301D02*
G03*
X166054Y218301I762J0D01*
G01*
X164531Y218610D02*
G03*
X163008Y218610I-762J0D01*
G01*
X161485Y218180D02*
G03*
X163008Y218180I762J0D01*
G01*
X161485Y218610D02*
G03*
X159962Y218610I-762J0D01*
G01*
X158439Y218180D02*
G03*
X159962Y218180I762J0D01*
G01*
X158439Y218610D02*
G03*
X156915Y218610I-762J0D01*
G01*
X155392Y218180D02*
G03*
X156915Y218180I762J0D01*
G01*
X155392Y218610D02*
G03*
X153869Y218610I-762J0D01*
G01*
X152346Y218180D02*
G03*
X153869Y218180I762J0D01*
G01*
X152346Y218610D02*
G03*
X151585Y219372I-762J0D01*
G01*
X153729Y190711D02*
G03*
X154341Y190100I612J0D01*
G01*
X153729Y190743D02*
G03*
X152506Y190743I-612J0D01*
G01*
X151283Y190711D02*
G03*
X152506Y190711I612J0D01*
G01*
X151283Y190745D02*
G03*
X150060Y190745I-612J0D01*
G01*
X148837Y190711D02*
G03*
X150060Y190711I612J0D01*
G01*
X148837Y190745D02*
G03*
X147614Y190745I-612J0D01*
G01*
X146390Y190711D02*
G03*
X147614Y190711I612J0D01*
G01*
X146390Y190745D02*
G03*
X145167Y190745I-612J0D01*
G01*
X144556Y190100D02*
G03*
X145167Y190711I0J612D01*
G01*
X135920Y192520D02*
G03*
X135059Y191658I0J-862D01*
G01*
X133336Y191237D02*
G03*
X135059Y191237I862J0D01*
G01*
X133336Y191658D02*
G03*
X131613Y191658I-862J0D01*
G01*
X129890Y191235D02*
G03*
X131613Y191235I862J0D01*
G01*
X129890Y191658D02*
G03*
X129028Y192520I-862J0D01*
G01*
X247312Y219803D02*
G03*
X249043Y218071I1731J0D01*
G01*
X247312Y222506D02*
G03*
X246604Y223215I-708J0D01*
G01*
X245997D02*
G03*
X245289Y222506I0J-708D01*
G01*
X243558Y212553D02*
G03*
X245289Y214284I0J1731D01*
G01*
X241220D02*
G03*
X242951Y212553I1731J0D01*
G01*
X241220Y222540D02*
G03*
X240512Y223248I-708J0D01*
G01*
X239905D02*
G03*
X239197Y222540I0J-708D01*
G01*
X237466Y212553D02*
G03*
X239197Y214284I0J1731D01*
G01*
X235128D02*
G03*
X236859Y212553I1731J0D01*
G01*
X235128Y222553D02*
G03*
X234419Y223261I-708J0D01*
G01*
X233812D02*
G03*
X233104Y222553I0J-708D01*
G01*
X231373Y212553D02*
G03*
X233104Y214284I0J1731D01*
G01*
X229035D02*
G03*
X230766Y212553I1731J0D01*
G01*
X229035Y222553D02*
G03*
X228327Y223261I-708J0D01*
G01*
X227720D02*
G03*
X227012Y222553I0J-708D01*
G01*
X225281Y218071D02*
G03*
X227012Y219803I0J1731D01*
G01*
X248335D02*
G03*
X249043Y219094I708J0D01*
G01*
X248335Y222506D02*
G03*
X246604Y224238I-1731J0D01*
G01*
X245997D02*
G03*
X244266Y222506I0J-1731D01*
G01*
X243558Y213576D02*
G03*
X244266Y214284I0J708D01*
G01*
X242243D02*
G03*
X242951Y213576I708J0D01*
G01*
X242243Y222540D02*
G03*
X240512Y224271I-1731J0D01*
G01*
X239905D02*
G03*
X238174Y222540I0J-1731D01*
G01*
X237466Y213576D02*
G03*
X238174Y214284I0J708D01*
G01*
X236151D02*
G03*
X236859Y213576I708J0D01*
G01*
X236151Y222553D02*
G03*
X234419Y224284I-1731J0D01*
G01*
X233812D02*
G03*
X232081Y222553I0J-1731D01*
G01*
X231373Y213576D02*
G03*
X232081Y214284I0J708D01*
G01*
X230058D02*
G03*
X230766Y213576I708J0D01*
G01*
X230058Y222553D02*
G03*
X228327Y224284I-1731J0D01*
G01*
X227720D02*
G03*
X225989Y222553I0J-1731D01*
G01*
X225281Y219094D02*
G03*
X225989Y219803I0J708D01*
G01*
X223609Y218066D02*
G03*
X222184Y216502I189J-1602D01*
G01*
X223725Y218071D02*
G03*
X223633Y218069I0J-1541D01*
G01*
X222184Y216502D02*
G03*
X222184Y216499I523J-6D01*
G01*
X223633Y218069D02*
G03*
X223609Y218066I35J-522D01*
G01*
X223966Y219095D02*
G03*
X223989Y219094I27J522D01*
G01*
X223966Y219095D02*
G03*
X221162Y216413I-169J-2631D01*
G01*
X254330Y217604D02*
G03*
X253810Y218071I-520J-55D01*
G01*
X253702Y219094D02*
G03*
X254331Y219723I0J629D01*
G01*
X215801Y211024D02*
G03*
X215779Y211023I3J-523D01*
G01*
X215779Y211023D02*
G03*
X214334Y209944I78J-1612D01*
G01*
X214334D02*
G03*
X214243Y208811I1560J-696D01*
G01*
X214125Y208327D02*
G03*
X214243Y208808I-389J350D01*
G01*
X213288Y207939D02*
G03*
X213311Y207939I-3J523D01*
G01*
X204632Y209175D02*
G03*
X204790Y208712I516J-83D01*
G01*
X204633Y209180D02*
G03*
X204082Y210620I-1495J254D01*
G01*
X203150Y211397D02*
G03*
X203534Y210896I523J3D01*
G01*
X205557Y207939D02*
G03*
X204790Y208712I-7978J-7150D01*
G01*
X219685Y211024D02*
G03*
X221161Y212500I0J1476D01*
G01*
X214908Y207539D02*
G03*
X215000Y207621I-299J429D01*
G01*
D02*
G03*
X215042Y207670I-1026J912D01*
G01*
X215501Y207862D02*
G03*
X215042Y207670I-52J-520D01*
G01*
X213606Y206915D02*
G03*
X214693Y207362I0J1546D01*
G01*
X214908Y207539D02*
G03*
X214693Y207362I840J-1240D01*
G01*
X218389Y209911D02*
G03*
X217888Y209520I5J-523D01*
G01*
X203487Y208624D02*
G03*
X203667Y208327I512J108D01*
G01*
X203487Y208625D02*
G03*
X203426Y208784I-512J-106D01*
G01*
X203150Y209391D02*
G03*
X203222Y209132I523J6D01*
G01*
X204927Y207132D02*
G03*
X204870Y207170I-320J-414D01*
G01*
D02*
G03*
X203667Y208327I-7292J-6382D01*
G01*
X204927Y207132D02*
G03*
X205557Y206915I630J806D01*
G01*
X219596Y209911D02*
G03*
X222184Y212500I0J2589D01*
G01*
X213311Y207939D02*
G03*
X214125Y208327I-67J1189D01*
G01*
X204082Y210620D02*
G03*
X203534Y210896I-933J-1171D01*
G01*
X215501Y207862D02*
G03*
X217888Y209520I235J2207D01*
G01*
X247401Y227756D02*
G03*
X249132Y226025I1731J0D01*
G01*
X247401Y233055D02*
G03*
X246692Y233763I-708J0D01*
G01*
X246086D02*
G03*
X245377Y233055I0J-708D01*
G01*
X243646Y225025D02*
G03*
X245377Y226756I0J1731D01*
G01*
X241308D02*
G03*
X243039Y225025I1731J0D01*
G01*
X241308Y233055D02*
G03*
X240600Y233763I-708J0D01*
G01*
X239993D02*
G03*
X239285Y233055I0J-708D01*
G01*
X237554Y225025D02*
G03*
X239285Y226756I0J1731D01*
G01*
X235216D02*
G03*
X236947Y225025I1731J0D01*
G01*
X235216Y233055D02*
G03*
X234508Y233763I-708J0D01*
G01*
X233901D02*
G03*
X233193Y233055I0J-708D01*
G01*
X231462Y225025D02*
G03*
X233193Y226756I0J1731D01*
G01*
X229124D02*
G03*
X230855Y225025I1731J0D01*
G01*
X229124Y233055D02*
G03*
X228415Y233763I-708J0D01*
G01*
X227809D02*
G03*
X227100Y233055I0J-708D01*
G01*
X225369Y225025D02*
G03*
X227100Y226756I0J1731D01*
G01*
X223031D02*
G03*
X224762Y225025I1731J0D01*
G01*
X223031Y233055D02*
G03*
X222323Y233763I-708J0D01*
G01*
X221716D02*
G03*
X221008Y233055I0J-708D01*
G01*
X219277Y226025D02*
G03*
X221008Y227756I0J1731D01*
G01*
X248424D02*
G03*
X249132Y227048I708J0D01*
G01*
X248424Y233055D02*
G03*
X246692Y234786I-1731J0D01*
G01*
X246086D02*
G03*
X244354Y233055I0J-1731D01*
G01*
X243646Y226048D02*
G03*
X244354Y226756I0J708D01*
G01*
X242331D02*
G03*
X243039Y226048I708J0D01*
G01*
X242331Y233055D02*
G03*
X240600Y234786I-1731J0D01*
G01*
X239993D02*
G03*
X238262Y233055I0J-1731D01*
G01*
X237554Y226048D02*
G03*
X238262Y226756I0J708D01*
G01*
X236239D02*
G03*
X236947Y226048I708J0D01*
G01*
X236239Y233055D02*
G03*
X234508Y234786I-1731J0D01*
G01*
X233901D02*
G03*
X232170Y233055I0J-1731D01*
G01*
X231462Y226048D02*
G03*
X232170Y226756I0J708D01*
G01*
X230147D02*
G03*
X230855Y226048I708J0D01*
G01*
X230147Y233055D02*
G03*
X228415Y234786I-1731J0D01*
G01*
X227809D02*
G03*
X226078Y233055I0J-1731D01*
G01*
X225369Y226048D02*
G03*
X226078Y226756I0J708D01*
G01*
X224054D02*
G03*
X224762Y226048I708J0D01*
G01*
X224054Y233055D02*
G03*
X222323Y234786I-1731J0D01*
G01*
X221716D02*
G03*
X219985Y233055I0J-1731D01*
G01*
X219277Y227048D02*
G03*
X219985Y227756I0J708D01*
G01*
X215530Y214267D02*
G03*
X215461Y214272I-72J-518D01*
G01*
X215530Y214267D02*
G03*
X217126Y216334I218J1481D01*
G01*
X215530Y214267D02*
G03*
X215648Y214254I218J1481D01*
G01*
X214272Y214272D02*
G03*
X212598Y212598I0J-1673D01*
G01*
X218446Y227048D02*
G03*
X216103Y224705I0J-2343D01*
G01*
X253880Y227048D02*
G03*
X254429Y227597I0J549D01*
G01*
X218446Y226025D02*
G03*
X217126Y224705I0J-1320D01*
G01*
X254429Y225476D02*
G03*
X253880Y226025I-549J0D01*
G01*
X218898Y193701D02*
G03*
X220631Y191968I1733J0D01*
G01*
X222441Y190945D02*
G03*
X222047Y190551I0J-394D01*
G01*
X222441Y175197D02*
G03*
X222047Y174803I0J-394D01*
G01*
X220314Y176220D02*
G03*
X218898Y174803I0J-1417D01*
G01*
X216535Y203937D02*
G03*
X215748Y203150I0J-787D01*
G01*
Y206141D02*
G03*
X216929Y204960I1181J0D01*
G01*
X245344Y201308D02*
G03*
X247075Y199577I1731J0D01*
G01*
X245344Y204994D02*
G03*
X244636Y205702I-708J0D01*
G01*
X244029D02*
G03*
X243321Y204994I0J-708D01*
G01*
X241589Y194896D02*
G03*
X243321Y196627I0J1731D01*
G01*
X239251D02*
G03*
X240983Y194896I1731J0D01*
G01*
X239251Y204994D02*
G03*
X238543Y205702I-708J0D01*
G01*
X237936D02*
G03*
X237228Y204994I0J-708D01*
G01*
X235497Y194896D02*
G03*
X237228Y196627I0J1731D01*
G01*
X233159D02*
G03*
X234890Y194896I1731J0D01*
G01*
X233159Y204994D02*
G03*
X232451Y205702I-708J0D01*
G01*
X231844D02*
G03*
X231136Y204994I0J-708D01*
G01*
X229405Y194896D02*
G03*
X231136Y196627I0J1731D01*
G01*
X227067D02*
G03*
X228798Y194896I1731J0D01*
G01*
X227067Y204994D02*
G03*
X226359Y205702I-708J0D01*
G01*
X225752D02*
G03*
X225044Y204994I0J-708D01*
G01*
X223312Y199577D02*
G03*
X225044Y201308I0J1731D01*
G01*
X246367D02*
G03*
X247075Y200600I708J0D01*
G01*
X246367Y204994D02*
G03*
X244636Y206725I-1731J0D01*
G01*
X244029D02*
G03*
X242298Y204994I0J-1731D01*
G01*
X241589Y195919D02*
G03*
X242298Y196627I0J708D01*
G01*
X240274D02*
G03*
X240983Y195919I708J0D01*
G01*
X240274Y204994D02*
G03*
X238543Y206725I-1731J0D01*
G01*
X237936D02*
G03*
X236205Y204994I0J-1731D01*
G01*
X235497Y195919D02*
G03*
X236205Y196627I0J708D01*
G01*
X234182D02*
G03*
X234890Y195919I708J0D01*
G01*
X234182Y204994D02*
G03*
X232451Y206725I-1731J0D01*
G01*
X231844D02*
G03*
X230113Y204994I0J-1731D01*
G01*
X229405Y195919D02*
G03*
X230113Y196627I0J708D01*
G01*
X228090D02*
G03*
X228798Y195919I708J0D01*
G01*
X228090Y204994D02*
G03*
X226359Y206725I-1731J0D01*
G01*
X225752D02*
G03*
X224021Y204994I0J-1731D01*
G01*
X223312Y200600D02*
G03*
X224021Y201308I0J708D01*
G01*
X240472Y152862D02*
G03*
X238741Y151130I0J-1731D01*
G01*
X242180Y152862D02*
G03*
X242888Y153570I0J708D01*
G01*
Y154177D02*
G03*
X242180Y154885I-708J0D01*
G01*
X237641Y156616D02*
G03*
X239372Y154885I1731J0D01*
G01*
Y158954D02*
G03*
X237641Y157223I0J-1731D01*
G01*
X242180Y158954D02*
G03*
X242888Y159662I0J708D01*
G01*
Y160269D02*
G03*
X242180Y160977I-708J0D01*
G01*
X237641Y162708D02*
G03*
X239372Y160977I1731J0D01*
G01*
Y165046D02*
G03*
X237641Y163315I0J-1731D01*
G01*
X242180Y165046D02*
G03*
X242888Y165754I0J708D01*
G01*
Y166361D02*
G03*
X242180Y167069I-708J0D01*
G01*
X237641Y168800D02*
G03*
X239372Y167069I1731J0D01*
G01*
Y171139D02*
G03*
X237641Y169407I0J-1731D01*
G01*
X242180Y171139D02*
G03*
X242888Y171847I0J708D01*
G01*
Y172453D02*
G03*
X242180Y173162I-708J0D01*
G01*
X238741Y174893D02*
G03*
X240472Y173162I1731J0D01*
G01*
Y151839D02*
G03*
X239764Y151130I0J-708D01*
G01*
X242180Y151839D02*
G03*
X243911Y153570I0J1731D01*
G01*
Y154177D02*
G03*
X242180Y155908I-1731J0D01*
G01*
X238664Y156616D02*
G03*
X239372Y155908I708J0D01*
G01*
Y157931D02*
G03*
X238664Y157223I0J-708D01*
G01*
X242180Y157931D02*
G03*
X243911Y159662I0J1731D01*
G01*
Y160269D02*
G03*
X242180Y162000I-1731J0D01*
G01*
X238664Y162708D02*
G03*
X239372Y162000I708J0D01*
G01*
Y164023D02*
G03*
X238664Y163315I0J-708D01*
G01*
X242180Y164023D02*
G03*
X243911Y165754I0J1731D01*
G01*
Y166361D02*
G03*
X242180Y168092I-1731J0D01*
G01*
X238664Y168800D02*
G03*
X239372Y168092I708J0D01*
G01*
Y170115D02*
G03*
X238664Y169407I0J-708D01*
G01*
X242180Y170115D02*
G03*
X243911Y171847I0J1731D01*
G01*
Y172453D02*
G03*
X242180Y174185I-1731J0D01*
G01*
X239764Y174893D02*
G03*
X240472Y174185I708J0D01*
G01*
X236614Y141732D02*
G03*
X237560Y140787I945J0D01*
G01*
X247089Y138187D02*
G03*
X244488Y140787I-2600J0D01*
G01*
X247089Y96693D02*
G03*
X247638Y96144I549J0D01*
G01*
X222469Y176240D02*
G03*
X222609Y176220I143J503D01*
G01*
X222469Y176240D02*
G03*
X221626Y176240I-422J-1437D01*
G01*
X221486Y176220D02*
G03*
X221626Y176240I-3J523D01*
G01*
X236614Y171889D02*
G03*
X232283Y176220I-4331J0D01*
G01*
X235591Y141732D02*
G03*
X237560Y139764I1969J0D01*
G01*
X235591Y171889D02*
G03*
X232283Y175197I-3308J0D01*
G01*
X246065Y138187D02*
G03*
X244488Y139764I-1577J0D01*
G01*
X245516Y96063D02*
G03*
X246065Y96612I0J549D01*
G01*
X239764Y189999D02*
G03*
X237795Y191968I-1969J0D01*
G01*
X239764Y148031D02*
G03*
X240945Y146850I1181J0D01*
G01*
X247777D02*
G03*
X248327Y147400I0J549D01*
G01*
X221485Y191968D02*
G03*
X221626Y191988I-3J523D01*
G01*
X222469Y191988D02*
G03*
X222609Y191968I143J503D01*
G01*
X238741Y148031D02*
G03*
X240945Y145827I2204J0D01*
G01*
X238741Y189999D02*
G03*
X237795Y190945I-945J0D01*
G01*
X248327Y145278D02*
G03*
X247777Y145827I-549J0D01*
G01*
X222469Y191988D02*
G03*
X221626Y191988I-422J-1437D01*
G01*
X251851Y200600D02*
G03*
X252400Y201149I0J549D01*
G01*
X220866Y202175D02*
G03*
X218081Y204960I-2785J0D01*
G01*
X220866Y202175D02*
G03*
X222441Y200600I1575J0D01*
G01*
X219843Y202175D02*
G03*
X218081Y203937I-1762J0D01*
G01*
X252400Y199028D02*
G03*
X251851Y199577I-549J0D01*
G01*
X219843Y202175D02*
G03*
X222441Y199577I2598J0D01*
G01*
X166963Y194263D02*
X167372Y194672D01*
X164281Y191581D02*
X166960Y194260D01*
X164122Y186321D02*
Y191201D01*
X162109Y184765D02*
X162566D01*
X160553Y186321D02*
Y188544D01*
X156701Y189077D02*
X160020D01*
X167080Y195827D02*
Y195827D01*
X166239Y194986D02*
X167080Y195827D01*
X163558Y192304D02*
X166236Y194983D01*
X163099Y186321D02*
Y191201D01*
X162109Y185788D02*
X162566D01*
X161576Y186321D02*
Y188544D01*
X156701Y190100D02*
X160020D01*
X146501Y189077D02*
X156701D01*
X156030Y190100D02*
X156701D01*
X167372Y194672D02*
X168053Y195353D01*
X167080Y195827D02*
X169732Y198479D01*
X166815Y219372D02*
X168000D01*
X166054Y218301D02*
Y218610D01*
X164531Y218301D02*
Y218610D01*
X163008Y218180D02*
Y218610D01*
X161485Y218180D02*
Y218610D01*
X159962Y218180D02*
Y218610D01*
X158439Y218180D02*
Y218610D01*
X156915Y218180D02*
Y218610D01*
X155392Y218180D02*
Y218610D01*
X153869Y218180D02*
Y218610D01*
X152346Y218180D02*
Y218610D01*
X149800Y219372D02*
X151585D01*
X168000D02*
X169062D01*
X149019D02*
X149800D01*
X173782Y217245D02*
X173782Y217245D01*
X176455D01*
X177953Y215748D01*
X169062Y219372D02*
X171188Y217245D01*
X173782D01*
X134568Y204921D02*
X149019Y219372D01*
X134028Y205828D02*
X148595Y220395D01*
X176658D01*
X181102Y215951D01*
X176455Y211419D02*
X177600Y210274D01*
X174803Y215748D02*
X176455Y214096D01*
Y211419D02*
Y214096D01*
X154341Y190100D02*
X156030D01*
X153729Y190711D02*
Y190743D01*
X152506Y190711D02*
Y190743D01*
X151283Y190711D02*
Y190745D01*
X150060Y190711D02*
Y190745D01*
X148837Y190711D02*
Y190745D01*
X147614Y190711D02*
Y190745D01*
X146390Y190711D02*
Y190745D01*
X145167Y190711D02*
Y190745D01*
X144294Y190100D02*
X144556D01*
X144235D02*
X144294D01*
X142717Y188583D02*
X144235Y190100D01*
X146007Y188583D02*
X146501Y189077D01*
X145669Y188583D02*
X146007D01*
X142520D02*
X142717D01*
X132451Y196534D02*
X134385D01*
X135883Y198031D01*
X136221D01*
X131573Y197411D02*
Y204951D01*
X132451Y205828D01*
X134028D01*
X134568Y200561D02*
Y204921D01*
X131573Y197411D02*
X132451Y196534D01*
X133310Y198270D02*
Y199302D01*
X133071Y198031D02*
X133310Y198270D01*
Y199302D02*
X134568Y200561D01*
X177600Y204914D02*
Y210274D01*
X176455Y203770D02*
X177600Y204914D01*
X176455Y202684D02*
Y203770D01*
X175423Y201652D02*
X176455Y202684D01*
X174338Y201652D02*
X175423D01*
X173306Y200620D02*
X174338Y201652D01*
X173306Y199206D02*
Y200620D01*
X172579Y198479D02*
X173306Y199206D01*
X169732Y198479D02*
X172579D01*
X179450Y211165D02*
Y216368D01*
X176921Y218898D02*
X179450Y216368D01*
X178623Y204597D02*
X179450Y203770D01*
X178623Y210338D02*
X179450Y211165D01*
X178623Y204597D02*
Y210338D01*
X174803Y218898D02*
X176921D01*
X179450Y202529D02*
Y203770D01*
X178471Y201551D02*
X179450Y202529D01*
X177386Y201551D02*
X178471D01*
X176407Y200572D02*
X177386Y201551D01*
X176407Y199486D02*
Y200572D01*
X175423Y198503D02*
X176407Y199486D01*
X174049Y198503D02*
X175423D01*
X173151Y197605D02*
X174049Y198503D01*
X173151Y196230D02*
Y197605D01*
X172274Y195353D02*
X173151Y196230D01*
X168053Y195353D02*
X172274D01*
X181102Y215748D02*
Y215951D01*
X135920Y192520D02*
X141291D01*
X135059Y191237D02*
Y191658D01*
X133336Y191237D02*
Y191658D01*
X131613Y191235D02*
Y191658D01*
X129890Y191235D02*
Y191658D01*
X127043Y192520D02*
X129028D01*
X141291D02*
X162470D01*
X126890D02*
X127043D01*
X128347Y193543D02*
X144882D01*
X126466D02*
X128347D01*
X144882D02*
X162047D01*
X169983Y200032D02*
Y202891D01*
X168960Y203315D02*
X170292Y204647D01*
X173261D01*
X171606Y203197D02*
X171653Y203150D01*
X169983Y202891D02*
X170290Y203197D01*
X171606D01*
X168960Y200456D02*
Y203315D01*
X162470Y192520D02*
X169983Y200032D01*
X173261Y204647D02*
X174759Y203150D01*
X174803D01*
X162047Y193543D02*
X168960Y200456D01*
X124685Y190472D02*
Y191762D01*
X126466Y193543D01*
X124685Y190472D02*
X124685Y190472D01*
X124685Y189615D02*
Y190472D01*
X123622Y188583D02*
X123653D01*
X124685Y189615D01*
X125708Y191339D02*
X126890Y192520D01*
X125708Y190048D02*
X125708Y190048D01*
X125708Y189615D02*
X126741Y188583D01*
X125708Y190048D02*
Y191339D01*
X125708Y189615D02*
Y190048D01*
X126741Y188583D02*
X126772D01*
X249043Y218071D02*
X253543D01*
X247312Y219803D02*
Y222506D01*
X245997Y223215D02*
X246604D01*
X245289Y214284D02*
Y222506D01*
X242951Y212553D02*
X243558D01*
X241220Y214284D02*
Y222540D01*
X239905Y223248D02*
X240512D01*
X239197Y214284D02*
Y222540D01*
X236859Y212553D02*
X237466D01*
X235128Y214284D02*
Y222553D01*
X233812Y223261D02*
X234419D01*
X233104Y214284D02*
Y222553D01*
X230766Y212553D02*
X231373D01*
X229035Y214284D02*
Y222553D01*
X227720Y223261D02*
X228327D01*
X227012Y219803D02*
Y222553D01*
X224508Y218071D02*
X225281D01*
X249043Y219094D02*
X253543D01*
X248335Y219803D02*
Y222506D01*
X245997Y224238D02*
X246604D01*
X244266Y214284D02*
Y222506D01*
X242951Y213576D02*
X243558D01*
X242243Y214284D02*
Y222540D01*
X239905Y224271D02*
X240512D01*
X238174Y214284D02*
Y222540D01*
X236859Y213576D02*
X237466D01*
X236151Y214284D02*
Y222553D01*
X233812Y224284D02*
X234419D01*
X232081Y214284D02*
Y222553D01*
X230766Y213576D02*
X231373D01*
X230058Y214284D02*
Y222553D01*
X227720Y224284D02*
X228327D01*
X225989Y219803D02*
Y222553D01*
X224508Y219094D02*
X225281D01*
X253543Y218071D02*
X253810D01*
X223725D02*
X224508D01*
X253543Y219094D02*
X253702D01*
X223989D02*
X224508D01*
X223989Y219094D02*
X223989Y219094D01*
X222184Y212500D02*
Y216499D01*
X222184Y216502D02*
X222184Y216502D01*
X223633Y218069D02*
Y218069D01*
X221161Y216409D02*
X221161Y216413D01*
X221161Y212500D02*
Y216409D01*
X254330Y217604D02*
X254331Y217602D01*
X215779Y211023D02*
X215779Y211023D01*
X215801Y211024D02*
X219685D01*
X215801D02*
X215801D01*
X205557Y207939D02*
X213288D01*
X214243Y208811D02*
X214243Y208808D01*
X204632Y209175D02*
X204633Y209180D01*
X203150Y211397D02*
Y211397D01*
Y212598D01*
X204790Y208712D02*
X204790Y208712D01*
X214908Y207539D02*
X214908Y207539D01*
X214693Y207362D02*
Y207362D01*
X215042Y207670D02*
X215042D01*
X203487Y208625D02*
X203487Y208624D01*
X203150Y209391D02*
Y209391D01*
Y209449D01*
X203222Y209132D02*
X203426Y208784D01*
X205557Y206915D02*
X213606D01*
X218389Y209911D02*
X219596D01*
X249132Y226025D02*
X253839D01*
X247401Y227756D02*
Y233055D01*
X246086Y233763D02*
X246692D01*
X245377Y226756D02*
Y233055D01*
X243039Y225025D02*
X243646D01*
X241308Y226756D02*
Y233055D01*
X239993Y233763D02*
X240600D01*
X239285Y226756D02*
Y233055D01*
X236947Y225025D02*
X237554D01*
X235216Y226756D02*
Y233055D01*
X233901Y233763D02*
X234508D01*
X233193Y226756D02*
Y233055D01*
X230855Y225025D02*
X231462D01*
X229124Y226756D02*
Y233055D01*
X227809Y233763D02*
X228415D01*
X227100Y226756D02*
Y233055D01*
X224762Y225025D02*
X225369D01*
X223031Y226756D02*
Y233055D01*
X221716Y233763D02*
X222323D01*
X221008Y227756D02*
Y233055D01*
X218504Y226025D02*
X219277D01*
X249132Y227048D02*
X253839D01*
X248424Y227756D02*
Y233055D01*
X246086Y234786D02*
X246692D01*
X244354Y226756D02*
Y233055D01*
X243039Y226048D02*
X243646D01*
X242331Y226756D02*
Y233055D01*
X239993Y234786D02*
X240600D01*
X238262Y226756D02*
Y233055D01*
X236947Y226048D02*
X237554D01*
X236239Y226756D02*
Y233055D01*
X233901Y234786D02*
X234508D01*
X232170Y226756D02*
Y233055D01*
X230855Y226048D02*
X231462D01*
X230147Y226756D02*
Y233055D01*
X227809Y234786D02*
X228415D01*
X226078Y226756D02*
Y233055D01*
X224762Y226048D02*
X225369D01*
X224054Y226756D02*
Y233055D01*
X221716Y234786D02*
X222323D01*
X219985Y227756D02*
Y233055D01*
X218504Y227048D02*
X219277D01*
X253839Y226025D02*
X253880D01*
X218446D02*
X218504D01*
X253839Y227048D02*
X253880D01*
X218446D02*
X218504D01*
X214272Y214272D02*
X215461D01*
X212598Y212598D02*
X212799D01*
X217126Y216334D02*
Y224705D01*
X216103Y215634D02*
Y224705D01*
X222441Y190945D02*
X237795D01*
X222441Y175197D02*
X232283D01*
X216535Y203937D02*
X218081D01*
X215748Y206141D02*
Y206299D01*
X247075Y199577D02*
X251181D01*
X245344Y201308D02*
Y204994D01*
X244029Y205702D02*
X244636D01*
X243321Y196627D02*
Y204994D01*
X240983Y194896D02*
X241589D01*
X239251Y196627D02*
Y204994D01*
X237936Y205702D02*
X238543D01*
X237228Y196627D02*
Y204994D01*
X234890Y194896D02*
X235497D01*
X233159Y196627D02*
Y204994D01*
X231844Y205702D02*
X232451D01*
X231136Y196627D02*
Y204994D01*
X228798Y194896D02*
X229405D01*
X227067Y196627D02*
Y204994D01*
X225752Y205702D02*
X226359D01*
X225044Y201308D02*
Y204994D01*
X222539Y199577D02*
X223312D01*
X247075Y200600D02*
X251181D01*
X246367Y201308D02*
Y204994D01*
X244029Y206725D02*
X244636D01*
X242298Y196627D02*
Y204994D01*
X240983Y195919D02*
X241589D01*
X240274Y196627D02*
Y204994D01*
X237936Y206725D02*
X238543D01*
X236205Y196627D02*
Y204994D01*
X234890Y195919D02*
X235497D01*
X234182Y196627D02*
Y204994D01*
X231844Y206725D02*
X232451D01*
X230113Y196627D02*
Y204994D01*
X228798Y195919D02*
X229405D01*
X228090Y196627D02*
Y204994D01*
X225752Y206725D02*
X226359D01*
X224021Y201308D02*
Y204994D01*
X222539Y200600D02*
X223312D01*
X251181Y199577D02*
X251851D01*
X222441D02*
X222539D01*
X251181Y200600D02*
X251851D01*
X222441D02*
X222539D01*
X238741Y148900D02*
Y151130D01*
X240472Y152862D02*
X242180D01*
X242888Y153570D02*
Y154177D01*
X239372Y154885D02*
X242180D01*
X237641Y156616D02*
Y157223D01*
X239372Y158954D02*
X242180D01*
X242888Y159662D02*
Y160269D01*
X239372Y160977D02*
X242180D01*
X237641Y162708D02*
Y163315D01*
X239372Y165046D02*
X242180D01*
X242888Y165754D02*
Y166361D01*
X239372Y167069D02*
X242180D01*
X237641Y168800D02*
Y169407D01*
X239372Y171139D02*
X242180D01*
X242888Y171847D02*
Y172453D01*
X240472Y173162D02*
X242180D01*
X238741Y174893D02*
Y175666D01*
X239764Y148900D02*
Y151130D01*
X240472Y151839D02*
X242180D01*
X243911Y153570D02*
Y154177D01*
X239372Y155908D02*
X242180D01*
X238664Y156616D02*
Y157223D01*
X239372Y157931D02*
X242180D01*
X243911Y159662D02*
Y160269D01*
X239372Y162000D02*
X242180D01*
X238664Y162708D02*
Y163315D01*
X239372Y164023D02*
X242180D01*
X243911Y165754D02*
Y166361D01*
X239372Y168092D02*
X242180D01*
X238664Y168800D02*
Y169407D01*
X239372Y170115D02*
X242180D01*
X243911Y171847D02*
Y172453D01*
X240472Y174185D02*
X242180D01*
X239764Y174893D02*
Y175666D01*
X238741D02*
Y189999D01*
X239764Y175666D02*
Y189999D01*
X238741Y148031D02*
Y148900D01*
X239764Y148031D02*
Y148900D01*
X247089Y96693D02*
Y138187D01*
X237560Y140787D02*
X244488D01*
X222609Y176220D02*
X232283D01*
X222609D02*
X222609D01*
X220314D02*
X221486D01*
X236614Y141732D02*
Y171889D01*
X235591Y141732D02*
Y171889D01*
X237560Y139764D02*
X244488D01*
X246065Y96612D02*
Y138187D01*
X240945Y146850D02*
X247777D01*
X220631Y191968D02*
X221485D01*
X222609D02*
X222609D01*
X237795D01*
X240945Y145827D02*
X247777D01*
X220866Y202175D02*
Y202175D01*
X216929Y204960D02*
X218081D01*
X219843Y202175D02*
Y202175D01*
D97*
X27228Y370158D02*
D03*
Y336142D02*
D03*
D98*
X6126Y370158D02*
D03*
Y336142D02*
D03*
D99*
X292500Y49394D02*
D03*
Y39394D02*
D03*
Y29394D02*
D03*
Y19394D02*
D03*
X255000Y49394D02*
D03*
Y39394D02*
D03*
Y29394D02*
D03*
Y19394D02*
D03*
X280000Y49394D02*
D03*
Y39394D02*
D03*
Y29394D02*
D03*
Y19394D02*
D03*
X267500Y49394D02*
D03*
Y39394D02*
D03*
Y29394D02*
D03*
Y19394D02*
D03*
X174600Y10500D02*
D03*
X164600Y20500D02*
D03*
X174600D02*
D03*
X164600Y30500D02*
D03*
X174600D02*
D03*
Y60500D02*
D03*
X164600D02*
D03*
X174600Y50500D02*
D03*
X164600D02*
D03*
X174600Y40500D02*
D03*
X164600D02*
D03*
Y70500D02*
D03*
X174600D02*
D03*
Y90500D02*
D03*
X164600D02*
D03*
Y80500D02*
D03*
X174600D02*
D03*
X44094Y195669D02*
D03*
X11417Y298819D02*
D03*
X44488Y102756D02*
D03*
Y149213D02*
D03*
X44190Y242222D02*
D03*
X44488Y288583D02*
D03*
D100*
X292500Y9394D02*
D03*
X255000D02*
D03*
X280000D02*
D03*
X267500D02*
D03*
X164600Y10500D02*
D03*
D101*
X292500Y382500D02*
D03*
X272500D02*
D03*
X292500Y362500D02*
D03*
X272500D02*
D03*
D102*
X282500Y372500D02*
D03*
D103*
X316300Y100200D02*
D03*
Y150200D02*
D03*
Y201300D02*
D03*
Y258200D02*
D03*
D104*
X326300Y100200D02*
D03*
Y150200D02*
D03*
Y201300D02*
D03*
Y258200D02*
D03*
D105*
X181181Y366929D02*
D03*
X191181D02*
D03*
X181181Y376929D02*
D03*
X191181D02*
D03*
X201181Y366929D02*
D03*
Y376929D02*
D03*
X211181Y366929D02*
D03*
Y376929D02*
D03*
X221181Y366929D02*
D03*
D106*
Y376929D02*
D03*
D107*
X187402Y152756D02*
D03*
X196063Y137992D02*
D03*
X186614Y137992D02*
D03*
X188976Y119948D02*
D03*
Y115748D02*
D03*
X193176D02*
D03*
Y119948D02*
D03*
X188976Y128348D02*
D03*
Y124148D02*
D03*
X193176D02*
D03*
Y128348D02*
D03*
X216405Y127953D02*
D03*
X212205D02*
D03*
X216405Y123753D02*
D03*
Y119553D02*
D03*
X212205Y123753D02*
D03*
X216405Y115353D02*
D03*
X212205D02*
D03*
Y119553D02*
D03*
X339107Y6036D02*
D03*
Y14436D02*
D03*
X347507D02*
D03*
X330707Y31236D02*
D03*
X322307D02*
D03*
Y22836D02*
D03*
X330707D02*
D03*
X347507Y31236D02*
D03*
X339107D02*
D03*
Y22836D02*
D03*
X347507D02*
D03*
X330707Y14436D02*
D03*
X322307D02*
D03*
Y6036D02*
D03*
X330707D02*
D03*
X85956Y101707D02*
D03*
X94356D02*
D03*
X111156Y110107D02*
D03*
Y118507D02*
D03*
X102756D02*
D03*
Y110107D02*
D03*
Y101707D02*
D03*
X94356Y110107D02*
D03*
Y118507D02*
D03*
X85956D02*
D03*
Y110107D02*
D03*
X111156Y93307D02*
D03*
Y101707D02*
D03*
X119556D02*
D03*
Y93307D02*
D03*
X136356Y110107D02*
D03*
Y118507D02*
D03*
X127956D02*
D03*
Y110107D02*
D03*
X136356Y101707D02*
D03*
X127956D02*
D03*
X119556Y110107D02*
D03*
Y118507D02*
D03*
X111156Y68107D02*
D03*
X102756D02*
D03*
Y76507D02*
D03*
X111156D02*
D03*
X94356Y93307D02*
D03*
X85956D02*
D03*
Y84907D02*
D03*
X94356D02*
D03*
X102756Y93307D02*
D03*
Y84907D02*
D03*
X111156D02*
D03*
X94356Y76507D02*
D03*
X85956D02*
D03*
Y68107D02*
D03*
X94356D02*
D03*
X332283Y358661D02*
D03*
X323884D02*
D03*
Y367061D02*
D03*
X332283D02*
D03*
X315483Y383861D02*
D03*
X307084D02*
D03*
Y375461D02*
D03*
X315483D02*
D03*
X332283Y383861D02*
D03*
X323884D02*
D03*
Y375461D02*
D03*
X332283D02*
D03*
X315483Y367061D02*
D03*
X307084D02*
D03*
Y358661D02*
D03*
X315483D02*
D03*
X239370Y300000D02*
D03*
X230970D02*
D03*
Y308400D02*
D03*
X239370D02*
D03*
X222570Y325200D02*
D03*
X214170D02*
D03*
Y316800D02*
D03*
X222570D02*
D03*
X239370Y325200D02*
D03*
X230970D02*
D03*
Y316800D02*
D03*
X239370D02*
D03*
X222570Y308400D02*
D03*
X214170D02*
D03*
Y300000D02*
D03*
X222570D02*
D03*
X128347Y247638D02*
D03*
X119947D02*
D03*
Y256038D02*
D03*
X128347D02*
D03*
X111547Y272838D02*
D03*
X103147D02*
D03*
Y264438D02*
D03*
X111547D02*
D03*
X128347Y272838D02*
D03*
X119947D02*
D03*
Y264438D02*
D03*
X128347D02*
D03*
X111547Y256038D02*
D03*
X103147D02*
D03*
Y247638D02*
D03*
X111547D02*
D03*
X119556Y68107D02*
D03*
Y76507D02*
D03*
X136356Y84907D02*
D03*
X127956D02*
D03*
Y93307D02*
D03*
X136356D02*
D03*
X119556Y84907D02*
D03*
X136356Y76507D02*
D03*
X127956D02*
D03*
Y68107D02*
D03*
X136356D02*
D03*
X141339Y26247D02*
D03*
Y22047D02*
D03*
X145539D02*
D03*
Y26247D02*
D03*
X191339Y64043D02*
D03*
Y59842D02*
D03*
X195539D02*
D03*
Y64043D02*
D03*
X213779Y64436D02*
D03*
Y60236D02*
D03*
X217980D02*
D03*
Y64436D02*
D03*
X381890Y10630D02*
D03*
X386090D02*
D03*
X381890Y17717D02*
D03*
X386090D02*
D03*
X381890Y31260D02*
D03*
X386090D02*
D03*
X381890Y38346D02*
D03*
X386090D02*
D03*
X381890Y59842D02*
D03*
X386090D02*
D03*
X381890Y66929D02*
D03*
X386090D02*
D03*
X381890Y80472D02*
D03*
X386090D02*
D03*
X381890Y87559D02*
D03*
X386090D02*
D03*
X381890Y109055D02*
D03*
X386090D02*
D03*
X381890Y116142D02*
D03*
X386090D02*
D03*
X381890Y129685D02*
D03*
X386090D02*
D03*
X381890Y136772D02*
D03*
X386090D02*
D03*
X381890Y158268D02*
D03*
X386090D02*
D03*
X381890Y165354D02*
D03*
X386090D02*
D03*
X381890Y178898D02*
D03*
X386090D02*
D03*
X381890Y185984D02*
D03*
X386090D02*
D03*
X381890Y207480D02*
D03*
X386090D02*
D03*
X381890Y214567D02*
D03*
X386090D02*
D03*
X381890Y228110D02*
D03*
X386090D02*
D03*
X381890Y235197D02*
D03*
X386090D02*
D03*
X381890Y256693D02*
D03*
X386090D02*
D03*
X381890Y263779D02*
D03*
X386090D02*
D03*
X381890Y277323D02*
D03*
X386090D02*
D03*
X381890Y284409D02*
D03*
X386090D02*
D03*
X381890Y305906D02*
D03*
X386090D02*
D03*
X381890Y312992D02*
D03*
X386090D02*
D03*
X381890Y326535D02*
D03*
X386090D02*
D03*
X381890Y333622D02*
D03*
X386090D02*
D03*
X381890Y375748D02*
D03*
X386090D02*
D03*
X381890Y382835D02*
D03*
X386090D02*
D03*
Y362205D02*
D03*
X381890D02*
D03*
X386090Y355118D02*
D03*
X381890D02*
D03*
Y347638D02*
D03*
Y343438D02*
D03*
X386090D02*
D03*
Y347638D02*
D03*
X357480Y350394D02*
D03*
X353280D02*
D03*
X357480Y338976D02*
D03*
X353280D02*
D03*
X381890Y249213D02*
D03*
Y245013D02*
D03*
X386090D02*
D03*
Y249213D02*
D03*
X357480Y251969D02*
D03*
X353280D02*
D03*
X357480Y240551D02*
D03*
X353280D02*
D03*
X381890Y150787D02*
D03*
Y146587D02*
D03*
X386090D02*
D03*
Y150787D02*
D03*
X357480Y153543D02*
D03*
Y142126D02*
D03*
X353280D02*
D03*
X324603Y332096D02*
D03*
Y327896D02*
D03*
X332084D02*
D03*
Y332096D02*
D03*
X324803Y288058D02*
D03*
Y283858D02*
D03*
X332283D02*
D03*
Y288058D02*
D03*
X298688Y263779D02*
D03*
X294488D02*
D03*
Y271260D02*
D03*
X298688D02*
D03*
X316011Y263386D02*
D03*
X311811D02*
D03*
Y271372D02*
D03*
X316011D02*
D03*
X315748Y157718D02*
D03*
X311548D02*
D03*
X311811Y166379D02*
D03*
X353280Y43701D02*
D03*
X357480D02*
D03*
X316011Y113779D02*
D03*
X311811D02*
D03*
X311548Y105118D02*
D03*
X315748D02*
D03*
X353280Y55118D02*
D03*
X357480D02*
D03*
X347507Y6036D02*
D03*
X386090Y52362D02*
D03*
Y48162D02*
D03*
X381890D02*
D03*
Y52362D02*
D03*
X103937Y192913D02*
D03*
X134252Y166142D02*
D03*
X142520D02*
D03*
X19685Y336221D02*
D03*
X14961D02*
D03*
X20866Y375984D02*
D03*
X20472Y349213D02*
D03*
X15354Y348950D02*
D03*
X20866Y351969D02*
D03*
X31496Y354724D02*
D03*
X33071Y347779D02*
D03*
X6600Y387400D02*
D03*
X10800D02*
D03*
X6600Y383200D02*
D03*
X10800D02*
D03*
X6600Y379000D02*
D03*
X10800D02*
D03*
X15000D02*
D03*
Y383200D02*
D03*
Y387400D02*
D03*
X15354Y357350D02*
D03*
Y353150D02*
D03*
X11154Y348950D02*
D03*
X6954D02*
D03*
X11154Y353150D02*
D03*
X6954D02*
D03*
X11154Y357350D02*
D03*
X6954D02*
D03*
X35016Y357661D02*
D03*
Y362385D02*
D03*
X34819Y352542D02*
D03*
X14717Y35246D02*
D03*
X35217D02*
D03*
X48883D02*
D03*
X296850Y168110D02*
D03*
X290945Y175984D02*
D03*
X288583Y181102D02*
D03*
X280315Y144882D02*
D03*
X50394Y353543D02*
D03*
Y337795D02*
D03*
Y342520D02*
D03*
X50000Y331496D02*
D03*
X88583Y375984D02*
D03*
X109449Y335827D02*
D03*
X290985Y120358D02*
D03*
X290941Y172955D02*
D03*
X290937Y225552D02*
D03*
X291365Y278200D02*
D03*
X160100Y165562D02*
D03*
X157504Y156861D02*
D03*
X162704D02*
D03*
X216804Y156761D02*
D03*
X204204Y238039D02*
D03*
X204196Y225361D02*
D03*
X184409Y277563D02*
D03*
X160393D02*
D03*
X204111Y344711D02*
D03*
X222377Y342977D02*
D03*
X36658Y371693D02*
D03*
X37988Y324763D02*
D03*
X145961Y375513D02*
D03*
X155739Y354396D02*
D03*
X143061Y354503D02*
D03*
X88704Y388339D02*
D03*
X80004D02*
D03*
X111662Y349645D02*
D03*
X84323Y379774D02*
D03*
X110331Y376674D02*
D03*
Y370769D02*
D03*
X123228Y349606D02*
D03*
X89268Y309347D02*
D03*
X78347Y309449D02*
D03*
X72441Y311811D02*
D03*
X92126Y317717D02*
D03*
X276772Y139370D02*
D03*
X260630Y296063D02*
D03*
X285827Y306103D02*
D03*
X279921D02*
D03*
X274016D02*
D03*
X296300Y230134D02*
D03*
X302300D02*
D03*
X308400Y229740D02*
D03*
X314500D02*
D03*
X307874Y247244D02*
D03*
X292159Y123726D02*
D03*
X294600Y176791D02*
D03*
X300600D02*
D03*
X306700Y176397D02*
D03*
X312800D02*
D03*
Y124409D02*
D03*
X306700D02*
D03*
X300600Y124803D02*
D03*
X294600D02*
D03*
X283661Y236417D02*
D03*
X284207Y238773D02*
D03*
X286213Y240386D02*
D03*
X275794Y238234D02*
D03*
X279914Y240386D02*
D03*
X279921Y187795D02*
D03*
X275801Y185644D02*
D03*
X286221Y187795D02*
D03*
X284214Y186182D02*
D03*
X283648Y183825D02*
D03*
Y131228D02*
D03*
X284347Y134646D02*
D03*
X282283Y136221D02*
D03*
X279528Y135827D02*
D03*
X276870Y135309D02*
D03*
X290551Y94882D02*
D03*
X277744Y193307D02*
D03*
X277444Y242207D02*
D03*
X305780Y142307D02*
D03*
X307480Y193326D02*
D03*
X278346Y99606D02*
D03*
X290945Y114567D02*
D03*
X276772Y202362D02*
D03*
X277953Y204724D02*
D03*
X291339Y219685D02*
D03*
Y231496D02*
D03*
X277559Y257087D02*
D03*
X291732Y272441D02*
D03*
Y283858D02*
D03*
X283858Y289764D02*
D03*
X299606Y314961D02*
D03*
X303543Y311811D02*
D03*
X284646Y312205D02*
D03*
X277559D02*
D03*
X295669Y311811D02*
D03*
X299606D02*
D03*
X284646Y315354D02*
D03*
X277559D02*
D03*
X306176Y320559D02*
D03*
X313392Y315441D02*
D03*
X316929Y324803D02*
D03*
X295669D02*
D03*
X288189D02*
D03*
X281102D02*
D03*
X273622D02*
D03*
X306660Y118272D02*
D03*
X306693Y100676D02*
D03*
X257200Y97800D02*
D03*
X301500Y120300D02*
D03*
Y173100D02*
D03*
Y225400D02*
D03*
X277000Y97882D02*
D03*
X273800Y97908D02*
D03*
X263500Y132205D02*
D03*
X264600Y98505D02*
D03*
X306693Y153276D02*
D03*
X306660Y170872D02*
D03*
X257800Y150600D02*
D03*
X273800Y150505D02*
D03*
X277000Y150480D02*
D03*
X263500Y184803D02*
D03*
X264600Y151103D02*
D03*
X306660Y223572D02*
D03*
X306693Y205976D02*
D03*
X257800Y203000D02*
D03*
X264600Y203700D02*
D03*
X273800Y203103D02*
D03*
X301500Y278200D02*
D03*
X276400Y254700D02*
D03*
X257500Y255600D02*
D03*
X264000Y256200D02*
D03*
X263500Y237400D02*
D03*
X265278Y289702D02*
D03*
X273800Y255700D02*
D03*
X190551Y196850D02*
D03*
X196850Y203150D02*
D03*
X190600Y200138D02*
D03*
X94000Y387900D02*
D03*
X108200Y362754D02*
D03*
X57374Y366165D02*
D03*
X64600Y387600D02*
D03*
X59300Y374721D02*
D03*
X52731Y373700D02*
D03*
X44100Y389300D02*
D03*
X37306Y389152D02*
D03*
X40301Y73739D02*
D03*
Y69539D02*
D03*
X44501D02*
D03*
Y73739D02*
D03*
X40332Y120332D02*
D03*
Y116132D02*
D03*
X44532D02*
D03*
Y120332D02*
D03*
X39939Y166684D02*
D03*
Y162484D02*
D03*
X44139D02*
D03*
Y166684D02*
D03*
X39939Y213246D02*
D03*
Y209046D02*
D03*
X44139D02*
D03*
Y213246D02*
D03*
X44500Y259700D02*
D03*
Y255500D02*
D03*
X40300D02*
D03*
Y259700D02*
D03*
X108300Y156400D02*
D03*
X104454Y158746D02*
D03*
X133800Y365400D02*
D03*
Y370400D02*
D03*
Y375400D02*
D03*
X70453Y355286D02*
D03*
X68553Y357686D02*
D03*
X66653Y359786D02*
D03*
X64684Y315691D02*
D03*
X66584Y313591D02*
D03*
X68484Y311191D02*
D03*
X64684Y331691D02*
D03*
X185557Y283858D02*
D03*
X161500Y283900D02*
D03*
X183465Y316142D02*
D03*
X159449D02*
D03*
X190551Y222047D02*
D03*
X117500Y222300D02*
D03*
X101100D02*
D03*
X109500D02*
D03*
X150400Y166000D02*
D03*
X133400Y161000D02*
D03*
X142585Y161638D02*
D03*
X124803Y160630D02*
D03*
X118168Y160653D02*
D03*
X104724Y169291D02*
D03*
X97638Y169488D02*
D03*
X101000Y170886D02*
D03*
X117161Y8261D02*
D03*
X69661D02*
D03*
X52300Y8268D02*
D03*
X45467D02*
D03*
X38633D02*
D03*
X31800D02*
D03*
X24967D02*
D03*
X18133D02*
D03*
X11300D02*
D03*
X212205Y14961D02*
D03*
X222441Y46063D02*
D03*
X198819Y46457D02*
D03*
X235039Y15748D02*
D03*
X203543Y14961D02*
D03*
X190924Y16567D02*
D03*
X220866Y15748D02*
D03*
X225661Y15677D02*
D03*
X216142Y15354D02*
D03*
X207874Y14961D02*
D03*
X199213D02*
D03*
X195276Y15017D02*
D03*
X193701Y174803D02*
D03*
X126772Y201181D02*
D03*
X130000Y172600D02*
D03*
X123622Y182283D02*
D03*
X101575Y204331D02*
D03*
X171653Y218898D02*
D03*
X203150Y184252D02*
D03*
Y181102D02*
D03*
X206299Y177953D02*
D03*
Y174803D02*
D03*
X203150Y177953D02*
D03*
Y174803D02*
D03*
X196850Y177953D02*
D03*
X193701D02*
D03*
X200000Y181102D02*
D03*
X196850D02*
D03*
X193701D02*
D03*
X200000Y184252D02*
D03*
X196850D02*
D03*
X193701D02*
D03*
X123622Y185433D02*
D03*
X111024D02*
D03*
X117323Y201181D02*
D03*
X123622Y204331D02*
D03*
X123622Y201181D02*
D03*
X120472Y204331D02*
D03*
Y207480D02*
D03*
X123622D02*
D03*
X126772Y204331D02*
D03*
Y198031D02*
D03*
X123622D02*
D03*
X120472D02*
D03*
X117323D02*
D03*
X174803Y212598D02*
D03*
X171653Y215748D02*
D03*
Y212598D02*
D03*
X181102Y209449D02*
D03*
X184252Y206299D02*
D03*
X181102D02*
D03*
X184300Y209401D02*
D03*
X142520Y188583D02*
D03*
X145669D02*
D03*
X133071Y198031D02*
D03*
X136221D02*
D03*
X174803Y218898D02*
D03*
X174803Y215748D02*
D03*
X181102Y215748D02*
D03*
X177953Y215748D02*
D03*
X174803Y203150D02*
D03*
X171653D02*
D03*
X123622Y188583D02*
D03*
X126772D02*
D03*
X139370Y182283D02*
D03*
X111024Y204331D02*
D03*
X107874Y207480D02*
D03*
X104724D02*
D03*
X101575D02*
D03*
X99896Y182283D02*
D03*
X116929Y191732D02*
D03*
X184252Y190551D02*
D03*
X101575Y198031D02*
D03*
X104724Y201181D02*
D03*
X114173Y204331D02*
D03*
X107874Y204331D02*
D03*
X181102Y212598D02*
D03*
X174803Y206299D02*
D03*
X120472Y188583D02*
D03*
X114173D02*
D03*
X111024D02*
D03*
X107874Y185433D02*
D03*
Y188583D02*
D03*
X104724Y185433D02*
D03*
Y188583D02*
D03*
X107874Y198031D02*
D03*
X111024D02*
D03*
X114173D02*
D03*
X187402Y200000D02*
D03*
X158268D02*
D03*
X157480Y196850D02*
D03*
X154331Y200000D02*
D03*
X126772Y185433D02*
D03*
X129921Y201181D02*
D03*
X133071Y204331D02*
D03*
X136221D02*
D03*
X145669Y207480D02*
D03*
X142520Y204331D02*
D03*
X139370D02*
D03*
X151969D02*
D03*
X148819D02*
D03*
X139370Y198031D02*
D03*
X129921D02*
D03*
X142520Y185433D02*
D03*
X145669D02*
D03*
X136221D02*
D03*
X129921D02*
D03*
X177953Y193701D02*
D03*
X174803Y190551D02*
D03*
X133071Y185433D02*
D03*
X145669Y204331D02*
D03*
Y201181D02*
D03*
X171653Y193701D02*
D03*
Y196850D02*
D03*
X177953Y203150D02*
D03*
X181102D02*
D03*
X184252D02*
D03*
Y200000D02*
D03*
X181102D02*
D03*
X184252Y187402D02*
D03*
X181102Y190551D02*
D03*
Y187402D02*
D03*
X177953D02*
D03*
Y181102D02*
D03*
X174803D02*
D03*
X177953Y177953D02*
D03*
Y184252D02*
D03*
X174803D02*
D03*
Y177953D02*
D03*
Y174803D02*
D03*
X171653D02*
D03*
Y177953D02*
D03*
Y181102D02*
D03*
X177953Y200000D02*
D03*
X174803D02*
D03*
X171653D02*
D03*
X174803Y196850D02*
D03*
X177953D02*
D03*
X181102D02*
D03*
X184252Y193701D02*
D03*
X181102D02*
D03*
X177953Y190551D02*
D03*
X171653Y184252D02*
D03*
Y187402D02*
D03*
X174803D02*
D03*
X133071Y201181D02*
D03*
X136221D02*
D03*
X251279Y272321D02*
D03*
X209449Y215748D02*
D03*
X251279Y270199D02*
D03*
X212598Y215748D02*
D03*
X254331Y211849D02*
D03*
X215748Y209449D02*
D03*
X212598D02*
D03*
X203150Y215748D02*
D03*
X252165Y223660D02*
D03*
X206299Y215748D02*
D03*
X203150Y212598D02*
D03*
Y209449D02*
D03*
X212598Y212598D02*
D03*
X218898Y190551D02*
D03*
X254429Y120358D02*
D03*
X222047Y187402D02*
D03*
X254429Y122479D02*
D03*
X254331Y112484D02*
D03*
X222047Y181102D02*
D03*
X218898Y184252D02*
D03*
X254331Y114605D02*
D03*
Y104610D02*
D03*
Y106731D02*
D03*
X215748Y177953D02*
D03*
Y181102D02*
D03*
X218898Y177953D02*
D03*
X252362Y110668D02*
D03*
Y108546D02*
D03*
X222047Y177953D02*
D03*
X215748Y187402D02*
D03*
X218898D02*
D03*
X252165Y116420D02*
D03*
Y118542D02*
D03*
X254402Y159251D02*
D03*
Y157129D02*
D03*
X212598Y196850D02*
D03*
X209449D02*
D03*
X252434Y163188D02*
D03*
Y161066D02*
D03*
X254402Y165003D02*
D03*
Y167125D02*
D03*
X212598Y200000D02*
D03*
X209449D02*
D03*
X252237Y171062D02*
D03*
Y168940D02*
D03*
X254501Y174999D02*
D03*
Y172877D02*
D03*
X209449Y193701D02*
D03*
X212598D02*
D03*
X215748Y196850D02*
D03*
Y200000D02*
D03*
X209449Y203150D02*
D03*
X212598D02*
D03*
X254331Y209728D02*
D03*
X206299Y212598D02*
D03*
Y209449D02*
D03*
X252362Y213665D02*
D03*
Y215786D02*
D03*
X254331Y219723D02*
D03*
Y217602D02*
D03*
X252165Y221539D02*
D03*
X215748Y215748D02*
D03*
X254429Y227597D02*
D03*
Y225476D02*
D03*
X218898Y215748D02*
D03*
Y212598D02*
D03*
X251181Y264447D02*
D03*
Y262325D02*
D03*
X247638Y96144D02*
D03*
X218898Y174803D02*
D03*
X245516Y96063D02*
D03*
X222047Y174803D02*
D03*
X248327Y147400D02*
D03*
X218898Y193701D02*
D03*
X248327Y145278D02*
D03*
X222047Y190551D02*
D03*
X252400Y201149D02*
D03*
Y199028D02*
D03*
X215748Y203150D02*
D03*
Y206299D02*
D03*
X223228Y195276D02*
D03*
X306693Y276378D02*
D03*
Y258268D02*
D03*
X171653Y171653D02*
D03*
X177953Y212598D02*
D03*
X171653Y222047D02*
D03*
X184252D02*
D03*
X222047Y171653D02*
D03*
X215748Y184252D02*
D03*
Y212598D02*
D03*
X222047Y222047D02*
D03*
X206299Y218898D02*
D03*
X190551Y209449D02*
D03*
X174803Y193701D02*
D03*
X203150Y200000D02*
D03*
X196850Y190551D02*
D03*
X203150Y206299D02*
D03*
X200000D02*
D03*
X196850D02*
D03*
Y193701D02*
D03*
X203150Y190551D02*
D03*
Y193701D02*
D03*
X193701D02*
D03*
X200000Y196850D02*
D03*
X190551Y193701D02*
D03*
Y190551D02*
D03*
X193701Y206299D02*
D03*
X190551Y203150D02*
D03*
X203150Y196850D02*
D03*
D108*
X10379Y104685D02*
D03*
Y151142D02*
D03*
X9985Y197598D02*
D03*
Y244055D02*
D03*
X10379Y290512D02*
D03*
X26558Y167126D02*
D03*
X26952Y74213D02*
D03*
Y120774D02*
D03*
X26653Y213593D02*
D03*
X26920Y260142D02*
D03*
D109*
X283465Y281890D02*
D03*
Y277559D02*
D03*
Y273228D02*
D03*
Y268898D02*
D03*
Y264567D02*
D03*
X279134Y281890D02*
D03*
Y277559D02*
D03*
Y273228D02*
D03*
Y268898D02*
D03*
Y264567D02*
D03*
X274803Y281890D02*
D03*
Y277559D02*
D03*
Y273228D02*
D03*
Y268898D02*
D03*
Y264567D02*
D03*
X270472Y281890D02*
D03*
Y277559D02*
D03*
Y273228D02*
D03*
Y268898D02*
D03*
Y264567D02*
D03*
X266142Y281890D02*
D03*
Y277559D02*
D03*
Y273228D02*
D03*
Y268898D02*
D03*
Y264567D02*
D03*
Y106775D02*
D03*
Y111106D02*
D03*
Y115436D02*
D03*
Y119767D02*
D03*
Y124098D02*
D03*
X270472Y106775D02*
D03*
Y111106D02*
D03*
Y115436D02*
D03*
Y119767D02*
D03*
Y124098D02*
D03*
X274803Y106775D02*
D03*
Y111106D02*
D03*
Y115436D02*
D03*
Y119767D02*
D03*
Y124098D02*
D03*
X279134Y106775D02*
D03*
Y111106D02*
D03*
Y115436D02*
D03*
Y119767D02*
D03*
Y124098D02*
D03*
X283465Y106775D02*
D03*
Y111106D02*
D03*
Y115436D02*
D03*
Y119767D02*
D03*
Y124098D02*
D03*
X266142Y159372D02*
D03*
Y163703D02*
D03*
Y168034D02*
D03*
Y172364D02*
D03*
Y176695D02*
D03*
X270472Y159372D02*
D03*
Y163703D02*
D03*
Y168034D02*
D03*
Y172364D02*
D03*
Y176695D02*
D03*
X274803Y159372D02*
D03*
Y163703D02*
D03*
Y168034D02*
D03*
Y172364D02*
D03*
Y176695D02*
D03*
X279134Y159372D02*
D03*
Y163703D02*
D03*
Y168034D02*
D03*
Y172364D02*
D03*
Y176695D02*
D03*
X283465Y159372D02*
D03*
Y163703D02*
D03*
Y168034D02*
D03*
Y172364D02*
D03*
Y176695D02*
D03*
X266142Y211970D02*
D03*
Y216300D02*
D03*
Y220631D02*
D03*
Y224962D02*
D03*
Y229292D02*
D03*
X270472Y211970D02*
D03*
Y216300D02*
D03*
Y220631D02*
D03*
Y224962D02*
D03*
Y229292D02*
D03*
X274803Y211970D02*
D03*
Y216300D02*
D03*
Y220631D02*
D03*
Y224962D02*
D03*
Y229292D02*
D03*
X279134Y211970D02*
D03*
Y216300D02*
D03*
Y220631D02*
D03*
Y224962D02*
D03*
Y229292D02*
D03*
X283465Y211970D02*
D03*
Y216300D02*
D03*
Y220631D02*
D03*
Y224962D02*
D03*
Y229292D02*
D03*
D119*
X252700Y100000D02*
D03*
X253300Y152800D02*
D03*
Y205200D02*
D03*
X252800Y256800D02*
D03*
D120*
X269400Y93500D02*
D03*
X269800Y146000D02*
D03*
X269400Y199000D02*
D03*
X269100Y247900D02*
D03*
M02*
