G04*
G04 #@! TF.GenerationSoftware,Altium Limited,Altium Designer,21.2.1 (34)*
G04*
G04 Layer_Physical_Order=4*
G04 Layer_Color=65280*
%FSLAX25Y25*%
%MOIN*%
G70*
G04*
G04 #@! TF.SameCoordinates,0D780EAB-B6EC-48A9-9064-61573679FFEB*
G04*
G04*
G04 #@! TF.FilePolarity,Positive*
G04*
G01*
G75*
%ADD14C,0.00500*%
%ADD15C,0.01000*%
%ADD99C,0.05906*%
%ADD100R,0.05906X0.05906*%
%ADD102C,0.09843*%
%ADD105C,0.06299*%
%ADD107C,0.01772*%
%ADD108C,0.02756*%
%ADD118C,0.00584*%
G36*
X206299Y346063D02*
X280709D01*
X297952Y328819D01*
Y321260D01*
X297931D01*
X298082Y320113D01*
X298525Y319044D01*
X299229Y318127D01*
X300147Y317422D01*
X301215Y316980D01*
X302362Y316829D01*
Y316829D01*
X302380Y316844D01*
X303258Y316728D01*
X304092Y316383D01*
X304809Y315833D01*
X305359Y315116D01*
X305705Y314281D01*
X305822Y313386D01*
X305826D01*
Y277259D01*
X305645Y277078D01*
X305457Y276624D01*
Y276132D01*
X305645Y275678D01*
X305826Y275497D01*
Y259149D01*
X305645Y258968D01*
X305457Y258513D01*
Y258022D01*
X305645Y257568D01*
X305993Y257220D01*
X306447Y257032D01*
X306939D01*
X307393Y257220D01*
X307741Y257568D01*
X307929Y258022D01*
Y258513D01*
X307741Y258968D01*
X307560Y259149D01*
Y275497D01*
X307741Y275678D01*
X307929Y276132D01*
Y276624D01*
X307741Y277078D01*
X307560Y277259D01*
Y313386D01*
X307588D01*
X307410Y314738D01*
X306888Y315999D01*
X306057Y317081D01*
X304975Y317911D01*
X303715Y318433D01*
X302362Y318611D01*
Y318611D01*
X302345Y318596D01*
X301672Y318685D01*
X301029Y318951D01*
X300477Y319375D01*
X300053Y319927D01*
X299787Y320570D01*
X299696Y321260D01*
X299686D01*
Y326433D01*
X300148Y326624D01*
X305320Y321451D01*
X305128Y321259D01*
X304940Y320805D01*
Y320313D01*
X305128Y319859D01*
X305476Y319511D01*
X305930Y319323D01*
X306422D01*
X306876Y319511D01*
X307068Y319704D01*
X322047Y304724D01*
X322047Y146457D01*
X301371Y125780D01*
X301300Y125851D01*
X300846Y126039D01*
X300354D01*
X299900Y125851D01*
X299552Y125503D01*
X299364Y125049D01*
Y124793D01*
X297669Y123098D01*
X297544Y123099D01*
X297135Y123271D01*
X297103Y123432D01*
X296916Y123713D01*
X295836Y124793D01*
Y125049D01*
X295648Y125503D01*
X295300Y125851D01*
X294846Y126039D01*
X294354D01*
X293900Y125851D01*
X293552Y125503D01*
X293364Y125049D01*
Y124976D01*
X292864Y124769D01*
X292860Y124774D01*
X292405Y124962D01*
X291914D01*
X291459Y124774D01*
X291112Y124426D01*
X290924Y123972D01*
Y123480D01*
X291112Y123026D01*
X291459Y122678D01*
X291914Y122490D01*
X292405D01*
X292860Y122678D01*
X293207Y123026D01*
X293395Y123480D01*
Y123553D01*
X293895Y123760D01*
X293900Y123756D01*
X294354Y123567D01*
X294610D01*
X295436Y122741D01*
Y117323D01*
X289882D01*
Y130844D01*
X290096Y130986D01*
X290746Y131636D01*
X290934Y131918D01*
X291000Y132249D01*
Y137042D01*
X290934Y137374D01*
X290746Y137655D01*
X290350Y138051D01*
Y161496D01*
X294291Y165438D01*
X305674D01*
X306006Y165504D01*
X306287Y165691D01*
X313413Y172817D01*
X313601Y173098D01*
X313667Y173430D01*
Y175516D01*
X313848Y175697D01*
X314036Y176151D01*
Y176643D01*
X313848Y177097D01*
X313500Y177445D01*
X313046Y177633D01*
X312554D01*
X312100Y177445D01*
X311752Y177097D01*
X311564Y176643D01*
Y176151D01*
X311752Y175697D01*
X311933Y175516D01*
Y173789D01*
X308201Y170056D01*
X307777Y170339D01*
X307896Y170626D01*
Y171118D01*
X307707Y171572D01*
X307360Y171920D01*
X306906Y172108D01*
X306414D01*
X305960Y171920D01*
X305612Y171572D01*
X305424Y171118D01*
Y170626D01*
X305612Y170172D01*
X305960Y169824D01*
X306414Y169636D01*
X306906D01*
X307192Y169755D01*
X307476Y169331D01*
X305315Y167171D01*
X298312D01*
X298006Y167671D01*
X298086Y167864D01*
Y168356D01*
X297898Y168810D01*
X297603Y169106D01*
X297639Y169350D01*
X297756Y169606D01*
X302362D01*
X302694Y169672D01*
X302975Y169860D01*
X307165Y174050D01*
X307353Y174331D01*
X307419Y174663D01*
Y175368D01*
X307748Y175697D01*
X307936Y176151D01*
Y176643D01*
X307748Y177097D01*
X307400Y177445D01*
X306946Y177633D01*
X306454D01*
X306000Y177445D01*
X305652Y177097D01*
X305464Y176643D01*
Y176151D01*
X305652Y175697D01*
X305686Y175663D01*
Y175022D01*
X303106Y172442D01*
X302682Y172725D01*
X302736Y172854D01*
Y173346D01*
X302548Y173800D01*
X302200Y174148D01*
X301746Y174336D01*
X301254D01*
X300800Y174148D01*
X300452Y173800D01*
X300264Y173346D01*
Y172854D01*
X300452Y172400D01*
X300800Y172052D01*
X301254Y171864D01*
X301373D01*
X301673Y171364D01*
X301660Y171339D01*
X297027D01*
X296836Y171801D01*
X300590Y175555D01*
X300846D01*
X301300Y175743D01*
X301648Y176091D01*
X301836Y176545D01*
Y177036D01*
X301648Y177491D01*
X301300Y177838D01*
X300846Y178026D01*
X300354D01*
X299900Y177838D01*
X299552Y177491D01*
X299364Y177036D01*
Y176780D01*
X295929Y173345D01*
X295467Y173536D01*
Y175909D01*
X295648Y176091D01*
X295836Y176545D01*
Y177036D01*
X295648Y177491D01*
X295300Y177838D01*
X294846Y178026D01*
X294354D01*
X293900Y177838D01*
X293552Y177491D01*
X293364Y177036D01*
Y176545D01*
X293552Y176091D01*
X293733Y175909D01*
Y173059D01*
X285136Y164461D01*
X284824Y164460D01*
X284511Y164543D01*
X284220Y164834D01*
X284190Y164847D01*
X284190Y166890D01*
X284220Y166902D01*
X284596Y167278D01*
X284799Y167768D01*
Y168299D01*
X284596Y168789D01*
X284220Y169165D01*
X284190Y169177D01*
Y171221D01*
X284220Y171233D01*
X284596Y171608D01*
X284799Y172099D01*
Y172630D01*
X284596Y173120D01*
X284220Y173495D01*
X284190Y173508D01*
Y175551D01*
X284220Y175564D01*
X284596Y175939D01*
X284799Y176430D01*
Y176960D01*
X284596Y177451D01*
X284220Y177826D01*
X284190Y177839D01*
Y182712D01*
X284348Y182778D01*
X284696Y183125D01*
X284884Y183579D01*
Y184071D01*
X284696Y184525D01*
X284829Y185099D01*
X284914Y185135D01*
X285262Y185483D01*
X285450Y185937D01*
Y186236D01*
X285831Y186558D01*
X285912Y186585D01*
X285975Y186559D01*
X286466D01*
X286920Y186748D01*
X287268Y187095D01*
X287456Y187549D01*
Y188041D01*
X287268Y188495D01*
X286920Y188843D01*
X286466Y189031D01*
X285975D01*
X285520Y188843D01*
X285173Y188495D01*
X284985Y188041D01*
Y187848D01*
X284576Y187523D01*
X284391Y187571D01*
X284190Y187715D01*
Y200287D01*
X304296Y220393D01*
X308452D01*
X308783Y220459D01*
X309065Y220647D01*
X310849Y222431D01*
X311037Y222713D01*
X311103Y223044D01*
Y225117D01*
X314490Y228504D01*
X314746D01*
X315200Y228693D01*
X315548Y229040D01*
X315736Y229494D01*
Y229986D01*
X315548Y230440D01*
X315200Y230788D01*
X314746Y230976D01*
X314254D01*
X313800Y230788D01*
X313452Y230440D01*
X313264Y229986D01*
Y229730D01*
X309623Y226089D01*
X309436Y225808D01*
X309370Y225476D01*
Y223403D01*
X308093Y222127D01*
X307615D01*
X307599Y222152D01*
X307462Y222626D01*
X307707Y222872D01*
X307896Y223326D01*
Y223818D01*
X307707Y224272D01*
X307360Y224620D01*
X306906Y224808D01*
X306414D01*
X305960Y224620D01*
X305612Y224272D01*
X305424Y223818D01*
Y223326D01*
X305612Y222872D01*
X305858Y222626D01*
X305720Y222152D01*
X305704Y222127D01*
X303937D01*
X303605Y222060D01*
X303324Y221873D01*
X284652Y203200D01*
X284190Y203391D01*
Y204304D01*
X308390Y228504D01*
X308646D01*
X309100Y228693D01*
X309448Y229040D01*
X309636Y229494D01*
Y229986D01*
X309448Y230440D01*
X309100Y230788D01*
X308646Y230976D01*
X308154D01*
X307700Y230788D01*
X307352Y230440D01*
X307164Y229986D01*
Y229730D01*
X303198Y225764D01*
X302629Y225902D01*
X302548Y226100D01*
X302200Y226448D01*
X301746Y226636D01*
X301254D01*
X300800Y226448D01*
X300452Y226100D01*
X300264Y225646D01*
Y225154D01*
X300452Y224700D01*
X300800Y224352D01*
X300998Y224271D01*
X301136Y223702D01*
X284652Y207217D01*
X284190Y207409D01*
Y208856D01*
X299432Y224098D01*
X299620Y224379D01*
X299686Y224710D01*
Y226294D01*
X302290Y228898D01*
X302546D01*
X303000Y229086D01*
X303348Y229434D01*
X303536Y229888D01*
Y230380D01*
X303348Y230834D01*
X303000Y231182D01*
X302546Y231370D01*
X302054D01*
X301600Y231182D01*
X301252Y230834D01*
X301064Y230380D01*
Y230124D01*
X298206Y227266D01*
X298018Y226984D01*
X297952Y226653D01*
Y225069D01*
X293027Y220144D01*
X292437Y220262D01*
X292386Y220385D01*
X292039Y220733D01*
X291584Y220921D01*
X291357D01*
X291150Y221421D01*
X296913Y227183D01*
X297101Y227464D01*
X297167Y227796D01*
Y229253D01*
X297348Y229434D01*
X297536Y229888D01*
Y230380D01*
X297348Y230834D01*
X297000Y231182D01*
X296546Y231370D01*
X296054D01*
X295600Y231182D01*
X295252Y230834D01*
X295064Y230380D01*
Y229888D01*
X295252Y229434D01*
X295433Y229253D01*
Y228155D01*
X286942Y219663D01*
X285037D01*
X284715Y220163D01*
X284799Y220366D01*
Y220896D01*
X284596Y221387D01*
X284220Y221762D01*
X284190Y221775D01*
Y223818D01*
X284220Y223831D01*
X284596Y224206D01*
X284799Y224696D01*
Y225227D01*
X284596Y225717D01*
X284220Y226093D01*
X284190Y226105D01*
Y228149D01*
X284220Y228161D01*
X284596Y228537D01*
X284799Y229027D01*
Y229558D01*
X284596Y230048D01*
X284220Y230423D01*
X284190Y230436D01*
Y235298D01*
X284362Y235370D01*
X284709Y235717D01*
X284897Y236172D01*
Y236663D01*
X284709Y237117D01*
X284837Y237696D01*
X284907Y237725D01*
X285255Y238073D01*
X285443Y238527D01*
Y238826D01*
X285824Y239148D01*
X285905Y239176D01*
X285968Y239150D01*
X286459D01*
X286914Y239338D01*
X287261Y239686D01*
X287449Y240140D01*
Y240632D01*
X287261Y241086D01*
X286914Y241433D01*
X286459Y241622D01*
X285968D01*
X285513Y241433D01*
X285166Y241086D01*
X284978Y240632D01*
Y240450D01*
X284564Y240124D01*
X284370Y240178D01*
X284190Y240311D01*
X284190Y263423D01*
X284220Y263436D01*
X284596Y263811D01*
X284799Y264302D01*
Y264832D01*
X284596Y265323D01*
X284220Y265698D01*
X284190Y265711D01*
Y267754D01*
X284220Y267767D01*
X284596Y268142D01*
X284799Y268632D01*
Y269163D01*
X284596Y269654D01*
X284220Y270029D01*
X284190Y270041D01*
Y272084D01*
X284220Y272097D01*
X284596Y272473D01*
X284799Y272963D01*
Y273494D01*
X284596Y273984D01*
X284220Y274359D01*
X284190Y274372D01*
Y276415D01*
X284220Y276428D01*
X284596Y276803D01*
X284799Y277294D01*
Y277824D01*
X284596Y278315D01*
X284220Y278690D01*
X284190Y278703D01*
Y280746D01*
X284220Y280759D01*
X284596Y281134D01*
X284799Y281624D01*
Y282155D01*
X284596Y282646D01*
X284220Y283021D01*
X284190Y283034D01*
Y288563D01*
X284558Y288716D01*
X284906Y289064D01*
X285094Y289518D01*
Y290010D01*
X284906Y290464D01*
X284558Y290811D01*
X284190Y290964D01*
Y293307D01*
X274910D01*
X274718Y293769D01*
X285817Y304867D01*
X286073D01*
X286527Y305055D01*
X286874Y305403D01*
X287063Y305857D01*
Y306349D01*
X286874Y306803D01*
X286527Y307151D01*
X286073Y307339D01*
X285581D01*
X285127Y307151D01*
X284779Y306803D01*
X284591Y306349D01*
Y306093D01*
X271805Y293307D01*
X267728D01*
X267537Y293769D01*
X278955Y305188D01*
X279089D01*
X279221Y305055D01*
X279675Y304867D01*
X280167D01*
X280621Y305055D01*
X280969Y305403D01*
X281157Y305857D01*
Y306349D01*
X280969Y306803D01*
X280621Y307151D01*
X280167Y307339D01*
X279675D01*
X279221Y307151D01*
X278991Y306921D01*
X278596D01*
X278264Y306855D01*
X277983Y306667D01*
X264623Y293307D01*
X263099D01*
X262907Y293769D01*
X274006Y304867D01*
X274262D01*
X274716Y305055D01*
X275063Y305403D01*
X275252Y305857D01*
Y306349D01*
X275063Y306803D01*
X274716Y307151D01*
X274262Y307339D01*
X273770D01*
X273316Y307151D01*
X272968Y306803D01*
X272780Y306349D01*
Y306093D01*
X262328Y295641D01*
X262048Y295747D01*
X261866Y295886D01*
Y296309D01*
X261678Y296763D01*
X261330Y297111D01*
X260876Y297299D01*
X260384D01*
X259930Y297111D01*
X259582Y296763D01*
X259394Y296309D01*
Y296053D01*
X257101Y293760D01*
X256913Y293479D01*
X256879Y293307D01*
X206299Y293307D01*
Y220133D01*
X206053D01*
X205599Y219945D01*
X205252Y219598D01*
X205063Y219144D01*
Y218652D01*
X205252Y218198D01*
X205599Y217850D01*
X206053Y217662D01*
X206299D01*
Y217131D01*
X206280Y217105D01*
X206229Y216984D01*
X206053D01*
X205599Y216796D01*
X205252Y216448D01*
X205251Y216447D01*
X204773Y216302D01*
X204748Y216319D01*
X204270Y216414D01*
X203905Y216740D01*
X203850Y216796D01*
X203395Y216984D01*
X202904D01*
X202450Y216796D01*
X202102Y216448D01*
X201914Y215994D01*
Y215502D01*
X202102Y215048D01*
X202450Y214700D01*
X202904Y214512D01*
X203395D01*
X203850Y214700D01*
X204457Y214600D01*
X204735Y214184D01*
X205152Y213906D01*
X205252Y213299D01*
X205063Y212844D01*
Y212353D01*
X205252Y211898D01*
X205599Y211551D01*
X205847Y211182D01*
X205853Y210988D01*
X205796Y210850D01*
X205783Y210755D01*
X205695Y210536D01*
X205599Y210496D01*
X205252Y210149D01*
X205063Y209695D01*
Y209203D01*
X205252Y208749D01*
X205599Y208401D01*
X206053Y208213D01*
X206545D01*
X206999Y208401D01*
X207173Y208575D01*
X209055Y206693D01*
Y204324D01*
X208749Y204197D01*
X208401Y203850D01*
X208213Y203395D01*
Y202904D01*
X208401Y202450D01*
X208749Y202102D01*
X209055Y201975D01*
Y201175D01*
X208749Y201048D01*
X208401Y200700D01*
X208213Y200246D01*
Y199754D01*
X208401Y199300D01*
X208749Y198952D01*
X209055Y198825D01*
Y198025D01*
X208749Y197898D01*
X208401Y197550D01*
X208213Y197096D01*
Y196605D01*
X208401Y196150D01*
X208749Y195803D01*
X209055Y195676D01*
Y194875D01*
X208749Y194748D01*
X208401Y194401D01*
X208213Y193947D01*
Y193455D01*
X208401Y193001D01*
X208749Y192653D01*
X209055Y192526D01*
Y190113D01*
D01*
Y177953D01*
X207929Y177352D01*
X207535Y177707D01*
Y178199D01*
X207347Y178653D01*
X206999Y179000D01*
X206545Y179189D01*
X206053D01*
X205599Y179000D01*
X205252Y178653D01*
X205063Y178199D01*
Y177863D01*
X204691Y177594D01*
X204601Y177567D01*
X204583Y177579D01*
X204385Y177758D01*
Y178199D01*
X204197Y178653D01*
X203850Y179000D01*
X203395Y179189D01*
X202904D01*
X202450Y179000D01*
X202102Y178653D01*
X201914Y178199D01*
Y177707D01*
X202102Y177253D01*
X202450Y176905D01*
X202904Y176717D01*
X203345D01*
X203523Y176519D01*
X203535Y176501D01*
X203508Y176412D01*
X203239Y176039D01*
X202904D01*
X202450Y175851D01*
X202102Y175503D01*
X201914Y175049D01*
Y174557D01*
X202102Y174103D01*
X202283Y173922D01*
Y19685D01*
X202349Y19353D01*
X202537Y19072D01*
X202761Y18848D01*
X202756Y16929D01*
X204680D01*
X206638Y14971D01*
Y14715D01*
X206826Y14261D01*
X207174Y13913D01*
X207628Y13725D01*
X208120D01*
X208574Y13913D01*
X208922Y14261D01*
X209110Y14715D01*
Y15206D01*
X208922Y15661D01*
X208574Y16008D01*
X208120Y16196D01*
X207976D01*
X207793Y16429D01*
X208024Y16929D01*
X213341D01*
X214906Y15364D01*
Y15109D01*
X214961Y14976D01*
Y5512D01*
X209449Y0D01*
X9015D01*
X7083Y384D01*
X5263Y1138D01*
X3625Y2232D01*
X2232Y3625D01*
X1138Y5263D01*
X384Y7083D01*
X0Y9015D01*
Y10000D01*
Y261811D01*
X34184Y295995D01*
X34646Y295803D01*
Y296457D01*
X177165D01*
Y333071D01*
X182328Y338233D01*
X183352D01*
X183684Y338299D01*
X183965Y338487D01*
X195871Y350394D01*
X201969D01*
X206299Y346063D01*
D02*
G37*
%LPC*%
G36*
X239616Y326436D02*
X239124D01*
X238670Y326248D01*
X238322Y325900D01*
X238134Y325446D01*
Y324954D01*
X238322Y324500D01*
X238670Y324152D01*
X239124Y323964D01*
X239616D01*
X240070Y324152D01*
X240418Y324500D01*
X240606Y324954D01*
Y325446D01*
X240418Y325900D01*
X240070Y326248D01*
X239616Y326436D01*
D02*
G37*
G36*
X231216D02*
X230724D01*
X230270Y326248D01*
X229922Y325900D01*
X229734Y325446D01*
Y324954D01*
X229922Y324500D01*
X230270Y324152D01*
X230724Y323964D01*
X231216D01*
X231670Y324152D01*
X232018Y324500D01*
X232206Y324954D01*
Y325446D01*
X232018Y325900D01*
X231670Y326248D01*
X231216Y326436D01*
D02*
G37*
G36*
X222816D02*
X222324D01*
X221870Y326248D01*
X221522Y325900D01*
X221334Y325446D01*
Y324954D01*
X221522Y324500D01*
X221870Y324152D01*
X222324Y323964D01*
X222816D01*
X223270Y324152D01*
X223618Y324500D01*
X223806Y324954D01*
Y325446D01*
X223618Y325900D01*
X223270Y326248D01*
X222816Y326436D01*
D02*
G37*
G36*
X214416D02*
X213924D01*
X213470Y326248D01*
X213122Y325900D01*
X212934Y325446D01*
Y324954D01*
X213122Y324500D01*
X213470Y324152D01*
X213924Y323964D01*
X214416D01*
X214870Y324152D01*
X215218Y324500D01*
X215406Y324954D01*
Y325446D01*
X215218Y325900D01*
X214870Y326248D01*
X214416Y326436D01*
D02*
G37*
G36*
X295915Y326039D02*
X295424D01*
X294969Y325851D01*
X294622Y325503D01*
X294433Y325049D01*
Y324557D01*
X294622Y324103D01*
X294969Y323756D01*
X295424Y323567D01*
X295915D01*
X296369Y323756D01*
X296717Y324103D01*
X296905Y324557D01*
Y325049D01*
X296717Y325503D01*
X296369Y325851D01*
X295915Y326039D01*
D02*
G37*
G36*
X288435D02*
X287943D01*
X287489Y325851D01*
X287141Y325503D01*
X286953Y325049D01*
Y324557D01*
X287141Y324103D01*
X287489Y323756D01*
X287943Y323567D01*
X288435D01*
X288889Y323756D01*
X289237Y324103D01*
X289425Y324557D01*
Y325049D01*
X289237Y325503D01*
X288889Y325851D01*
X288435Y326039D01*
D02*
G37*
G36*
X281348D02*
X280856D01*
X280402Y325851D01*
X280055Y325503D01*
X279867Y325049D01*
Y324557D01*
X280055Y324103D01*
X280402Y323756D01*
X280856Y323567D01*
X281348D01*
X281802Y323756D01*
X282150Y324103D01*
X282338Y324557D01*
Y325049D01*
X282150Y325503D01*
X281802Y325851D01*
X281348Y326039D01*
D02*
G37*
G36*
X273868D02*
X273376D01*
X272922Y325851D01*
X272574Y325503D01*
X272386Y325049D01*
Y324557D01*
X272574Y324103D01*
X272922Y323756D01*
X273376Y323567D01*
X273868D01*
X274322Y323756D01*
X274670Y324103D01*
X274858Y324557D01*
Y325049D01*
X274670Y325503D01*
X274322Y325851D01*
X273868Y326039D01*
D02*
G37*
G36*
X239616Y318036D02*
X239124D01*
X238670Y317848D01*
X238322Y317500D01*
X238134Y317046D01*
Y316554D01*
X238322Y316100D01*
X238670Y315752D01*
X239124Y315564D01*
X239616D01*
X240070Y315752D01*
X240418Y316100D01*
X240606Y316554D01*
Y317046D01*
X240418Y317500D01*
X240070Y317848D01*
X239616Y318036D01*
D02*
G37*
G36*
X231216D02*
X230724D01*
X230270Y317848D01*
X229922Y317500D01*
X229734Y317046D01*
Y316554D01*
X229922Y316100D01*
X230270Y315752D01*
X230724Y315564D01*
X231216D01*
X231670Y315752D01*
X232018Y316100D01*
X232206Y316554D01*
Y317046D01*
X232018Y317500D01*
X231670Y317848D01*
X231216Y318036D01*
D02*
G37*
G36*
X222816D02*
X222324D01*
X221870Y317848D01*
X221522Y317500D01*
X221334Y317046D01*
Y316554D01*
X221522Y316100D01*
X221870Y315752D01*
X222324Y315564D01*
X222816D01*
X223270Y315752D01*
X223618Y316100D01*
X223806Y316554D01*
Y317046D01*
X223618Y317500D01*
X223270Y317848D01*
X222816Y318036D01*
D02*
G37*
G36*
X214416D02*
X213924D01*
X213470Y317848D01*
X213122Y317500D01*
X212934Y317046D01*
Y316554D01*
X213122Y316100D01*
X213470Y315752D01*
X213924Y315564D01*
X214416D01*
X214870Y315752D01*
X215218Y316100D01*
X215406Y316554D01*
Y317046D01*
X215218Y317500D01*
X214870Y317848D01*
X214416Y318036D01*
D02*
G37*
G36*
X183710Y317378D02*
X183219D01*
X182764Y317189D01*
X182417Y316842D01*
X182229Y316388D01*
Y315896D01*
X182417Y315442D01*
X182764Y315094D01*
X183219Y314906D01*
X183710D01*
X184165Y315094D01*
X184512Y315442D01*
X184700Y315896D01*
Y316388D01*
X184512Y316842D01*
X184165Y317189D01*
X183710Y317378D01*
D02*
G37*
G36*
X284892Y316590D02*
X284400D01*
X283946Y316402D01*
X283598Y316054D01*
X283410Y315600D01*
Y315108D01*
X283598Y314654D01*
X283946Y314307D01*
X284400Y314119D01*
X284892D01*
X285346Y314307D01*
X285693Y314654D01*
X285881Y315108D01*
Y315600D01*
X285693Y316054D01*
X285346Y316402D01*
X284892Y316590D01*
D02*
G37*
G36*
X277805D02*
X277313D01*
X276859Y316402D01*
X276511Y316054D01*
X276323Y315600D01*
Y315108D01*
X276511Y314654D01*
X276859Y314307D01*
X277313Y314119D01*
X277805D01*
X278259Y314307D01*
X278607Y314654D01*
X278795Y315108D01*
Y315600D01*
X278607Y316054D01*
X278259Y316402D01*
X277805Y316590D01*
D02*
G37*
G36*
X299852Y316196D02*
X299360D01*
X298906Y316008D01*
X298559Y315661D01*
X298371Y315206D01*
Y314715D01*
X298559Y314261D01*
X298906Y313913D01*
X299360Y313725D01*
X299852D01*
X300306Y313913D01*
X300654Y314261D01*
X300842Y314715D01*
Y315206D01*
X300654Y315661D01*
X300306Y316008D01*
X299852Y316196D01*
D02*
G37*
G36*
X284892Y313440D02*
X284400D01*
X283946Y313252D01*
X283598Y312905D01*
X283410Y312451D01*
Y311959D01*
X283598Y311505D01*
X283946Y311157D01*
X284400Y310969D01*
X284892D01*
X285346Y311157D01*
X285693Y311505D01*
X285881Y311959D01*
Y312451D01*
X285693Y312905D01*
X285346Y313252D01*
X284892Y313440D01*
D02*
G37*
G36*
X277805D02*
X277313D01*
X276859Y313252D01*
X276511Y312905D01*
X276323Y312451D01*
Y311959D01*
X276511Y311505D01*
X276859Y311157D01*
X277313Y310969D01*
X277805D01*
X278259Y311157D01*
X278607Y311505D01*
X278795Y311959D01*
Y312451D01*
X278607Y312905D01*
X278259Y313252D01*
X277805Y313440D01*
D02*
G37*
G36*
X303789Y313047D02*
X303297D01*
X302843Y312859D01*
X302496Y312511D01*
X302308Y312057D01*
Y311565D01*
X302496Y311111D01*
X302843Y310763D01*
X303297Y310575D01*
X303789D01*
X304243Y310763D01*
X304591Y311111D01*
X304779Y311565D01*
Y312057D01*
X304591Y312511D01*
X304243Y312859D01*
X303789Y313047D01*
D02*
G37*
G36*
X299852D02*
X299360D01*
X298906Y312859D01*
X298559Y312511D01*
X298371Y312057D01*
Y311565D01*
X298559Y311111D01*
X298906Y310763D01*
X299360Y310575D01*
X299852D01*
X300306Y310763D01*
X300654Y311111D01*
X300842Y311565D01*
Y312057D01*
X300654Y312511D01*
X300306Y312859D01*
X299852Y313047D01*
D02*
G37*
G36*
X295915D02*
X295424D01*
X294969Y312859D01*
X294622Y312511D01*
X294433Y312057D01*
Y311565D01*
X294622Y311111D01*
X294969Y310763D01*
X295424Y310575D01*
X295915D01*
X296369Y310763D01*
X296717Y311111D01*
X296905Y311565D01*
Y312057D01*
X296717Y312511D01*
X296369Y312859D01*
X295915Y313047D01*
D02*
G37*
G36*
X239616Y309636D02*
X239124D01*
X238670Y309448D01*
X238322Y309100D01*
X238134Y308646D01*
Y308154D01*
X238322Y307700D01*
X238670Y307352D01*
X239124Y307164D01*
X239616D01*
X240070Y307352D01*
X240418Y307700D01*
X240606Y308154D01*
Y308646D01*
X240418Y309100D01*
X240070Y309448D01*
X239616Y309636D01*
D02*
G37*
G36*
X231216D02*
X230724D01*
X230270Y309448D01*
X229922Y309100D01*
X229734Y308646D01*
Y308154D01*
X229922Y307700D01*
X230270Y307352D01*
X230724Y307164D01*
X231216D01*
X231670Y307352D01*
X232018Y307700D01*
X232206Y308154D01*
Y308646D01*
X232018Y309100D01*
X231670Y309448D01*
X231216Y309636D01*
D02*
G37*
G36*
X222816D02*
X222324D01*
X221870Y309448D01*
X221522Y309100D01*
X221334Y308646D01*
Y308154D01*
X221522Y307700D01*
X221870Y307352D01*
X222324Y307164D01*
X222816D01*
X223270Y307352D01*
X223618Y307700D01*
X223806Y308154D01*
Y308646D01*
X223618Y309100D01*
X223270Y309448D01*
X222816Y309636D01*
D02*
G37*
G36*
X214416D02*
X213924D01*
X213470Y309448D01*
X213122Y309100D01*
X212934Y308646D01*
Y308154D01*
X213122Y307700D01*
X213470Y307352D01*
X213924Y307164D01*
X214416D01*
X214870Y307352D01*
X215218Y307700D01*
X215406Y308154D01*
Y308646D01*
X215218Y309100D01*
X214870Y309448D01*
X214416Y309636D01*
D02*
G37*
G36*
X239616Y301236D02*
X239124D01*
X238670Y301048D01*
X238322Y300700D01*
X238134Y300246D01*
Y299754D01*
X238322Y299300D01*
X238670Y298952D01*
X239124Y298764D01*
X239616D01*
X240070Y298952D01*
X240418Y299300D01*
X240606Y299754D01*
Y300246D01*
X240418Y300700D01*
X240070Y301048D01*
X239616Y301236D01*
D02*
G37*
G36*
X231216D02*
X230724D01*
X230270Y301048D01*
X229922Y300700D01*
X229734Y300246D01*
Y299754D01*
X229922Y299300D01*
X230270Y298952D01*
X230724Y298764D01*
X231216D01*
X231670Y298952D01*
X232018Y299300D01*
X232206Y299754D01*
Y300246D01*
X232018Y300700D01*
X231670Y301048D01*
X231216Y301236D01*
D02*
G37*
G36*
X222816D02*
X222324D01*
X221870Y301048D01*
X221522Y300700D01*
X221334Y300246D01*
Y299754D01*
X221522Y299300D01*
X221870Y298952D01*
X222324Y298764D01*
X222816D01*
X223270Y298952D01*
X223618Y299300D01*
X223806Y299754D01*
Y300246D01*
X223618Y300700D01*
X223270Y301048D01*
X222816Y301236D01*
D02*
G37*
G36*
X214416D02*
X213924D01*
X213470Y301048D01*
X213122Y300700D01*
X212934Y300246D01*
Y299754D01*
X213122Y299300D01*
X213470Y298952D01*
X213924Y298764D01*
X214416D01*
X214870Y298952D01*
X215218Y299300D01*
X215406Y299754D01*
Y300246D01*
X215218Y300700D01*
X214870Y301048D01*
X214416Y301236D01*
D02*
G37*
G36*
X161746Y285136D02*
X161254D01*
X160800Y284948D01*
X160452Y284600D01*
X160264Y284146D01*
Y283654D01*
X160452Y283200D01*
X160800Y282852D01*
X161254Y282664D01*
X161746D01*
X162200Y282852D01*
X162548Y283200D01*
X162736Y283654D01*
Y284146D01*
X162548Y284600D01*
X162200Y284948D01*
X161746Y285136D01*
D02*
G37*
G36*
X291978Y285094D02*
X291487D01*
X291032Y284906D01*
X290685Y284558D01*
X290496Y284104D01*
Y283612D01*
X290685Y283158D01*
X291032Y282811D01*
X291487Y282622D01*
X291978D01*
X292432Y282811D01*
X292780Y283158D01*
X292968Y283612D01*
Y284104D01*
X292780Y284558D01*
X292432Y284906D01*
X291978Y285094D01*
D02*
G37*
G36*
X185803D02*
X185312D01*
X184857Y284906D01*
X184510Y284558D01*
X184322Y284104D01*
Y283612D01*
X184510Y283158D01*
X184857Y282811D01*
X185312Y282622D01*
X185803D01*
X186258Y282811D01*
X186605Y283158D01*
X186793Y283612D01*
Y284104D01*
X186605Y284558D01*
X186258Y284906D01*
X185803Y285094D01*
D02*
G37*
G36*
X301746Y279436D02*
X301254D01*
X300800Y279248D01*
X300452Y278900D01*
X300264Y278446D01*
Y277954D01*
X300452Y277500D01*
X300800Y277152D01*
X301254Y276964D01*
X301746D01*
X302200Y277152D01*
X302548Y277500D01*
X302736Y277954D01*
Y278446D01*
X302548Y278900D01*
X302200Y279248D01*
X301746Y279436D01*
D02*
G37*
G36*
X128592Y274074D02*
X128101D01*
X127646Y273885D01*
X127299Y273538D01*
X127111Y273084D01*
Y272592D01*
X127299Y272138D01*
X127646Y271790D01*
X128101Y271602D01*
X128592D01*
X129046Y271790D01*
X129394Y272138D01*
X129582Y272592D01*
Y273084D01*
X129394Y273538D01*
X129046Y273885D01*
X128592Y274074D01*
D02*
G37*
G36*
X120192D02*
X119701D01*
X119246Y273885D01*
X118899Y273538D01*
X118711Y273084D01*
Y272592D01*
X118899Y272138D01*
X119246Y271790D01*
X119701Y271602D01*
X120192D01*
X120647Y271790D01*
X120994Y272138D01*
X121182Y272592D01*
Y273084D01*
X120994Y273538D01*
X120647Y273885D01*
X120192Y274074D01*
D02*
G37*
G36*
X111792D02*
X111301D01*
X110846Y273885D01*
X110499Y273538D01*
X110311Y273084D01*
Y272592D01*
X110499Y272138D01*
X110846Y271790D01*
X111301Y271602D01*
X111792D01*
X112247Y271790D01*
X112594Y272138D01*
X112782Y272592D01*
Y273084D01*
X112594Y273538D01*
X112247Y273885D01*
X111792Y274074D01*
D02*
G37*
G36*
X103392D02*
X102901D01*
X102446Y273885D01*
X102099Y273538D01*
X101911Y273084D01*
Y272592D01*
X102099Y272138D01*
X102446Y271790D01*
X102901Y271602D01*
X103392D01*
X103847Y271790D01*
X104194Y272138D01*
X104382Y272592D01*
Y273084D01*
X104194Y273538D01*
X103847Y273885D01*
X103392Y274074D01*
D02*
G37*
G36*
X291978Y273677D02*
X291487D01*
X291032Y273489D01*
X290685Y273141D01*
X290496Y272687D01*
Y272195D01*
X290685Y271741D01*
X291032Y271393D01*
X291487Y271205D01*
X291978D01*
X292432Y271393D01*
X292780Y271741D01*
X292968Y272195D01*
Y272687D01*
X292780Y273141D01*
X292432Y273489D01*
X291978Y273677D01*
D02*
G37*
G36*
X316257Y272607D02*
X315765D01*
X315311Y272419D01*
X314963Y272072D01*
X314775Y271618D01*
Y271126D01*
X314963Y270672D01*
X315311Y270324D01*
X315765Y270136D01*
X316257D01*
X316711Y270324D01*
X317059Y270672D01*
X317247Y271126D01*
Y271618D01*
X317059Y272072D01*
X316711Y272419D01*
X316257Y272607D01*
D02*
G37*
G36*
X312057D02*
X311565D01*
X311111Y272419D01*
X310763Y272072D01*
X310575Y271618D01*
Y271126D01*
X310763Y270672D01*
X311111Y270324D01*
X311565Y270136D01*
X312057D01*
X312511Y270324D01*
X312859Y270672D01*
X313047Y271126D01*
Y271618D01*
X312859Y272072D01*
X312511Y272419D01*
X312057Y272607D01*
D02*
G37*
G36*
X298934Y272496D02*
X298442D01*
X297988Y272307D01*
X297640Y271960D01*
X297452Y271506D01*
Y271014D01*
X297640Y270560D01*
X297988Y270212D01*
X298442Y270024D01*
X298934D01*
X299388Y270212D01*
X299736Y270560D01*
X299924Y271014D01*
Y271506D01*
X299736Y271960D01*
X299388Y272307D01*
X298934Y272496D01*
D02*
G37*
G36*
X294734D02*
X294242D01*
X293788Y272307D01*
X293441Y271960D01*
X293252Y271506D01*
Y271014D01*
X293441Y270560D01*
X293788Y270212D01*
X294242Y270024D01*
X294734D01*
X295188Y270212D01*
X295536Y270560D01*
X295724Y271014D01*
Y271506D01*
X295536Y271960D01*
X295188Y272307D01*
X294734Y272496D01*
D02*
G37*
G36*
X128592Y265674D02*
X128101D01*
X127646Y265486D01*
X127299Y265138D01*
X127111Y264684D01*
Y264192D01*
X127299Y263738D01*
X127646Y263390D01*
X128101Y263202D01*
X128592D01*
X129046Y263390D01*
X129394Y263738D01*
X129582Y264192D01*
Y264684D01*
X129394Y265138D01*
X129046Y265486D01*
X128592Y265674D01*
D02*
G37*
G36*
X120192D02*
X119701D01*
X119246Y265486D01*
X118899Y265138D01*
X118711Y264684D01*
Y264192D01*
X118899Y263738D01*
X119246Y263390D01*
X119701Y263202D01*
X120192D01*
X120647Y263390D01*
X120994Y263738D01*
X121182Y264192D01*
Y264684D01*
X120994Y265138D01*
X120647Y265486D01*
X120192Y265674D01*
D02*
G37*
G36*
X111792D02*
X111301D01*
X110846Y265486D01*
X110499Y265138D01*
X110311Y264684D01*
Y264192D01*
X110499Y263738D01*
X110846Y263390D01*
X111301Y263202D01*
X111792D01*
X112247Y263390D01*
X112594Y263738D01*
X112782Y264192D01*
Y264684D01*
X112594Y265138D01*
X112247Y265486D01*
X111792Y265674D01*
D02*
G37*
G36*
X103392D02*
X102901D01*
X102446Y265486D01*
X102099Y265138D01*
X101911Y264684D01*
Y264192D01*
X102099Y263738D01*
X102446Y263390D01*
X102901Y263202D01*
X103392D01*
X103847Y263390D01*
X104194Y263738D01*
X104382Y264192D01*
Y264684D01*
X104194Y265138D01*
X103847Y265486D01*
X103392Y265674D01*
D02*
G37*
G36*
X298934Y265015D02*
X298442D01*
X297988Y264827D01*
X297640Y264480D01*
X297452Y264025D01*
Y263534D01*
X297640Y263080D01*
X297988Y262732D01*
X298442Y262544D01*
X298934D01*
X299388Y262732D01*
X299736Y263080D01*
X299924Y263534D01*
Y264025D01*
X299736Y264480D01*
X299388Y264827D01*
X298934Y265015D01*
D02*
G37*
G36*
X294734D02*
X294242D01*
X293788Y264827D01*
X293441Y264480D01*
X293252Y264025D01*
Y263534D01*
X293441Y263080D01*
X293788Y262732D01*
X294242Y262544D01*
X294734D01*
X295188Y262732D01*
X295536Y263080D01*
X295724Y263534D01*
Y264025D01*
X295536Y264480D01*
X295188Y264827D01*
X294734Y265015D01*
D02*
G37*
G36*
X312057Y264622D02*
X311565D01*
X311111Y264434D01*
X310763Y264086D01*
X310575Y263632D01*
Y263140D01*
X310763Y262686D01*
X311111Y262338D01*
X311565Y262150D01*
X312057D01*
X312511Y262338D01*
X312859Y262686D01*
X313047Y263140D01*
Y263632D01*
X312859Y264086D01*
X312511Y264434D01*
X312057Y264622D01*
D02*
G37*
G36*
X44746Y260936D02*
X44254D01*
X43800Y260748D01*
X43452Y260400D01*
X43264Y259946D01*
Y259454D01*
X43452Y259000D01*
X43800Y258652D01*
X44254Y258464D01*
X44746D01*
X45200Y258652D01*
X45548Y259000D01*
X45736Y259454D01*
Y259946D01*
X45548Y260400D01*
X45200Y260748D01*
X44746Y260936D01*
D02*
G37*
G36*
X40546D02*
X40054D01*
X39600Y260748D01*
X39252Y260400D01*
X39064Y259946D01*
Y259454D01*
X39252Y259000D01*
X39600Y258652D01*
X40054Y258464D01*
X40546D01*
X41000Y258652D01*
X41348Y259000D01*
X41536Y259454D01*
Y259946D01*
X41348Y260400D01*
X41000Y260748D01*
X40546Y260936D01*
D02*
G37*
G36*
X128592Y257274D02*
X128101D01*
X127646Y257085D01*
X127299Y256738D01*
X127111Y256284D01*
Y255792D01*
X127299Y255338D01*
X127646Y254990D01*
X128101Y254802D01*
X128592D01*
X129046Y254990D01*
X129394Y255338D01*
X129582Y255792D01*
Y256284D01*
X129394Y256738D01*
X129046Y257085D01*
X128592Y257274D01*
D02*
G37*
G36*
X120192D02*
X119701D01*
X119246Y257085D01*
X118899Y256738D01*
X118711Y256284D01*
Y255792D01*
X118899Y255338D01*
X119246Y254990D01*
X119701Y254802D01*
X120192D01*
X120647Y254990D01*
X120994Y255338D01*
X121182Y255792D01*
Y256284D01*
X120994Y256738D01*
X120647Y257085D01*
X120192Y257274D01*
D02*
G37*
G36*
X111792D02*
X111301D01*
X110846Y257085D01*
X110499Y256738D01*
X110311Y256284D01*
Y255792D01*
X110499Y255338D01*
X110846Y254990D01*
X111301Y254802D01*
X111792D01*
X112247Y254990D01*
X112594Y255338D01*
X112782Y255792D01*
Y256284D01*
X112594Y256738D01*
X112247Y257085D01*
X111792Y257274D01*
D02*
G37*
G36*
X103392D02*
X102901D01*
X102446Y257085D01*
X102099Y256738D01*
X101911Y256284D01*
Y255792D01*
X102099Y255338D01*
X102446Y254990D01*
X102901Y254802D01*
X103392D01*
X103847Y254990D01*
X104194Y255338D01*
X104382Y255792D01*
Y256284D01*
X104194Y256738D01*
X103847Y257085D01*
X103392Y257274D01*
D02*
G37*
G36*
X316257Y264622D02*
X315765D01*
X315311Y264434D01*
X314963Y264086D01*
X314775Y263632D01*
Y263140D01*
X314963Y262686D01*
X315032Y262617D01*
X314825Y262118D01*
X313643D01*
X313160Y262022D01*
X312752Y261749D01*
X312478Y261340D01*
X312383Y260858D01*
Y255542D01*
X312478Y255060D01*
X312752Y254651D01*
X313160Y254378D01*
X313643Y254282D01*
X318957D01*
X319440Y254378D01*
X319848Y254651D01*
X320122Y255060D01*
X320217Y255542D01*
Y260858D01*
X320122Y261340D01*
X319848Y261749D01*
X319440Y262022D01*
X318957Y262118D01*
X317197D01*
X316990Y262617D01*
X317059Y262686D01*
X317247Y263140D01*
Y263632D01*
X317059Y264086D01*
X316711Y264434D01*
X316257Y264622D01*
D02*
G37*
G36*
X44746Y256736D02*
X44254D01*
X43800Y256548D01*
X43452Y256200D01*
X43264Y255746D01*
Y255254D01*
X43452Y254800D01*
X43800Y254452D01*
X44254Y254264D01*
X44746D01*
X45200Y254452D01*
X45548Y254800D01*
X45736Y255254D01*
Y255746D01*
X45548Y256200D01*
X45200Y256548D01*
X44746Y256736D01*
D02*
G37*
G36*
X40546D02*
X40054D01*
X39600Y256548D01*
X39252Y256200D01*
X39064Y255746D01*
Y255254D01*
X39252Y254800D01*
X39600Y254452D01*
X40054Y254264D01*
X40546D01*
X41000Y254452D01*
X41348Y254800D01*
X41536Y255254D01*
Y255746D01*
X41348Y256200D01*
X41000Y256548D01*
X40546Y256736D01*
D02*
G37*
G36*
X308120Y248480D02*
X307628D01*
X307174Y248292D01*
X306826Y247944D01*
X306638Y247490D01*
Y246998D01*
X306826Y246544D01*
X307174Y246196D01*
X307628Y246008D01*
X308120D01*
X308574Y246196D01*
X308922Y246544D01*
X309110Y246998D01*
Y247490D01*
X308922Y247944D01*
X308574Y248292D01*
X308120Y248480D01*
D02*
G37*
G36*
X10329Y245783D02*
X9642D01*
X9007Y245520D01*
X8521Y245034D01*
X8258Y244399D01*
Y243711D01*
X8521Y243076D01*
X9007Y242590D01*
X9642Y242327D01*
X10329D01*
X10964Y242590D01*
X11450Y243076D01*
X11714Y243711D01*
Y244399D01*
X11450Y245034D01*
X10964Y245520D01*
X10329Y245783D01*
D02*
G37*
G36*
X204450Y239275D02*
X203959D01*
X203504Y239087D01*
X203157Y238739D01*
X202969Y238285D01*
Y237793D01*
X203157Y237339D01*
X203504Y236991D01*
X203959Y236803D01*
X204450D01*
X204904Y236991D01*
X205252Y237339D01*
X205440Y237793D01*
Y238285D01*
X205252Y238739D01*
X204904Y239087D01*
X204450Y239275D01*
D02*
G37*
G36*
X291584Y232732D02*
X291093D01*
X290638Y232544D01*
X290291Y232196D01*
X290103Y231742D01*
Y231250D01*
X290291Y230796D01*
X290638Y230448D01*
X291093Y230260D01*
X291584D01*
X292039Y230448D01*
X292386Y230796D01*
X292574Y231250D01*
Y231742D01*
X292386Y232196D01*
X292039Y232544D01*
X291584Y232732D01*
D02*
G37*
G36*
X26996Y215321D02*
X26309D01*
X25674Y215058D01*
X25188Y214572D01*
X24925Y213937D01*
Y213249D01*
X25188Y212614D01*
X25674Y212128D01*
X26309Y211865D01*
X26996D01*
X27631Y212128D01*
X28117Y212614D01*
X28381Y213249D01*
Y213937D01*
X28117Y214572D01*
X27631Y215058D01*
X26996Y215321D01*
D02*
G37*
G36*
X203395Y213834D02*
X202904D01*
X202450Y213646D01*
X202102Y213299D01*
X201914Y212844D01*
Y212353D01*
X202102Y211898D01*
X202450Y211551D01*
X202904Y211363D01*
X203395D01*
X203850Y211551D01*
X204197Y211898D01*
X204385Y212353D01*
Y212844D01*
X204197Y213299D01*
X203850Y213646D01*
X203395Y213834D01*
D02*
G37*
G36*
Y210685D02*
X202904D01*
X202450Y210496D01*
X202102Y210149D01*
X201914Y209695D01*
Y209203D01*
X202102Y208749D01*
X202450Y208401D01*
X202904Y208213D01*
X203395D01*
X203850Y208401D01*
X204197Y208749D01*
X204385Y209203D01*
Y209695D01*
X204197Y210149D01*
X203850Y210496D01*
X203395Y210685D01*
D02*
G37*
G36*
X306939Y207211D02*
X306447D01*
X305993Y207023D01*
X305645Y206676D01*
X305457Y206221D01*
Y205730D01*
X305645Y205276D01*
X305993Y204928D01*
X306447Y204740D01*
X306939D01*
X307393Y204928D01*
X307741Y205276D01*
X307929Y205730D01*
Y206221D01*
X307741Y206676D01*
X307393Y207023D01*
X306939Y207211D01*
D02*
G37*
G36*
X172047Y252741D02*
X40157D01*
X39890Y252630D01*
X39622Y252362D01*
X34646D01*
Y247386D01*
X33984Y246725D01*
X33873Y246457D01*
Y230315D01*
X33984Y230047D01*
X34646Y229385D01*
Y44882D01*
X61024Y18504D01*
X150000D01*
Y87402D01*
X159449Y96850D01*
X179033D01*
Y69259D01*
X175741Y65967D01*
X169200D01*
X168868Y65901D01*
X168587Y65713D01*
X166241Y63366D01*
X165875Y63578D01*
X165035Y63803D01*
X164165D01*
X163325Y63578D01*
X162572Y63143D01*
X161957Y62528D01*
X161522Y61775D01*
X161297Y60935D01*
Y60065D01*
X161522Y59225D01*
X161957Y58472D01*
X162572Y57857D01*
X163325Y57422D01*
X164165Y57197D01*
X165035D01*
X165875Y57422D01*
X166628Y57857D01*
X167243Y58472D01*
X167678Y59225D01*
X167903Y60065D01*
Y60935D01*
X167678Y61775D01*
X167466Y62141D01*
X169559Y64233D01*
X173840D01*
X173906Y63733D01*
X173325Y63578D01*
X172572Y63143D01*
X171957Y62528D01*
X171522Y61775D01*
X171297Y60935D01*
Y60065D01*
X171522Y59225D01*
X171957Y58472D01*
X172572Y57857D01*
X173325Y57422D01*
X174165Y57197D01*
X175035D01*
X175875Y57422D01*
X176628Y57857D01*
X177243Y58472D01*
X177678Y59225D01*
X177903Y60065D01*
Y60935D01*
X177678Y61775D01*
X177466Y62141D01*
X182233Y66908D01*
X182733Y66701D01*
Y62759D01*
X176041Y56067D01*
X172700D01*
X172368Y56001D01*
X172087Y55813D01*
X168987Y52713D01*
X168799Y52432D01*
X168733Y52100D01*
Y35859D01*
X166241Y33366D01*
X165875Y33578D01*
X165035Y33803D01*
X164165D01*
X163325Y33578D01*
X162572Y33143D01*
X161957Y32528D01*
X161522Y31775D01*
X161297Y30935D01*
Y30065D01*
X161522Y29225D01*
X161957Y28472D01*
X162572Y27857D01*
X163325Y27422D01*
X164165Y27197D01*
X165035D01*
X165875Y27422D01*
X166628Y27857D01*
X167243Y28472D01*
X167678Y29225D01*
X167903Y30065D01*
Y30935D01*
X167678Y31775D01*
X167466Y32141D01*
X170213Y34887D01*
X170401Y35168D01*
X170467Y35500D01*
Y51741D01*
X171601Y52876D01*
X171957Y52528D01*
X171522Y51775D01*
X171297Y50935D01*
Y50065D01*
X171522Y49225D01*
X171957Y48472D01*
X172572Y47857D01*
X173325Y47422D01*
X174165Y47197D01*
X175035D01*
X175875Y47422D01*
X176628Y47857D01*
X177243Y48472D01*
X177678Y49225D01*
X177903Y50065D01*
Y50935D01*
X177678Y51775D01*
X177243Y52528D01*
X176628Y53143D01*
X175875Y53578D01*
X175035Y53803D01*
X174165D01*
X173325Y53578D01*
X172572Y53143D01*
X172224Y53499D01*
X173059Y54333D01*
X176400D01*
X176732Y54399D01*
X177013Y54587D01*
X184213Y61787D01*
X184401Y62068D01*
X184467Y62400D01*
Y159246D01*
X198413Y173192D01*
X198601Y173473D01*
X198667Y173805D01*
Y175341D01*
X199013Y175687D01*
X199201Y175968D01*
X199267Y176300D01*
X199201Y176632D01*
X199049Y176858D01*
Y179233D01*
X199704Y179887D01*
X199754Y179867D01*
X200246D01*
X200700Y180055D01*
X201048Y180402D01*
X201236Y180857D01*
Y181348D01*
X201048Y181802D01*
X200700Y182150D01*
X200246Y182338D01*
X200267Y182577D01*
X200355Y182954D01*
X200555Y183134D01*
X200596Y183161D01*
X200700Y183204D01*
X201048Y183552D01*
X201091Y183656D01*
X201118Y183697D01*
X201298Y183897D01*
X201675Y183985D01*
X201914Y184006D01*
X202102Y183552D01*
X202450Y183204D01*
X202904Y183016D01*
X203395D01*
X203850Y183204D01*
X204197Y183552D01*
X204385Y184006D01*
Y184498D01*
X204197Y184952D01*
X203850Y185300D01*
X203800Y185548D01*
X204939Y186687D01*
X204968Y186756D01*
X205021Y186810D01*
Y186885D01*
X205050Y186954D01*
X205021Y187024D01*
Y187100D01*
X204830Y187561D01*
X204776Y187615D01*
X204748Y187684D01*
X204678Y187713D01*
X204625Y187766D01*
X204549D01*
X204480Y187795D01*
X201181D01*
Y190945D01*
X202023Y191787D01*
X204779D01*
X205906Y192913D01*
Y198031D01*
X204326Y199611D01*
X204385Y199754D01*
Y200246D01*
X204197Y200700D01*
X203850Y201048D01*
X203395Y201236D01*
X202904D01*
X202761Y201177D01*
X199751Y204186D01*
X199960Y204684D01*
X200629D01*
X200667Y204700D01*
X200706Y204693D01*
X200796Y204754D01*
X200897Y204796D01*
X200912Y204833D01*
X200946Y204856D01*
X202277Y206887D01*
X202298Y206994D01*
X202339Y207095D01*
X202324Y207132D01*
X202331Y207172D01*
X202270Y207262D01*
X202228Y207363D01*
X200753Y208838D01*
X200690Y208864D01*
X200643Y208914D01*
X197229Y210479D01*
X197229Y227559D01*
X197118Y227827D01*
X172315Y252630D01*
X172047Y252741D01*
D02*
G37*
G36*
X318957Y205218D02*
X313643D01*
X313160Y205122D01*
X312752Y204849D01*
X312478Y204440D01*
X312383Y203958D01*
Y198643D01*
X312478Y198160D01*
X312752Y197751D01*
X313160Y197478D01*
X313643Y197382D01*
X318957D01*
X319440Y197478D01*
X319848Y197751D01*
X320122Y198160D01*
X320217Y198643D01*
Y203958D01*
X320122Y204440D01*
X319848Y204849D01*
X319440Y205122D01*
X318957Y205218D01*
D02*
G37*
G36*
X10329Y199326D02*
X9642D01*
X9007Y199063D01*
X8521Y198577D01*
X8258Y197942D01*
Y197255D01*
X8521Y196620D01*
X9007Y196133D01*
X9642Y195870D01*
X10329D01*
X10964Y196133D01*
X11450Y196620D01*
X11714Y197255D01*
Y197942D01*
X11450Y198577D01*
X10964Y199063D01*
X10329Y199326D01*
D02*
G37*
G36*
X307726Y194562D02*
X307235D01*
X306780Y194374D01*
X306433Y194026D01*
X306244Y193572D01*
Y193080D01*
X306433Y192626D01*
X306780Y192278D01*
X307235Y192090D01*
X307726D01*
X308180Y192278D01*
X308528Y192626D01*
X308716Y193080D01*
Y193572D01*
X308528Y194026D01*
X308180Y194374D01*
X307726Y194562D01*
D02*
G37*
G36*
X288828Y182338D02*
X288337D01*
X287883Y182150D01*
X287535Y181802D01*
X287347Y181348D01*
Y180857D01*
X287535Y180402D01*
X287883Y180055D01*
X288337Y179867D01*
X288828D01*
X289283Y180055D01*
X289630Y180402D01*
X289819Y180857D01*
Y181348D01*
X289630Y181802D01*
X289283Y182150D01*
X288828Y182338D01*
D02*
G37*
G36*
X203395Y182338D02*
X202904D01*
X202450Y182150D01*
X202102Y181802D01*
X201914Y181348D01*
Y180857D01*
X202102Y180402D01*
X202450Y180055D01*
X202904Y179867D01*
X203395D01*
X203850Y180055D01*
X204197Y180402D01*
X204385Y180857D01*
Y181348D01*
X204197Y181802D01*
X203850Y182150D01*
X203395Y182338D01*
D02*
G37*
G36*
X291191Y177220D02*
X290699D01*
X290245Y177032D01*
X289897Y176684D01*
X289709Y176230D01*
Y175738D01*
X289897Y175284D01*
X290245Y174937D01*
X290699Y174748D01*
X291191D01*
X291645Y174937D01*
X291993Y175284D01*
X292181Y175738D01*
Y176230D01*
X291993Y176684D01*
X291645Y177032D01*
X291191Y177220D01*
D02*
G37*
G36*
X26902Y168854D02*
X26215D01*
X25580Y168591D01*
X25093Y168105D01*
X24830Y167470D01*
Y166782D01*
X25093Y166147D01*
X25580Y165661D01*
X26215Y165398D01*
X26902D01*
X27537Y165661D01*
X28023Y166147D01*
X28286Y166782D01*
Y167470D01*
X28023Y168105D01*
X27537Y168591D01*
X26902Y168854D01*
D02*
G37*
G36*
X312057Y167615D02*
X311565D01*
X311111Y167427D01*
X310763Y167080D01*
X310575Y166625D01*
Y166134D01*
X310763Y165680D01*
X311111Y165332D01*
X311565Y165144D01*
X312057D01*
X312511Y165332D01*
X312859Y165680D01*
X313047Y166134D01*
Y166625D01*
X312859Y167080D01*
X312511Y167427D01*
X312057Y167615D01*
D02*
G37*
G36*
X315994Y158954D02*
X315502D01*
X315048Y158766D01*
X314700Y158418D01*
X314512Y157964D01*
Y157472D01*
X314700Y157018D01*
X315048Y156670D01*
X315502Y156482D01*
X315994D01*
X316448Y156670D01*
X316796Y157018D01*
X316984Y157472D01*
Y157964D01*
X316796Y158418D01*
X316448Y158766D01*
X315994Y158954D01*
D02*
G37*
G36*
X311794D02*
X311302D01*
X310848Y158766D01*
X310500Y158418D01*
X310312Y157964D01*
Y157472D01*
X310500Y157018D01*
X310848Y156670D01*
X311302Y156482D01*
X311794D01*
X312248Y156670D01*
X312596Y157018D01*
X312784Y157472D01*
Y157964D01*
X312596Y158418D01*
X312248Y158766D01*
X311794Y158954D01*
D02*
G37*
G36*
X306939Y154511D02*
X306447D01*
X305993Y154323D01*
X305645Y153976D01*
X305457Y153521D01*
Y153030D01*
X305645Y152576D01*
X305993Y152228D01*
X306447Y152040D01*
X306939D01*
X307393Y152228D01*
X307741Y152576D01*
X307929Y153030D01*
Y153521D01*
X307741Y153976D01*
X307393Y154323D01*
X306939Y154511D01*
D02*
G37*
G36*
X10723Y152870D02*
X10035D01*
X9400Y152607D01*
X8914Y152120D01*
X8651Y151485D01*
Y150798D01*
X8914Y150163D01*
X9400Y149677D01*
X10035Y149414D01*
X10723D01*
X11358Y149677D01*
X11844Y150163D01*
X12107Y150798D01*
Y151485D01*
X11844Y152120D01*
X11358Y152607D01*
X10723Y152870D01*
D02*
G37*
G36*
X318957Y154118D02*
X313643D01*
X313160Y154022D01*
X312752Y153749D01*
X312478Y153340D01*
X312383Y152857D01*
Y147543D01*
X312478Y147060D01*
X312752Y146651D01*
X313160Y146378D01*
X313643Y146282D01*
X318957D01*
X319440Y146378D01*
X319848Y146651D01*
X320122Y147060D01*
X320217Y147543D01*
Y152857D01*
X320122Y153340D01*
X319848Y153749D01*
X319440Y154022D01*
X318957Y154118D01*
D02*
G37*
G36*
X306026Y143543D02*
X305535D01*
X305080Y143355D01*
X304733Y143007D01*
X304544Y142553D01*
Y142061D01*
X304733Y141607D01*
X305080Y141259D01*
X305535Y141071D01*
X306026D01*
X306480Y141259D01*
X306828Y141607D01*
X307016Y142061D01*
Y142553D01*
X306828Y143007D01*
X306480Y143355D01*
X306026Y143543D01*
D02*
G37*
G36*
X196309Y139228D02*
X195817D01*
X195363Y139040D01*
X195015Y138692D01*
X194827Y138238D01*
Y137746D01*
X195015Y137292D01*
X195363Y136944D01*
X195817Y136756D01*
X196309D01*
X196763Y136944D01*
X197111Y137292D01*
X197299Y137746D01*
Y138238D01*
X197111Y138692D01*
X196763Y139040D01*
X196309Y139228D01*
D02*
G37*
G36*
X193422Y129584D02*
X192931D01*
X192476Y129396D01*
X192129Y129048D01*
X191941Y128594D01*
Y128102D01*
X192129Y127648D01*
X192476Y127300D01*
X192931Y127112D01*
X193422D01*
X193876Y127300D01*
X194224Y127648D01*
X194412Y128102D01*
Y128594D01*
X194224Y129048D01*
X193876Y129396D01*
X193422Y129584D01*
D02*
G37*
G36*
X189222D02*
X188731D01*
X188276Y129396D01*
X187929Y129048D01*
X187741Y128594D01*
Y128102D01*
X187929Y127648D01*
X188276Y127300D01*
X188731Y127112D01*
X189222D01*
X189676Y127300D01*
X190024Y127648D01*
X190212Y128102D01*
Y128594D01*
X190024Y129048D01*
X189676Y129396D01*
X189222Y129584D01*
D02*
G37*
G36*
X193422Y125384D02*
X192931D01*
X192476Y125196D01*
X192129Y124848D01*
X191941Y124394D01*
Y123902D01*
X192129Y123448D01*
X192476Y123100D01*
X192931Y122912D01*
X193422D01*
X193876Y123100D01*
X194224Y123448D01*
X194412Y123902D01*
Y124394D01*
X194224Y124848D01*
X193876Y125196D01*
X193422Y125384D01*
D02*
G37*
G36*
X189222D02*
X188731D01*
X188276Y125196D01*
X187929Y124848D01*
X187741Y124394D01*
Y123902D01*
X187929Y123448D01*
X188276Y123100D01*
X188731Y122912D01*
X189222D01*
X189676Y123100D01*
X190024Y123448D01*
X190212Y123902D01*
Y124394D01*
X190024Y124848D01*
X189676Y125196D01*
X189222Y125384D01*
D02*
G37*
G36*
X27296Y122502D02*
X26608D01*
X25973Y122239D01*
X25487Y121753D01*
X25224Y121118D01*
Y120430D01*
X25487Y119795D01*
X25973Y119309D01*
X26608Y119046D01*
X27296D01*
X27931Y119309D01*
X28417Y119795D01*
X28680Y120430D01*
Y121118D01*
X28417Y121753D01*
X27931Y122239D01*
X27296Y122502D01*
D02*
G37*
G36*
X193422Y121184D02*
X192931D01*
X192476Y120996D01*
X192129Y120648D01*
X191941Y120194D01*
Y119702D01*
X192129Y119248D01*
X192476Y118900D01*
X192931Y118712D01*
X193422D01*
X193876Y118900D01*
X194224Y119248D01*
X194412Y119702D01*
Y120194D01*
X194224Y120648D01*
X193876Y120996D01*
X193422Y121184D01*
D02*
G37*
G36*
X189222D02*
X188731D01*
X188276Y120996D01*
X187929Y120648D01*
X187741Y120194D01*
Y119702D01*
X187929Y119248D01*
X188276Y118900D01*
X188731Y118712D01*
X189222D01*
X189676Y118900D01*
X190024Y119248D01*
X190212Y119702D01*
Y120194D01*
X190024Y120648D01*
X189676Y120996D01*
X189222Y121184D01*
D02*
G37*
G36*
X193422Y116984D02*
X192931D01*
X192476Y116796D01*
X192129Y116448D01*
X191941Y115994D01*
Y115502D01*
X192129Y115048D01*
X192476Y114700D01*
X192931Y114512D01*
X193422D01*
X193876Y114700D01*
X194224Y115048D01*
X194412Y115502D01*
Y115994D01*
X194224Y116448D01*
X193876Y116796D01*
X193422Y116984D01*
D02*
G37*
G36*
X189222D02*
X188731D01*
X188276Y116796D01*
X187929Y116448D01*
X187741Y115994D01*
Y115502D01*
X187929Y115048D01*
X188276Y114700D01*
X188731Y114512D01*
X189222D01*
X189676Y114700D01*
X190024Y115048D01*
X190212Y115502D01*
Y115994D01*
X190024Y116448D01*
X189676Y116796D01*
X189222Y116984D01*
D02*
G37*
G36*
X10723Y106413D02*
X10035D01*
X9400Y106150D01*
X8914Y105664D01*
X8651Y105029D01*
Y104341D01*
X8914Y103706D01*
X9400Y103220D01*
X10035Y102957D01*
X10723D01*
X11358Y103220D01*
X11844Y103706D01*
X12107Y104341D01*
Y105029D01*
X11844Y105664D01*
X11358Y106150D01*
X10723Y106413D01*
D02*
G37*
G36*
X165035Y93803D02*
X164165D01*
X163325Y93578D01*
X162572Y93143D01*
X161957Y92528D01*
X161522Y91775D01*
X161297Y90935D01*
Y90065D01*
X161522Y89225D01*
X161957Y88472D01*
X162572Y87857D01*
X163325Y87422D01*
X164165Y87197D01*
X165035D01*
X165875Y87422D01*
X166628Y87857D01*
X167243Y88472D01*
X167678Y89225D01*
X167903Y90065D01*
Y90935D01*
X167678Y91775D01*
X167243Y92528D01*
X166628Y93143D01*
X165875Y93578D01*
X165035Y93803D01*
D02*
G37*
G36*
X175035Y83803D02*
X174165D01*
X173325Y83578D01*
X172572Y83143D01*
X171957Y82528D01*
X171522Y81775D01*
X171297Y80935D01*
Y80065D01*
X171522Y79225D01*
X171957Y78472D01*
X172572Y77857D01*
X173325Y77422D01*
X174165Y77197D01*
X175035D01*
X175875Y77422D01*
X176628Y77857D01*
X177243Y78472D01*
X177678Y79225D01*
X177903Y80065D01*
Y80935D01*
X177678Y81775D01*
X177243Y82528D01*
X176628Y83143D01*
X175875Y83578D01*
X175035Y83803D01*
D02*
G37*
G36*
X165035D02*
X164165D01*
X163325Y83578D01*
X162572Y83143D01*
X161957Y82528D01*
X161522Y81775D01*
X161297Y80935D01*
Y80065D01*
X161522Y79225D01*
X161957Y78472D01*
X162572Y77857D01*
X163325Y77422D01*
X164165Y77197D01*
X165035D01*
X165875Y77422D01*
X166628Y77857D01*
X167243Y78472D01*
X167678Y79225D01*
X167903Y80065D01*
Y80935D01*
X167678Y81775D01*
X167243Y82528D01*
X166628Y83143D01*
X165875Y83578D01*
X165035Y83803D01*
D02*
G37*
G36*
X27296Y75941D02*
X26608D01*
X25973Y75678D01*
X25487Y75191D01*
X25224Y74556D01*
Y73869D01*
X25487Y73234D01*
X25973Y72748D01*
X26608Y72485D01*
X27296D01*
X27931Y72748D01*
X28417Y73234D01*
X28680Y73869D01*
Y74556D01*
X28417Y75191D01*
X27931Y75678D01*
X27296Y75941D01*
D02*
G37*
G36*
X175035Y73803D02*
X174165D01*
X173325Y73578D01*
X172572Y73143D01*
X171957Y72528D01*
X171522Y71775D01*
X171297Y70935D01*
Y70065D01*
X171522Y69225D01*
X171957Y68472D01*
X172572Y67857D01*
X173325Y67422D01*
X174165Y67197D01*
X175035D01*
X175875Y67422D01*
X176628Y67857D01*
X177243Y68472D01*
X177678Y69225D01*
X177903Y70065D01*
Y70935D01*
X177678Y71775D01*
X177243Y72528D01*
X176628Y73143D01*
X175875Y73578D01*
X175035Y73803D01*
D02*
G37*
G36*
X165035D02*
X164165D01*
X163325Y73578D01*
X162572Y73143D01*
X161957Y72528D01*
X161522Y71775D01*
X161297Y70935D01*
Y70065D01*
X161522Y69225D01*
X161957Y68472D01*
X162572Y67857D01*
X163325Y67422D01*
X164165Y67197D01*
X165035D01*
X165875Y67422D01*
X166628Y67857D01*
X167243Y68472D01*
X167678Y69225D01*
X167903Y70065D01*
Y70935D01*
X167678Y71775D01*
X167243Y72528D01*
X166628Y73143D01*
X165875Y73578D01*
X165035Y73803D01*
D02*
G37*
G36*
X195784Y65278D02*
X195293D01*
X194839Y65090D01*
X194491Y64743D01*
X194303Y64288D01*
Y63797D01*
X194491Y63342D01*
X194839Y62995D01*
X195293Y62807D01*
X195784D01*
X196239Y62995D01*
X196586Y63342D01*
X196774Y63797D01*
Y64288D01*
X196586Y64743D01*
X196239Y65090D01*
X195784Y65278D01*
D02*
G37*
G36*
X191584D02*
X191093D01*
X190638Y65090D01*
X190291Y64743D01*
X190103Y64288D01*
Y63797D01*
X190291Y63342D01*
X190638Y62995D01*
X191093Y62807D01*
X191584D01*
X192039Y62995D01*
X192386Y63342D01*
X192574Y63797D01*
Y64288D01*
X192386Y64743D01*
X192039Y65090D01*
X191584Y65278D01*
D02*
G37*
G36*
X195784Y61078D02*
X195293D01*
X194839Y60890D01*
X194491Y60543D01*
X194303Y60088D01*
Y59597D01*
X194491Y59143D01*
X194839Y58795D01*
X195293Y58607D01*
X195784D01*
X196239Y58795D01*
X196586Y59143D01*
X196774Y59597D01*
Y60088D01*
X196586Y60543D01*
X196239Y60890D01*
X195784Y61078D01*
D02*
G37*
G36*
X191584D02*
X191093D01*
X190638Y60890D01*
X190291Y60543D01*
X190103Y60088D01*
Y59597D01*
X190291Y59143D01*
X190638Y58795D01*
X191093Y58607D01*
X191584D01*
X192039Y58795D01*
X192386Y59143D01*
X192574Y59597D01*
Y60088D01*
X192386Y60543D01*
X192039Y60890D01*
X191584Y61078D01*
D02*
G37*
G36*
X165035Y53803D02*
X164165D01*
X163325Y53578D01*
X162572Y53143D01*
X161957Y52528D01*
X161522Y51775D01*
X161297Y50935D01*
Y50065D01*
X161522Y49225D01*
X161957Y48472D01*
X162572Y47857D01*
X163325Y47422D01*
X164165Y47197D01*
X165035D01*
X165875Y47422D01*
X166628Y47857D01*
X167243Y48472D01*
X167678Y49225D01*
X167903Y50065D01*
Y50935D01*
X167678Y51775D01*
X167243Y52528D01*
X166628Y53143D01*
X165875Y53578D01*
X165035Y53803D01*
D02*
G37*
G36*
X199065Y47692D02*
X198573D01*
X198119Y47504D01*
X197771Y47157D01*
X197583Y46703D01*
Y46211D01*
X197771Y45757D01*
X198119Y45409D01*
X198573Y45221D01*
X199065D01*
X199519Y45409D01*
X199867Y45757D01*
X200055Y46211D01*
Y46703D01*
X199867Y47157D01*
X199519Y47504D01*
X199065Y47692D01*
D02*
G37*
G36*
X175035Y43803D02*
X174165D01*
X173325Y43578D01*
X172572Y43143D01*
X171957Y42528D01*
X171522Y41775D01*
X171297Y40935D01*
Y40065D01*
X171522Y39225D01*
X171957Y38472D01*
X172572Y37857D01*
X173325Y37422D01*
X174165Y37197D01*
X175035D01*
X175875Y37422D01*
X176628Y37857D01*
X177243Y38472D01*
X177678Y39225D01*
X177903Y40065D01*
Y40935D01*
X177678Y41775D01*
X177243Y42528D01*
X176628Y43143D01*
X175875Y43578D01*
X175035Y43803D01*
D02*
G37*
G36*
X165035D02*
X164165D01*
X163325Y43578D01*
X162572Y43143D01*
X161957Y42528D01*
X161522Y41775D01*
X161297Y40935D01*
Y40065D01*
X161522Y39225D01*
X161957Y38472D01*
X162572Y37857D01*
X163325Y37422D01*
X164165Y37197D01*
X165035D01*
X165875Y37422D01*
X166628Y37857D01*
X167243Y38472D01*
X167678Y39225D01*
X167903Y40065D01*
Y40935D01*
X167678Y41775D01*
X167243Y42528D01*
X166628Y43143D01*
X165875Y43578D01*
X165035Y43803D01*
D02*
G37*
G36*
X35462Y36482D02*
X34971D01*
X34517Y36294D01*
X34169Y35947D01*
X33981Y35492D01*
Y35001D01*
X34169Y34546D01*
X34517Y34199D01*
X34971Y34011D01*
X35462D01*
X35917Y34199D01*
X36264Y34546D01*
X36452Y35001D01*
Y35492D01*
X36264Y35947D01*
X35917Y36294D01*
X35462Y36482D01*
D02*
G37*
G36*
X14963D02*
X14471D01*
X14017Y36294D01*
X13669Y35947D01*
X13481Y35492D01*
Y35001D01*
X13669Y34546D01*
X14017Y34199D01*
X14471Y34011D01*
X14963D01*
X15417Y34199D01*
X15764Y34546D01*
X15953Y35001D01*
Y35492D01*
X15764Y35947D01*
X15417Y36294D01*
X14963Y36482D01*
D02*
G37*
G36*
X175035Y33803D02*
X174165D01*
X173325Y33578D01*
X172572Y33143D01*
X171957Y32528D01*
X171522Y31775D01*
X171297Y30935D01*
Y30065D01*
X171522Y29225D01*
X171957Y28472D01*
X172572Y27857D01*
X173325Y27422D01*
X174165Y27197D01*
X175035D01*
X175875Y27422D01*
X176628Y27857D01*
X177243Y28472D01*
X177678Y29225D01*
X177903Y30065D01*
Y30935D01*
X177678Y31775D01*
X177243Y32528D01*
X176628Y33143D01*
X175875Y33578D01*
X175035Y33803D01*
D02*
G37*
G36*
Y23803D02*
X174165D01*
X173325Y23578D01*
X172572Y23143D01*
X171957Y22528D01*
X171522Y21775D01*
X171297Y20935D01*
Y20065D01*
X171522Y19225D01*
X171957Y18472D01*
X172572Y17857D01*
X173325Y17422D01*
X174165Y17197D01*
X175035D01*
X175875Y17422D01*
X176628Y17857D01*
X177243Y18472D01*
X177678Y19225D01*
X177903Y20065D01*
Y20935D01*
X177678Y21775D01*
X177243Y22528D01*
X176628Y23143D01*
X175875Y23578D01*
X175035Y23803D01*
D02*
G37*
G36*
X165035D02*
X164165D01*
X163325Y23578D01*
X162572Y23143D01*
X161957Y22528D01*
X161522Y21775D01*
X161297Y20935D01*
Y20065D01*
X161522Y19225D01*
X161957Y18472D01*
X162572Y17857D01*
X163325Y17422D01*
X164165Y17197D01*
X165035D01*
X165875Y17422D01*
X166628Y17857D01*
X167243Y18472D01*
X167678Y19225D01*
X167903Y20065D01*
Y20935D01*
X167678Y21775D01*
X167243Y22528D01*
X166628Y23143D01*
X165875Y23578D01*
X165035Y23803D01*
D02*
G37*
G36*
X191169Y17803D02*
X190678D01*
X190224Y17615D01*
X189876Y17267D01*
X189688Y16813D01*
Y16321D01*
X189876Y15867D01*
X190224Y15519D01*
X190678Y15331D01*
X191169D01*
X191624Y15519D01*
X191971Y15867D01*
X192159Y16321D01*
Y16813D01*
X191971Y17267D01*
X191624Y17615D01*
X191169Y17803D01*
D02*
G37*
G36*
X195521Y16253D02*
X195030D01*
X194576Y16065D01*
X194228Y15717D01*
X194040Y15263D01*
Y14771D01*
X194228Y14317D01*
X194576Y13970D01*
X195030Y13781D01*
X195521D01*
X195976Y13970D01*
X196323Y14317D01*
X196511Y14771D01*
Y15263D01*
X196323Y15717D01*
X195976Y16065D01*
X195521Y16253D01*
D02*
G37*
G36*
X203789Y16196D02*
X203297D01*
X202843Y16008D01*
X202496Y15661D01*
X202308Y15206D01*
Y14715D01*
X202496Y14261D01*
X202843Y13913D01*
X203297Y13725D01*
X203789D01*
X204243Y13913D01*
X204591Y14261D01*
X204779Y14715D01*
Y15206D01*
X204591Y15661D01*
X204243Y16008D01*
X203789Y16196D01*
D02*
G37*
G36*
X199458D02*
X198967D01*
X198513Y16008D01*
X198165Y15661D01*
X197977Y15206D01*
Y14715D01*
X198165Y14261D01*
X198513Y13913D01*
X198967Y13725D01*
X199458D01*
X199913Y13913D01*
X200260Y14261D01*
X200448Y14715D01*
Y15206D01*
X200260Y15661D01*
X199913Y16008D01*
X199458Y16196D01*
D02*
G37*
G36*
X175035Y13803D02*
X174165D01*
X173325Y13578D01*
X172572Y13143D01*
X171957Y12528D01*
X171522Y11775D01*
X171297Y10935D01*
Y10065D01*
X171522Y9225D01*
X171957Y8472D01*
X172572Y7857D01*
X173325Y7422D01*
X174165Y7197D01*
X175035D01*
X175875Y7422D01*
X176628Y7857D01*
X177243Y8472D01*
X177678Y9225D01*
X177903Y10065D01*
Y10935D01*
X177678Y11775D01*
X177243Y12528D01*
X176628Y13143D01*
X175875Y13578D01*
X175035Y13803D01*
D02*
G37*
G36*
X52546Y9504D02*
X52054D01*
X51600Y9315D01*
X51252Y8968D01*
X51064Y8513D01*
Y8022D01*
X51252Y7568D01*
X51600Y7220D01*
X52054Y7032D01*
X52546D01*
X53000Y7220D01*
X53348Y7568D01*
X53536Y8022D01*
Y8513D01*
X53348Y8968D01*
X53000Y9315D01*
X52546Y9504D01*
D02*
G37*
G36*
X45713D02*
X45221D01*
X44767Y9315D01*
X44419Y8968D01*
X44231Y8513D01*
Y8022D01*
X44419Y7568D01*
X44767Y7220D01*
X45221Y7032D01*
X45713D01*
X46167Y7220D01*
X46514Y7568D01*
X46703Y8022D01*
Y8513D01*
X46514Y8968D01*
X46167Y9315D01*
X45713Y9504D01*
D02*
G37*
G36*
X38879D02*
X38388D01*
X37933Y9315D01*
X37586Y8968D01*
X37398Y8513D01*
Y8022D01*
X37586Y7568D01*
X37933Y7220D01*
X38388Y7032D01*
X38879D01*
X39333Y7220D01*
X39681Y7568D01*
X39869Y8022D01*
Y8513D01*
X39681Y8968D01*
X39333Y9315D01*
X38879Y9504D01*
D02*
G37*
G36*
X32046D02*
X31554D01*
X31100Y9315D01*
X30752Y8968D01*
X30564Y8513D01*
Y8022D01*
X30752Y7568D01*
X31100Y7220D01*
X31554Y7032D01*
X32046D01*
X32500Y7220D01*
X32848Y7568D01*
X33036Y8022D01*
Y8513D01*
X32848Y8968D01*
X32500Y9315D01*
X32046Y9504D01*
D02*
G37*
G36*
X25212D02*
X24721D01*
X24267Y9315D01*
X23919Y8968D01*
X23731Y8513D01*
Y8022D01*
X23919Y7568D01*
X24267Y7220D01*
X24721Y7032D01*
X25212D01*
X25667Y7220D01*
X26014Y7568D01*
X26202Y8022D01*
Y8513D01*
X26014Y8968D01*
X25667Y9315D01*
X25212Y9504D01*
D02*
G37*
G36*
X11546D02*
X11054D01*
X10600Y9315D01*
X10252Y8968D01*
X10064Y8513D01*
Y8022D01*
X10252Y7568D01*
X10600Y7220D01*
X11054Y7032D01*
X11546D01*
X12000Y7220D01*
X12348Y7568D01*
X12536Y8022D01*
Y8513D01*
X12348Y8968D01*
X12000Y9315D01*
X11546Y9504D01*
D02*
G37*
%LPD*%
G36*
X196850Y227559D02*
X196850Y210236D01*
X200485Y208570D01*
X201960Y207095D01*
X200629Y205063D01*
X199754D01*
X198952Y205865D01*
Y207575D01*
X190551D01*
Y204385D01*
X190305D01*
X189851Y204197D01*
X189504Y203850D01*
X189315Y203395D01*
Y202904D01*
X189504Y202450D01*
X189851Y202102D01*
X190305Y201914D01*
X190551D01*
Y201374D01*
X190354D01*
X189900Y201185D01*
X189552Y200838D01*
X189364Y200384D01*
Y199892D01*
X189552Y199438D01*
X189900Y199090D01*
X190354Y198902D01*
X190551D01*
Y198086D01*
X190305D01*
X189851Y197898D01*
X189504Y197550D01*
X189315Y197096D01*
Y196605D01*
X189504Y196150D01*
X189851Y195803D01*
X190305Y195615D01*
X190551D01*
Y191787D01*
X190305D01*
X189851Y191599D01*
X189504Y191251D01*
X189315Y190797D01*
Y190305D01*
X189504Y189851D01*
X189851Y189504D01*
X189859Y189465D01*
X187699Y187305D01*
X187237Y187497D01*
Y193466D01*
X187047Y193925D01*
X186614Y194358D01*
Y198447D01*
X187114Y198781D01*
X187156Y198764D01*
X187647D01*
X188102Y198952D01*
X188449Y199300D01*
X188637Y199754D01*
Y200246D01*
X188449Y200700D01*
X188102Y201048D01*
X187647Y201236D01*
X187156D01*
X187114Y201219D01*
X186614Y201553D01*
Y212992D01*
X174016Y225590D01*
X38976D01*
X34252Y230315D01*
Y246457D01*
X40157Y252362D01*
X172047D01*
X196850Y227559D01*
D02*
G37*
G36*
X198574Y205865D02*
X198684Y205597D01*
X199486Y204796D01*
X199540Y204664D01*
X199402Y204332D01*
X199401Y204256D01*
X199372Y204186D01*
X199401Y204117D01*
X199401Y204042D01*
X199454Y203988D01*
X199483Y203918D01*
X202402Y201000D01*
X202102Y200700D01*
X201914Y200246D01*
Y199754D01*
X202102Y199300D01*
X202450Y198952D01*
X202904Y198764D01*
X203395D01*
X203850Y198952D01*
X204149Y199252D01*
X205527Y197875D01*
Y193070D01*
X204622Y192166D01*
X202023D01*
X201755Y192055D01*
X200913Y191213D01*
X200802Y190945D01*
Y187795D01*
X200913Y187527D01*
X201181Y187416D01*
X204480D01*
X204671Y186954D01*
X203204Y185488D01*
X202904D01*
X202450Y185300D01*
X202102Y184952D01*
X201914Y184498D01*
Y184487D01*
X201736Y184359D01*
X201537Y184414D01*
X201198Y184588D01*
X201048Y184952D01*
X200700Y185300D01*
X200246Y185488D01*
X199754D01*
X199300Y185300D01*
X198952Y184952D01*
X198764Y184498D01*
Y184006D01*
X198952Y183552D01*
X199300Y183204D01*
X199664Y183054D01*
X199838Y182715D01*
X199893Y182516D01*
X199765Y182338D01*
X199754D01*
X199300Y182150D01*
X198952Y181802D01*
X198764Y181348D01*
Y181337D01*
X198586Y181209D01*
X198388Y181264D01*
X198049Y181439D01*
X197898Y181802D01*
X197550Y182150D01*
X197096Y182338D01*
X196605D01*
X196150Y182150D01*
X195803Y181802D01*
X195615Y181348D01*
Y180857D01*
X195803Y180402D01*
X196150Y180055D01*
X196514Y179904D01*
X196688Y179565D01*
X196744Y179367D01*
X196616Y179189D01*
X196605D01*
X196150Y179000D01*
X195803Y178653D01*
X195615Y178199D01*
Y178188D01*
X195437Y178060D01*
X195238Y178115D01*
X194899Y178289D01*
X194748Y178653D01*
X194401Y179000D01*
X193947Y179189D01*
X193455D01*
X193001Y179000D01*
X192653Y178653D01*
X192465Y178199D01*
Y177707D01*
X192653Y177253D01*
X193001Y176905D01*
X193364Y176754D01*
X193539Y176415D01*
X193594Y176217D01*
X193466Y176039D01*
X193455D01*
X193001Y175851D01*
X192653Y175503D01*
X192465Y175049D01*
Y174793D01*
X179287Y161615D01*
X179099Y161334D01*
X179033Y161002D01*
Y143994D01*
X160630Y125591D01*
X104724D01*
X71653Y92520D01*
X37795D01*
X37795Y111024D01*
X42796Y116025D01*
X43090Y115943D01*
X43317Y115838D01*
X43485Y115432D01*
X43832Y115085D01*
X44286Y114896D01*
X44778D01*
X45232Y115085D01*
X45580Y115432D01*
X45768Y115886D01*
Y116378D01*
X45580Y116832D01*
X45232Y117180D01*
X44827Y117348D01*
X44721Y117574D01*
X44640Y117868D01*
X85039Y158268D01*
X103315D01*
X103407Y158045D01*
X103754Y157698D01*
X104209Y157510D01*
X104700D01*
X105155Y157698D01*
X105502Y158045D01*
X105594Y158268D01*
X156464D01*
X156663Y157768D01*
X156457Y157561D01*
X156269Y157107D01*
Y156615D01*
X156457Y156161D01*
X156804Y155813D01*
X157258Y155625D01*
X157750D01*
X158204Y155813D01*
X158552Y156161D01*
X158740Y156615D01*
Y157107D01*
X158552Y157561D01*
X158345Y157768D01*
X158545Y158268D01*
X161664D01*
X161863Y157768D01*
X161657Y157561D01*
X161469Y157107D01*
Y156615D01*
X161657Y156161D01*
X162004Y155813D01*
X162459Y155625D01*
X162950D01*
X163404Y155813D01*
X163752Y156161D01*
X163940Y156615D01*
Y157107D01*
X163752Y157561D01*
X163545Y157768D01*
X163745Y158268D01*
X163779D01*
X189370Y183858D01*
Y188441D01*
X190127Y189197D01*
X190141Y189233D01*
X190174Y189255D01*
X190295Y189320D01*
X190305Y189315D01*
X190797D01*
X191251Y189504D01*
X191599Y189851D01*
X191787Y190305D01*
Y190797D01*
X191599Y191251D01*
X191251Y191599D01*
X190958Y191720D01*
X190930Y191787D01*
Y192520D01*
X191251Y192653D01*
X191599Y193001D01*
X191787Y193455D01*
Y193947D01*
X191599Y194401D01*
X191251Y194748D01*
X190930Y194881D01*
Y195615D01*
X190958Y195681D01*
X191251Y195803D01*
X191599Y196150D01*
X191787Y196605D01*
Y197096D01*
X191599Y197550D01*
X191251Y197898D01*
X190958Y198020D01*
X190930Y198086D01*
Y198902D01*
X190947Y198944D01*
X191300Y199090D01*
X191648Y199438D01*
X191836Y199892D01*
Y200384D01*
X191648Y200838D01*
X191300Y201185D01*
X190947Y201331D01*
X190930Y201374D01*
Y201914D01*
X190958Y201980D01*
X191251Y202102D01*
X191599Y202450D01*
X191787Y202904D01*
Y203395D01*
X191599Y203850D01*
X191251Y204197D01*
X190958Y204319D01*
X190930Y204385D01*
Y207196D01*
X198574D01*
Y205865D01*
D02*
G37*
%LPC*%
G36*
X128592Y248874D02*
X128101D01*
X127646Y248686D01*
X127299Y248338D01*
X127111Y247884D01*
Y247392D01*
X127299Y246938D01*
X127646Y246590D01*
X128101Y246402D01*
X128592D01*
X129046Y246590D01*
X129394Y246938D01*
X129582Y247392D01*
Y247884D01*
X129394Y248338D01*
X129046Y248686D01*
X128592Y248874D01*
D02*
G37*
G36*
X120192D02*
X119701D01*
X119246Y248686D01*
X118899Y248338D01*
X118711Y247884D01*
Y247392D01*
X118899Y246938D01*
X119246Y246590D01*
X119701Y246402D01*
X120192D01*
X120647Y246590D01*
X120994Y246938D01*
X121182Y247392D01*
Y247884D01*
X120994Y248338D01*
X120647Y248686D01*
X120192Y248874D01*
D02*
G37*
G36*
X111792D02*
X111301D01*
X110846Y248686D01*
X110499Y248338D01*
X110311Y247884D01*
Y247392D01*
X110499Y246938D01*
X110846Y246590D01*
X111301Y246402D01*
X111792D01*
X112247Y246590D01*
X112594Y246938D01*
X112782Y247392D01*
Y247884D01*
X112594Y248338D01*
X112247Y248686D01*
X111792Y248874D01*
D02*
G37*
G36*
X103392D02*
X102901D01*
X102446Y248686D01*
X102099Y248338D01*
X101911Y247884D01*
Y247392D01*
X102099Y246938D01*
X102446Y246590D01*
X102901Y246402D01*
X103392D01*
X103847Y246590D01*
X104194Y246938D01*
X104382Y247392D01*
Y247884D01*
X104194Y248338D01*
X103847Y248686D01*
X103392Y248874D01*
D02*
G37*
G36*
X190797Y223283D02*
X190305D01*
X189851Y223095D01*
X189504Y222747D01*
X189315Y222293D01*
Y221801D01*
X189504Y221347D01*
X189851Y221000D01*
X190305Y220811D01*
X190797D01*
X191251Y221000D01*
X191599Y221347D01*
X191787Y221801D01*
Y222293D01*
X191599Y222747D01*
X191251Y223095D01*
X190797Y223283D01*
D02*
G37*
G36*
X184498D02*
X184006D01*
X183552Y223095D01*
X183204Y222747D01*
X183016Y222293D01*
Y221801D01*
X183204Y221347D01*
X183552Y221000D01*
X184006Y220811D01*
X184498D01*
X184952Y221000D01*
X185300Y221347D01*
X185488Y221801D01*
Y222293D01*
X185300Y222747D01*
X184952Y223095D01*
X184498Y223283D01*
D02*
G37*
G36*
X190797Y210685D02*
X190305D01*
X189851Y210496D01*
X189504Y210149D01*
X189315Y209695D01*
Y209203D01*
X189504Y208749D01*
X189851Y208401D01*
X190305Y208213D01*
X190797D01*
X191251Y208401D01*
X191599Y208749D01*
X191787Y209203D01*
Y209695D01*
X191599Y210149D01*
X191251Y210496D01*
X190797Y210685D01*
D02*
G37*
G36*
X197096Y204385D02*
X196605D01*
X196150Y204197D01*
X195803Y203850D01*
X195615Y203395D01*
Y202904D01*
X195803Y202450D01*
X196150Y202102D01*
X196605Y201914D01*
X197096D01*
X197550Y202102D01*
X197898Y202450D01*
X198086Y202904D01*
Y203395D01*
X197898Y203850D01*
X197550Y204197D01*
X197096Y204385D01*
D02*
G37*
G36*
X203395Y198086D02*
X202904D01*
X202450Y197898D01*
X202102Y197550D01*
X201914Y197096D01*
Y196605D01*
X202102Y196150D01*
X202450Y195803D01*
X202904Y195615D01*
X203395D01*
X203850Y195803D01*
X204197Y196150D01*
X204385Y196605D01*
Y197096D01*
X204197Y197550D01*
X203850Y197898D01*
X203395Y198086D01*
D02*
G37*
G36*
X200246D02*
X199754D01*
X199300Y197898D01*
X198952Y197550D01*
X198764Y197096D01*
Y196605D01*
X198952Y196150D01*
X199300Y195803D01*
X199754Y195615D01*
X200246D01*
X200700Y195803D01*
X201048Y196150D01*
X201236Y196605D01*
Y197096D01*
X201048Y197550D01*
X200700Y197898D01*
X200246Y198086D01*
D02*
G37*
G36*
X193947Y194937D02*
X193455D01*
X193001Y194748D01*
X192653Y194401D01*
X192465Y193947D01*
Y193455D01*
X192653Y193001D01*
X193001Y192653D01*
X193455Y192465D01*
X193947D01*
X194401Y192653D01*
X194748Y193001D01*
X194937Y193455D01*
Y193947D01*
X194748Y194401D01*
X194401Y194748D01*
X193947Y194937D01*
D02*
G37*
G36*
X197096Y191787D02*
X196605D01*
X196150Y191599D01*
X195803Y191251D01*
X195615Y190797D01*
Y190305D01*
X195803Y189851D01*
X196150Y189504D01*
X196605Y189315D01*
X197096D01*
X197550Y189504D01*
X197898Y189851D01*
X198086Y190305D01*
Y190797D01*
X197898Y191251D01*
X197550Y191599D01*
X197096Y191787D01*
D02*
G37*
G36*
X197096Y185488D02*
X196605D01*
X196150Y185300D01*
X195803Y184952D01*
X195615Y184498D01*
Y184006D01*
X195803Y183552D01*
X196150Y183204D01*
X196605Y183016D01*
X197096D01*
X197550Y183204D01*
X197898Y183552D01*
X198086Y184006D01*
Y184498D01*
X197898Y184952D01*
X197550Y185300D01*
X197096Y185488D01*
D02*
G37*
G36*
X193947D02*
X193455D01*
X193001Y185300D01*
X192653Y184952D01*
X192465Y184498D01*
Y184006D01*
X192653Y183552D01*
X193001Y183204D01*
X193455Y183016D01*
X193947D01*
X194401Y183204D01*
X194748Y183552D01*
X194937Y184006D01*
Y184498D01*
X194748Y184952D01*
X194401Y185300D01*
X193947Y185488D01*
D02*
G37*
G36*
Y182338D02*
X193455D01*
X193001Y182150D01*
X192653Y181802D01*
X192465Y181348D01*
Y180857D01*
X192653Y180402D01*
X193001Y180055D01*
X193455Y179867D01*
X193947D01*
X194401Y180055D01*
X194748Y180402D01*
X194937Y180857D01*
Y181348D01*
X194748Y181802D01*
X194401Y182150D01*
X193947Y182338D01*
D02*
G37*
G36*
X108546Y157636D02*
X108054D01*
X107600Y157448D01*
X107252Y157100D01*
X107064Y156646D01*
Y156154D01*
X107252Y155700D01*
X107600Y155352D01*
X108054Y155164D01*
X108546D01*
X109000Y155352D01*
X109348Y155700D01*
X109536Y156154D01*
Y156646D01*
X109348Y157100D01*
X109000Y157448D01*
X108546Y157636D01*
D02*
G37*
G36*
X94602Y119743D02*
X94110D01*
X93656Y119555D01*
X93308Y119207D01*
X93120Y118753D01*
Y118261D01*
X93308Y117807D01*
X93656Y117459D01*
X94110Y117271D01*
X94602D01*
X95056Y117459D01*
X95404Y117807D01*
X95592Y118261D01*
Y118753D01*
X95404Y119207D01*
X95056Y119555D01*
X94602Y119743D01*
D02*
G37*
G36*
X86202D02*
X85710D01*
X85256Y119555D01*
X84908Y119207D01*
X84720Y118753D01*
Y118261D01*
X84908Y117807D01*
X85256Y117459D01*
X85710Y117271D01*
X86202D01*
X86656Y117459D01*
X87004Y117807D01*
X87192Y118261D01*
Y118753D01*
X87004Y119207D01*
X86656Y119555D01*
X86202Y119743D01*
D02*
G37*
G36*
Y111343D02*
X85710D01*
X85256Y111155D01*
X84908Y110807D01*
X84720Y110353D01*
Y109861D01*
X84908Y109407D01*
X85256Y109059D01*
X85710Y108871D01*
X86202D01*
X86656Y109059D01*
X87004Y109407D01*
X87192Y109861D01*
Y110353D01*
X87004Y110807D01*
X86656Y111155D01*
X86202Y111343D01*
D02*
G37*
%LPD*%
D14*
X171290Y208966D02*
G03*
X170765Y208441I0J-525D01*
G01*
X170240Y207343D02*
G03*
X170765Y207868I0J525D01*
G01*
X169265D02*
G03*
X169790Y207343I525J0D01*
G01*
X169265Y209255D02*
G03*
X168740Y209780I-525J0D01*
G01*
X168290D02*
G03*
X167765Y209255I0J-525D01*
G01*
X167240Y206666D02*
G03*
X167765Y207191I0J525D01*
G01*
X166265D02*
G03*
X166790Y206666I525J0D01*
G01*
X166265Y209255D02*
G03*
X165740Y209780I-525J0D01*
G01*
X165290D02*
G03*
X164765Y209255I0J-525D01*
G01*
X164240Y206666D02*
G03*
X164765Y207191I0J525D01*
G01*
X163265D02*
G03*
X163790Y206666I525J0D01*
G01*
X163265Y209255D02*
G03*
X162740Y209780I-525J0D01*
G01*
X162290D02*
G03*
X161765Y209255I0J-525D01*
G01*
X161240Y206666D02*
G03*
X161765Y207191I0J525D01*
G01*
X160265D02*
G03*
X160790Y206666I525J0D01*
G01*
X160265Y209255D02*
G03*
X159740Y209780I-525J0D01*
G01*
X159290D02*
G03*
X158765Y209255I0J-525D01*
G01*
X158240Y206666D02*
G03*
X158765Y207191I0J525D01*
G01*
X157265D02*
G03*
X157790Y206666I525J0D01*
G01*
X157265Y208441D02*
G03*
X156740Y208966I-525J0D01*
G01*
X129290D02*
G03*
X128765Y208441I0J-525D01*
G01*
X128240Y206666D02*
G03*
X128765Y207191I0J525D01*
G01*
X127265D02*
G03*
X127790Y206666I525J0D01*
G01*
X127265Y208441D02*
G03*
X126740Y208966I-525J0D01*
G01*
X119195Y184623D02*
G03*
X119548Y183769I354J-353D01*
G01*
X120619Y186047D02*
G03*
X120619Y186591I-272J272D01*
G01*
X120386Y186825D02*
G03*
X119841Y186825I-272J-272D01*
G01*
X117633Y185161D02*
G03*
X118177Y185161I272J272D01*
G01*
X117400Y185939D02*
G03*
X117400Y185394I272J-272D01*
G01*
X118935Y187474D02*
G03*
X118935Y188019I-272J272D01*
G01*
X118702Y188252D02*
G03*
X118157Y188252I-272J-272D01*
G01*
X115977Y186779D02*
G03*
X116684Y186779I353J354D01*
G01*
X165993Y195745D02*
G03*
X166493Y195245I500J0D01*
G01*
X165993Y196462D02*
G03*
X165608Y196847I-385J0D01*
G01*
X165278D02*
G03*
X164893Y196462I0J-385D01*
G01*
X164508Y195245D02*
G03*
X164893Y195630I0J385D01*
G01*
X163793D02*
G03*
X164178Y195245I385J0D01*
G01*
X163793Y198369D02*
G03*
X163408Y198754I-385J0D01*
G01*
X163078D02*
G03*
X162693Y198369I0J-385D01*
G01*
X162308Y195245D02*
G03*
X162693Y195630I0J385D01*
G01*
X161593D02*
G03*
X161978Y195245I385J0D01*
G01*
X161593Y198217D02*
G03*
X161208Y198602I-385J0D01*
G01*
X160878D02*
G03*
X160493Y198217I0J-385D01*
G01*
X159993Y195245D02*
G03*
X160493Y195745I0J500D01*
G01*
X154993D02*
G03*
X155493Y195245I500J0D01*
G01*
X154993Y198129D02*
G03*
X154608Y198514I-385J0D01*
G01*
X154278D02*
G03*
X153893Y198129I0J-385D01*
G01*
X153508Y195245D02*
G03*
X153893Y195630I0J385D01*
G01*
X152793D02*
G03*
X153178Y195245I385J0D01*
G01*
X152793Y200006D02*
G03*
X152408Y200391I-385J0D01*
G01*
X152078D02*
G03*
X151693Y200006I0J-385D01*
G01*
X151308Y195245D02*
G03*
X151693Y195630I0J385D01*
G01*
X150593D02*
G03*
X150978Y195245I385J0D01*
G01*
X150593Y199132D02*
G03*
X150208Y199517I-385J0D01*
G01*
X149878D02*
G03*
X149493Y199132I0J-385D01*
G01*
X149108Y195245D02*
G03*
X149493Y195630I0J385D01*
G01*
X148393D02*
G03*
X148778Y195245I385J0D01*
G01*
X148393Y199665D02*
G03*
X148008Y200050I-385J0D01*
G01*
X147678D02*
G03*
X147293Y199665I0J-385D01*
G01*
X146908Y195245D02*
G03*
X147293Y195630I0J385D01*
G01*
X146193D02*
G03*
X146578Y195245I385J0D01*
G01*
X146193Y199310D02*
G03*
X145808Y199695I-385J0D01*
G01*
X145478D02*
G03*
X145093Y199310I0J-385D01*
G01*
X144708Y197515D02*
G03*
X145093Y197900I0J385D01*
G01*
X143993D02*
G03*
X144378Y197515I385J0D01*
G01*
X143993Y200958D02*
G03*
X143608Y201343I-385J0D01*
G01*
X143278D02*
G03*
X142893Y200958I0J-385D01*
G01*
X142393Y199517D02*
G03*
X142893Y200017I0J500D01*
G01*
X144153Y194920D02*
G03*
X144678Y194395I525J0D01*
G01*
X144153Y196171D02*
G03*
X143628Y196696I-525J0D01*
G01*
X143178D02*
G03*
X142653Y196171I0J-525D01*
G01*
X142128Y194395D02*
G03*
X142653Y194920I0J525D01*
G01*
X141153D02*
G03*
X141678Y194395I525J0D01*
G01*
X141153Y196021D02*
G03*
X140628Y196546I-525J0D01*
G01*
X140178D02*
G03*
X139653Y196021I0J-525D01*
G01*
X139128Y192582D02*
G03*
X139653Y193107I0J525D01*
G01*
X138153D02*
G03*
X138678Y192582I525J0D01*
G01*
X138153Y196021D02*
G03*
X137628Y196546I-525J0D01*
G01*
X137178D02*
G03*
X136653Y196021I0J-525D01*
G01*
X136128Y192582D02*
G03*
X136653Y193107I0J525D01*
G01*
X135153D02*
G03*
X135678Y192582I525J0D01*
G01*
X135153Y196021D02*
G03*
X134628Y196546I-525J0D01*
G01*
X134178D02*
G03*
X133653Y196021I0J-525D01*
G01*
X133128Y192582D02*
G03*
X133653Y193107I0J525D01*
G01*
X132153D02*
G03*
X132678Y192582I525J0D01*
G01*
X132153Y196137D02*
G03*
X131628Y196662I-525J0D01*
G01*
X131178D02*
G03*
X130653Y196137I0J-525D01*
G01*
X130128Y192582D02*
G03*
X130653Y193107I0J525D01*
G01*
X129153D02*
G03*
X129678Y192582I525J0D01*
G01*
X129153Y196173D02*
G03*
X128628Y196698I-525J0D01*
G01*
X128178D02*
G03*
X127653Y196173I0J-525D01*
G01*
X127128Y192582D02*
G03*
X127653Y193107I0J525D01*
G01*
X126153D02*
G03*
X126678Y192582I525J0D01*
G01*
X126153Y196024D02*
G03*
X125628Y196549I-525J0D01*
G01*
X125178D02*
G03*
X124653Y196024I0J-525D01*
G01*
X124128Y192582D02*
G03*
X124653Y193107I0J525D01*
G01*
X123153D02*
G03*
X123678Y192582I525J0D01*
G01*
X123153Y196021D02*
G03*
X122628Y196546I-525J0D01*
G01*
X122178D02*
G03*
X121653Y196021I0J-525D01*
G01*
X121128Y192582D02*
G03*
X121653Y193107I0J525D01*
G01*
X120153D02*
G03*
X120678Y192582I525J0D01*
G01*
X120153Y196021D02*
G03*
X119628Y196546I-525J0D01*
G01*
X119178D02*
G03*
X118653Y196021I0J-525D01*
G01*
X118128Y194395D02*
G03*
X118653Y194920I0J525D01*
G01*
X169970Y202295D02*
G03*
X170124Y201923I525J0D01*
G01*
X169970Y203482D02*
G03*
X169445Y204007I-525J0D01*
G01*
X168995D02*
G03*
X168470Y203482I0J-525D01*
G01*
X167945Y199452D02*
G03*
X168470Y199977I0J525D01*
G01*
X166970D02*
G03*
X167495Y199452I525J0D01*
G01*
X166970Y204441D02*
G03*
X166445Y204966I-525J0D01*
G01*
X165995D02*
G03*
X165470Y204441I0J-525D01*
G01*
X164945Y199452D02*
G03*
X165470Y199977I0J525D01*
G01*
X163970D02*
G03*
X164495Y199452I525J0D01*
G01*
X163970Y204441D02*
G03*
X163445Y204966I-525J0D01*
G01*
X162995D02*
G03*
X162470Y204441I0J-525D01*
G01*
X161945Y199452D02*
G03*
X162470Y199977I0J525D01*
G01*
X160970D02*
G03*
X161495Y199452I525J0D01*
G01*
X160970Y204441D02*
G03*
X160445Y204966I-525J0D01*
G01*
X159995D02*
G03*
X159470Y204441I0J-525D01*
G01*
X158945Y201486D02*
G03*
X159470Y202011I0J525D01*
G01*
X157970D02*
G03*
X158495Y201486I525J0D01*
G01*
X157970Y204441D02*
G03*
X157445Y204966I-525J0D01*
G01*
X156995D02*
G03*
X156470Y204441I0J-525D01*
G01*
X155945Y201462D02*
G03*
X156470Y201987I0J525D01*
G01*
X154970D02*
G03*
X155495Y201462I525J0D01*
G01*
X154970Y204442D02*
G03*
X154445Y204967I-525J0D01*
G01*
X153995D02*
G03*
X153470Y204442I0J-525D01*
G01*
X152945Y201241D02*
G03*
X153470Y201766I0J525D01*
G01*
X151970D02*
G03*
X152495Y201241I525J0D01*
G01*
X151970Y202320D02*
G03*
X151445Y202845I-525J0D01*
G01*
X150995D02*
G03*
X150470Y202320I0J-525D01*
G01*
X149945Y200367D02*
G03*
X150470Y200892I0J525D01*
G01*
X148970D02*
G03*
X149495Y200367I525J0D01*
G01*
X148970Y202142D02*
G03*
X148445Y202667I-525J0D01*
G01*
X141995D02*
G03*
X141470Y202142I0J-525D01*
G01*
X140945Y200367D02*
G03*
X141470Y200892I0J525D01*
G01*
X139970D02*
G03*
X140495Y200367I525J0D01*
G01*
X139970Y202142D02*
G03*
X139445Y202667I-525J0D01*
G01*
X145977Y181996D02*
G03*
X146477Y181496I500J0D01*
G01*
X145977Y182623D02*
G03*
X145592Y183008I-385J0D01*
G01*
X145262D02*
G03*
X144877Y182623I0J-385D01*
G01*
X144492Y181490D02*
G03*
X144877Y181875I0J385D01*
G01*
X143777D02*
G03*
X144162Y181490I385J0D01*
G01*
X143777Y182623D02*
G03*
X143392Y183008I-385J0D01*
G01*
X143062D02*
G03*
X142677Y182623I0J-385D01*
G01*
X142177Y181496D02*
G03*
X142677Y181996I0J500D01*
G01*
X134977D02*
G03*
X135477Y181496I500J0D01*
G01*
X134977Y182623D02*
G03*
X134592Y183008I-385J0D01*
G01*
X134262D02*
G03*
X133877Y182623I0J-385D01*
G01*
X133492Y181165D02*
G03*
X133877Y181550I0J385D01*
G01*
X132777D02*
G03*
X133162Y181165I385J0D01*
G01*
X132777Y182623D02*
G03*
X132392Y183008I-385J0D01*
G01*
X132062D02*
G03*
X131677Y182623I0J-385D01*
G01*
X131292Y181165D02*
G03*
X131677Y181550I0J385D01*
G01*
X130577D02*
G03*
X130962Y181165I385J0D01*
G01*
X130577Y182623D02*
G03*
X130192Y183008I-385J0D01*
G01*
X129862D02*
G03*
X129477Y182623I0J-385D01*
G01*
X129092Y181165D02*
G03*
X129477Y181550I0J385D01*
G01*
X128377D02*
G03*
X128762Y181165I385J0D01*
G01*
X128377Y182623D02*
G03*
X127992Y183008I-385J0D01*
G01*
X127662D02*
G03*
X127277Y182623I0J-385D01*
G01*
X126777Y181496D02*
G03*
X127277Y181996I0J500D01*
G01*
X169966Y185738D02*
G03*
X169441Y185213I0J-525D01*
G01*
X168916Y184307D02*
G03*
X169441Y184832I0J525D01*
G01*
X167941D02*
G03*
X168466Y184307I525J0D01*
G01*
X167941Y187512D02*
G03*
X167416Y188037I-525J0D01*
G01*
X166966D02*
G03*
X166441Y187512I0J-525D01*
G01*
X165916Y182346D02*
G03*
X166441Y182871I0J525D01*
G01*
X164941D02*
G03*
X165466Y182346I525J0D01*
G01*
X164941Y187512D02*
G03*
X164416Y188037I-525J0D01*
G01*
X163966D02*
G03*
X163441Y187512I0J-525D01*
G01*
X162916Y182346D02*
G03*
X163441Y182871I0J525D01*
G01*
X161941D02*
G03*
X162466Y182346I525J0D01*
G01*
X161941Y187512D02*
G03*
X161416Y188037I-525J0D01*
G01*
X160966D02*
G03*
X160441Y187512I0J-525D01*
G01*
X159916Y182346D02*
G03*
X160441Y182871I0J525D01*
G01*
X158941D02*
G03*
X159466Y182346I525J0D01*
G01*
X158941Y187512D02*
G03*
X158416Y188037I-525J0D01*
G01*
X157966D02*
G03*
X157441Y187512I0J-525D01*
G01*
X156916Y182346D02*
G03*
X157441Y182871I0J525D01*
G01*
X155941D02*
G03*
X156466Y182346I525J0D01*
G01*
X155941Y187512D02*
G03*
X155416Y188037I-525J0D01*
G01*
X154966D02*
G03*
X154441Y187512I0J-525D01*
G01*
X153916Y182346D02*
G03*
X154441Y182871I0J525D01*
G01*
X152941D02*
G03*
X153466Y182346I525J0D01*
G01*
X152941Y187512D02*
G03*
X152416Y188037I-525J0D01*
G01*
X151966D02*
G03*
X151441Y187512I0J-525D01*
G01*
X150916Y182346D02*
G03*
X151441Y182871I0J525D01*
G01*
X149941D02*
G03*
X150466Y182346I525J0D01*
G01*
X149941Y186414D02*
G03*
X149416Y186939I-525J0D01*
G01*
X148966D02*
G03*
X148441Y186414I0J-525D01*
G01*
X147916Y182346D02*
G03*
X148441Y182871I0J525D01*
G01*
X146941D02*
G03*
X147466Y182346I525J0D01*
G01*
X146941Y183333D02*
G03*
X146416Y183858I-525J0D01*
G01*
X167252Y180315D02*
G03*
X166752Y179815I0J-500D01*
G01*
X166367Y179430D02*
G03*
X166752Y179815I0J385D01*
G01*
X165652D02*
G03*
X166036Y179430I385J0D01*
G01*
X165652Y180261D02*
G03*
X165267Y180646I-385J0D01*
G01*
X164936D02*
G03*
X164551Y180261I0J-385D01*
G01*
X164166Y179189D02*
G03*
X164551Y179574I0J385D01*
G01*
X163452D02*
G03*
X163837Y179189I385J0D01*
G01*
X163452Y180261D02*
G03*
X163066Y180646I-385J0D01*
G01*
X162736D02*
G03*
X162352Y180261I0J-385D01*
G01*
X161967Y178803D02*
G03*
X162352Y179188I0J385D01*
G01*
X161251D02*
G03*
X161636Y178803I385J0D01*
G01*
X161251Y180261D02*
G03*
X160866Y180646I-385J0D01*
G01*
X160537D02*
G03*
X160152Y180261I0J-385D01*
G01*
X159766Y178803D02*
G03*
X160152Y179188I0J385D01*
G01*
X159052D02*
G03*
X159437Y178803I385J0D01*
G01*
X159052Y180261D02*
G03*
X158667Y180646I-385J0D01*
G01*
X158336D02*
G03*
X157951Y180261I0J-385D01*
G01*
X157566Y178803D02*
G03*
X157951Y179188I0J385D01*
G01*
X156851D02*
G03*
X157237Y178803I385J0D01*
G01*
X156851Y180261D02*
G03*
X156466Y180646I-385J0D01*
G01*
X156137D02*
G03*
X155752Y180261I0J-385D01*
G01*
X155367Y178803D02*
G03*
X155752Y179188I0J385D01*
G01*
X154651D02*
G03*
X155036Y178803I385J0D01*
G01*
X154651Y180261D02*
G03*
X154267Y180646I-385J0D01*
G01*
X153937D02*
G03*
X153551Y180261I0J-385D01*
G01*
X153166Y178803D02*
G03*
X153551Y179188I0J385D01*
G01*
X152452D02*
G03*
X152837Y178803I385J0D01*
G01*
X152452Y180261D02*
G03*
X152067Y180646I-385J0D01*
G01*
X151736D02*
G03*
X151351Y180261I0J-385D01*
G01*
X150967Y178803D02*
G03*
X151351Y179188I0J385D01*
G01*
X150251D02*
G03*
X150636Y178803I385J0D01*
G01*
X150251Y180261D02*
G03*
X149866Y180646I-385J0D01*
G01*
X149537D02*
G03*
X149152Y180261I0J-385D01*
G01*
X148767Y178803D02*
G03*
X149152Y179188I0J385D01*
G01*
X148052D02*
G03*
X148436Y178803I385J0D01*
G01*
X148052Y180261D02*
G03*
X147667Y180646I-385J0D01*
G01*
X147336D02*
G03*
X146951Y180261I0J-385D01*
G01*
X146566Y178803D02*
G03*
X146951Y179188I0J385D01*
G01*
X145852D02*
G03*
X146237Y178803I385J0D01*
G01*
X145852Y180261D02*
G03*
X145466Y180646I-385J0D01*
G01*
X145136D02*
G03*
X144752Y180261I0J-385D01*
G01*
X144367Y178803D02*
G03*
X144752Y179188I0J385D01*
G01*
X143651D02*
G03*
X144036Y178803I385J0D01*
G01*
X143651Y179815D02*
G03*
X143151Y180315I-500J0D01*
G01*
X118806Y181168D02*
G03*
X119160Y180315I354J-353D01*
G01*
X118971Y181333D02*
G03*
X118971Y181828I-247J247D01*
G01*
X118759Y182040D02*
G03*
X118264Y182040I-247J-247D01*
G01*
X115946Y180217D02*
G03*
X116441Y180217I247J247D01*
G01*
X115734Y180924D02*
G03*
X115734Y180429I247J-247D01*
G01*
X117731Y182922D02*
G03*
X117731Y183417I-247J247D01*
G01*
X117519Y183629D02*
G03*
X117024Y183629I-247J-247D01*
G01*
X113104Y180203D02*
G03*
X113599Y180203I247J247D01*
G01*
X112892Y180911D02*
G03*
X112892Y180416I247J-247D01*
G01*
X116539Y184558D02*
G03*
X116539Y185053I-247J247D01*
G01*
X116327Y185265D02*
G03*
X115832Y185265I-247J-247D01*
G01*
X111687Y181615D02*
G03*
X112182Y181615I247J247D01*
G01*
X111475Y182322D02*
G03*
X111475Y181827I247J-247D01*
G01*
X115106Y185953D02*
G03*
X115106Y186448I-247J247D01*
G01*
X114894Y186660D02*
G03*
X114399Y186660I-247J-247D01*
G01*
X110169Y183138D02*
G03*
X110876Y183138I353J354D01*
G01*
X156001Y206316D02*
G03*
X156501Y205817I500J0D01*
G01*
X156001Y207396D02*
G03*
X155616Y207781I-385J0D01*
G01*
X155286D02*
G03*
X154901Y207396I0J-385D01*
G01*
X154516Y205817D02*
G03*
X154901Y206202I0J385D01*
G01*
X153801D02*
G03*
X154186Y205817I385J0D01*
G01*
X153801Y207731D02*
G03*
X153416Y208116I-385J0D01*
G01*
X153086D02*
G03*
X152701Y207731I0J-385D01*
G01*
X152316Y205817D02*
G03*
X152701Y206202I0J385D01*
G01*
X151601D02*
G03*
X151986Y205817I385J0D01*
G01*
X151601Y207731D02*
G03*
X151216Y208116I-385J0D01*
G01*
X150886D02*
G03*
X150501Y207731I0J-385D01*
G01*
X150116Y205817D02*
G03*
X150501Y206202I0J385D01*
G01*
X149401D02*
G03*
X149786Y205817I385J0D01*
G01*
X149401Y207731D02*
G03*
X149016Y208116I-385J0D01*
G01*
X148686D02*
G03*
X148301Y207731I0J-385D01*
G01*
X147801Y205817D02*
G03*
X148301Y206316I0J500D01*
G01*
X142801D02*
G03*
X143301Y205817I500J0D01*
G01*
X142801Y207731D02*
G03*
X142416Y208116I-385J0D01*
G01*
X142086D02*
G03*
X141701Y207731I0J-385D01*
G01*
X141316Y205613D02*
G03*
X141701Y205998I0J385D01*
G01*
X140601D02*
G03*
X140986Y205613I385J0D01*
G01*
X140601Y207731D02*
G03*
X140216Y208116I-385J0D01*
G01*
X139886D02*
G03*
X139501Y207731I0J-385D01*
G01*
X139116Y205817D02*
G03*
X139501Y206202I0J385D01*
G01*
X138401D02*
G03*
X138786Y205817I385J0D01*
G01*
X138401Y207731D02*
G03*
X138016Y208116I-385J0D01*
G01*
X137686D02*
G03*
X137301Y207731I0J-385D01*
G01*
X136916Y205817D02*
G03*
X137301Y206202I0J385D01*
G01*
X136201D02*
G03*
X136586Y205817I385J0D01*
G01*
X136201Y207731D02*
G03*
X135816Y208116I-385J0D01*
G01*
X135486D02*
G03*
X135101Y207731I0J-385D01*
G01*
X134716Y205502D02*
G03*
X135101Y205887I0J385D01*
G01*
X134001D02*
G03*
X134386Y205502I385J0D01*
G01*
X134001Y207731D02*
G03*
X133616Y208116I-385J0D01*
G01*
X133286D02*
G03*
X132901Y207731I0J-385D01*
G01*
X132401Y205817D02*
G03*
X132901Y206316I0J500D01*
G01*
X135442Y211330D02*
G03*
X136142Y210630I700J0D01*
G01*
X135442Y211556D02*
G03*
X134742Y212256I-700J0D01*
G01*
X134142D02*
G03*
X133442Y211556I0J-700D01*
G01*
X132742Y209816D02*
G03*
X133442Y210516I0J700D01*
G01*
X131442D02*
G03*
X132142Y209816I700J0D01*
G01*
X131442Y211670D02*
G03*
X130742Y212370I-700J0D01*
G01*
X130142D02*
G03*
X129442Y211670I0J-700D01*
G01*
X128742Y209816D02*
G03*
X129442Y210516I0J700D01*
G01*
X127442D02*
G03*
X128142Y209816I700J0D01*
G01*
X127442Y211670D02*
G03*
X126742Y212370I-700J0D01*
G01*
X126142D02*
G03*
X125442Y211670I0J-700D01*
G01*
X124742Y209816D02*
G03*
X125442Y210516I0J700D01*
G01*
X123442D02*
G03*
X124142Y209816I700J0D01*
G01*
X123442Y211670D02*
G03*
X122742Y212370I-700J0D01*
G01*
X122142D02*
G03*
X121442Y211670I0J-700D01*
G01*
X120742Y209807D02*
G03*
X121442Y210507I0J700D01*
G01*
X119442D02*
G03*
X120142Y209807I700J0D01*
G01*
X119442Y211670D02*
G03*
X118742Y212370I-700J0D01*
G01*
X118142D02*
G03*
X117442Y211670I0J-700D01*
G01*
X116742Y206045D02*
G03*
X117442Y206745I0J700D01*
G01*
X115442D02*
G03*
X116142Y206045I700J0D01*
G01*
X115442Y211670D02*
G03*
X114742Y212370I-700J0D01*
G01*
X114142D02*
G03*
X113442Y211670I0J-700D01*
G01*
X112742Y205817D02*
G03*
X113442Y206517I0J700D01*
G01*
X111442D02*
G03*
X112142Y205817I700J0D01*
G01*
X111442Y211670D02*
G03*
X110742Y212370I-700J0D01*
G01*
X110142D02*
G03*
X109442Y211670I0J-700D01*
G01*
X109091Y205548D02*
G03*
X109442Y206393I-845J845D01*
G01*
X139563Y188887D02*
G03*
X139063Y188387I0J-500D01*
G01*
X138678Y184841D02*
G03*
X139063Y185226I0J385D01*
G01*
X137963D02*
G03*
X138348Y184841I385J0D01*
G01*
X137963Y190497D02*
G03*
X137578Y190882I-385J0D01*
G01*
X137248D02*
G03*
X136863Y190497I0J-385D01*
G01*
X136478Y186919D02*
G03*
X136863Y187304I0J385D01*
G01*
X135763D02*
G03*
X136148Y186919I385J0D01*
G01*
X135763Y190497D02*
G03*
X135378Y190882I-385J0D01*
G01*
X135048D02*
G03*
X134663Y190497I0J-385D01*
G01*
X134278Y186919D02*
G03*
X134663Y187304I0J385D01*
G01*
X133563D02*
G03*
X133948Y186919I385J0D01*
G01*
X133563Y190497D02*
G03*
X133178Y190882I-385J0D01*
G01*
X132848D02*
G03*
X132463Y190497I0J-385D01*
G01*
X132078Y186919D02*
G03*
X132463Y187304I0J385D01*
G01*
X131363D02*
G03*
X131748Y186919I385J0D01*
G01*
X131363Y190497D02*
G03*
X130978Y190882I-385J0D01*
G01*
X130648D02*
G03*
X130263Y190497I0J-385D01*
G01*
X129410Y189389D02*
G03*
X130263Y189743I353J354D01*
G01*
X164186Y192257D02*
G03*
X164710Y191732I525J0D01*
G01*
X164186Y192257D02*
G03*
X163661Y192782I-525J0D01*
G01*
X163210D02*
G03*
X162686Y192257I0J-525D01*
G01*
X162161Y189959D02*
G03*
X162686Y190484I0J525D01*
G01*
X161186D02*
G03*
X161711Y189959I525J0D01*
G01*
X161186Y193020D02*
G03*
X160661Y193545I-525J0D01*
G01*
X160211D02*
G03*
X159686Y193020I0J-525D01*
G01*
X159160Y189737D02*
G03*
X159686Y190262I0J525D01*
G01*
X158186D02*
G03*
X158711Y189737I525J0D01*
G01*
X158186Y193020D02*
G03*
X157660Y193545I-525J0D01*
G01*
X157211D02*
G03*
X156685Y193020I0J-525D01*
G01*
X156160Y189737D02*
G03*
X156685Y190262I0J525D01*
G01*
X155185D02*
G03*
X155710Y189737I525J0D01*
G01*
X155185Y193020D02*
G03*
X154660Y193545I-525J0D01*
G01*
X154210D02*
G03*
X153685Y193020I0J-525D01*
G01*
X153161Y189737D02*
G03*
X153685Y190262I0J525D01*
G01*
X152185D02*
G03*
X152710Y189737I525J0D01*
G01*
X152185Y191878D02*
G03*
X151661Y192403I-525J0D01*
G01*
X151210D02*
G03*
X150686Y191878I0J-525D01*
G01*
X150161Y189737D02*
G03*
X150686Y190262I0J525D01*
G01*
X149186D02*
G03*
X149711Y189737I525J0D01*
G01*
X149186Y191207D02*
G03*
X148661Y191732I-525J0D01*
G01*
X148211D02*
G03*
X147686Y191207I0J-525D01*
G01*
X147160Y190068D02*
G03*
X147686Y190594I0J525D01*
G01*
X146186D02*
G03*
X146711Y190068I525J0D01*
G01*
X146186Y192501D02*
G03*
X145660Y193026I-525J0D01*
G01*
X145211D02*
G03*
X144685Y192501I0J-525D01*
G01*
X144160Y190018D02*
G03*
X144685Y190543I0J525D01*
G01*
X143185D02*
G03*
X143710Y190018I525J0D01*
G01*
X143185Y193020D02*
G03*
X142660Y193545I-525J0D01*
G01*
X142210D02*
G03*
X141685Y193020I0J-525D01*
G01*
X141161Y191732D02*
G03*
X141685Y192257I0J525D01*
G01*
X141882Y178453D02*
G03*
X142382Y177953I500J0D01*
G01*
X141882Y178453D02*
G03*
X141427Y178908I-455J0D01*
G01*
X141037D02*
G03*
X140582Y178453I0J-455D01*
G01*
X140127Y177953D02*
G03*
X140582Y178408I0J455D01*
G01*
X139282D02*
G03*
X139737Y177953I455J0D01*
G01*
X139282Y178408D02*
G03*
X138827Y178863I-455J0D01*
G01*
X138437D02*
G03*
X137982Y178408I0J-455D01*
G01*
X137527Y177953D02*
G03*
X137982Y178408I0J455D01*
G01*
X136682D02*
G03*
X137137Y177953I455J0D01*
G01*
X136682Y178982D02*
G03*
X136227Y179437I-455J0D01*
G01*
X135837D02*
G03*
X135382Y178982I0J-455D01*
G01*
X134927Y177953D02*
G03*
X135382Y178408I0J455D01*
G01*
X134082D02*
G03*
X134537Y177953I455J0D01*
G01*
X134082Y179010D02*
G03*
X133627Y179465I-455J0D01*
G01*
X133237D02*
G03*
X132782Y179010I0J-455D01*
G01*
X132327Y177924D02*
G03*
X132782Y178379I0J455D01*
G01*
X131482D02*
G03*
X131937Y177924I455J0D01*
G01*
X131482Y178974D02*
G03*
X131027Y179429I-455J0D01*
G01*
X130637D02*
G03*
X130182Y178974I0J-455D01*
G01*
X129727Y177877D02*
G03*
X130182Y178332I0J455D01*
G01*
X128882D02*
G03*
X129337Y177877I455J0D01*
G01*
X128882Y178974D02*
G03*
X128427Y179429I-455J0D01*
G01*
X128037D02*
G03*
X127582Y178974I0J-455D01*
G01*
X127127Y177953D02*
G03*
X127582Y178408I0J455D01*
G01*
X126282D02*
G03*
X126737Y177953I455J0D01*
G01*
X126282Y179010D02*
G03*
X125827Y179465I-455J0D01*
G01*
X125437D02*
G03*
X124982Y179010I0J-455D01*
G01*
X124527Y177953D02*
G03*
X124982Y178408I0J455D01*
G01*
X123682D02*
G03*
X124137Y177953I455J0D01*
G01*
X123682Y179010D02*
G03*
X123227Y179465I-455J0D01*
G01*
X122837D02*
G03*
X122382Y179010I0J-455D01*
G01*
X121927Y177139D02*
G03*
X122382Y177594I0J455D01*
G01*
X121082D02*
G03*
X121537Y177139I455J0D01*
G01*
X121082Y179010D02*
G03*
X120627Y179465I-455J0D01*
G01*
X120237D02*
G03*
X119782Y179010I0J-455D01*
G01*
X119327Y177139D02*
G03*
X119782Y177594I0J455D01*
G01*
X118482D02*
G03*
X118937Y177139I455J0D01*
G01*
X118482Y179010D02*
G03*
X118027Y179465I-455J0D01*
G01*
X117637D02*
G03*
X117182Y179010I0J-455D01*
G01*
X116727Y177139D02*
G03*
X117182Y177594I0J455D01*
G01*
X115882D02*
G03*
X116337Y177139I455J0D01*
G01*
X115882Y178900D02*
G03*
X115427Y179355I-455J0D01*
G01*
X115037D02*
G03*
X114582Y178900I0J-455D01*
G01*
X114082Y177953D02*
G03*
X114582Y178453I0J500D01*
G01*
X106602Y195933D02*
G03*
X107309Y195933I353J353D01*
G01*
X108218Y196249D02*
G03*
X107624Y196249I-297J-297D01*
G01*
X108473Y195400D02*
G03*
X108473Y195994I-297J297D01*
G01*
X107357Y194284D02*
G03*
X107357Y193691I297J-297D01*
G01*
X107612Y193436D02*
G03*
X108206Y193436I297J297D01*
G01*
X108949Y193586D02*
G03*
X108355Y193586I-297J-297D01*
G01*
X109204Y192737D02*
G03*
X109204Y193331I-297J297D01*
G01*
X107681Y191214D02*
G03*
X107681Y190620I297J-297D01*
G01*
X107935Y190366D02*
G03*
X108529Y190366I297J297D01*
G01*
X110703Y191832D02*
G03*
X109996Y191832I-353J-354D01*
G01*
X114698Y191915D02*
G03*
X114698Y191208I354J-353D01*
G01*
X115813Y193031D02*
G03*
X115813Y193625I-297J297D01*
G01*
X115559Y193879D02*
G03*
X114965Y193879I-297J-297D01*
G01*
X112114Y191623D02*
G03*
X112708Y191623I297J297D01*
G01*
X111860Y192471D02*
G03*
X111860Y191877I297J-297D01*
G01*
X114768Y195379D02*
G03*
X114768Y195973I-297J297D01*
G01*
X114513Y196228D02*
G03*
X113919Y196228I-297J-297D01*
G01*
X110417Y193320D02*
G03*
X111011Y193320I297J297D01*
G01*
X110163Y194168D02*
G03*
X110163Y193574I297J-297D01*
G01*
X111395Y195400D02*
G03*
X111395Y195994I-297J297D01*
G01*
X111140Y196249D02*
G03*
X110546Y196249I-297J-297D01*
G01*
X109748Y196158D02*
G03*
X110455Y196158I353J354D01*
G01*
X122725Y175764D02*
G03*
X122200Y176289I-525J0D01*
G01*
X122725Y175722D02*
G03*
X123250Y175197I525J0D01*
G01*
X123700D02*
G03*
X124225Y175722I0J525D01*
G01*
X124750Y177103D02*
G03*
X124225Y176578I0J-525D01*
G01*
X125725D02*
G03*
X125200Y177103I-525J0D01*
G01*
X125725Y175722D02*
G03*
X126250Y175197I525J0D01*
G01*
X126700D02*
G03*
X127225Y175722I0J525D01*
G01*
X127750Y177103D02*
G03*
X127225Y176578I0J-525D01*
G01*
X128725D02*
G03*
X128200Y177103I-525J0D01*
G01*
X128725Y175722D02*
G03*
X129250Y175197I525J0D01*
G01*
X129700D02*
G03*
X130225Y175722I0J525D01*
G01*
X130750Y177103D02*
G03*
X130225Y176578I0J-525D01*
G01*
X131725D02*
G03*
X131200Y177103I-525J0D01*
G01*
X131725Y175722D02*
G03*
X132250Y175197I525J0D01*
G01*
X132700D02*
G03*
X133225Y175722I0J525D01*
G01*
X133750Y177103D02*
G03*
X133225Y176578I0J-525D01*
G01*
X134725D02*
G03*
X134200Y177103I-525J0D01*
G01*
X134725Y175722D02*
G03*
X135250Y175197I525J0D01*
G01*
X135700D02*
G03*
X136225Y175722I0J525D01*
G01*
X136750Y177103D02*
G03*
X136225Y176578I0J-525D01*
G01*
X137725D02*
G03*
X137200Y177103I-525J0D01*
G01*
X137725Y175678D02*
G03*
X138250Y175153I525J0D01*
G01*
X138700D02*
G03*
X139225Y175678I0J525D01*
G01*
X139750Y177103D02*
G03*
X139225Y176578I0J-525D01*
G01*
X140725D02*
G03*
X140200Y177103I-525J0D01*
G01*
X140725Y175677D02*
G03*
X141250Y175152I525J0D01*
G01*
X141700D02*
G03*
X142225Y175677I0J525D01*
G01*
X142750Y177103D02*
G03*
X142225Y176578I0J-525D01*
G01*
X143725D02*
G03*
X143200Y177103I-525J0D01*
G01*
X143725Y175722D02*
G03*
X144250Y175197I525J0D01*
G01*
X144700D02*
G03*
X145225Y175722I0J525D01*
G01*
X145750Y177103D02*
G03*
X145225Y176578I0J-525D01*
G01*
X146725D02*
G03*
X146200Y177103I-525J0D01*
G01*
X146725Y175722D02*
G03*
X147250Y175197I525J0D01*
G01*
X147700D02*
G03*
X148225Y175722I0J525D01*
G01*
X148750Y177103D02*
G03*
X148225Y176578I0J-525D01*
G01*
X149725D02*
G03*
X149200Y177103I-525J0D01*
G01*
X149725Y175722D02*
G03*
X150250Y175197I525J0D01*
G01*
X150700D02*
G03*
X151225Y175722I0J525D01*
G01*
X151750Y177103D02*
G03*
X151225Y176578I0J-525D01*
G01*
X152725D02*
G03*
X152200Y177103I-525J0D01*
G01*
X152725Y175722D02*
G03*
X153250Y175197I525J0D01*
G01*
X153700D02*
G03*
X154225Y175722I0J525D01*
G01*
X154750Y177103D02*
G03*
X154225Y176578I0J-525D01*
G01*
X155725D02*
G03*
X155200Y177103I-525J0D01*
G01*
X155725Y175676D02*
G03*
X156250Y175151I525J0D01*
G01*
X156700D02*
G03*
X157225Y175676I0J525D01*
G01*
X157750Y177103D02*
G03*
X157225Y176578I0J-525D01*
G01*
X158725D02*
G03*
X158200Y177103I-525J0D01*
G01*
X158725Y175705D02*
G03*
X159250Y175180I525J0D01*
G01*
X159700D02*
G03*
X160225Y175705I0J525D01*
G01*
X160750Y177103D02*
G03*
X160225Y176578I0J-525D01*
G01*
X161725D02*
G03*
X161200Y177103I-525J0D01*
G01*
X161725Y175722D02*
G03*
X162250Y175197I525J0D01*
G01*
X162700D02*
G03*
X163225Y175722I0J525D01*
G01*
X163750Y177103D02*
G03*
X163225Y176578I0J-525D01*
G01*
X164725D02*
G03*
X164200Y177103I-525J0D01*
G01*
X164725Y175722D02*
G03*
X165250Y175197I525J0D01*
G01*
X165700D02*
G03*
X166225Y175722I0J525D01*
G01*
X166750Y177103D02*
G03*
X166225Y176578I0J-525D01*
G01*
X167725D02*
G03*
X167200Y177103I-525J0D01*
G01*
X167725Y175722D02*
G03*
X168250Y175197I525J0D01*
G01*
X168700D02*
G03*
X169225Y175722I0J525D01*
G01*
X169750Y176289D02*
G03*
X169225Y175764I0J-525D01*
G01*
X185157Y185756D02*
G03*
X185157Y185048I354J-353D01*
G01*
X185490Y184220D02*
G03*
X185490Y184715I-247J247D01*
G01*
X184783Y184008D02*
G03*
X185278Y184008I247J247D01*
G01*
X183145Y185646D02*
G03*
X182650Y185646I-247J-247D01*
G01*
X182438Y185434D02*
G03*
X182438Y184939I247J-247D01*
G01*
X185092Y181789D02*
G03*
X185092Y182284I-247J247D01*
G01*
X184385Y181577D02*
G03*
X184880Y181577I247J247D01*
G01*
X181233Y184729D02*
G03*
X180738Y184729I-247J-247D01*
G01*
X180526Y184517D02*
G03*
X180526Y184022I247J-247D01*
G01*
X183678Y180375D02*
G03*
X183678Y180870I-247J247D01*
G01*
X182971Y180163D02*
G03*
X183466Y180163I247J247D01*
G01*
X180646Y182488D02*
G03*
X180292Y182635I-354J-353D01*
G01*
X106548Y183951D02*
G03*
X106548Y184658I-353J353D01*
G01*
X105079Y182482D02*
G03*
X105079Y181888I297J-297D01*
G01*
X105334Y181634D02*
G03*
X105928Y181634I297J297D01*
G01*
X108496Y183608D02*
G03*
X107903Y183608I-297J-297D01*
G01*
X108751Y182760D02*
G03*
X108751Y183354I-297J297D01*
G01*
X105079Y179088D02*
G03*
X105079Y178494I297J-297D01*
G01*
X105334Y178240D02*
G03*
X105928Y178240I297J297D01*
G01*
X110194Y181911D02*
G03*
X109600Y181911I-297J-297D01*
G01*
X110448Y181063D02*
G03*
X110448Y181657I-297J297D01*
G01*
X107670Y178285D02*
G03*
X107670Y177690I297J-297D01*
G01*
X107924Y177436D02*
G03*
X108518Y177436I297J297D01*
G01*
X111891Y180214D02*
G03*
X111297Y180214I-297J-297D01*
G01*
X112145Y179366D02*
G03*
X112145Y179960I-297J297D01*
G01*
X111064Y178285D02*
G03*
X111064Y177690I297J-297D01*
G01*
X111318Y177436D02*
G03*
X111912Y177436I297J297D01*
G01*
X113195Y178011D02*
G03*
X112488Y178011I-353J-354D01*
G01*
X133725Y173717D02*
G03*
X133095Y174347I-630J0D01*
G01*
X133725Y172913D02*
G03*
X134355Y172283I630J0D01*
G01*
X134895D02*
G03*
X135525Y172913I0J630D01*
G01*
X136155Y174347D02*
G03*
X135525Y173717I0J-630D01*
G01*
X137325D02*
G03*
X136695Y174347I-630J0D01*
G01*
X137325Y172498D02*
G03*
X137955Y171868I630J0D01*
G01*
X138495D02*
G03*
X139125Y172498I0J630D01*
G01*
X139755Y174347D02*
G03*
X139125Y173717I0J-630D01*
G01*
X140925D02*
G03*
X140295Y174347I-630J0D01*
G01*
X140925Y172498D02*
G03*
X141555Y171868I630J0D01*
G01*
X142095D02*
G03*
X142725Y172498I0J630D01*
G01*
X143355Y174347D02*
G03*
X142725Y173717I0J-630D01*
G01*
X144525D02*
G03*
X143895Y174347I-630J0D01*
G01*
X144525Y172498D02*
G03*
X145155Y171868I630J0D01*
G01*
X145695D02*
G03*
X146325Y172498I0J630D01*
G01*
X146955Y174347D02*
G03*
X146325Y173717I0J-630D01*
G01*
X148125D02*
G03*
X147495Y174347I-630J0D01*
G01*
X148125Y172498D02*
G03*
X148755Y171868I630J0D01*
G01*
X149295D02*
G03*
X149925Y172498I0J630D01*
G01*
X150555Y174347D02*
G03*
X149925Y173717I0J-630D01*
G01*
X151725D02*
G03*
X151095Y174347I-630J0D01*
G01*
X151725Y172498D02*
G03*
X152355Y171868I630J0D01*
G01*
X152895D02*
G03*
X153525Y172498I0J630D01*
G01*
X154155Y174347D02*
G03*
X153525Y173717I0J-630D01*
G01*
X155325D02*
G03*
X154695Y174347I-630J0D01*
G01*
X155325Y172498D02*
G03*
X155955Y171868I630J0D01*
G01*
X156495D02*
G03*
X157125Y172498I0J630D01*
G01*
X157755Y174347D02*
G03*
X157125Y173717I0J-630D01*
G01*
X158925D02*
G03*
X158295Y174347I-630J0D01*
G01*
X158925Y172498D02*
G03*
X159555Y171868I630J0D01*
G01*
X160095D02*
G03*
X160725Y172498I0J630D01*
G01*
X161355Y174347D02*
G03*
X160725Y173717I0J-630D01*
G01*
X162525D02*
G03*
X161895Y174347I-630J0D01*
G01*
X162525Y172498D02*
G03*
X163155Y171868I630J0D01*
G01*
X163695D02*
G03*
X164325Y172498I0J630D01*
G01*
X164955Y174347D02*
G03*
X164325Y173717I0J-630D01*
G01*
X166125D02*
G03*
X165495Y174347I-630J0D01*
G01*
X166125Y172498D02*
G03*
X166755Y171868I630J0D01*
G01*
X167295D02*
G03*
X167925Y172498I0J630D01*
G01*
X168555Y174347D02*
G03*
X167925Y173717I0J-630D01*
G01*
X109801Y171018D02*
G03*
X110466Y171683I0J665D01*
G01*
X111131Y173032D02*
G03*
X110466Y172367I0J-665D01*
G01*
X112366D02*
G03*
X111701Y173032I-665J0D01*
G01*
X112366Y171683D02*
G03*
X113031Y171018I665J0D01*
G01*
X113601D02*
G03*
X114266Y171683I0J665D01*
G01*
X114931Y173166D02*
G03*
X114266Y172501I0J-665D01*
G01*
X116166D02*
G03*
X115501Y173166I-665J0D01*
G01*
X116166Y171683D02*
G03*
X116831Y171018I665J0D01*
G01*
X117401D02*
G03*
X118066Y171683I0J665D01*
G01*
X118731Y173166D02*
G03*
X118066Y172501I0J-665D01*
G01*
X119966D02*
G03*
X119301Y173166I-665J0D01*
G01*
X119966Y171683D02*
G03*
X120631Y171018I665J0D01*
G01*
X121201D02*
G03*
X121866Y171683I0J665D01*
G01*
X122531Y173166D02*
G03*
X121866Y172501I0J-665D01*
G01*
X123766D02*
G03*
X123101Y173166I-665J0D01*
G01*
X123766Y171683D02*
G03*
X124431Y171018I665J0D01*
G01*
X125001D02*
G03*
X125666Y171683I0J665D01*
G01*
X126331Y173166D02*
G03*
X125666Y172501I0J-665D01*
G01*
X127566D02*
G03*
X126901Y173166I-665J0D01*
G01*
X127566Y171683D02*
G03*
X128231Y171018I665J0D01*
G01*
X181096Y176590D02*
G03*
X181096Y177580I-495J495D01*
G01*
X180990Y178675D02*
G03*
X180990Y177685I495J-495D01*
G01*
X182404Y179100D02*
G03*
X181415Y179100I-495J-495D01*
G01*
X182510Y178994D02*
G03*
X183500Y178994I495J495D01*
G01*
X289233Y110731D02*
Y131349D01*
X289483Y131599D01*
X289233Y110731D02*
X289483Y110482D01*
X203150Y177953D02*
X204800Y176302D01*
Y173200D02*
Y176302D01*
X198400Y176300D02*
Y179502D01*
X193701Y177953D02*
X195500Y176154D01*
X198400Y179502D02*
X200000Y181102D01*
X172113Y208966D02*
X179484D01*
X171290D02*
X172113D01*
X170765Y207868D02*
Y208441D01*
X169790Y207343D02*
X170240D01*
X169265Y207868D02*
Y209255D01*
X168290Y209780D02*
X168740D01*
X167765Y207191D02*
Y209255D01*
X166790Y206666D02*
X167240D01*
X166265Y207191D02*
Y209255D01*
X165290Y209780D02*
X165740D01*
X164765Y207191D02*
Y209255D01*
X163790Y206666D02*
X164240D01*
X163265Y207191D02*
Y209255D01*
X162290Y209780D02*
X162740D01*
X161765Y207191D02*
Y209255D01*
X160790Y206666D02*
X161240D01*
X160265Y207191D02*
Y209255D01*
X159290Y209780D02*
X159740D01*
X158765Y207191D02*
Y209255D01*
X157790Y206666D02*
X158240D01*
X157265Y207191D02*
Y208441D01*
X129290Y208966D02*
X156740D01*
X128765Y207191D02*
Y208441D01*
X127790Y206666D02*
X128240D01*
X127265Y207191D02*
Y208441D01*
X123007Y208966D02*
X126740D01*
X122252Y208212D02*
X123007Y208966D01*
X122136Y208096D02*
X122252Y208212D01*
X124238Y183769D02*
X124621Y183385D01*
X119548Y183769D02*
X124238D01*
X119195Y184623D02*
X120619Y186047D01*
X120619Y186591D02*
X120619Y186591D01*
X120386Y186825D02*
X120619Y186591D01*
X120386Y186825D02*
X120386Y186825D01*
X119841D02*
X119841D01*
X118177Y185161D02*
X119841Y186825D01*
X117400Y185394D02*
X117633Y185161D01*
X117400Y185939D02*
X117400D01*
X118935Y187474D01*
X118935Y188019D02*
X118935Y188019D01*
X118702Y188252D02*
X118935Y188019D01*
X118702Y188252D02*
X118702Y188252D01*
X118157D02*
X118157D01*
X116684Y186779D02*
X118157Y188252D01*
X114421Y188335D02*
X115977Y186779D01*
X114244Y188511D02*
X114421Y188335D01*
X166493Y195245D02*
X171061D01*
X165993Y195745D02*
Y196462D01*
X165278Y196847D02*
X165608D01*
X164893Y195630D02*
Y196462D01*
X164178Y195245D02*
X164508D01*
X163793Y195630D02*
Y198369D01*
X163078Y198754D02*
X163408D01*
X162693Y195630D02*
Y198369D01*
X161978Y195245D02*
X162308D01*
X161593Y195630D02*
Y198217D01*
X160878Y198602D02*
X161208D01*
X160493Y195745D02*
Y198217D01*
X155493Y195245D02*
X159993D01*
X154993Y195745D02*
Y198129D01*
X154278Y198514D02*
X154608D01*
X153893Y195630D02*
Y198129D01*
X153178Y195245D02*
X153508D01*
X152793Y195630D02*
Y200006D01*
X152078Y200391D02*
X152408D01*
X151693Y195630D02*
Y200006D01*
X150978Y195245D02*
X151308D01*
X150593Y195630D02*
Y199132D01*
X149878Y199517D02*
X150208D01*
X149493Y195630D02*
Y199132D01*
X148778Y195245D02*
X149108D01*
X148393Y195630D02*
Y199665D01*
X147678Y200050D02*
X148008D01*
X147293Y195630D02*
Y199665D01*
X146578Y195245D02*
X146908D01*
X146193Y195630D02*
Y199310D01*
X145478Y199695D02*
X145808D01*
X145093Y197900D02*
Y199310D01*
X144378Y197515D02*
X144708D01*
X143993Y197900D02*
Y200958D01*
X143278Y201343D02*
X143608D01*
X142893Y200017D02*
Y200958D01*
X142143Y199517D02*
X142393D01*
X128435D02*
X142143D01*
X171061Y195245D02*
X175361D01*
X146048Y194395D02*
X168204D01*
X144678D02*
X146048D01*
X144153Y194920D02*
Y196171D01*
X143178Y196696D02*
X143628D01*
X142653Y194920D02*
Y196171D01*
X141678Y194395D02*
X142128D01*
X141153Y194920D02*
Y196021D01*
X140178Y196546D02*
X140628D01*
X139653Y193107D02*
Y196021D01*
X138678Y192582D02*
X139128D01*
X138153Y193107D02*
Y196021D01*
X137178Y196546D02*
X137628D01*
X136653Y193107D02*
Y196021D01*
X135678Y192582D02*
X136128D01*
X135153Y193107D02*
Y196021D01*
X134178Y196546D02*
X134628D01*
X133653Y193107D02*
Y196021D01*
X132678Y192582D02*
X133128D01*
X132153Y193107D02*
Y196137D01*
X131178Y196662D02*
X131628D01*
X130653Y193107D02*
Y196137D01*
X129678Y192582D02*
X130128D01*
X129153Y193107D02*
Y196173D01*
X128178Y196698D02*
X128628D01*
X127653Y193107D02*
Y196173D01*
X126678Y192582D02*
X127128D01*
X126153Y193107D02*
Y196024D01*
X125178Y196549D02*
X125628D01*
X124653Y193107D02*
Y196024D01*
X123678Y192582D02*
X124128D01*
X123153Y193107D02*
Y196021D01*
X122178Y196546D02*
X122628D01*
X121653Y193107D02*
Y196021D01*
X120678Y192582D02*
X121128D01*
X120153Y193107D02*
Y196021D01*
X119178Y196546D02*
X119628D01*
X118653Y194920D02*
Y196021D01*
X117878Y194395D02*
X118128D01*
X170473Y201575D02*
X179528D01*
X170124Y201923D02*
X170473Y201575D01*
X170124Y201923D02*
X170124Y201923D01*
X169970Y202295D02*
Y203482D01*
X168995Y204007D02*
X169445D01*
X168470Y199977D02*
Y203482D01*
X167495Y199452D02*
X167945D01*
X166970Y199977D02*
Y204441D01*
X165995Y204966D02*
X166445D01*
X165470Y199977D02*
Y204441D01*
X164495Y199452D02*
X164945D01*
X163970Y199977D02*
Y204441D01*
X162995Y204966D02*
X163445D01*
X162470Y199977D02*
Y204441D01*
X161495Y199452D02*
X161945D01*
X160970Y199977D02*
Y204441D01*
X159995Y204966D02*
X160445D01*
X159470Y202011D02*
Y204441D01*
X158495Y201486D02*
X158945D01*
X157970Y202011D02*
Y204441D01*
X156995Y204966D02*
X157445D01*
X156470Y201987D02*
Y204441D01*
X155495Y201462D02*
X155945D01*
X154970Y201987D02*
Y204442D01*
X153995Y204967D02*
X154445D01*
X153470Y201766D02*
Y204442D01*
X152495Y201241D02*
X152945D01*
X151970Y201766D02*
Y202320D01*
X150995Y202845D02*
X151445D01*
X150470Y200892D02*
Y202320D01*
X149495Y200367D02*
X149945D01*
X148970Y200892D02*
Y202142D01*
X141995Y202667D02*
X148445D01*
X141470Y200892D02*
Y202142D01*
X140495Y200367D02*
X140945D01*
X139970Y200892D02*
Y202142D01*
X137695Y202667D02*
X139445D01*
X126156D02*
X137695D01*
X176378Y193174D02*
Y194227D01*
X175361Y195245D02*
X176378Y194227D01*
Y193174D02*
X177515Y192037D01*
X179616D01*
X181102Y190551D01*
X126772Y201181D02*
X128435Y199517D01*
X125286Y201797D02*
X126156Y202667D01*
X124117Y199517D02*
X125286Y200686D01*
Y201797D01*
X124621Y183385D02*
X126027Y181980D01*
X146477Y181496D02*
X147484D01*
X145977Y181996D02*
Y182623D01*
X145262Y183008D02*
X145592D01*
X144877Y181875D02*
Y182623D01*
X144162Y181490D02*
X144492D01*
X143777Y181875D02*
Y182623D01*
X143062Y183008D02*
X143392D01*
X142677Y181996D02*
Y182623D01*
X140945Y181496D02*
X142177D01*
X140246Y180798D02*
X140945Y181496D01*
X138494Y180798D02*
X140246D01*
X137795Y181496D02*
X138494Y180798D01*
X135477Y181496D02*
X137795D01*
X134977Y181996D02*
Y182623D01*
X134262Y183008D02*
X134592D01*
X133877Y181550D02*
Y182623D01*
X133162Y181165D02*
X133492D01*
X132777Y181550D02*
Y182623D01*
X132062Y183008D02*
X132392D01*
X131677Y181550D02*
Y182623D01*
X130962Y181165D02*
X131292D01*
X130577Y181550D02*
Y182623D01*
X129862Y183008D02*
X130192D01*
X129477Y181550D02*
Y182623D01*
X128762Y181165D02*
X129092D01*
X128377Y181550D02*
Y182623D01*
X127662Y183008D02*
X127992D01*
X127277Y181996D02*
Y182623D01*
X126511Y181496D02*
X126777D01*
X126027Y181980D02*
X126511Y181496D01*
X147484D02*
X169946D01*
X169966Y185738D02*
X171289D01*
X169441Y184832D02*
Y185213D01*
X168466Y184307D02*
X168916D01*
X167941Y184832D02*
Y187512D01*
X166966Y188037D02*
X167416D01*
X166441Y182871D02*
Y187512D01*
X165466Y182346D02*
X165916D01*
X164941Y182871D02*
Y187512D01*
X163966Y188037D02*
X164416D01*
X163441Y182871D02*
Y187512D01*
X162466Y182346D02*
X162916D01*
X161941Y182871D02*
Y187512D01*
X160966Y188037D02*
X161416D01*
X160441Y182871D02*
Y187512D01*
X159466Y182346D02*
X159916D01*
X158941Y182871D02*
Y187512D01*
X157966Y188037D02*
X158416D01*
X157441Y182871D02*
Y187512D01*
X156466Y182346D02*
X156916D01*
X155941Y182871D02*
Y187512D01*
X154966Y188037D02*
X155416D01*
X154441Y182871D02*
Y187512D01*
X153466Y182346D02*
X153916D01*
X152941Y182871D02*
Y187512D01*
X151966Y188037D02*
X152416D01*
X151441Y182871D02*
Y187512D01*
X150466Y182346D02*
X150916D01*
X149941Y182871D02*
Y186414D01*
X148966Y186939D02*
X149416D01*
X148441Y182871D02*
Y186414D01*
X147466Y182346D02*
X147916D01*
X146941Y182871D02*
Y183333D01*
X144666Y183858D02*
X146416D01*
X126245D02*
X144666D01*
X171289Y185738D02*
X173164D01*
X174649Y184252D02*
X174803D01*
X173164Y185738D02*
X174649Y184252D01*
X125108Y184996D02*
Y186048D01*
Y184996D02*
X126245Y183858D01*
X124238Y186919D02*
X125108Y186048D01*
X120472Y188583D02*
X122136Y186919D01*
X124238D01*
X120472Y188583D02*
X120472D01*
X170725Y180315D02*
X171205Y180795D01*
X167252Y180315D02*
X170725D01*
X166752Y179815D02*
Y179815D01*
X166036Y179430D02*
X166367D01*
X165652Y179815D02*
Y180261D01*
X164936Y180646D02*
X165267D01*
X164551Y179574D02*
Y180261D01*
X163837Y179189D02*
X164166D01*
X163452Y179574D02*
Y180261D01*
X162736Y180646D02*
X163066D01*
X162352Y179188D02*
Y180261D01*
X161636Y178803D02*
X161967D01*
X161251Y179188D02*
Y180261D01*
X160537Y180646D02*
X160866D01*
X160152Y179188D02*
Y180261D01*
X159437Y178803D02*
X159766D01*
X159052Y179188D02*
Y180261D01*
X158336Y180646D02*
X158667D01*
X157951Y179188D02*
Y180261D01*
X157237Y178803D02*
X157566D01*
X156851Y179188D02*
Y180261D01*
X156137Y180646D02*
X156466D01*
X155752Y179188D02*
Y180261D01*
X155036Y178803D02*
X155367D01*
X154651Y179188D02*
Y180261D01*
X153937Y180646D02*
X154267D01*
X153551Y179188D02*
Y180261D01*
X152837Y178803D02*
X153166D01*
X152452Y179188D02*
Y180261D01*
X151736Y180646D02*
X152067D01*
X151351Y179188D02*
Y180261D01*
X150636Y178803D02*
X150967D01*
X150251Y179188D02*
Y180261D01*
X149537Y180646D02*
X149866D01*
X149152Y179188D02*
Y180261D01*
X148436Y178803D02*
X148767D01*
X148052Y179188D02*
Y180261D01*
X147336Y180646D02*
X147667D01*
X146951Y179188D02*
Y180261D01*
X146237Y178803D02*
X146566D01*
X145852Y179188D02*
Y180261D01*
X145136Y180646D02*
X145466D01*
X144752Y179188D02*
Y180261D01*
X144036Y178803D02*
X144367D01*
X143651Y179188D02*
Y179815D01*
X141802Y180315D02*
X143151D01*
X140966D02*
X141802D01*
X119160D02*
X121824D01*
X118806Y181168D02*
X118971Y181333D01*
X118971Y181828D02*
X118971Y181828D01*
X118759Y182040D02*
X118971Y181828D01*
X118759Y182040D02*
X118759Y182040D01*
X118264D02*
X118264D01*
X116441Y180217D02*
X118264Y182040D01*
X115734Y180429D02*
X115946Y180217D01*
X115734Y180924D02*
X115734D01*
X117731Y182922D01*
X117731Y183417D02*
X117731Y183417D01*
X117519Y183629D02*
X117731Y183417D01*
X117519Y183629D02*
X117519Y183629D01*
X117024D02*
X117024D01*
X113599Y180203D02*
X117024Y183629D01*
X112892Y180416D02*
X113104Y180203D01*
X112892Y180911D02*
X112892D01*
X116539Y184558D01*
X116539Y185053D02*
X116539Y185053D01*
X116327Y185265D02*
X116539Y185053D01*
X116327Y185265D02*
X116327Y185265D01*
X115832D02*
X115832D01*
X112182Y181615D02*
X115832Y185265D01*
X111475Y181827D02*
X111687Y181615D01*
X111475Y182322D02*
X111475D01*
X115106Y185953D01*
X115106Y186448D02*
X115106Y186448D01*
X114894Y186660D02*
X115106Y186448D01*
X114894Y186660D02*
X114894Y186660D01*
X114399D02*
X114399D01*
X110876Y183138D02*
X114399Y186660D01*
X110169Y183138D02*
X110169Y183138D01*
X109992Y183315D02*
X110169Y183138D01*
X107874Y185433D02*
X109992Y183315D01*
X158630Y205817D02*
X173976D01*
X156501D02*
X158630D01*
X156001Y206316D02*
Y207396D01*
X155286Y207781D02*
X155616D01*
X154901Y206202D02*
Y207396D01*
X154186Y205817D02*
X154516D01*
X153801Y206202D02*
Y207731D01*
X153086Y208116D02*
X153416D01*
X152701Y206202D02*
Y207731D01*
X151986Y205817D02*
X152316D01*
X151601Y206202D02*
Y207731D01*
X150886Y208116D02*
X151216D01*
X150501Y206202D02*
Y207731D01*
X149786Y205817D02*
X150116D01*
X149401Y206202D02*
Y207731D01*
X148686Y208116D02*
X149016D01*
X148301Y206316D02*
Y207731D01*
X143301Y205817D02*
X147801D01*
X142801Y206316D02*
Y207731D01*
X142086Y208116D02*
X142416D01*
X141701Y205998D02*
Y207731D01*
X140986Y205613D02*
X141316D01*
X140601Y205998D02*
Y207731D01*
X139886Y208116D02*
X140216D01*
X139501Y206202D02*
Y207731D01*
X138786Y205817D02*
X139116D01*
X138401Y206202D02*
Y207731D01*
X137686Y208116D02*
X138016D01*
X137301Y206202D02*
Y207731D01*
X136586Y205817D02*
X136916D01*
X136201Y206202D02*
Y207731D01*
X135486Y208116D02*
X135816D01*
X135101Y205887D02*
Y207731D01*
X134386Y205502D02*
X134716D01*
X134001Y205887D02*
Y207731D01*
X133286Y208116D02*
X133616D01*
X132901Y206316D02*
Y207731D01*
X132151Y205817D02*
X132401D01*
X116169Y202667D02*
X121067D01*
X113869Y200367D02*
X116169Y202667D01*
X121067D02*
X122136Y203736D01*
X113206Y200367D02*
X113869D01*
X112356Y199517D02*
X113206Y200367D01*
X124216Y205817D02*
X132151D01*
X122136Y204946D02*
X123007Y205817D01*
X122136Y203736D02*
Y204946D01*
X124216Y205817D02*
X124216Y205817D01*
X123007Y205817D02*
X124216D01*
X180487Y207963D02*
X181869D01*
X179484Y208966D02*
X180487Y207963D01*
X121088Y205995D02*
X122136Y207043D01*
Y208096D01*
X118295Y205995D02*
X121088D01*
X113517Y201217D02*
X118295Y205995D01*
X112854Y201217D02*
X113517D01*
X136142Y210630D02*
X164152D01*
X135442Y211330D02*
Y211556D01*
X134142Y212256D02*
X134742D01*
X133442Y210516D02*
Y211556D01*
X132142Y209816D02*
X132742D01*
X131442Y210516D02*
Y211670D01*
X130142Y212370D02*
X130742D01*
X129442Y210516D02*
Y211670D01*
X128142Y209816D02*
X128742D01*
X127442Y210516D02*
Y211670D01*
X126142Y212370D02*
X126742D01*
X125442Y210516D02*
Y211670D01*
X124142Y209816D02*
X124742D01*
X123442Y210516D02*
Y211670D01*
X122142Y212370D02*
X122742D01*
X121442Y210507D02*
Y211670D01*
X120142Y209807D02*
X120742D01*
X119442Y210507D02*
Y211670D01*
X118142Y212370D02*
X118742D01*
X117442Y206745D02*
Y211670D01*
X116142Y206045D02*
X116742D01*
X115442Y206745D02*
Y211670D01*
X114142Y212370D02*
X114742D01*
X113442Y206517D02*
Y211670D01*
X112142Y205817D02*
X112742D01*
X111442Y206517D02*
Y211670D01*
X110142Y212370D02*
X110742D01*
X109442Y206393D02*
Y211670D01*
X108842Y205298D02*
X109091Y205548D01*
X164152Y210630D02*
X178740D01*
X180487Y214084D02*
X181718D01*
X178740Y210630D02*
X179613Y211503D01*
Y213211D01*
X180487Y214084D01*
X184300Y209401D02*
Y211502D01*
X181718Y214084D02*
X184300Y211502D01*
X114173Y198031D02*
X117810Y194395D01*
X117878D01*
X116409Y190157D02*
X128642D01*
X139563Y188887D02*
X140422D01*
X139063Y185226D02*
Y188387D01*
X138348Y184841D02*
X138678D01*
X137963Y185226D02*
Y190497D01*
X137248Y190882D02*
X137578D01*
X136863Y187304D02*
Y190497D01*
X136148Y186919D02*
X136478D01*
X135763Y187304D02*
Y190497D01*
X135048Y190882D02*
X135378D01*
X134663Y187304D02*
Y190497D01*
X133948Y186919D02*
X134278D01*
X133563Y187304D02*
Y190497D01*
X132848Y190882D02*
X133178D01*
X132463Y187304D02*
Y190497D01*
X131748Y186919D02*
X132078D01*
X131363Y187304D02*
Y190497D01*
X130648Y190882D02*
X130978D01*
X130263Y189743D02*
Y190497D01*
X129013Y189786D02*
X129410Y189389D01*
X128642Y190157D02*
X129013Y189786D01*
X140422Y188887D02*
X141034Y188275D01*
X164710Y191732D02*
X167443D01*
X164186Y192257D02*
Y192257D01*
X163210Y192782D02*
X163661D01*
X162686Y190484D02*
Y192257D01*
X161711Y189959D02*
X162161D01*
X161186Y190484D02*
Y193020D01*
X160211Y193545D02*
X160661D01*
X159686Y190262D02*
Y193020D01*
X158711Y189737D02*
X159160D01*
X158186Y190262D02*
Y193020D01*
X157211Y193545D02*
X157660D01*
X156685Y190262D02*
Y193020D01*
X155710Y189737D02*
X156160D01*
X155185Y190262D02*
Y193020D01*
X154210Y193545D02*
X154660D01*
X153685Y190262D02*
Y193020D01*
X152710Y189737D02*
X153161D01*
X152185Y190262D02*
Y191878D01*
X151210Y192403D02*
X151661D01*
X150686Y190262D02*
Y191878D01*
X149711Y189737D02*
X150161D01*
X149186Y190262D02*
Y191207D01*
X148211Y191732D02*
X148661D01*
X147686Y190594D02*
Y191207D01*
X146711Y190068D02*
X147160D01*
X146186Y190594D02*
Y192501D01*
X145211Y193026D02*
X145660D01*
X144685Y190543D02*
Y192501D01*
X143710Y190018D02*
X144160D01*
X143185Y190543D02*
Y193020D01*
X142210Y193545D02*
X142660D01*
X141685Y192257D02*
Y193020D01*
X140910Y191732D02*
X141161D01*
X167443D02*
X169664D01*
X141327Y187097D02*
X146285D01*
X141034Y187390D02*
X141327Y187097D01*
X141034Y187390D02*
Y188275D01*
X146285Y187097D02*
X146288Y187100D01*
X147400D01*
X149187Y188887D01*
X172730D01*
X116929Y191732D02*
X140910D01*
X142382Y177953D02*
X146418D01*
X141882Y178453D02*
Y178453D01*
X141037Y178908D02*
X141427D01*
X140582Y178408D02*
Y178453D01*
X139737Y177953D02*
X140127D01*
X139282Y178408D02*
Y178408D01*
X138437Y178863D02*
X138827D01*
X137982Y178408D02*
Y178408D01*
X137137Y177953D02*
X137527D01*
X136682Y178408D02*
Y178982D01*
X135837Y179437D02*
X136227D01*
X135382Y178408D02*
Y178982D01*
X134537Y177953D02*
X134927D01*
X134082Y178408D02*
Y179010D01*
X133237Y179465D02*
X133627D01*
X132782Y178379D02*
Y179010D01*
X131937Y177924D02*
X132327D01*
X131482Y178379D02*
Y178974D01*
X130637Y179429D02*
X131027D01*
X130182Y178332D02*
Y178974D01*
X129337Y177877D02*
X129727D01*
X128882Y178332D02*
Y178974D01*
X128037Y179429D02*
X128427D01*
X127582Y178408D02*
Y178974D01*
X126737Y177953D02*
X127127D01*
X126282Y178408D02*
Y179010D01*
X125437Y179465D02*
X125827D01*
X124982Y178408D02*
Y179010D01*
X124137Y177953D02*
X124527D01*
X123682Y178408D02*
Y179010D01*
X122837Y179465D02*
X123227D01*
X122382Y177594D02*
Y179010D01*
X121537Y177139D02*
X121927D01*
X121082Y177594D02*
Y179010D01*
X120237Y179465D02*
X120627D01*
X119782Y177594D02*
Y179010D01*
X118937Y177139D02*
X119327D01*
X118482Y177594D02*
Y179010D01*
X117637Y179465D02*
X118027D01*
X117182Y177594D02*
Y179010D01*
X116337Y177139D02*
X116727D01*
X115882Y177594D02*
Y178900D01*
X115037Y179355D02*
X115427D01*
X114582Y178453D02*
Y178900D01*
X113832Y177953D02*
X114082D01*
X146418D02*
X171653D01*
X128822Y180280D02*
X130352D01*
X130387Y180315D01*
X137774D02*
X138142Y179948D01*
X121824Y180315D02*
X128786D01*
X128822Y180280D01*
X138142Y179948D02*
X140598D01*
X130387Y180315D02*
X137774D01*
X140598Y179948D02*
X140966Y180315D01*
X171205Y180795D02*
X171512Y181102D01*
X168204Y194395D02*
X170473Y192126D01*
X175330D02*
X176378Y191078D01*
X170473Y192126D02*
X175330D01*
X179616Y188887D02*
X181102Y187402D01*
X177515Y188887D02*
X179616D01*
X176378Y190025D02*
X177515Y188887D01*
X176378Y190025D02*
Y191078D01*
X179528Y201575D02*
X181102Y200000D01*
X113558Y199517D02*
X124117D01*
X111267Y198275D02*
X112315D01*
X111024Y198031D02*
X111267Y198275D01*
X112315D02*
X113558Y199517D01*
X111024Y188583D02*
Y191511D01*
X106388Y196147D02*
Y197432D01*
Y196147D02*
X106602Y195933D01*
X106602Y195933D02*
X106602Y195933D01*
X107309D02*
X107624Y196249D01*
X108218D02*
X108473Y195994D01*
X108473Y195400D02*
X108473D01*
X107357Y194284D02*
X108473Y195400D01*
X107357Y193691D02*
X107357Y193691D01*
X107612Y193436D01*
X107612Y193436D02*
X107612Y193436D01*
X108206D02*
X108206D01*
X108355Y193586D01*
X108949D02*
X109204Y193331D01*
X109204Y192737D02*
X109204D01*
X107681Y191214D02*
X109204Y192737D01*
X107681Y190620D02*
X107681Y190620D01*
X107935Y190366D01*
X107935Y190366D02*
X107935Y190366D01*
X108529D02*
X108529D01*
X109996Y191832D01*
X110703Y191832D02*
X110703Y191832D01*
X110703Y191832D01*
Y191832D02*
X110880Y191655D01*
X111024Y191511D01*
X106388Y197432D02*
Y198647D01*
X174459Y206299D02*
X174803D01*
X173976Y205817D02*
X174459Y206299D01*
X107259Y199517D02*
X112356D01*
X106388Y198647D02*
X107259Y199517D01*
X107874Y204331D02*
X108842Y205298D01*
X115748Y190157D02*
X116409D01*
X114698Y191208D02*
X115748Y190157D01*
X114698Y191915D02*
X115813Y193031D01*
X115559Y193879D02*
X115813Y193625D01*
X112708Y191623D02*
X114965Y193879D01*
X112708Y191623D02*
X112708D01*
X112114Y191623D02*
X112114Y191623D01*
X111860Y191877D02*
X112114Y191623D01*
X111860Y191877D02*
X111860Y191877D01*
Y192471D02*
X114768Y195379D01*
X114768D02*
X114768D01*
X114513Y196228D02*
X114768Y195973D01*
X111011Y193320D02*
X113919Y196228D01*
X111011Y193320D02*
X111011D01*
X110417Y193320D02*
X110417Y193320D01*
X110163Y193574D02*
X110417Y193320D01*
X110163Y193574D02*
X110163Y193574D01*
Y194168D02*
X111395Y195400D01*
X111395D02*
X111395D01*
X111140Y196249D02*
X111395Y195994D01*
X110455Y196158D02*
X110546Y196249D01*
X108051Y197855D02*
X109748Y196158D01*
X107874Y198031D02*
X108051Y197855D01*
X106036Y176289D02*
X113556D01*
X122200D01*
X122725Y175722D02*
Y175764D01*
X123250Y175197D02*
X123700D01*
X124225Y175722D02*
Y176578D01*
X124750Y177103D02*
X125200D01*
X125725Y175722D02*
Y176578D01*
X126250Y175197D02*
X126700D01*
X127225Y175722D02*
Y176578D01*
X127750Y177103D02*
X128200D01*
X128725Y175722D02*
Y176578D01*
X129250Y175197D02*
X129700D01*
X130225Y175722D02*
Y176578D01*
X130750Y177103D02*
X131200D01*
X131725Y175722D02*
Y176578D01*
X132250Y175197D02*
X132700D01*
X133225Y175722D02*
Y176578D01*
X133750Y177103D02*
X134200D01*
X134725Y175722D02*
Y176578D01*
X135250Y175197D02*
X135700D01*
X136225Y175722D02*
Y176578D01*
X136750Y177103D02*
X137200D01*
X137725Y175678D02*
Y176578D01*
X138250Y175153D02*
X138700D01*
X139225Y175678D02*
Y176578D01*
X139750Y177103D02*
X140200D01*
X140725Y175677D02*
Y176578D01*
X141250Y175152D02*
X141700D01*
X142225Y175677D02*
Y176578D01*
X142750Y177103D02*
X143200D01*
X143725Y175722D02*
Y176578D01*
X144250Y175197D02*
X144700D01*
X145225Y175722D02*
Y176578D01*
X145750Y177103D02*
X146200D01*
X146725Y175722D02*
Y176578D01*
X147250Y175197D02*
X147700D01*
X148225Y175722D02*
Y176578D01*
X148750Y177103D02*
X149200D01*
X149725Y175722D02*
Y176578D01*
X150250Y175197D02*
X150700D01*
X151225Y175722D02*
Y176578D01*
X151750Y177103D02*
X152200D01*
X152725Y175722D02*
Y176578D01*
X153250Y175197D02*
X153700D01*
X154225Y175722D02*
Y176578D01*
X154750Y177103D02*
X155200D01*
X155725Y175676D02*
Y176578D01*
X156250Y175151D02*
X156700D01*
X157225Y175676D02*
Y176578D01*
X157750Y177103D02*
X158200D01*
X158725Y175705D02*
Y176578D01*
X159250Y175180D02*
X159700D01*
X160225Y175705D02*
Y176578D01*
X160750Y177103D02*
X161200D01*
X161725Y175722D02*
Y176578D01*
X162250Y175197D02*
X162700D01*
X163225Y175722D02*
Y176578D01*
X163750Y177103D02*
X164200D01*
X164725Y175722D02*
Y176578D01*
X165250Y175197D02*
X165700D01*
X166225Y175722D02*
Y176578D01*
X166750Y177103D02*
X167200D01*
X167725Y175722D02*
Y176578D01*
X168250Y175197D02*
X168700D01*
X169225Y175722D02*
Y175764D01*
X169750Y176289D02*
X170000D01*
X185738Y186337D02*
Y188742D01*
X185157Y185756D02*
X185738Y186337D01*
X185157Y185048D02*
X185490Y184715D01*
X185278Y184008D02*
X185490Y184220D01*
X183145Y185646D02*
X184783Y184008D01*
X182438Y185434D02*
X182650Y185646D01*
X182438Y184939D02*
X185092Y182284D01*
X184880Y181577D02*
X185092Y181789D01*
X181233Y184729D02*
X184385Y181577D01*
X180738Y184729D02*
Y184729D01*
X180526Y184517D02*
X180738Y184729D01*
X180526Y184022D02*
X183678Y180870D01*
X183466Y180163D02*
X183678Y180375D01*
X180646Y182488D02*
X182971Y180163D01*
X180646Y182488D02*
X180646Y182488D01*
X174489Y182635D02*
X180292D01*
X185738Y188742D02*
Y189065D01*
X171085Y182635D02*
X174489D01*
X114173Y188583D02*
X114244Y188511D01*
X113490Y177953D02*
X113832D01*
X171512Y181102D02*
X171653D01*
X106388Y184818D02*
Y185629D01*
Y184818D02*
X106548Y184658D01*
X105079Y182482D02*
X106548Y183951D01*
X105079Y181888D02*
X105079Y181888D01*
X105334Y181634D01*
X105334Y181634D02*
X105334Y181634D01*
X105928D02*
X105928D01*
X107903Y183608D01*
X108496D02*
X108751Y183354D01*
X108751Y182760D02*
X108751D01*
X105079Y179088D02*
X108751Y182760D01*
X105079Y178494D02*
X105079Y178494D01*
X105334Y178240D01*
X105334Y178240D02*
X105334Y178240D01*
X105928D02*
X105928D01*
X109600Y181911D01*
X110194D02*
X110448Y181657D01*
X110448Y181063D02*
X110448D01*
X107670Y178285D02*
X110448Y181063D01*
X107670Y177690D02*
X107670Y177690D01*
X107924Y177436D01*
X107924Y177436D02*
X107924Y177436D01*
X108518D02*
X108518D01*
X111297Y180214D01*
X111891D02*
X112145Y179960D01*
X112145Y179366D02*
X112145D01*
X111064Y178285D02*
X112145Y179366D01*
X111064Y177690D02*
X111064Y177690D01*
X111318Y177436D01*
X111318Y177436D02*
X111318Y177436D01*
X111912D02*
X111912D01*
X112488Y178011D01*
X113195Y178011D02*
X113195Y178011D01*
X113195Y178011D01*
Y178011D02*
X113253Y177953D01*
X113490D01*
X106388Y185629D02*
Y186263D01*
X103932Y178393D02*
X106036Y176289D01*
X103932Y178393D02*
Y183955D01*
X170000Y176289D02*
X173317D01*
X174803Y174803D01*
X107634Y188343D02*
X107874Y188583D01*
X106388Y186263D02*
X107634Y187509D01*
Y188343D01*
X103239Y184649D02*
X103932Y183955D01*
X103239Y184649D02*
Y187097D01*
X104724Y188583D01*
X122621Y174347D02*
X133095D01*
X133725Y172913D02*
Y173717D01*
X134355Y172283D02*
X134895D01*
X135525Y172913D02*
Y173717D01*
X136155Y174347D02*
X136695D01*
X137325Y172498D02*
Y173717D01*
X137955Y171868D02*
X138495D01*
X139125Y172498D02*
Y173717D01*
X139755Y174347D02*
X140295D01*
X140925Y172498D02*
Y173717D01*
X141555Y171868D02*
X142095D01*
X142725Y172498D02*
Y173717D01*
X143355Y174347D02*
X143895D01*
X144525Y172498D02*
Y173717D01*
X145155Y171868D02*
X145695D01*
X146325Y172498D02*
Y173717D01*
X146955Y174347D02*
X147495D01*
X148125Y172498D02*
Y173717D01*
X148755Y171868D02*
X149295D01*
X149925Y172498D02*
Y173717D01*
X150555Y174347D02*
X151095D01*
X151725Y172498D02*
Y173717D01*
X152355Y171868D02*
X152895D01*
X153525Y172498D02*
Y173717D01*
X154155Y174347D02*
X154695D01*
X155325Y172498D02*
Y173717D01*
X155955Y171868D02*
X156495D01*
X157125Y172498D02*
Y173717D01*
X157755Y174347D02*
X158295D01*
X158925Y172498D02*
Y173717D01*
X159555Y171868D02*
X160095D01*
X160725Y172498D02*
Y173717D01*
X161355Y174347D02*
X161895D01*
X162525Y172498D02*
Y173717D01*
X163155Y171868D02*
X163695D01*
X164325Y172498D02*
Y173717D01*
X164955Y174347D02*
X165495D01*
X166125Y172498D02*
Y173717D01*
X166755Y171868D02*
X167295D01*
X167925Y172498D02*
Y173717D01*
X168555Y174347D02*
X168805D01*
X106776D02*
X122621D01*
X168805D02*
X170853D01*
X103082Y178041D02*
X106776Y174347D01*
X170853D02*
X171309Y174803D01*
X171653D01*
X103082Y178041D02*
Y183603D01*
X101575Y185110D02*
X103082Y183603D01*
X101575Y185110D02*
Y198031D01*
X130381Y171018D02*
X168916D01*
X105497Y174424D02*
X108904Y171018D01*
X109801D01*
X110466Y171683D02*
Y172367D01*
X111131Y173032D02*
X111701D01*
X112366Y171683D02*
Y172367D01*
X113031Y171018D02*
X113601D01*
X114266Y171683D02*
Y172501D01*
X114931Y173166D02*
X115501D01*
X116166Y171683D02*
Y172501D01*
X116831Y171018D02*
X117401D01*
X118066Y171683D02*
Y172501D01*
X118731Y173166D02*
X119301D01*
X119966Y171683D02*
Y172501D01*
X120631Y171018D02*
X121201D01*
X121866Y171683D02*
Y172501D01*
X122531Y173166D02*
X123101D01*
X123766Y171683D02*
Y172501D01*
X124431Y171018D02*
X125001D01*
X125666Y171683D02*
Y172501D01*
X126331Y173166D02*
X126901D01*
X127566Y171683D02*
Y172501D01*
X128231Y171018D02*
X130381D01*
X102232Y177689D02*
X105497Y174424D01*
X102562Y201120D02*
X104663D01*
X100089Y198647D02*
X102562Y201120D01*
X175241Y173139D02*
X177953Y175852D01*
Y177953D01*
X168916Y171018D02*
X171038Y173139D01*
X175241D01*
X102232Y177689D02*
Y183251D01*
X100089Y185394D02*
Y198647D01*
Y185394D02*
X102232Y183251D01*
X104663Y201120D02*
X104724Y201181D01*
X179812Y175306D02*
X179988Y175483D01*
X181096Y176590D01*
X181096Y177580D02*
X181096Y177580D01*
X180990Y177685D02*
X181096Y177580D01*
X180990Y178675D02*
X181415Y179100D01*
X182404D02*
X182510Y178994D01*
X183500D02*
X184914Y180409D01*
X184930Y180424D01*
X185091Y180585D01*
X186588Y182082D01*
X99896Y181991D02*
X100532Y181355D01*
Y176985D02*
Y181355D01*
X99896Y181991D02*
Y182283D01*
X108199Y169318D02*
X173823D01*
X100532Y176985D02*
X108199Y169318D01*
X186588Y182082D02*
Y193466D01*
X173823Y169318D02*
X179812Y175306D01*
X102920Y202680D02*
X112522D01*
X114173Y204331D01*
X99239Y198999D02*
X102920Y202680D01*
X114173Y204331D02*
X114173D01*
X173471Y170168D02*
X179439Y176135D01*
X108552Y170168D02*
X173471D01*
X179439Y176135D02*
Y179616D01*
X177953Y181102D02*
X179439Y179616D01*
X100512Y183769D02*
X101382Y182899D01*
Y177337D02*
Y182899D01*
X99239Y185042D02*
X100512Y183769D01*
X100512D01*
X99239Y185042D02*
Y198999D01*
X101382Y177337D02*
X108552Y170168D01*
X184252Y195802D02*
X186588Y193466D01*
X184252Y195802D02*
Y200000D01*
X104724Y185433D02*
X104968Y185676D01*
Y186444D02*
X106210Y187687D01*
Y195123D01*
X104968Y185676D02*
Y186444D01*
X171659Y189737D02*
X173398D01*
X174160Y188976D02*
X175591D01*
X173398Y189737D02*
X174160Y188976D01*
X184252Y190551D02*
X185738Y189065D01*
X182766Y201664D02*
X184252Y203150D01*
X181629Y185827D02*
X182766Y186964D01*
Y201664D01*
X177426Y185827D02*
X181629D01*
X169664Y191732D02*
X171659Y189737D01*
X175591Y188976D02*
X176467Y188100D01*
X173317Y186786D02*
Y188300D01*
X172730Y188887D02*
X173317Y188300D01*
X112004Y200367D02*
X112854Y201217D01*
X106906Y200367D02*
X112004D01*
X105538Y198999D02*
X106906Y200367D01*
X105538Y195795D02*
Y198999D01*
Y195795D02*
X106210Y195123D01*
X169946Y181496D02*
X171085Y182635D01*
X182588Y208682D02*
Y211113D01*
X181869Y207963D02*
X182588Y208682D01*
X181102Y212598D02*
X182588Y211113D01*
X173392Y186711D02*
Y186711D01*
X173317Y186786D02*
X173392Y186711D01*
Y186711D02*
X174188Y185916D01*
X177799Y184252D02*
X177953D01*
X176135Y185916D02*
X177799Y184252D01*
X174188Y185916D02*
X176135D01*
X176467Y186786D02*
X177426Y185827D01*
X176467Y186786D02*
Y188100D01*
D15*
X306693Y313386D02*
G03*
X302362Y317717I-4331J0D01*
G01*
X298819Y321260D02*
G03*
X302362Y317717I3543J0D01*
G01*
X298819Y340945D02*
G03*
X295276Y344488I-3543J0D01*
G01*
X282500Y348670D02*
G03*
X286682Y344488I4182J0D01*
G01*
X296191Y170472D02*
X302362D01*
X288133Y162415D02*
X296191Y170472D01*
X302362D02*
X306552Y174663D01*
X278736Y148528D02*
Y152760D01*
X273453Y143245D02*
X278736Y148528D01*
X276772Y154724D02*
X278736Y152760D01*
X289483Y131599D02*
X290133Y132249D01*
Y137042D01*
X289483Y137692D02*
Y161855D01*
X293932Y166304D01*
X289483Y137692D02*
X290133Y137042D01*
X289483Y103441D02*
Y110482D01*
X287964Y101922D02*
X289483Y103441D01*
X288133Y104000D02*
Y132158D01*
X288783Y132808D01*
X286614Y102481D02*
X288133Y104000D01*
X288783Y132808D02*
Y136483D01*
X288133Y137133D02*
X288783Y136483D01*
X285433Y32918D02*
X286614Y34099D01*
X288133Y137133D02*
Y162415D01*
X280000Y19394D02*
X285433Y24827D01*
Y32918D01*
X286614Y34099D02*
Y102481D01*
X286783Y104559D02*
Y132718D01*
X287433Y133368D01*
X285264Y103040D02*
X286783Y104559D01*
X287433Y133368D02*
Y135924D01*
X286783Y136574D02*
X287433Y135924D01*
X286783Y162974D02*
X300600Y176791D01*
X286783Y136574D02*
Y162974D01*
X285433Y105118D02*
Y133277D01*
X286083Y133927D02*
Y135365D01*
X285433Y136015D02*
X286083Y135365D01*
X283803Y103488D02*
X285433Y105118D01*
Y136015D02*
Y163533D01*
X294600Y172700D01*
X285433Y133277D02*
X286083Y133927D01*
X294600Y172700D02*
Y176791D01*
X285264Y34658D02*
Y103040D01*
X280000Y29394D02*
X285264Y34658D01*
X283367Y218797D02*
X287301D01*
X296300Y227796D01*
Y230134D01*
X306693Y276378D02*
Y313386D01*
X298819Y321260D02*
Y340945D01*
X286682Y344488D02*
X295276D01*
X282500Y348670D02*
Y372500D01*
X306693Y258268D02*
Y276378D01*
X281432Y97633D02*
Y126776D01*
X274803Y133405D02*
Y142686D01*
Y133405D02*
X281432Y126776D01*
X277165Y105512D02*
Y129134D01*
X273453Y132846D02*
Y143245D01*
Y132846D02*
X277165Y129134D01*
X271654Y95259D02*
Y100787D01*
X272835Y101969D01*
X271654Y95259D02*
X272653Y94260D01*
X272835Y101969D02*
Y131496D01*
X272653Y34547D02*
Y94260D01*
X272064Y132267D02*
X272835Y131496D01*
X272064Y132267D02*
Y158370D01*
X276772Y154724D02*
Y183071D01*
X277953Y184252D01*
Y189370D01*
X276008Y191315D02*
X277953Y189370D01*
X276008Y191315D02*
Y197348D01*
X277165Y198505D02*
Y198505D01*
X276008Y197348D02*
X277165Y198505D01*
X254414Y257898D02*
X257714Y261198D01*
Y293147D01*
X254414Y253460D02*
Y257898D01*
X255764Y257339D02*
X259064Y260639D01*
Y291152D01*
X255764Y254078D02*
Y257339D01*
X259064Y208670D02*
Y250778D01*
X255764Y254078D02*
X259064Y250778D01*
X254414Y253460D02*
X257714Y250160D01*
Y209289D02*
Y250160D01*
Y156080D02*
Y196676D01*
X254724Y199666D02*
X257714Y196676D01*
X254724Y199666D02*
Y200847D01*
X256064Y205670D02*
X259064Y208670D01*
X256064Y201416D02*
Y205670D01*
X254714Y206289D02*
X257714Y209289D01*
X254714Y200857D02*
Y206289D01*
X256074Y200225D02*
Y201406D01*
X259064Y155521D02*
Y197235D01*
X256074Y200225D02*
X259064Y197235D01*
X256064Y201416D02*
X256074Y201406D01*
X254714Y200857D02*
X254724Y200847D01*
X254714Y147648D02*
X257705Y144657D01*
Y100760D02*
Y144657D01*
X254714Y147648D02*
Y153080D01*
X256064Y148266D02*
Y152521D01*
X259055Y63720D02*
Y145276D01*
X256064Y148266D02*
X259055Y145276D01*
X254714Y153080D02*
X257714Y156080D01*
X256064Y152521D02*
X259064Y155521D01*
X255118Y98173D02*
X257705Y100760D01*
X261764Y46158D02*
Y282041D01*
X255000Y39394D02*
X261764Y46158D01*
X250000Y52756D02*
X260414Y63170D01*
Y287872D01*
X248650Y53315D02*
X259055Y63720D01*
X255118Y61692D02*
Y98173D01*
X247300Y53874D02*
X255118Y61692D01*
X247300Y17094D02*
Y53874D01*
Y17094D02*
X255000Y9394D01*
X257714Y293147D02*
X260630Y296063D01*
X279872Y306054D02*
X279921Y306103D01*
X278596Y306054D02*
X279872D01*
X260414Y287872D02*
X278596Y306054D01*
X261764Y282041D02*
X285827Y306103D01*
X259064Y291152D02*
X274016Y306103D01*
X248650Y25744D02*
Y53315D01*
Y25744D02*
X255000Y19394D01*
X250000Y34394D02*
Y52756D01*
Y34394D02*
X255000Y29394D01*
X281496Y187008D02*
X281890Y187402D01*
X281496Y149379D02*
Y187008D01*
X274803Y142686D02*
X281496Y149379D01*
X303937Y221260D02*
X308452D01*
X310236Y223044D01*
X281890Y199213D02*
X303937Y221260D01*
X281890Y187402D02*
Y199213D01*
X310236Y223044D02*
Y225476D01*
X314500Y229740D01*
X298819Y226653D02*
X302300Y230134D01*
X298819Y224710D02*
Y226653D01*
X281195Y207087D02*
X298819Y224710D01*
X272064Y203822D02*
X275329Y207087D01*
X281195D01*
X272064Y201558D02*
Y203822D01*
X272835Y159140D02*
Y200787D01*
X272064Y201558D02*
X272835Y200787D01*
X272064Y158370D02*
X272835Y159140D01*
X277165Y198505D02*
X308400Y229740D01*
X277165Y105512D02*
X280082Y102595D01*
X275353Y17246D02*
Y91554D01*
X281432Y97633D01*
X280082Y98193D02*
Y102595D01*
X274003Y92113D02*
X280082Y98193D01*
X274003Y25896D02*
Y92113D01*
X281134Y216563D02*
X283367Y218797D01*
X278705Y214135D02*
X279562D01*
X281134Y215706D01*
X276637Y212067D02*
X278705Y214135D01*
X276637Y211210D02*
Y212067D01*
X268110Y202683D02*
X276637Y211210D01*
X281134Y215706D02*
Y216563D01*
X268110Y96893D02*
Y202683D01*
Y96893D02*
X271303Y93701D01*
X267500Y9394D02*
X275353Y17246D01*
X267500Y19394D02*
X274003Y25896D01*
X267500Y29394D02*
X272653Y34547D01*
X271303Y43196D02*
Y93701D01*
X267500Y39394D02*
X271303Y43196D01*
X305674Y166304D02*
X312800Y173430D01*
Y176397D01*
X293932Y166304D02*
X305674D01*
X306552Y174663D02*
Y176249D01*
X306700Y176397D01*
X287964Y17358D02*
Y101922D01*
X280000Y9394D02*
X287964Y17358D01*
X283803Y43196D02*
Y103488D01*
X280000Y39394D02*
X283803Y43196D01*
X309055Y116929D02*
Y120665D01*
X301181Y18075D02*
Y109055D01*
X309055Y116929D01*
Y120665D02*
X312800Y124409D01*
X303937Y118898D02*
Y121646D01*
X299606Y114567D02*
X303937Y118898D01*
Y121646D02*
X306700Y124409D01*
X298031Y122235D02*
X300600Y124803D01*
X298031Y34925D02*
Y122235D01*
X292500Y9394D02*
X301181Y18075D01*
X299606Y26500D02*
Y114567D01*
X292500Y19394D02*
X299606Y26500D01*
X292500Y29394D02*
X298031Y34925D01*
X296303Y43196D02*
Y123100D01*
X292500Y39394D02*
X296303Y43196D01*
X294600Y124803D02*
X296303Y123100D01*
X72093Y339100D02*
X183352D01*
X211181Y366929D01*
X64684Y331691D02*
X72093Y339100D01*
X64684Y331691D02*
X64684D01*
X211181Y366929D02*
X211181D01*
X204800Y26696D02*
X216142Y15354D01*
Y15354D02*
Y15354D01*
X204800Y26696D02*
Y173200D01*
X203150Y19685D02*
Y174803D01*
X207874Y14961D02*
Y14961D01*
X203150Y19685D02*
X207874Y14961D01*
X169600Y35500D02*
Y52100D01*
X172700Y55200D01*
X164600Y30500D02*
X169600Y35500D01*
X172700Y55200D02*
X176400D01*
X183600Y62400D02*
Y159605D01*
X176400Y55200D02*
X183600Y62400D01*
Y159605D02*
X197800Y173805D01*
Y175700D01*
X198400Y176300D01*
X181800Y160300D02*
X195500Y174000D01*
X174600Y60500D02*
X181800Y67700D01*
Y160300D01*
X195500Y174000D02*
Y176154D01*
X179900Y68900D02*
Y161002D01*
X176100Y65100D02*
X179900Y68900D01*
Y161002D02*
X193701Y174803D01*
X169200Y65100D02*
X176100D01*
X164600Y60500D02*
X169200Y65100D01*
D99*
X292500Y39394D02*
D03*
Y29394D02*
D03*
Y19394D02*
D03*
X255000Y39394D02*
D03*
Y29394D02*
D03*
Y19394D02*
D03*
X280000Y39394D02*
D03*
Y29394D02*
D03*
Y19394D02*
D03*
X267500Y39394D02*
D03*
Y29394D02*
D03*
Y19394D02*
D03*
X164600Y30500D02*
D03*
X174600Y60500D02*
D03*
X164600D02*
D03*
X174600Y90500D02*
D03*
X44488Y102756D02*
D03*
X44190Y242222D02*
D03*
X44488Y288583D02*
D03*
D100*
X292500Y9394D02*
D03*
X255000D02*
D03*
X280000D02*
D03*
X267500D02*
D03*
X164600Y10500D02*
D03*
D102*
X282500Y372500D02*
D03*
D105*
X211181Y366929D02*
D03*
D107*
X187402Y152756D02*
D03*
X186614Y137992D02*
D03*
X290985Y120358D02*
D03*
X290941Y172955D02*
D03*
X290937Y225552D02*
D03*
X291365Y278200D02*
D03*
X204196Y225361D02*
D03*
X184409Y277563D02*
D03*
X160393D02*
D03*
X204111Y344711D02*
D03*
X222377Y342977D02*
D03*
X260630Y296063D02*
D03*
X285827Y306103D02*
D03*
X279921D02*
D03*
X274016D02*
D03*
X296300Y230134D02*
D03*
X302300D02*
D03*
X308400Y229740D02*
D03*
X314500D02*
D03*
X294600Y176791D02*
D03*
X300600D02*
D03*
X306700Y176397D02*
D03*
X312800D02*
D03*
Y124409D02*
D03*
X306700D02*
D03*
X300600Y124803D02*
D03*
X294600D02*
D03*
X64684Y331691D02*
D03*
X117161Y8261D02*
D03*
X69661D02*
D03*
X18133Y8268D02*
D03*
X212205Y14961D02*
D03*
X216142Y15354D02*
D03*
X207874Y14961D02*
D03*
X193701Y174803D02*
D03*
X126772Y201181D02*
D03*
X203150Y177953D02*
D03*
Y174803D02*
D03*
X193701Y177953D02*
D03*
X200000Y181102D02*
D03*
X184300Y209401D02*
D03*
X99896Y182283D02*
D03*
X116929Y191732D02*
D03*
X184252Y190551D02*
D03*
X101575Y198031D02*
D03*
X104724Y201181D02*
D03*
X114173Y204331D02*
D03*
X107874Y204331D02*
D03*
X181102Y212598D02*
D03*
X174803Y206299D02*
D03*
X120472Y188583D02*
D03*
X114173D02*
D03*
X111024D02*
D03*
X107874Y185433D02*
D03*
Y188583D02*
D03*
X104724Y185433D02*
D03*
Y188583D02*
D03*
X107874Y198031D02*
D03*
X111024D02*
D03*
X114173D02*
D03*
X184252Y203150D02*
D03*
Y200000D02*
D03*
X181102D02*
D03*
Y190551D02*
D03*
Y187402D02*
D03*
X177953Y181102D02*
D03*
Y177953D02*
D03*
Y184252D02*
D03*
X174803D02*
D03*
Y174803D02*
D03*
X171653D02*
D03*
Y177953D02*
D03*
Y181102D02*
D03*
X254331Y211849D02*
D03*
X215748Y209449D02*
D03*
X212598D02*
D03*
X203150Y215748D02*
D03*
X252165Y223660D02*
D03*
X206299Y215748D02*
D03*
X218898Y177953D02*
D03*
X252362Y110668D02*
D03*
Y108546D02*
D03*
X222047Y177953D02*
D03*
X215748Y187402D02*
D03*
X218898D02*
D03*
X252165Y116420D02*
D03*
Y118542D02*
D03*
X212598Y196850D02*
D03*
X209449D02*
D03*
X252434Y163188D02*
D03*
Y161066D02*
D03*
X212598Y200000D02*
D03*
X209449D02*
D03*
X252237Y171062D02*
D03*
Y168940D02*
D03*
X254331Y209728D02*
D03*
X206299Y212598D02*
D03*
Y209449D02*
D03*
X252362Y213665D02*
D03*
Y215786D02*
D03*
X252165Y221539D02*
D03*
X306693Y276378D02*
D03*
Y258268D02*
D03*
X203150Y206299D02*
D03*
X200000D02*
D03*
X196850D02*
D03*
Y193701D02*
D03*
X203150Y190551D02*
D03*
Y193701D02*
D03*
X190551D02*
D03*
X193701Y206299D02*
D03*
D108*
X26920Y260142D02*
D03*
D118*
X252362Y213665D02*
G03*
X251843Y214184I-519J0D01*
G01*
X222331Y214173D02*
G03*
X222363Y214174I0J584D01*
G01*
X221849Y214173D02*
G03*
X221442Y214004I3J-584D01*
G01*
X220633Y213195D02*
G03*
X220466Y212786I416J-410D01*
G01*
X220287Y211964D02*
G03*
X220466Y212786I-1800J821D01*
G01*
X209449Y211515D02*
G03*
X210535Y211862I0J1871D01*
G01*
X252165Y221539D02*
G03*
X251646Y222058I-519J0D01*
G01*
X224418Y225095D02*
G03*
X223194Y226279I-1224J-42D01*
G01*
X224415Y225015D02*
G03*
X224418Y225095I-581J60D01*
G01*
X217330Y226279D02*
G03*
X215158Y224119I-1J-2170D01*
G01*
X211909Y218109D02*
G03*
X215158Y221358I0J3249D01*
G01*
X251843Y215267D02*
G03*
X252362Y215786I0J519D01*
G01*
X221411Y215267D02*
G03*
X221004Y215098I3J-584D01*
G01*
X219446Y214024D02*
G03*
X220061Y214155I205J546D01*
G01*
X217742Y213779D02*
G03*
X218057Y213874I-3J584D01*
G01*
X214593Y213779D02*
G03*
X214907Y213874I-3J584D01*
G01*
X216590Y213873D02*
G03*
X216903Y213779I317J490D01*
G01*
X213443Y213871D02*
G03*
X213754Y213779I314J492D01*
G01*
X213443Y213871D02*
G03*
X211265Y213345I-845J-1273D01*
G01*
X210791Y213050D02*
G03*
X211265Y213345I-33J583D01*
G01*
X209449Y212598D02*
G03*
X209908Y212746I0J787D01*
G01*
X225693Y215267D02*
G03*
X226276Y215851I0J584D01*
G01*
X227739Y221124D02*
G03*
X226276Y219661I0J-1463D01*
G01*
X229527D02*
G03*
X228064Y221124I-1463J0D01*
G01*
X229527Y214050D02*
G03*
X229907Y213671I379J0D01*
G01*
X230232D02*
G03*
X230611Y214050I0J379D01*
G01*
X232074Y220177D02*
G03*
X230611Y218714I0J-1463D01*
G01*
X233862D02*
G03*
X232399Y220177I-1463J0D01*
G01*
X233862Y211769D02*
G03*
X234241Y211390I379J0D01*
G01*
X234566D02*
G03*
X234945Y211769I0J379D01*
G01*
X236408Y220139D02*
G03*
X234945Y218676I0J-1463D01*
G01*
X238196D02*
G03*
X236733Y220139I-1463J0D01*
G01*
X238196Y211841D02*
G03*
X238575Y211462I379J0D01*
G01*
X238900D02*
G03*
X239280Y211841I0J379D01*
G01*
X240742Y220124D02*
G03*
X239280Y218661I0J-1463D01*
G01*
X242530D02*
G03*
X241067Y220124I-1463J0D01*
G01*
X242530Y211845D02*
G03*
X242910Y211466I379J0D01*
G01*
X243234D02*
G03*
X243614Y211845I0J379D01*
G01*
X245077Y221124D02*
G03*
X243614Y219661I0J-1463D01*
G01*
X246865D02*
G03*
X245402Y221124I-1463J0D01*
G01*
X246865Y211381D02*
G03*
X247244Y211002I379J0D01*
G01*
X247569D02*
G03*
X247948Y211381I0J379D01*
G01*
X249615Y215267D02*
G03*
X247948Y213600I0J-1667D01*
G01*
X225693Y214184D02*
G03*
X227360Y215851I0J1667D01*
G01*
X227739Y220040D02*
G03*
X227360Y219661I0J-379D01*
G01*
X228444D02*
G03*
X228064Y220040I-379J0D01*
G01*
X228444Y214050D02*
G03*
X229907Y212587I1463J0D01*
G01*
X230232D02*
G03*
X231694Y214050I0J1463D01*
G01*
X232074Y219093D02*
G03*
X231694Y218714I0J-379D01*
G01*
X232778D02*
G03*
X232399Y219093I-379J0D01*
G01*
X232778Y211769D02*
G03*
X234241Y210306I1463J0D01*
G01*
X234566D02*
G03*
X236029Y211769I0J1463D01*
G01*
X236408Y219055D02*
G03*
X236029Y218676I0J-379D01*
G01*
X237112D02*
G03*
X236733Y219055I-379J0D01*
G01*
X237112Y211841D02*
G03*
X238575Y210378I1463J0D01*
G01*
X238900D02*
G03*
X240363Y211841I0J1463D01*
G01*
X240742Y219040D02*
G03*
X240363Y218661I0J-379D01*
G01*
X241447D02*
G03*
X241067Y219040I-379J0D01*
G01*
X241447Y211845D02*
G03*
X242910Y210382I1463J0D01*
G01*
X243234D02*
G03*
X244697Y211845I0J1463D01*
G01*
X245077Y220040D02*
G03*
X244697Y219661I0J-379D01*
G01*
X245781D02*
G03*
X245402Y220040I-379J0D01*
G01*
X245781Y211381D02*
G03*
X247244Y209918I1463J0D01*
G01*
X247569D02*
G03*
X249032Y211381I0J1463D01*
G01*
X249615Y214184D02*
G03*
X249032Y213600I0J-584D01*
G01*
X246982Y205315D02*
G03*
X246398Y204731I0J-584D01*
G01*
X244935Y195027D02*
G03*
X246398Y196490I0J1463D01*
G01*
X243147D02*
G03*
X244610Y195027I1463J0D01*
G01*
X243147Y207986D02*
G03*
X242768Y208365I-379J0D01*
G01*
X242443D02*
G03*
X242064Y207986I0J-379D01*
G01*
X240601Y200726D02*
G03*
X242064Y202189I0J1463D01*
G01*
X238813D02*
G03*
X240276Y200726I1463J0D01*
G01*
X238813Y207982D02*
G03*
X238434Y208361I-379J0D01*
G01*
X238109D02*
G03*
X237729Y207982I0J-379D01*
G01*
X236267Y201230D02*
G03*
X237729Y202693I0J1463D01*
G01*
X234479D02*
G03*
X235942Y201230I1463J0D01*
G01*
X234479Y207910D02*
G03*
X234099Y208289I-379J0D01*
G01*
X233774D02*
G03*
X233395Y207910I0J-379D01*
G01*
X231932Y204229D02*
G03*
X233395Y205692I0J1463D01*
G01*
X230144D02*
G03*
X231607Y204229I1463J0D01*
G01*
X230144Y210191D02*
G03*
X229765Y210570I-379J0D01*
G01*
X229440D02*
G03*
X229061Y210191I0J-379D01*
G01*
X227598Y204578D02*
G03*
X229061Y206041I0J1463D01*
G01*
X225810D02*
G03*
X227273Y204578I1463J0D01*
G01*
X225810Y211447D02*
G03*
X225431Y211827I-379J0D01*
G01*
X225106D02*
G03*
X224726Y211447I0J-379D01*
G01*
X223059Y205315D02*
G03*
X224726Y206982I0J1667D01*
G01*
X246982Y206399D02*
G03*
X245315Y204731I0J-1667D01*
G01*
X244935Y196111D02*
G03*
X245315Y196490I0J379D01*
G01*
X244231D02*
G03*
X244610Y196111I379J0D01*
G01*
X244231Y207986D02*
G03*
X242768Y209449I-1463J0D01*
G01*
X242443D02*
G03*
X240980Y207986I0J-1463D01*
G01*
X240601Y201810D02*
G03*
X240980Y202189I0J379D01*
G01*
X239897D02*
G03*
X240276Y201810I379J0D01*
G01*
X239897Y207982D02*
G03*
X238434Y209445I-1463J0D01*
G01*
X238109D02*
G03*
X236646Y207982I0J-1463D01*
G01*
X236267Y202313D02*
G03*
X236646Y202693I0J379D01*
G01*
X235562D02*
G03*
X235942Y202313I379J0D01*
G01*
X235562Y207910D02*
G03*
X234099Y209373I-1463J0D01*
G01*
X233774D02*
G03*
X232312Y207910I0J-1463D01*
G01*
X231932Y205313D02*
G03*
X232312Y205692I0J379D01*
G01*
X231228D02*
G03*
X231607Y205313I379J0D01*
G01*
X231228Y210191D02*
G03*
X229765Y211653I-1463J0D01*
G01*
X229440D02*
G03*
X227977Y210191I0J-1463D01*
G01*
X227598Y205662D02*
G03*
X227977Y206041I0J379D01*
G01*
X226894D02*
G03*
X227273Y205662I379J0D01*
G01*
X226894Y211447D02*
G03*
X225431Y212910I-1463J0D01*
G01*
X225106D02*
G03*
X223643Y211447I0J-1463D01*
G01*
X223059Y206399D02*
G03*
X223643Y206982I0J584D01*
G01*
X253801Y211320D02*
G03*
X254331Y211849I0J530D01*
G01*
X217685Y208086D02*
G03*
X217667Y208114I-499J-302D01*
G01*
X218300Y206853D02*
G03*
X218864Y206399I569J129D01*
G01*
X217739Y207997D02*
G03*
X217780Y207940I497J305D01*
G01*
X218300Y206853D02*
G03*
X217780Y207940I-2552J-554D01*
G01*
X217667Y208114D02*
G03*
X217068Y208729I-2144J-1490D01*
G01*
X215775Y209422D02*
G03*
X215994Y209286I410J416D01*
G01*
X252415Y211320D02*
G03*
X250294Y209199I0J-2120D01*
G01*
X249606Y206399D02*
G03*
X250294Y207087I0J688D01*
G01*
X217242Y206617D02*
G03*
X216939Y207256I-1494J-318D01*
G01*
X219068Y205315D02*
G03*
X219075Y205315I6J1684D01*
G01*
X217242Y206617D02*
G03*
X218864Y205315I1627J365D01*
G01*
X216819Y207425D02*
G03*
X216939Y207256I1417J878D01*
G01*
X216816Y207429D02*
G03*
X216541Y207669I-502J-298D01*
G01*
X252864Y210236D02*
G03*
X251378Y208751I0J-1486D01*
G01*
X249606Y205315D02*
G03*
X251378Y207087I0J1772D01*
G01*
X254331Y209728D02*
G03*
X253822Y210236I-509J0D01*
G01*
X217068Y208729D02*
G03*
X215994Y209286I-2337J-3189D01*
G01*
X216541Y207669D02*
G03*
X215811Y207833I-816J-1935D01*
G01*
X214280Y209027D02*
G03*
X213719Y209449I-561J-162D01*
G01*
X214280Y209027D02*
G03*
X215811Y207833I1587J455D01*
G01*
X244761Y223870D02*
G03*
X246574Y222058I1813J0D01*
G01*
X244761Y233600D02*
G03*
X244032Y234329I-729J0D01*
G01*
X243407D02*
G03*
X242677Y233600I0J-729D01*
G01*
X240864Y221058D02*
G03*
X242677Y222870I0J1813D01*
G01*
X238427D02*
G03*
X240239Y221058I1813J0D01*
G01*
X238427Y233600D02*
G03*
X237697Y234329I-729J0D01*
G01*
X237072D02*
G03*
X236343Y233600I0J-729D01*
G01*
X234530Y221058D02*
G03*
X236343Y222870I0J1813D01*
G01*
X232092D02*
G03*
X233905Y221058I1813J0D01*
G01*
X232092Y233600D02*
G03*
X231363Y234329I-729J0D01*
G01*
X230738D02*
G03*
X230009Y233600I0J-729D01*
G01*
X228196Y222058D02*
G03*
X230009Y223870I0J1813D01*
G01*
X245845D02*
G03*
X246574Y223141I729J0D01*
G01*
X245845Y233600D02*
G03*
X244032Y235413I-1813J0D01*
G01*
X243407D02*
G03*
X241594Y233600I0J-1813D01*
G01*
X240864Y222141D02*
G03*
X241594Y222870I0J729D01*
G01*
X239510D02*
G03*
X240239Y222141I729J0D01*
G01*
X239510Y233600D02*
G03*
X237697Y235413I-1813J0D01*
G01*
X237072D02*
G03*
X235259Y233600I0J-1813D01*
G01*
X234530Y222141D02*
G03*
X235259Y222870I0J729D01*
G01*
X233176D02*
G03*
X233905Y222141I729J0D01*
G01*
X233176Y233600D02*
G03*
X231363Y235413I-1813J0D01*
G01*
X230738D02*
G03*
X228925Y233600I0J-1813D01*
G01*
X228196Y223141D02*
G03*
X228925Y223870I0J729D01*
G01*
X224415Y225015D02*
G03*
X224410Y224898I1078J-114D01*
G01*
X225495Y224923D02*
G03*
X225501Y225125I-1660J152D01*
G01*
X225493Y224871D02*
G03*
X227257Y223141I1760J30D01*
G01*
X225495Y224923D02*
G03*
X225493Y224871I582J-47D01*
G01*
X225501Y225125D02*
G03*
X223194Y227362I-2308J-72D01*
G01*
X224410Y224898D02*
G03*
X227253Y222058I2844J4D01*
G01*
X217327Y227362D02*
G03*
X214075Y224103I-5J-3248D01*
G01*
X211364Y218109D02*
G03*
X211358Y218109I-6J-583D01*
G01*
X251646Y223141D02*
G03*
X252165Y223660I0J519D01*
G01*
X211083Y219193D02*
G03*
X206474Y215864I7J-4864D01*
G01*
X211909Y219193D02*
G03*
X214075Y221358I0J2165D01*
G01*
X211091Y218109D02*
G03*
X207895Y216351I-1J-3781D01*
G01*
X204831Y215327D02*
G03*
X204270Y215748I-561J-162D01*
G01*
X204831Y215327D02*
G03*
X207811Y215964I1468J421D01*
G01*
X207895Y216351D02*
G03*
X207811Y215964I495J-310D01*
G01*
X243411Y163229D02*
G03*
X245224Y161416I1813J0D01*
G01*
X243411Y165611D02*
G03*
X242682Y166340I-729J0D01*
G01*
X242057D02*
G03*
X241328Y165611I0J-729D01*
G01*
X239515Y161416D02*
G03*
X241328Y163229I0J1813D01*
G01*
X244495D02*
G03*
X245224Y162499I729J0D01*
G01*
X244495Y165611D02*
G03*
X242682Y167423I-1813J0D01*
G01*
X242057D02*
G03*
X240244Y165611I0J-1813D01*
G01*
X239515Y162499D02*
G03*
X240244Y163229I0J729D01*
G01*
X231948Y191154D02*
G03*
X233761Y192967I0J1813D01*
G01*
X226663Y191154D02*
G03*
X225934Y190425I0J-729D01*
G01*
Y189800D02*
G03*
X226663Y189071I729J0D01*
G01*
X238494Y187258D02*
G03*
X236681Y189071I-1813J0D01*
G01*
Y184820D02*
G03*
X238494Y186633I0J1813D01*
G01*
X232570Y184820D02*
G03*
X231841Y184091I0J-729D01*
G01*
Y183466D02*
G03*
X232570Y182736I729J0D01*
G01*
X238494Y180923D02*
G03*
X236681Y182736I-1813J0D01*
G01*
Y178486D02*
G03*
X238494Y180298I0J1813D01*
G01*
X232570Y178486D02*
G03*
X231841Y177756I0J-729D01*
G01*
Y177131D02*
G03*
X232570Y176402I729J0D01*
G01*
X239814Y174589D02*
G03*
X238002Y176402I-1813J0D01*
G01*
Y172151D02*
G03*
X239814Y173964I0J1813D01*
G01*
X234490Y172151D02*
G03*
X233761Y171422I0J-729D01*
G01*
X231948Y192238D02*
G03*
X232677Y192967I0J729D01*
G01*
X226663Y192238D02*
G03*
X224851Y190425I0J-1813D01*
G01*
Y189800D02*
G03*
X226663Y187987I1813J0D01*
G01*
X237411Y187258D02*
G03*
X236681Y187987I-729J0D01*
G01*
Y185904D02*
G03*
X237411Y186633I0J729D01*
G01*
X232570Y185904D02*
G03*
X230757Y184091I0J-1813D01*
G01*
Y183466D02*
G03*
X232570Y181653I1813J0D01*
G01*
X237411Y180923D02*
G03*
X236681Y181653I-729J0D01*
G01*
Y179569D02*
G03*
X237411Y180298I0J729D01*
G01*
X232570Y179569D02*
G03*
X230757Y177756I0J-1813D01*
G01*
Y177131D02*
G03*
X232570Y175319I1813J0D01*
G01*
X238731Y174589D02*
G03*
X238002Y175319I-729J0D01*
G01*
Y173235D02*
G03*
X238731Y173964I0J729D01*
G01*
X234490Y173235D02*
G03*
X232677Y171422I0J-1813D01*
G01*
X231519Y196583D02*
G03*
X231530Y196583I9J1084D01*
G01*
X232677Y195476D02*
G03*
X232677Y195505I-584J0D01*
G01*
X232677Y195505D02*
G03*
X231530Y196583I-1141J-65D01*
G01*
X232677Y167165D02*
G03*
X238426Y161416I5749J0D01*
G01*
X233761Y167165D02*
G03*
X238426Y162499I4665J0D01*
G01*
X233760Y195524D02*
G03*
X231529Y197666I-2225J-84D01*
G01*
X233761Y195505D02*
G03*
X233760Y195524I-584J-3D01*
G01*
X229864Y201025D02*
G03*
X231676Y199213I1813J0D01*
G01*
X229864Y201832D02*
G03*
X229134Y202561I-729J0D01*
G01*
X228509D02*
G03*
X227780Y201832I0J-729D01*
G01*
X225967Y198778D02*
G03*
X227780Y200591I0J1813D01*
G01*
X223529D02*
G03*
X225342Y198778I1813J0D01*
G01*
X223529Y201832D02*
G03*
X222800Y202561I-729J0D01*
G01*
X222175D02*
G03*
X221446Y201832I0J-729D01*
G01*
X219633Y199213D02*
G03*
X221446Y201025I0J1813D01*
G01*
X230947D02*
G03*
X231676Y200296I729J0D01*
G01*
X230947Y201832D02*
G03*
X229134Y203645I-1813J0D01*
G01*
X228509D02*
G03*
X226696Y201832I0J-1813D01*
G01*
X225967Y199862D02*
G03*
X226696Y200591I0J729D01*
G01*
X224613D02*
G03*
X225342Y199862I729J0D01*
G01*
X224613Y201832D02*
G03*
X222800Y203645I-1813J0D01*
G01*
X222175D02*
G03*
X220362Y201832I0J-1813D01*
G01*
X219633Y200296D02*
G03*
X220362Y201025I0J729D01*
G01*
X242561Y177483D02*
G03*
X240748Y175670I0J-1813D01*
G01*
X248845Y177483D02*
G03*
X249574Y178212I0J729D01*
G01*
Y178838D02*
G03*
X248845Y179567I-729J0D01*
G01*
X239428Y181380D02*
G03*
X241241Y179567I1813J0D01*
G01*
Y183818D02*
G03*
X239428Y182005I0J-1813D01*
G01*
X248845Y183818D02*
G03*
X249574Y184547I0J729D01*
G01*
Y185172D02*
G03*
X248845Y185901I-729J0D01*
G01*
X239428Y187714D02*
G03*
X241241Y185901I1813J0D01*
G01*
Y190152D02*
G03*
X239428Y188339I0J-1813D01*
G01*
X248845Y190152D02*
G03*
X249574Y190881I0J729D01*
G01*
Y191506D02*
G03*
X248845Y192235I-729J0D01*
G01*
X240748Y194048D02*
G03*
X242561Y192235I1813J0D01*
G01*
Y176400D02*
G03*
X241832Y175670I0J-729D01*
G01*
X248845Y176400D02*
G03*
X250658Y178212I0J1813D01*
G01*
Y178838D02*
G03*
X248845Y180650I-1813J0D01*
G01*
X240511Y181380D02*
G03*
X241241Y180650I729J0D01*
G01*
Y182734D02*
G03*
X240511Y182005I0J-729D01*
G01*
X248845Y182734D02*
G03*
X250658Y184547I0J1813D01*
G01*
Y185172D02*
G03*
X248845Y186985I-1813J0D01*
G01*
X240511Y187714D02*
G03*
X241241Y186985I729J0D01*
G01*
Y189068D02*
G03*
X240511Y188339I0J-729D01*
G01*
X248845Y189068D02*
G03*
X250658Y190881I0J1813D01*
G01*
Y191506D02*
G03*
X248845Y193319I-1813J0D01*
G01*
X241832Y194048D02*
G03*
X242561Y193319I729J0D01*
G01*
X241832Y195274D02*
G03*
X236809Y200296I-5022J0D01*
G01*
X240748Y195274D02*
G03*
X236809Y199213I-3938J0D01*
G01*
X240748Y172367D02*
G03*
X243726Y169389I2978J0D01*
G01*
X241832Y172367D02*
G03*
X243726Y170472I1895J0D01*
G01*
X224959Y169346D02*
G03*
X226772Y171159I0J1813D01*
G01*
X224818Y169346D02*
G03*
X224089Y168617I0J-729D01*
G01*
Y167991D02*
G03*
X224818Y167262I729J0D01*
G01*
X227772Y165450D02*
G03*
X225959Y167262I-1813J0D01*
G01*
Y163012D02*
G03*
X227772Y164824I0J1813D01*
G01*
X224818Y163012D02*
G03*
X224089Y162282I0J-729D01*
G01*
Y161657D02*
G03*
X224818Y160928I729J0D01*
G01*
X226807Y159115D02*
G03*
X224994Y160928I-1813J0D01*
G01*
Y156677D02*
G03*
X226807Y158490I0J1813D01*
G01*
X224818Y156677D02*
G03*
X224089Y155948I0J-729D01*
G01*
Y155323D02*
G03*
X224818Y154594I729J0D01*
G01*
X226807Y152781D02*
G03*
X224994Y154594I-1813J0D01*
G01*
Y150343D02*
G03*
X226807Y152156I0J1813D01*
G01*
X224818Y150343D02*
G03*
X224089Y149614I0J-729D01*
G01*
Y148989D02*
G03*
X224818Y148259I729J0D01*
G01*
X226807Y146447D02*
G03*
X224994Y148259I-1813J0D01*
G01*
Y144009D02*
G03*
X226807Y145821I0J1813D01*
G01*
X224818Y144009D02*
G03*
X224089Y143279I0J-729D01*
G01*
Y142654D02*
G03*
X224818Y141925I729J0D01*
G01*
X226807Y140112D02*
G03*
X224994Y141925I-1813J0D01*
G01*
Y137674D02*
G03*
X226807Y139487I0J1813D01*
G01*
X224818Y137674D02*
G03*
X224089Y136945I0J-729D01*
G01*
Y136320D02*
G03*
X224818Y135591I729J0D01*
G01*
X227772Y133778D02*
G03*
X225959Y135591I-1813J0D01*
G01*
Y131340D02*
G03*
X227772Y133153I0J1813D01*
G01*
X224818Y131340D02*
G03*
X224089Y130611I0J-729D01*
G01*
Y129986D02*
G03*
X224818Y129256I729J0D01*
G01*
X227772Y127444D02*
G03*
X225959Y129256I-1813J0D01*
G01*
Y125006D02*
G03*
X227772Y126819I0J1813D01*
G01*
X224818Y125006D02*
G03*
X224089Y124276I0J-729D01*
G01*
Y123651D02*
G03*
X224818Y122922I729J0D01*
G01*
X226772Y121109D02*
G03*
X224959Y122922I-1813J0D01*
G01*
Y170429D02*
G03*
X225688Y171159I0J729D01*
G01*
X224818Y170429D02*
G03*
X223005Y168617I0J-1813D01*
G01*
Y167991D02*
G03*
X224818Y166179I1813J0D01*
G01*
X226688Y165450D02*
G03*
X225959Y166179I-729J0D01*
G01*
Y164095D02*
G03*
X226688Y164824I0J729D01*
G01*
X224818Y164095D02*
G03*
X223005Y162282I0J-1813D01*
G01*
Y161657D02*
G03*
X224818Y159844I1813J0D01*
G01*
X225723Y159115D02*
G03*
X224994Y159844I-729J0D01*
G01*
Y157761D02*
G03*
X225723Y158490I0J729D01*
G01*
X224818Y157761D02*
G03*
X223005Y155948I0J-1813D01*
G01*
Y155323D02*
G03*
X224818Y153510I1813J0D01*
G01*
X225723Y152781D02*
G03*
X224994Y153510I-729J0D01*
G01*
Y151426D02*
G03*
X225723Y152156I0J729D01*
G01*
X224818Y151426D02*
G03*
X223005Y149614I0J-1813D01*
G01*
Y148989D02*
G03*
X224818Y147176I1813J0D01*
G01*
X225723Y146447D02*
G03*
X224994Y147176I-729J0D01*
G01*
Y145092D02*
G03*
X225723Y145821I0J729D01*
G01*
X224818Y145092D02*
G03*
X223005Y143279I0J-1813D01*
G01*
Y142654D02*
G03*
X224818Y140841I1813J0D01*
G01*
X225723Y140112D02*
G03*
X224994Y140841I-729J0D01*
G01*
Y138758D02*
G03*
X225723Y139487I0J729D01*
G01*
X224818Y138758D02*
G03*
X223005Y136945I0J-1813D01*
G01*
Y136320D02*
G03*
X224818Y134507I1813J0D01*
G01*
X226688Y133778D02*
G03*
X225959Y134507I-729J0D01*
G01*
Y132423D02*
G03*
X226688Y133153I0J729D01*
G01*
X224818Y132423D02*
G03*
X223005Y130611I0J-1813D01*
G01*
Y129986D02*
G03*
X224818Y128173I1813J0D01*
G01*
X226688Y127444D02*
G03*
X225959Y128173I-729J0D01*
G01*
Y126089D02*
G03*
X226688Y126819I0J729D01*
G01*
X224818Y126089D02*
G03*
X223005Y124276I0J-1813D01*
G01*
Y123651D02*
G03*
X224818Y121838I1813J0D01*
G01*
X225688Y121109D02*
G03*
X224959Y121838I-729J0D01*
G01*
X239491Y108511D02*
G03*
X238849Y109153I-642J0D01*
G01*
X239491Y108487D02*
G03*
X240774Y108487I642J0D01*
G01*
X242058Y108511D02*
G03*
X240774Y108511I-642J0D01*
G01*
X242058Y108487D02*
G03*
X243341Y108487I642J0D01*
G01*
X244625Y108511D02*
G03*
X243341Y108511I-642J0D01*
G01*
X244625Y108487D02*
G03*
X245909Y108487I642J0D01*
G01*
X247192Y108511D02*
G03*
X245909Y108511I-642J0D01*
G01*
X247192Y108487D02*
G03*
X248476Y108487I642J0D01*
G01*
X249118Y109153D02*
G03*
X248476Y108511I0J-642D01*
G01*
X226772Y176674D02*
G03*
X224417Y179036I-2362J0D01*
G01*
X223527Y179037D02*
G03*
X223546Y179036I22J583D01*
G01*
X222047Y179480D02*
G03*
X220579Y178374I0J-1528D01*
G01*
X223527Y179037D02*
G03*
X223457Y179039I-242J-5524D01*
G01*
X223157Y179137D02*
G03*
X223457Y179039I324J485D01*
G01*
X223153Y179140D02*
G03*
X222047Y179480I-1106J-1626D01*
G01*
X225688Y176674D02*
G03*
X224410Y177953I-1279J0D01*
G01*
X230553Y134985D02*
G03*
X228740Y133172I0J-1813D01*
G01*
X231471Y134985D02*
G03*
X232201Y135714I0J729D01*
G01*
Y136339D02*
G03*
X231471Y137068I-729J0D01*
G01*
X227740Y138881D02*
G03*
X229553Y137068I1813J0D01*
G01*
Y141319D02*
G03*
X227740Y139506I0J-1813D01*
G01*
X231471Y141319D02*
G03*
X232201Y142048I0J729D01*
G01*
Y142674D02*
G03*
X231471Y143403I-729J0D01*
G01*
X227740Y145216D02*
G03*
X229553Y143403I1813J0D01*
G01*
Y147653D02*
G03*
X227740Y145841I0J-1813D01*
G01*
X231471Y147653D02*
G03*
X232201Y148383I0J729D01*
G01*
Y149008D02*
G03*
X231471Y149737I-729J0D01*
G01*
X227740Y151550D02*
G03*
X229553Y149737I1813J0D01*
G01*
Y153988D02*
G03*
X227740Y152175I0J-1813D01*
G01*
X231471Y153988D02*
G03*
X232201Y154717I0J729D01*
G01*
Y155342D02*
G03*
X231471Y156071I-729J0D01*
G01*
X227740Y157884D02*
G03*
X229553Y156071I1813J0D01*
G01*
Y160322D02*
G03*
X227740Y158509I0J-1813D01*
G01*
X231471Y160322D02*
G03*
X232201Y161051I0J729D01*
G01*
Y161676D02*
G03*
X231471Y162406I-729J0D01*
G01*
X228740Y164218D02*
G03*
X230553Y162406I1813J0D01*
G01*
Y133901D02*
G03*
X229824Y133172I0J-729D01*
G01*
X231471Y133901D02*
G03*
X233284Y135714I0J1813D01*
G01*
Y136339D02*
G03*
X231471Y138152I-1813J0D01*
G01*
X228824Y138881D02*
G03*
X229553Y138152I729J0D01*
G01*
Y140236D02*
G03*
X228824Y139506I0J-729D01*
G01*
X231471Y140236D02*
G03*
X233284Y142048I0J1813D01*
G01*
Y142674D02*
G03*
X231471Y144486I-1813J0D01*
G01*
X228824Y145216D02*
G03*
X229553Y144486I729J0D01*
G01*
Y146570D02*
G03*
X228824Y145841I0J-729D01*
G01*
X231471Y146570D02*
G03*
X233284Y148383I0J1813D01*
G01*
Y149008D02*
G03*
X231471Y150821I-1813J0D01*
G01*
X228824Y151550D02*
G03*
X229553Y150821I729J0D01*
G01*
Y152904D02*
G03*
X228824Y152175I0J-729D01*
G01*
X231471Y152904D02*
G03*
X233284Y154717I0J1813D01*
G01*
Y155342D02*
G03*
X231471Y157155I-1813J0D01*
G01*
X228824Y157884D02*
G03*
X229553Y157155I729J0D01*
G01*
Y159239D02*
G03*
X228824Y158509I0J-729D01*
G01*
X231471Y159239D02*
G03*
X233284Y161051I0J1813D01*
G01*
Y161676D02*
G03*
X231471Y163489I-1813J0D01*
G01*
X229824Y164218D02*
G03*
X230553Y163489I729J0D01*
G01*
X252362Y108546D02*
G03*
X251756Y109153I-606J0D01*
G01*
X225688Y120236D02*
G03*
X236772Y109153I11084J0D01*
G01*
X220022Y177953D02*
G03*
X220579Y178374I-3J584D01*
G01*
X251930Y110236D02*
G03*
X252362Y110668I0J432D01*
G01*
X226772Y120236D02*
G03*
X236772Y110236I10000J0D01*
G01*
X224118Y185555D02*
G03*
X223745Y185418I3J-584D01*
G01*
X217429Y186980D02*
G03*
X216872Y187402I-561J-162D01*
G01*
X252165Y116420D02*
G03*
X251559Y117027I-606J0D01*
G01*
X228740Y128110D02*
G03*
X239824Y117027I11084J0D01*
G01*
X228740Y184646D02*
G03*
X227831Y185555I-910J0D01*
G01*
X223670Y186639D02*
G03*
X223226Y186430I3J-584D01*
G01*
X220581Y186974D02*
G03*
X220855Y186446I1467J428D01*
G01*
X220581Y186974D02*
G03*
X220018Y187402I-562J-156D01*
G01*
X251733Y118110D02*
G03*
X252165Y118542I0J432D01*
G01*
X229824Y128110D02*
G03*
X239824Y118110I10000J0D01*
G01*
X229824Y184646D02*
G03*
X227831Y186639I-1993J0D01*
G01*
X220013Y185764D02*
G03*
X220201Y185555I2034J1637D01*
G01*
D02*
G03*
X223745Y185418I1846J1846D01*
G01*
X220013Y185764D02*
G03*
X219378Y185951I-453J-367D01*
G01*
X217429Y186980D02*
G03*
X219378Y185951I1468J421D01*
G01*
X220855Y186446D02*
G03*
X223226Y186430I1192J955D01*
G01*
X223914Y196641D02*
G03*
X224164Y196583I254J525D01*
G01*
X223914Y196641D02*
G03*
X222614Y196674I-685J-1365D01*
G01*
X221415Y195767D02*
G03*
X221913Y196052I-3J584D01*
G01*
X218470Y195767D02*
G03*
X217978Y195491I3J-584D01*
G01*
X252434Y161066D02*
G03*
X252084Y161416I-350J0D01*
G01*
X224184Y197705D02*
G03*
X224391Y197666I210J544D01*
G01*
X220876Y196850D02*
G03*
X221302Y197038I-3J584D01*
G01*
X217774Y196850D02*
G03*
X217217Y196431I3J-584D01*
G01*
X210560Y196850D02*
G03*
X211066Y197150I-3J584D01*
G01*
X251746Y162499D02*
G03*
X252434Y163188I0J688D01*
G01*
X222614Y196674D02*
G03*
X221913Y196052I614J-1399D01*
G01*
X213110Y196473D02*
G03*
X212598Y196850I-546J-205D01*
G01*
X213213Y196223D02*
G03*
X213166Y196348I-566J-143D01*
G01*
X213110Y196473D02*
G03*
X213166Y196348I1016J378D01*
G01*
X213213Y196223D02*
G03*
X217978Y195491I2535J627D01*
G01*
X224184Y197705D02*
G03*
X222178Y197666I-956J-2430D01*
G01*
D02*
G03*
X221302Y197038I1050J-2391D01*
G01*
X211088Y197189D02*
G03*
X211140Y197306I-504J295D01*
G01*
X211088Y197189D02*
G03*
X211066Y197150I1240J-736D01*
G01*
X214126Y196850D02*
G03*
X211140Y197306I-1528J0D01*
G01*
X214243Y196586D02*
G03*
X217217Y196431I1505J264D01*
G01*
X214243Y196586D02*
G03*
X214126Y196850I-575J-98D01*
G01*
X213773Y199509D02*
G03*
X212598Y200000I-1357J-1595D01*
G01*
X214986Y198676D02*
G03*
X216095Y198512I762J1324D01*
G01*
X214986Y198676D02*
G03*
X214908Y198713I-289J-507D01*
G01*
X216142Y198521D02*
G03*
X216487Y198605I-261J1822D01*
G01*
X214028Y199222D02*
G03*
X214908Y198713I2111J2638D01*
G01*
X213913Y199349D02*
G03*
X214028Y199222I486J323D01*
G01*
X216142Y198521D02*
G03*
X216095Y198512I83J-578D01*
G01*
X213911Y199352D02*
G03*
X213773Y199509I-612J-400D01*
G01*
X216487Y198605D02*
G03*
X217766Y199111I-445J2992D01*
G01*
X218095Y199213D02*
G03*
X217766Y199111I0J-584D01*
G01*
X217255Y200611D02*
G03*
X215748Y201528I-1507J-781D01*
G01*
X215748D02*
G03*
X214606Y201015I0J-1528D01*
G01*
X217257Y200608D02*
G03*
X217770Y200296I517J271D01*
G01*
X252237Y168940D02*
G03*
X251788Y169389I-449J0D01*
G01*
X210573Y200000D02*
G03*
X211130Y200421I-3J584D01*
G01*
X251648Y170472D02*
G03*
X252237Y171062I0J589D01*
G01*
X213740Y201015D02*
G03*
X214606Y201015I433J391D01*
G01*
X213740D02*
G03*
X211130Y200421I-1142J-1015D01*
G01*
X210791Y213050D02*
G03*
X209908Y212746I79J-1665D01*
G01*
X216590Y213873D02*
G03*
X214907Y213874I-841J-1275D01*
G01*
X219446Y214024D02*
G03*
X218057Y213874I-548J-1426D01*
G01*
X217757Y211582D02*
G03*
X220287Y211964I1140J1017D01*
G01*
X222551Y214184D02*
G03*
X222518Y214183I0J-584D01*
G01*
X217757Y211582D02*
G03*
X216889Y211583I-434J-390D01*
G01*
X214607D02*
G03*
X216889Y211583I1141J1015D01*
G01*
X214607D02*
G03*
X213740Y211583I-433J-391D01*
G01*
X211347Y211722D02*
G03*
X213740Y211583I1251J876D01*
G01*
X211347Y211722D02*
G03*
X210535Y211862I-477J-337D01*
G01*
X207591Y211515D02*
G03*
X207239Y211394I3J-584D01*
G01*
X206842Y211171D02*
G03*
X207239Y211394I-543J1428D01*
G01*
X206842Y211171D02*
G03*
X206496Y210797I212J-544D01*
G01*
D02*
G03*
X206299Y209449I4528J-1348D01*
G01*
X250449Y214184D02*
X251843D01*
X222363Y214174D02*
X222518Y214183D01*
X221849Y214173D02*
X221853Y214173D01*
X222331D01*
X221442Y214004D02*
X221442Y214004D01*
X220633Y213195D02*
X221442Y214004D01*
X220466Y212786D02*
X220466Y212786D01*
X207591Y211515D02*
X209449D01*
X251378Y222058D02*
X251646D01*
X217334Y226279D02*
X223194D01*
X217330Y226279D02*
X217334Y226279D01*
X215158Y224119D02*
X215158Y224116D01*
X211364Y218109D02*
X211909D01*
X250449Y215267D02*
X251843D01*
X221411Y215267D02*
X221411Y215267D01*
X220061Y214155D02*
X221004Y215098D01*
X213443Y213871D02*
X213443Y213871D01*
X217742Y213779D02*
X217742D01*
X216903D02*
X217742D01*
X214593D02*
X214593D01*
X213754D02*
X214593D01*
X206299Y212598D02*
X209449D01*
X222638Y215267D02*
X225693D01*
X226276Y215851D02*
Y219661D01*
X227739Y221124D02*
X228064D01*
X229527Y214050D02*
Y219661D01*
X229907Y213671D02*
X230232D01*
X230611Y214050D02*
Y218714D01*
X232074Y220177D02*
X232399D01*
X233862Y211769D02*
Y218714D01*
X234241Y211390D02*
X234566D01*
X234945Y211769D02*
Y218676D01*
X236408Y220139D02*
X236733D01*
X238196Y211841D02*
Y218676D01*
X238575Y211462D02*
X238900D01*
X239280Y211841D02*
Y218661D01*
X240742Y220124D02*
X241067D01*
X242530Y211845D02*
Y218661D01*
X242910Y211466D02*
X243234D01*
X243614Y211845D02*
Y219661D01*
X245077Y221124D02*
X245402D01*
X246865Y211381D02*
Y219661D01*
X247244Y211002D02*
X247569D01*
X247948Y211381D02*
Y213600D01*
X249615Y215267D02*
X250449D01*
X222638Y214184D02*
X225693D01*
X227360Y215851D02*
Y219661D01*
X227739Y220040D02*
X228064D01*
X228444Y214050D02*
Y219661D01*
X229907Y212587D02*
X230232D01*
X231694Y214050D02*
Y218714D01*
X232074Y219093D02*
X232399D01*
X232778Y211769D02*
Y218714D01*
X234241Y210306D02*
X234566D01*
X236029Y211769D02*
Y218676D01*
X236408Y219055D02*
X236733D01*
X237112Y211841D02*
Y218676D01*
X238575Y210378D02*
X238900D01*
X240363Y211841D02*
Y218661D01*
X240742Y219040D02*
X241067D01*
X241447Y211845D02*
Y218661D01*
X242910Y210382D02*
X243234D01*
X244697Y211845D02*
Y219661D01*
X245077Y220040D02*
X245402D01*
X245781Y211381D02*
Y219661D01*
X247244Y209918D02*
X247569D01*
X249032Y211381D02*
Y213600D01*
X249615Y214184D02*
X250449D01*
X246982Y205315D02*
X249508D01*
X246398Y196490D02*
Y204731D01*
X244610Y195027D02*
X244935D01*
X243147Y196490D02*
Y207986D01*
X242443Y208365D02*
X242768D01*
X242064Y202189D02*
Y207986D01*
X240276Y200726D02*
X240601D01*
X238813Y202189D02*
Y207982D01*
X238109Y208361D02*
X238434D01*
X237729Y202693D02*
Y207982D01*
X235942Y201230D02*
X236267D01*
X234479Y202693D02*
Y207910D01*
X233774Y208289D02*
X234099D01*
X233395Y205692D02*
Y207910D01*
X231607Y204229D02*
X231932D01*
X230144Y205692D02*
Y210191D01*
X229440Y210570D02*
X229765D01*
X229061Y206041D02*
Y210191D01*
X227273Y204578D02*
X227598D01*
X225810Y206041D02*
Y211447D01*
X225106Y211827D02*
X225431D01*
X224726Y206982D02*
Y211447D01*
X222226Y205315D02*
X223059D01*
X246982Y206399D02*
X249508D01*
X245315Y196490D02*
Y204731D01*
X244610Y196111D02*
X244935D01*
X244231Y196490D02*
Y207986D01*
X242443Y209449D02*
X242768D01*
X240980Y202189D02*
Y207986D01*
X240276Y201810D02*
X240601D01*
X239897Y202189D02*
Y207982D01*
X238109Y209445D02*
X238434D01*
X236646Y202693D02*
Y207982D01*
X235942Y202313D02*
X236267D01*
X235562Y202693D02*
Y207910D01*
X233774Y209373D02*
X234099D01*
X232312Y205692D02*
Y207910D01*
X231607Y205313D02*
X231932D01*
X231228Y205692D02*
Y210191D01*
X229440Y211653D02*
X229765D01*
X227977Y206041D02*
Y210191D01*
X227273Y205662D02*
X227598D01*
X226894Y206041D02*
Y211447D01*
X225106Y212910D02*
X225431D01*
X223643Y206982D02*
Y211447D01*
X222226Y206399D02*
X223059D01*
X219075Y205315D02*
X222226D01*
X218864Y206399D02*
X222226D01*
X218864Y205315D02*
X219068D01*
X249508D02*
X249606D01*
X249508Y206399D02*
X249606D01*
X219075Y205315D02*
X219075Y205315D01*
X218864Y205315D02*
X218864Y205315D01*
X252560Y211320D02*
X253801D01*
X218864Y206399D02*
X218864D01*
X217685Y208086D02*
X217739Y207997D01*
X217667Y208114D02*
X217667Y208114D01*
X215772Y209425D02*
X215775Y209422D01*
X250294Y207087D02*
Y209199D01*
X216816Y207429D02*
X216819Y207425D01*
X219068Y205315D02*
X219068D01*
X217242Y206617D02*
X217242D01*
X251378Y207087D02*
Y208751D01*
X252864Y210236D02*
X253822D01*
X215748Y209449D02*
X215772Y209425D01*
X212598Y209449D02*
X213719D01*
X222551Y214184D02*
X222638D01*
X221411Y215267D02*
X222638D01*
X246574Y222058D02*
X251378D01*
X244761Y223870D02*
Y233600D01*
X243407Y234329D02*
X244032D01*
X242677Y222870D02*
Y233600D01*
X240239Y221058D02*
X240864D01*
X238427Y222870D02*
Y233600D01*
X237072Y234329D02*
X237697D01*
X236343Y222870D02*
Y233600D01*
X233905Y221058D02*
X234530D01*
X232092Y222870D02*
Y233600D01*
X230738Y234329D02*
X231363D01*
X230009Y223870D02*
Y233600D01*
X227362Y222058D02*
X228196D01*
X246574Y223141D02*
X251378D01*
X245845Y223870D02*
Y233600D01*
X243407Y235413D02*
X244032D01*
X241594Y222870D02*
Y233600D01*
X240239Y222141D02*
X240864D01*
X239510Y222870D02*
Y233600D01*
X237072Y235413D02*
X237697D01*
X235259Y222870D02*
Y233600D01*
X233905Y222141D02*
X234530D01*
X233176Y222870D02*
Y233600D01*
X230738Y235413D02*
X231363D01*
X228925Y223870D02*
Y233600D01*
X227362Y223141D02*
X228196D01*
X251378D02*
X251646D01*
X227257D02*
X227362D01*
X225501Y225125D02*
X225501Y225125D01*
X217327Y227362D02*
X223194D01*
X217327Y227362D02*
X217327Y227362D01*
X215158Y221358D02*
Y224116D01*
X214075Y221358D02*
Y224103D01*
X211083Y219193D02*
X211086Y219193D01*
X206299Y215748D02*
X206474Y215864D01*
X211086Y219193D02*
X211909D01*
X203150Y215748D02*
X204270D01*
X211091Y218109D02*
X211358Y218109D01*
X245224Y161416D02*
X251673D01*
X243411Y163229D02*
Y165611D01*
X242057Y166340D02*
X242682D01*
X241328Y163229D02*
Y165611D01*
X238681Y161416D02*
X239515D01*
X245224Y162499D02*
X251673D01*
X244495Y163229D02*
Y165611D01*
X242057Y167423D02*
X242682D01*
X240244Y163229D02*
Y165611D01*
X238681Y162499D02*
X239515D01*
X251673Y161416D02*
X252084D01*
X238426D02*
X238681D01*
X251673Y162499D02*
X251746D01*
X238426D02*
X238681D01*
X233761Y192967D02*
Y195472D01*
X226663Y191154D02*
X231948D01*
X225934Y189800D02*
Y190425D01*
X226663Y189071D02*
X236681D01*
X238494Y186633D02*
Y187258D01*
X232570Y184820D02*
X236681D01*
X231841Y183466D02*
Y184091D01*
X232570Y182736D02*
X236681D01*
X238494Y180298D02*
Y180923D01*
X232570Y178486D02*
X236681D01*
X231841Y177131D02*
Y177756D01*
X232570Y176402D02*
X238002D01*
X239814Y173964D02*
Y174589D01*
X234490Y172151D02*
X238002D01*
X233761Y167421D02*
Y171422D01*
X232677Y192967D02*
Y195472D01*
X226663Y192238D02*
X231948D01*
X224851Y189800D02*
Y190425D01*
X226663Y187987D02*
X236681D01*
X237411Y186633D02*
Y187258D01*
X232570Y185904D02*
X236681D01*
X230757Y183466D02*
Y184091D01*
X232570Y181653D02*
X236681D01*
X237411Y180298D02*
Y180923D01*
X232570Y179569D02*
X236681D01*
X230757Y177131D02*
Y177756D01*
X232570Y175319D02*
X238002D01*
X238731Y173964D02*
Y174589D01*
X234490Y173235D02*
X238002D01*
X232677Y167421D02*
Y171422D01*
X233761Y195472D02*
Y195505D01*
Y167165D02*
Y167421D01*
X232677Y195472D02*
Y195476D01*
Y167165D02*
Y167421D01*
X231530Y196583D02*
X231530Y196583D01*
X232677Y195505D02*
X232677Y195505D01*
X224164Y196583D02*
X231519D01*
X233760Y195524D02*
X233760D01*
X231529Y197666D02*
Y197666D01*
X224391D02*
X231529D01*
X231676Y199213D02*
X236614D01*
X229864Y201025D02*
Y201832D01*
X228509Y202561D02*
X229134D01*
X227780Y200591D02*
Y201832D01*
X225342Y198778D02*
X225967D01*
X223529Y200591D02*
Y201832D01*
X222175Y202561D02*
X222800D01*
X221446Y201025D02*
Y201832D01*
X218799Y199213D02*
X219633D01*
X231676Y200296D02*
X236614D01*
X230947Y201025D02*
Y201832D01*
X228509Y203645D02*
X229134D01*
X226696Y200591D02*
Y201832D01*
X225342Y199862D02*
X225967D01*
X224613Y200591D02*
Y201832D01*
X222175Y203645D02*
X222800D01*
X220362Y201025D02*
Y201832D01*
X218799Y200296D02*
X219633D01*
X236614Y199213D02*
X236809D01*
X218095D02*
X218799D01*
X236614Y200296D02*
X236809D01*
X217770D02*
X218799D01*
X240748Y172539D02*
Y175670D01*
X242561Y177483D02*
X248845D01*
X249574Y178212D02*
Y178838D01*
X241241Y179567D02*
X248845D01*
X239428Y181380D02*
Y182005D01*
X241241Y183818D02*
X248845D01*
X249574Y184547D02*
Y185172D01*
X241241Y185901D02*
X248845D01*
X239428Y187714D02*
Y188339D01*
X241241Y190152D02*
X248845D01*
X249574Y190881D02*
Y191506D01*
X242561Y192235D02*
X248845D01*
X240748Y194048D02*
Y194882D01*
X241832Y172539D02*
Y175670D01*
X242561Y176400D02*
X248845D01*
X250658Y178212D02*
Y178838D01*
X241241Y180650D02*
X248845D01*
X240511Y181380D02*
Y182005D01*
X241241Y182734D02*
X248845D01*
X250658Y184547D02*
Y185172D01*
X241241Y186985D02*
X248845D01*
X240511Y187714D02*
Y188339D01*
X241241Y189068D02*
X248845D01*
X250658Y190881D02*
Y191506D01*
X242561Y193319D02*
X248845D01*
X241832Y194048D02*
Y194882D01*
X240748Y172367D02*
Y172539D01*
Y194882D02*
Y195274D01*
X241832Y172367D02*
Y172539D01*
Y194882D02*
Y195274D01*
X243726Y169389D02*
X251788D01*
X243726Y170472D02*
X251648D01*
X226772Y171159D02*
Y176673D01*
X224818Y169346D02*
X224959D01*
X224089Y167991D02*
Y168617D01*
X224818Y167262D02*
X225959D01*
X227772Y164824D02*
Y165450D01*
X224818Y163012D02*
X225959D01*
X224089Y161657D02*
Y162282D01*
X224818Y160928D02*
X224994D01*
X226807Y158490D02*
Y159115D01*
X224818Y156677D02*
X224994D01*
X224089Y155323D02*
Y155948D01*
X224818Y154594D02*
X224994D01*
X226807Y152156D02*
Y152781D01*
X224818Y150343D02*
X224994D01*
X224089Y148989D02*
Y149614D01*
X224818Y148259D02*
X224994D01*
X226807Y145821D02*
Y146447D01*
X224818Y144009D02*
X224994D01*
X224089Y142654D02*
Y143279D01*
X224818Y141925D02*
X224994D01*
X226807Y139487D02*
Y140112D01*
X224818Y137674D02*
X224994D01*
X224089Y136320D02*
Y136945D01*
X224818Y135591D02*
X225959D01*
X227772Y133153D02*
Y133778D01*
X224818Y131340D02*
X225959D01*
X224089Y129986D02*
Y130611D01*
X224818Y129256D02*
X225959D01*
X227772Y126819D02*
Y127444D01*
X224818Y125006D02*
X225959D01*
X224089Y123651D02*
Y124276D01*
X224818Y122922D02*
X224959D01*
X226772Y120276D02*
Y121109D01*
X225688Y171159D02*
Y176673D01*
X224818Y170429D02*
X224959D01*
X223005Y167991D02*
Y168617D01*
X224818Y166179D02*
X225959D01*
X226688Y164824D02*
Y165450D01*
X224818Y164095D02*
X225959D01*
X223005Y161657D02*
Y162282D01*
X224818Y159844D02*
X224994D01*
X225723Y158490D02*
Y159115D01*
X224818Y157761D02*
X224994D01*
X223005Y155323D02*
Y155948D01*
X224818Y153510D02*
X224994D01*
X225723Y152156D02*
Y152781D01*
X224818Y151426D02*
X224994D01*
X223005Y148989D02*
Y149614D01*
X224818Y147176D02*
X224994D01*
X225723Y145821D02*
Y146447D01*
X224818Y145092D02*
X224994D01*
X223005Y142654D02*
Y143279D01*
X224818Y140841D02*
X224994D01*
X225723Y139487D02*
Y140112D01*
X224818Y138758D02*
X224994D01*
X223005Y136320D02*
Y136945D01*
X224818Y134507D02*
X225959D01*
X226688Y133153D02*
Y133778D01*
X224818Y132423D02*
X225959D01*
X223005Y129986D02*
Y130611D01*
X224818Y128173D02*
X225959D01*
X226688Y126819D02*
Y127444D01*
X224818Y126089D02*
X225959D01*
X223005Y123651D02*
Y124276D01*
X224818Y121838D02*
X224959D01*
X225688Y120276D02*
Y121109D01*
X237008Y109153D02*
X238849D01*
X239491Y108487D02*
Y108511D01*
X240774Y108487D02*
Y108511D01*
X242058Y108487D02*
Y108511D01*
X243341Y108487D02*
Y108511D01*
X244625Y108487D02*
Y108511D01*
X245909Y108487D02*
Y108511D01*
X247192Y108487D02*
Y108511D01*
X248476Y108487D02*
Y108511D01*
X249118Y109153D02*
X249410D01*
X236772D02*
X237008D01*
X249410D02*
X251756D01*
X226772Y176673D02*
Y176674D01*
Y120236D02*
Y120276D01*
X225688Y176673D02*
Y176674D01*
Y120236D02*
Y120276D01*
X223546Y179036D02*
X224417Y179036D01*
X223457Y179039D02*
Y179039D01*
X223153Y179140D02*
X223157Y179137D01*
X222047Y177953D02*
X224410D01*
X228740Y128150D02*
Y133172D01*
X230553Y134985D02*
X231471D01*
X232201Y135714D02*
Y136339D01*
X229553Y137068D02*
X231471D01*
X227740Y138881D02*
Y139506D01*
X229553Y141319D02*
X231471D01*
X232201Y142048D02*
Y142674D01*
X229553Y143403D02*
X231471D01*
X227740Y145216D02*
Y145841D01*
X229553Y147653D02*
X231471D01*
X232201Y148383D02*
Y149008D01*
X229553Y149737D02*
X231471D01*
X227740Y151550D02*
Y152175D01*
X229553Y153988D02*
X231471D01*
X232201Y154717D02*
Y155342D01*
X229553Y156071D02*
X231471D01*
X227740Y157884D02*
Y158509D01*
X229553Y160322D02*
X231471D01*
X232201Y161051D02*
Y161676D01*
X230553Y162406D02*
X231471D01*
X228740Y164218D02*
Y184055D01*
X229824Y128150D02*
Y133172D01*
X230553Y133901D02*
X231471D01*
X233284Y135714D02*
Y136339D01*
X229553Y138152D02*
X231471D01*
X228824Y138881D02*
Y139506D01*
X229553Y140236D02*
X231471D01*
X233284Y142048D02*
Y142674D01*
X229553Y144486D02*
X231471D01*
X228824Y145216D02*
Y145841D01*
X229553Y146570D02*
X231471D01*
X233284Y148383D02*
Y149008D01*
X229553Y150821D02*
X231471D01*
X228824Y151550D02*
Y152175D01*
X229553Y152904D02*
X231471D01*
X233284Y154717D02*
Y155342D01*
X229553Y157155D02*
X231471D01*
X228824Y157884D02*
Y158509D01*
X229553Y159239D02*
X231471D01*
X233284Y161051D02*
Y161676D01*
X230553Y163489D02*
X231471D01*
X229824Y164218D02*
Y184055D01*
X228740Y128110D02*
Y128150D01*
Y184055D02*
Y184646D01*
X229824Y128110D02*
Y128150D01*
Y184055D02*
Y184646D01*
X220022Y177953D02*
X220022D01*
X218898D02*
X220022D01*
X236772Y110236D02*
X251930D01*
X224118Y185555D02*
X227831D01*
X216872Y187402D02*
X216872D01*
X215748D02*
X216872D01*
X239824Y117027D02*
X251559D01*
X218898Y187402D02*
X220018D01*
X220581Y186974D02*
X220581Y186974D01*
X239824Y118110D02*
X251733D01*
X223670Y186639D02*
X227831D01*
X223914Y196641D02*
X223914Y196641D01*
X221415Y195767D02*
X221415D01*
X218470D02*
X221415D01*
X220876Y196850D02*
X220876D01*
X217774D02*
X220876D01*
X209449D02*
X210560D01*
X210560D01*
X213911Y199352D02*
X213913Y199349D01*
X214028Y199221D02*
X214028Y199222D01*
X212598Y200000D02*
X212598Y200000D01*
X217255Y200611D02*
X217257Y200608D01*
X210573Y200000D02*
X210573D01*
X209449D02*
X210573D01*
M02*
