M48
;Layer_Color=9474304
;FILE_FORMAT=2:5
INCH,LZ
;TYPE=PLATED
T1F00S00C0.00787
T2F00S00C0.00984
T3F00S00C0.01575
T5F00S00C0.03543
T6F00S00C0.03937
T7F00S00C0.04331
T8F00S00C0.05906
T9F00S00C0.06299
%
T01
X0014717Y0035246
X0035217
X0048883
X0245516Y0096063
X0247638Y0096144
X02572Y00978
X02646Y0098505
X02738Y0097908
X0277Y0097882
X0278346Y0099606
X0279134Y0106775
X0283465
Y0111106
X0279134
X0274803
X0270472
X0266142
Y0106775
X0270472
X0274803
Y0115436
X0270472
X0266142
Y0119767
Y0124098
X0270472
Y0119767
X0274803
Y0124098
X0279134
Y0119767
X0283465
Y0124098
X0283648Y0131228
X0284347Y0134646
X0282283Y0136221
X0279528Y0135827
X027687Y0135309
X0276772Y013937
X0280315Y0144882
X0277Y015048
X02738Y0150505
X02646Y0151103
X02578Y01506
X0248327Y01474
Y0145278
X02635Y0132205
X0254429Y0122479
Y0120358
X0252165Y0118542
Y011642
X0254331Y0114605
Y0112484
X0252362Y0110668
Y0108546
X0254331Y0106731
Y010461
X0279134Y0115436
X0283465
X0290945Y0114567
X0290985Y0120358
X0292159Y0123726
X02946Y0124803
X03006
X03015Y01203
X030666Y0118272
X03067Y0124409
X030578Y0142307
X0306693Y0153276
Y0100676
X0290551Y0094882
X03128Y0124409
Y0176397
X03145Y022974
X03084
X03023Y0230134
X03015Y02254
X030666Y0223572
X02963Y0230134
X0291339Y0231496
X0290937Y0225552
X0291339Y0219685
X0283465Y0220631
X0279134
X0274803
X0270472
X0266142
Y02163
Y021197
X0270472
Y02163
X0274803
Y021197
X0279134
X0283465
Y02163
X0279134
Y0224962
Y0229292
X0283465
Y0224962
X0274803
Y0229292
X0270472
Y0224962
X0266142
Y0229292
X02635Y02374
X0275794Y0238234
X0277444Y0242207
X0279914Y0240386
X0284207Y0238773
X0283661Y0236417
X0286213Y0240386
X02764Y02547
X0277559Y0257087
X02738Y02557
X0274803Y0264567
X0279134
X0283465
Y0268898
X0279134
Y0273228
X0283465
Y0277559
Y028189
X0279134
Y0277559
X0274803
Y028189
X0270472
Y0277559
Y0273228
X0274803
Y0268898
X0270472
Y0264567
X0266142
Y0268898
Y0273228
Y0277559
Y028189
X0265278Y0289702
X026063Y0296063
X0274016Y0306103
X0279921
X0285827
X0284646Y0312205
X0277559
X0295669Y0311811
X0299606
X0303543
X03015Y02782
X0306693Y0276378
X0291365Y02782
X0291732Y0283858
Y0272441
X0283858Y0289764
X0251279Y0272321
Y0270199
X0251181Y0264447
Y0262325
X02575Y02556
X0264Y02562
X0254429Y0227597
Y0225476
X0252165Y022366
Y0221539
X0254331Y0219723
Y0217602
X0252362Y0215786
Y0213665
X0254331Y0211849
Y0209728
X02578Y0203
X02524Y0201149
Y0199028
X02646Y02037
X02738Y0203103
X0276772Y0202362
X0277953Y0204724
X0277744Y0193307
X0279921Y0187795
X0284214Y0186182
X0283648Y0183825
X0286221Y0187795
X0288583Y0181102
X0290945Y0175984
X0290941Y0172955
X02946Y0176791
X03006
X03015Y01731
X030666Y0170872
X03067Y0176397
X030748Y0193326
X0306693Y0205976
X0307874Y0247244
X0306693Y0258268
X029685Y016811
X0283465Y0168034
X0279134
X0274803
X0270472
X0266142
Y0163703
Y0159372
X0270472
Y0163703
X0274803
Y0159372
X0279134
X0283465
Y0163703
X0279134
Y0172364
Y0176695
X0283465
Y0172364
X0274803
Y0176695
X0270472
Y0172364
X0266142
Y0176695
X02635Y0184803
X0275801Y0185644
X0254501Y0174999
Y0172877
X0252237Y0171062
Y016894
X0254402Y0167125
Y0165003
X0252434Y0163188
Y0161066
X0254402Y0159251
Y0157129
X0216804Y0156761
X0222047Y0171653
Y0174803
X0218898
X0218898Y0177953
X0215748
Y0181102
Y0184252
Y0187402
X0218898
X0222047
Y0190551
X0218898
Y0193701
X0223228Y0195276
X0215748Y019685
X0212598
Y0193701
X0209449
Y019685
Y02
X0212598
X0215748
Y020315
X0212598
X0209449
X0215748Y0206299
Y0209449
X0212598
Y0212598
X0215748
Y0215748
X0212598Y0215748
X0209449
X0206299Y0215748
X020315
Y0212598
X0206299
Y0209449
X020315
Y0206299
X02
X019685
X0193701
X019685Y020315
X0190551Y020315
X01906Y0200138
X0190551Y019685
Y0193701
X0193701
X019685
Y0190551
X0190551
X0184252
Y0187402
X0181102
X0177953
Y0184252
Y0181102
Y0177953
X0174803
Y0181102
Y0184252
Y0187402
Y0190551
X0177953
X0181102
Y0193701
X0177953
Y019685
X0181102
Y02
X0177953
Y020315
X0181102
X0184252
Y02
X0187402
X0184252Y0193701
X0174803
Y019685
X0171653
Y0193701
Y02
Y020315
X0174803
Y0206299
X0181102
Y0209449
X0181102Y0212598
X0177953Y0212598
X0174803
X0174803Y0215748
X0171653Y0215748
Y0212598
X0171653Y0218898
X0171653Y0222047
X0174803Y0218898
X0177953Y0215748
X0181102Y0215748
X0184252Y0222047
X0190551
Y0209449
X01843Y0209401
X0184252Y0206299
X0174803Y02
X0171653Y0187402
Y0184252
Y0181102
Y0177953
Y0174803
X0174803
X0171653Y0171653
X01601Y0165562
X0157504Y0156861
X0162704
X015748Y019685
X0158268Y02
X020315
Y019685
Y0193701
Y0190551
Y0184252
Y0181102
Y0177953
Y0174803
X0206299
Y0177953
X019685
X0193701
X0193701Y0174803
X0193701Y0181102
X019685
X02
Y0184252
X019685
X0193701
X02Y019685
X0206299Y0218898
X0204196Y0225361
X0204204Y0238039
X0222047Y0222047
X0218898Y0215748
Y0212598
Y0184252
X0222047Y0181102
Y0177953
X0184409Y0277563
X0160393
X0151969Y0204331
X0148819
X0145669
Y020748
X014252Y0204331
X013937
X0136221
X0133071
X0133071Y0201181
Y0198031
X0136221
X013937
X0136221Y0201181
X0129921Y0201181
Y0198031
X0126772Y0198031
Y0201181
X0123622
X0123622Y0204331
X0126772Y0204331
X0123622Y020748
X0120472
Y0204331
X0117323Y0201181
Y0198031
X0120472
X0123622
X0114173
X0111024
X0107874
X0101575
Y0204331
Y020748
X0104724
X0107874
X0107874Y0204331
X0111024Y0204331
X0114173
X0104724Y0201181
X0103937Y0192913
X0104724Y0188583
X0107874
X0111024
X0114173
X0116929Y0191732
X0120472Y0188583
X0123622
Y0185433
Y0182283
X0126772Y0185433
X0126772Y0188583
X0129921Y0185433
X0133071
X0136221
X013937Y0182283
X014252Y0185433
X0145669
Y0188583
X014252
X0145669Y0201181
X0154331Y02
X014252Y0166142
X0134252
X013Y01726
X0111024Y0185433
X0107874
X0104724
X0099896Y0182283
X0089268Y0309347
X0078347Y0309449
X0072441Y0311811
X0092126Y0317717
X0109449Y0335827
X0111662Y0349645
X0123228Y0349606
X0143061Y0354503
X0155739Y0354396
X0145961Y0375513
X0110331Y0376674
Y0370769
X0088583Y0375984
X0084323Y0379774
X0080004Y0388339
X0088704
X0036658Y0371693
X0050394Y0353543
Y034252
Y0337795
X005Y0331496
X0037988Y0324763
X0204111Y0344711
X0222377Y0342977
X0273622Y0324803
X0281102
X0288189
X0295669
X0299606Y0314961
X0306176Y0320559
X0284646Y0315354
X0277559
X0313392Y0315441
X0316929Y0324803
T02
X00113Y0008268
X0018133
X0024967
X00318
X0038633
X0045467
X00523
X0069661Y0008261
X0117161
X0141339Y0022047
Y0026247
X0145539
Y0022047
X0136356Y0068107
Y0076507
Y0084907
X0127956
Y0093307
X0119556
X0111156
Y0101707
Y0110107
Y0118507
X0102756
Y0110107
Y0101707
X0094356
X0085956
Y0110107
X0094356
Y0118507
X0085956
Y0093307
X0094356
Y0084907
X0085956
Y0076507
X0094356
X0102756
Y0068107
X0111156
Y0076507
Y0084907
X0102756
Y0093307
X0119556Y0101707
X0127956
Y0110107
X0136356
Y0118507
X0127956
X0119556
Y0110107
X0136356Y0101707
Y0093307
X0119556Y0084907
Y0076507
Y0068107
X0127956
Y0076507
X0094356Y0068107
X0085956
X0044501Y0069539
X0040301
Y0073739
X0044501
X0044532Y0116132
X0040332
Y0120332
X0044532
X0188976Y0119948
Y0115748
X0193176
Y0119948
Y0124148
X0188976
Y0128348
X0193176
X0196063Y0137992
X0186614Y0137992
X0187402Y0152756
X0212205Y0127953
X0216405
Y0123753
Y0119553
Y0115353
X0212205
Y0119553
Y0123753
X0213779Y0064436
Y0060236
X021798
Y0064436
X0222441Y0046063
X0198819Y0046457
X0195539Y0059842
X0191339
Y0064043
X0195539
X0195276Y0015017
X0199213Y0014961
X0203543
X0207874
X0212205
X0216142Y0015354
X0220866Y0015748
X0225661Y0015677
X0235039Y0015748
X0190924Y0016567
X0311548Y0105118
X0311811Y0113779
X0316011
X0315748Y0105118
X038189Y0109055
X038609
Y0116142
X038189
Y0129685
X038609
Y0136772
X038189
Y0146587
Y0150787
X038609
Y0146587
X035748Y0142126
X035328
X035748Y0153543
X038189Y0087559
X038609
Y0080472
X038189
Y0066929
X038609
Y0059842
X038189
Y0052362
X038609
Y0048162
X038189
Y0038346
X038609
Y003126
X038189
Y0017717
X038609
Y001063
X038189
X0347507Y0014436
X0339107
Y0006036
X0330707
Y0014436
Y0022836
Y0031236
X0322307
Y0022836
Y0014436
Y0006036
X0347507
Y0022836
Y0031236
X0339107
Y0022836
X035328Y0043701
X035748
Y0055118
X035328
X038189Y0158268
X038609
Y0165354
X038189
Y0178898
X038609
Y0185984
X038189
Y020748
X038609
Y0214567
X038189
Y022811
X038609
Y0235197
X038189
Y0245013
Y0249213
X038609
Y0245013
Y0256693
X038189
Y0263779
X038609
Y0277323
X038189
Y0284409
X038609
Y0305906
X038189
X0332283Y0288058
Y0283858
X0324803
Y0288058
X0316011Y0271372
Y0263386
X035328Y0251969
X035748
Y0240551
X035328
X0315748Y0157718
X0311548
X0311811Y0166379
Y0263386
Y0271372
X0298688Y027126
X0294488
Y0263779
X0298688
X023937Y03
X023097
Y03084
X023937
X022257
X021417
Y03
X022257
X0185557Y0283858
X01615Y02839
X0128347Y0272838
X0119947
X0111547
X0103147
Y0264438
X0111547
X0119947
Y0256038
Y0247638
X0128347
Y0256038
Y0264438
X0111547Y0256038
X0103147
Y0247638
X0111547
X01095Y02223
X01175
X01011
X0101Y0170886
X0097638Y0169488
X0104724Y0169291
X0104454Y0158746
X01083Y01564
X0118168Y0160653
X0124803Y016063
X01334Y0161
X0142585Y0161638
X01504Y0166
X0044139Y0166684
X0039939
Y0162484
X0044139
Y0209046
X0039939
Y0213246
X0044139
X00445Y02555
Y02597
X00403
Y02555
X0068484Y0311191
X0066584Y0313591
X0064684Y0315691
Y0331691
X0070453Y0355286
X0068553Y0357686
X0066653Y0359786
X0057374Y0366165
X00593Y0374721
X0052731Y03737
X00441Y03893
X0037306Y0389152
X0015Y03874
X00108
X00066
Y03832
X00108
Y0379
X00066
X0015
Y03832
X0020866Y0375984
Y0351969
X0020472Y0349213
X0015354Y034895
Y035315
Y035735
X0011154
Y035315
Y034895
X0006954
Y035315
Y035735
X0031496Y0354724
X0034819Y0352542
X0035016Y0357661
Y0362385
X0033071Y0347779
X0019685Y0336221
X0014961
X00646Y03876
X0094Y03879
X01082Y0362754
X01338Y03654
Y03704
Y03754
X0159449Y0316142
X0183465
X021417Y03168
Y03252
X022257
Y03168
X023097
Y03252
X023937
Y03168
X0307084Y0358661
Y0367061
Y0375461
Y0383861
X0315483
Y0375461
X0323884
Y0367061
Y0358661
X0332283
Y0367061
Y0375461
Y0383861
X0323884
X0315483Y0367061
Y0358661
X0324603Y0332096
Y0327896
X0332084
Y0332096
X035328Y0338976
X035748
Y0350394
X035328
X038189Y0347638
Y0343438
X038609
Y0347638
Y0355118
X038189
Y0362205
X038609
Y0375748
X038189
Y0382835
X038609
Y0333622
X038189
Y0326535
X038609
Y0312992
X038189
T03
X0026952Y0074213
Y0120774
X0010379Y0104685
Y0151142
X0026558Y0167126
X0026653Y0213593
X0009985Y0197598
Y0244055
X002692Y0260142
X0010379Y0290512
T05
X01646Y00105
X01746
Y00205
X01646
Y00305
X01746
Y00405
Y00505
Y00605
X01646
Y00505
Y00405
Y00705
X01746
Y00805
Y00905
X01646
Y00805
X0255Y0049394
Y0039394
Y0029394
Y0019394
Y0009394
X02675
Y0019394
Y0029394
Y0039394
Y0049394
X028
Y0039394
Y0029394
Y0019394
Y0009394
X02925
Y0019394
Y0029394
Y0039394
Y0049394
T06
X0044488Y0102756
Y0149213
X03163Y01502
X03263
Y01002
X03163
Y02013
X03263
Y02582
X03163
X004419Y0242222
X0044094Y0195669
X0044488Y0288583
X0011417Y0298819
T07
X0181181Y0366929
X0191181
Y0376929
X0181181
X0201181
Y0366929
X0211181
Y0376929
X0221181
Y0366929
T08
X02825Y03725
T09
X02725Y03625
Y03825
X02925
Y03625
M30
