G04*
G04 #@! TF.GenerationSoftware,Altium Limited,Altium Designer,21.2.1 (34)*
G04*
G04 Layer_Color=8388736*
%FSLAX25Y25*%
%MOIN*%
G70*
G04*
G04 #@! TF.SameCoordinates,0D780EAB-B6EC-48A9-9064-61573679FFEB*
G04*
G04*
G04 #@! TF.FilePolarity,Negative*
G04*
G01*
G75*
%ADD44R,0.17953X0.03937*%
%ADD45R,0.17953X0.03347*%
%ADD51R,0.03950X0.04737*%
%ADD52R,0.04737X0.05131*%
%ADD53R,0.03556X0.01981*%
%ADD54R,0.03556X0.04737*%
%ADD55R,0.04343X0.03950*%
%ADD56R,0.03950X0.03162*%
%ADD57R,0.03950X0.04343*%
%ADD58R,0.04501X0.04816*%
%ADD59R,0.03162X0.03950*%
%ADD60O,0.01981X0.09068*%
%ADD61O,0.09068X0.01981*%
%ADD62R,0.05131X0.04737*%
%ADD63R,0.06706X0.03162*%
%ADD64R,0.06312X0.05524*%
%ADD65R,0.04737X0.07493*%
%ADD66R,0.02769X0.02572*%
%ADD67R,0.22847X0.22847*%
%ADD68R,0.03162X0.01745*%
%ADD69R,0.01745X0.03162*%
G04:AMPARAMS|DCode=70|XSize=82.8mil|YSize=61.15mil|CornerRadius=17.29mil|HoleSize=0mil|Usage=FLASHONLY|Rotation=0.000|XOffset=0mil|YOffset=0mil|HoleType=Round|Shape=RoundedRectangle|*
%AMROUNDEDRECTD70*
21,1,0.08280,0.02657,0,0,0.0*
21,1,0.04823,0.06115,0,0,0.0*
1,1,0.03458,0.02411,-0.01329*
1,1,0.03458,-0.02411,-0.01329*
1,1,0.03458,-0.02411,0.01329*
1,1,0.03458,0.02411,0.01329*
%
%ADD70ROUNDEDRECTD70*%
G04:AMPARAMS|DCode=71|XSize=41.47mil|YSize=51.31mil|CornerRadius=12.37mil|HoleSize=0mil|Usage=FLASHONLY|Rotation=0.000|XOffset=0mil|YOffset=0mil|HoleType=Round|Shape=RoundedRectangle|*
%AMROUNDEDRECTD71*
21,1,0.04147,0.02657,0,0,0.0*
21,1,0.01673,0.05131,0,0,0.0*
1,1,0.02473,0.00837,-0.01329*
1,1,0.02473,-0.00837,-0.01329*
1,1,0.02473,-0.00837,0.01329*
1,1,0.02473,0.00837,0.01329*
%
%ADD71ROUNDEDRECTD71*%
G04:AMPARAMS|DCode=72|XSize=37.53mil|YSize=51.31mil|CornerRadius=11.38mil|HoleSize=0mil|Usage=FLASHONLY|Rotation=0.000|XOffset=0mil|YOffset=0mil|HoleType=Round|Shape=RoundedRectangle|*
%AMROUNDEDRECTD72*
21,1,0.03753,0.02854,0,0,0.0*
21,1,0.01476,0.05131,0,0,0.0*
1,1,0.02276,0.00738,-0.01427*
1,1,0.02276,-0.00738,-0.01427*
1,1,0.02276,-0.00738,0.01427*
1,1,0.02276,0.00738,0.01427*
%
%ADD72ROUNDEDRECTD72*%
G04:AMPARAMS|DCode=73|XSize=69.02mil|YSize=61.15mil|CornerRadius=17.29mil|HoleSize=0mil|Usage=FLASHONLY|Rotation=0.000|XOffset=0mil|YOffset=0mil|HoleType=Round|Shape=RoundedRectangle|*
%AMROUNDEDRECTD73*
21,1,0.06902,0.02657,0,0,0.0*
21,1,0.03445,0.06115,0,0,0.0*
1,1,0.03458,0.01722,-0.01329*
1,1,0.03458,-0.01722,-0.01329*
1,1,0.03458,-0.01722,0.01329*
1,1,0.03458,0.01722,0.01329*
%
%ADD73ROUNDEDRECTD73*%
G04:AMPARAMS|DCode=74|XSize=54.06mil|YSize=78.87mil|CornerRadius=15.52mil|HoleSize=0mil|Usage=FLASHONLY|Rotation=0.000|XOffset=0mil|YOffset=0mil|HoleType=Round|Shape=RoundedRectangle|*
%AMROUNDEDRECTD74*
21,1,0.05406,0.04783,0,0,0.0*
21,1,0.02303,0.07887,0,0,0.0*
1,1,0.03103,0.01152,-0.02392*
1,1,0.03103,-0.01152,-0.02392*
1,1,0.03103,-0.01152,0.02392*
1,1,0.03103,0.01152,0.02392*
%
%ADD74ROUNDEDRECTD74*%
G04:AMPARAMS|DCode=75|XSize=55.24mil|YSize=47.37mil|CornerRadius=13.84mil|HoleSize=0mil|Usage=FLASHONLY|Rotation=0.000|XOffset=0mil|YOffset=0mil|HoleType=Round|Shape=RoundedRectangle|*
%AMROUNDEDRECTD75*
21,1,0.05524,0.01968,0,0,0.0*
21,1,0.02756,0.04737,0,0,0.0*
1,1,0.02769,0.01378,-0.00984*
1,1,0.02769,-0.01378,-0.00984*
1,1,0.02769,-0.01378,0.00984*
1,1,0.02769,0.01378,0.00984*
%
%ADD75ROUNDEDRECTD75*%
%ADD76R,0.04816X0.04501*%
%ADD77R,0.04528X0.02953*%
%ADD78R,0.04343X0.09068*%
%ADD79C,0.02414*%
%ADD80C,0.02375*%
%ADD81O,0.09461X0.05131*%
%ADD82O,0.11036X0.05918*%
%ADD83C,0.06706*%
%ADD84R,0.06706X0.06706*%
%ADD85C,0.11824*%
%ADD86C,0.10642*%
G04:AMPARAMS|DCode=87|XSize=78.87mil|YSize=78.87mil|CornerRadius=12.86mil|HoleSize=0mil|Usage=FLASHONLY|Rotation=0.000|XOffset=0mil|YOffset=0mil|HoleType=Round|Shape=RoundedRectangle|*
%AMROUNDEDRECTD87*
21,1,0.07887,0.05315,0,0,0.0*
21,1,0.05315,0.07887,0,0,0.0*
1,1,0.02572,0.02657,-0.02657*
1,1,0.02572,-0.02657,-0.02657*
1,1,0.02572,-0.02657,0.02657*
1,1,0.02572,0.02657,0.02657*
%
%ADD87ROUNDEDRECTD87*%
%ADD88C,0.07887*%
%ADD89C,0.07099*%
%ADD90R,0.07099X0.07099*%
%ADD91C,0.02769*%
D44*
X384724Y309567D02*
D03*
Y330197D02*
D03*
Y358780D02*
D03*
Y379410D02*
D03*
Y211142D02*
D03*
Y231772D02*
D03*
Y260354D02*
D03*
Y280984D02*
D03*
Y112716D02*
D03*
Y133346D02*
D03*
Y161929D02*
D03*
Y182559D02*
D03*
Y14291D02*
D03*
Y34921D02*
D03*
Y63504D02*
D03*
Y84134D02*
D03*
D45*
Y319882D02*
D03*
Y369094D02*
D03*
Y221457D02*
D03*
Y270669D02*
D03*
Y123031D02*
D03*
Y172244D02*
D03*
Y24606D02*
D03*
Y73819D02*
D03*
D51*
X196063Y141732D02*
D03*
Y148031D02*
D03*
X186614D02*
D03*
Y141732D02*
D03*
X191339Y148031D02*
D03*
Y141732D02*
D03*
D52*
X20866Y379724D02*
D03*
Y386417D02*
D03*
X27953Y379724D02*
D03*
Y386417D02*
D03*
X11300Y28554D02*
D03*
Y35246D02*
D03*
X18133Y28554D02*
D03*
Y35246D02*
D03*
X24967Y28554D02*
D03*
Y35246D02*
D03*
X31800Y28554D02*
D03*
Y35246D02*
D03*
X38633Y28554D02*
D03*
Y35246D02*
D03*
X45467Y28554D02*
D03*
Y35246D02*
D03*
X52300Y28554D02*
D03*
Y35246D02*
D03*
X69661Y28701D02*
D03*
Y35394D02*
D03*
X76447Y28701D02*
D03*
Y35394D02*
D03*
X83233Y28701D02*
D03*
Y35394D02*
D03*
X90018Y28701D02*
D03*
Y35394D02*
D03*
X96804Y28701D02*
D03*
Y35394D02*
D03*
X103590Y28701D02*
D03*
Y35394D02*
D03*
X110376Y28701D02*
D03*
Y35394D02*
D03*
X117161Y28701D02*
D03*
Y35394D02*
D03*
X115085Y167347D02*
D03*
Y160653D02*
D03*
X128209Y160653D02*
D03*
Y167347D02*
D03*
X121647Y160653D02*
D03*
Y167347D02*
D03*
X108524Y167347D02*
D03*
Y160653D02*
D03*
X52300Y21246D02*
D03*
Y14554D02*
D03*
X45467Y21246D02*
D03*
Y14554D02*
D03*
X38633Y21246D02*
D03*
Y14554D02*
D03*
X31800Y21246D02*
D03*
Y14554D02*
D03*
X24967Y21246D02*
D03*
Y14554D02*
D03*
X18133Y21246D02*
D03*
Y14554D02*
D03*
X11300Y21246D02*
D03*
Y14554D02*
D03*
X117161Y21240D02*
D03*
Y14547D02*
D03*
X110376Y21240D02*
D03*
Y14547D02*
D03*
X103590Y21240D02*
D03*
Y14547D02*
D03*
X96804Y21240D02*
D03*
Y14547D02*
D03*
X90018Y21240D02*
D03*
Y14547D02*
D03*
X83233Y21240D02*
D03*
Y14547D02*
D03*
X76447Y21240D02*
D03*
Y14547D02*
D03*
X69661Y21240D02*
D03*
Y14547D02*
D03*
X274016Y296260D02*
D03*
Y302953D02*
D03*
X279921Y296260D02*
D03*
Y302953D02*
D03*
X285827Y296260D02*
D03*
Y302953D02*
D03*
X268100Y302946D02*
D03*
Y296253D02*
D03*
D53*
X28842Y364961D02*
D03*
Y362992D02*
D03*
Y361024D02*
D03*
Y359055D02*
D03*
Y357087D02*
D03*
Y355118D02*
D03*
Y351181D02*
D03*
Y349213D02*
D03*
Y347244D02*
D03*
Y345276D02*
D03*
Y343307D02*
D03*
Y341339D02*
D03*
X23724Y344291D02*
D03*
Y346260D02*
D03*
Y348228D02*
D03*
Y350197D02*
D03*
Y352165D02*
D03*
Y354134D02*
D03*
Y356102D02*
D03*
Y358071D02*
D03*
Y360039D02*
D03*
Y362008D02*
D03*
D54*
Y340945D02*
D03*
Y365354D02*
D03*
D55*
X288332Y315638D02*
D03*
Y320362D02*
D03*
X281116Y315638D02*
D03*
Y320362D02*
D03*
X273900Y315638D02*
D03*
Y320362D02*
D03*
X75700Y314462D02*
D03*
Y309738D02*
D03*
X92216Y314462D02*
D03*
Y309738D02*
D03*
X204200Y234062D02*
D03*
Y229338D02*
D03*
X162700Y165562D02*
D03*
Y160838D02*
D03*
X157500Y165562D02*
D03*
Y160838D02*
D03*
X165378Y188662D02*
D03*
Y183938D02*
D03*
Y192538D02*
D03*
Y197262D02*
D03*
X64657Y379638D02*
D03*
Y384362D02*
D03*
X94185Y379638D02*
D03*
Y384362D02*
D03*
X37306Y379574D02*
D03*
Y384298D02*
D03*
X59300Y384298D02*
D03*
Y379574D02*
D03*
X146457Y166362D02*
D03*
Y161638D02*
D03*
X138714Y166362D02*
D03*
Y161638D02*
D03*
X101000Y166362D02*
D03*
Y161638D02*
D03*
X146457Y217638D02*
D03*
Y222362D02*
D03*
X112992Y217638D02*
D03*
Y222362D02*
D03*
X105905Y217638D02*
D03*
Y222362D02*
D03*
X128600Y217638D02*
D03*
Y222362D02*
D03*
X88700Y384362D02*
D03*
Y379638D02*
D03*
X80000Y384362D02*
D03*
Y379638D02*
D03*
X44177Y182109D02*
D03*
Y186833D02*
D03*
X38986Y182175D02*
D03*
Y186899D02*
D03*
X12992Y181496D02*
D03*
Y186221D02*
D03*
X44475Y89284D02*
D03*
Y94008D02*
D03*
X44488Y135827D02*
D03*
Y140551D02*
D03*
X43701Y229134D02*
D03*
Y233858D02*
D03*
X44094Y275591D02*
D03*
Y280315D02*
D03*
X13386Y279134D02*
D03*
Y274410D02*
D03*
X38976Y275591D02*
D03*
Y280315D02*
D03*
X38554Y229130D02*
D03*
Y233855D02*
D03*
X12992Y227953D02*
D03*
Y232677D02*
D03*
X39370Y135827D02*
D03*
Y140551D02*
D03*
X13386Y135039D02*
D03*
Y139764D02*
D03*
X39370Y89265D02*
D03*
Y93990D02*
D03*
X13315Y88619D02*
D03*
Y93344D02*
D03*
D56*
X306693Y208141D02*
D03*
Y213259D02*
D03*
Y216241D02*
D03*
Y221359D02*
D03*
X302568Y320559D02*
D03*
Y315441D02*
D03*
X309784D02*
D03*
Y320559D02*
D03*
X317000D02*
D03*
Y315441D02*
D03*
X210611Y347159D02*
D03*
Y342041D02*
D03*
X306693Y260433D02*
D03*
Y265551D02*
D03*
Y269094D02*
D03*
Y274213D02*
D03*
X200567Y342041D02*
D03*
Y347159D02*
D03*
X191500Y342041D02*
D03*
Y347159D02*
D03*
X218700Y342041D02*
D03*
Y347159D02*
D03*
X306693Y107959D02*
D03*
Y102841D02*
D03*
Y116059D02*
D03*
Y110941D02*
D03*
Y160559D02*
D03*
Y155441D02*
D03*
Y168659D02*
D03*
Y163541D02*
D03*
D57*
X188976Y135433D02*
D03*
X193701D02*
D03*
X115292Y349500D02*
D03*
X120017D02*
D03*
X42520Y344094D02*
D03*
X37795D02*
D03*
X42520Y339370D02*
D03*
X37795D02*
D03*
X147038Y354400D02*
D03*
X151762D02*
D03*
X38189Y357480D02*
D03*
X42913D02*
D03*
X38189Y362205D02*
D03*
X42913D02*
D03*
X189370Y283858D02*
D03*
X194095D02*
D03*
X165354D02*
D03*
X170079D02*
D03*
X293838Y120300D02*
D03*
X298562D02*
D03*
X293838Y173100D02*
D03*
X298562D02*
D03*
X293838Y225400D02*
D03*
X298562D02*
D03*
X293838Y278200D02*
D03*
X298562D02*
D03*
X18763Y162282D02*
D03*
X23487D02*
D03*
X19063Y255318D02*
D03*
X23787D02*
D03*
X18701Y208864D02*
D03*
X23426D02*
D03*
X19079Y115958D02*
D03*
X23803D02*
D03*
X19078Y69519D02*
D03*
X23802D02*
D03*
D58*
X37441Y333858D02*
D03*
X43661D02*
D03*
X42874Y367717D02*
D03*
X36654D02*
D03*
D59*
X43110Y328740D02*
D03*
X37992D02*
D03*
X37992Y352362D02*
D03*
X43110D02*
D03*
X23425Y167323D02*
D03*
X18307D02*
D03*
X18307Y172047D02*
D03*
X23425D02*
D03*
X23425Y213779D02*
D03*
X18307D02*
D03*
X23819Y264961D02*
D03*
X18701D02*
D03*
X23819Y260236D02*
D03*
X18701D02*
D03*
X18307Y218504D02*
D03*
X23425D02*
D03*
X23819Y120866D02*
D03*
X18701D02*
D03*
X18701Y125591D02*
D03*
X23819D02*
D03*
X23819Y74410D02*
D03*
X18701D02*
D03*
X18701Y79134D02*
D03*
X23819D02*
D03*
D60*
X64657Y368595D02*
D03*
X66626D02*
D03*
X68594D02*
D03*
X70563D02*
D03*
X72531D02*
D03*
X74500D02*
D03*
X76468D02*
D03*
X78437D02*
D03*
X80405D02*
D03*
X82374D02*
D03*
X84342D02*
D03*
X86311D02*
D03*
X88279D02*
D03*
X90248D02*
D03*
X92216D02*
D03*
X94185D02*
D03*
Y324500D02*
D03*
X92216D02*
D03*
X90248D02*
D03*
X88279D02*
D03*
X86311D02*
D03*
X84342D02*
D03*
X82374D02*
D03*
X80405D02*
D03*
X78437D02*
D03*
X76468D02*
D03*
X74500D02*
D03*
X72531D02*
D03*
X70563D02*
D03*
X68594D02*
D03*
X66626D02*
D03*
X64657D02*
D03*
D61*
X101469Y361311D02*
D03*
Y359343D02*
D03*
Y357374D02*
D03*
Y355405D02*
D03*
Y353437D02*
D03*
Y351468D02*
D03*
Y349500D02*
D03*
Y347532D02*
D03*
Y345563D02*
D03*
Y343595D02*
D03*
Y341626D02*
D03*
Y339657D02*
D03*
Y337689D02*
D03*
Y335720D02*
D03*
Y333752D02*
D03*
Y331784D02*
D03*
X57374D02*
D03*
Y333752D02*
D03*
Y335720D02*
D03*
Y337689D02*
D03*
Y339657D02*
D03*
Y341626D02*
D03*
Y343595D02*
D03*
Y345563D02*
D03*
Y347532D02*
D03*
Y349500D02*
D03*
Y351468D02*
D03*
Y353437D02*
D03*
Y355405D02*
D03*
Y357374D02*
D03*
Y359343D02*
D03*
Y361311D02*
D03*
D62*
X114308Y358953D02*
D03*
X121001D02*
D03*
X114308Y370765D02*
D03*
X121001D02*
D03*
X114308Y364859D02*
D03*
X121001D02*
D03*
X114308Y376670D02*
D03*
X121001D02*
D03*
X171063Y277559D02*
D03*
X164370D02*
D03*
X188386D02*
D03*
X195079D02*
D03*
X294454Y103900D02*
D03*
X301147D02*
D03*
X294354Y156400D02*
D03*
X301046D02*
D03*
X294153Y209300D02*
D03*
X300847D02*
D03*
X294291Y259842D02*
D03*
X300984D02*
D03*
D63*
X128678Y375509D02*
D03*
Y370509D02*
D03*
Y365509D02*
D03*
Y360509D02*
D03*
X149938Y375509D02*
D03*
Y370509D02*
D03*
Y365509D02*
D03*
Y360509D02*
D03*
D64*
X52731Y378554D02*
D03*
X44069D02*
D03*
Y385246D02*
D03*
X52731D02*
D03*
D65*
X183465Y328543D02*
D03*
X198425D02*
D03*
Y303740D02*
D03*
X183465D02*
D03*
X159449Y328543D02*
D03*
X174409D02*
D03*
Y303740D02*
D03*
X159449D02*
D03*
D66*
X284147Y97358D02*
D03*
X281195D02*
D03*
X284139Y149629D02*
D03*
X281186D02*
D03*
X284176Y201900D02*
D03*
X281224D02*
D03*
X284055Y254724D02*
D03*
X281102D02*
D03*
X195177Y153543D02*
D03*
X192224D02*
D03*
D67*
X274803Y273228D02*
D03*
Y115436D02*
D03*
Y168034D02*
D03*
Y220631D02*
D03*
D68*
X261417Y262402D02*
D03*
Y264370D02*
D03*
Y266339D02*
D03*
Y268307D02*
D03*
Y270276D02*
D03*
Y272244D02*
D03*
Y274213D02*
D03*
Y276181D02*
D03*
Y278150D02*
D03*
Y280118D02*
D03*
Y282087D02*
D03*
Y284055D02*
D03*
X288189D02*
D03*
Y282087D02*
D03*
Y280118D02*
D03*
Y278150D02*
D03*
Y276181D02*
D03*
Y274213D02*
D03*
Y272244D02*
D03*
Y270276D02*
D03*
Y268307D02*
D03*
Y266339D02*
D03*
Y264370D02*
D03*
Y262402D02*
D03*
Y104609D02*
D03*
Y106578D02*
D03*
Y108546D02*
D03*
Y110515D02*
D03*
Y112483D02*
D03*
Y114452D02*
D03*
Y116420D02*
D03*
Y118389D02*
D03*
Y120358D02*
D03*
Y122326D02*
D03*
Y124294D02*
D03*
Y126263D02*
D03*
X261417D02*
D03*
Y124294D02*
D03*
Y122326D02*
D03*
Y120358D02*
D03*
Y118389D02*
D03*
Y116420D02*
D03*
Y114452D02*
D03*
Y112483D02*
D03*
Y110515D02*
D03*
Y108546D02*
D03*
Y106578D02*
D03*
Y104609D02*
D03*
X288189Y157207D02*
D03*
Y159175D02*
D03*
Y161144D02*
D03*
Y163112D02*
D03*
Y165081D02*
D03*
Y167049D02*
D03*
Y169018D02*
D03*
Y170986D02*
D03*
Y172955D02*
D03*
Y174923D02*
D03*
Y176892D02*
D03*
Y178860D02*
D03*
X261417D02*
D03*
Y176892D02*
D03*
Y174923D02*
D03*
Y172955D02*
D03*
Y170986D02*
D03*
Y169018D02*
D03*
Y167049D02*
D03*
Y165081D02*
D03*
Y163112D02*
D03*
Y161144D02*
D03*
Y159175D02*
D03*
Y157207D02*
D03*
X288189Y209804D02*
D03*
Y211773D02*
D03*
Y213741D02*
D03*
Y215710D02*
D03*
Y217678D02*
D03*
Y219647D02*
D03*
Y221615D02*
D03*
Y223584D02*
D03*
Y225552D02*
D03*
Y227521D02*
D03*
Y229489D02*
D03*
Y231458D02*
D03*
X261417D02*
D03*
Y229489D02*
D03*
Y227521D02*
D03*
Y225552D02*
D03*
Y223584D02*
D03*
Y221615D02*
D03*
Y219647D02*
D03*
Y217678D02*
D03*
Y215710D02*
D03*
Y213741D02*
D03*
Y211773D02*
D03*
Y209804D02*
D03*
D69*
X263976Y286614D02*
D03*
X265945D02*
D03*
X267913D02*
D03*
X269882D02*
D03*
X271850D02*
D03*
X273819D02*
D03*
X275787D02*
D03*
X277756D02*
D03*
X279724D02*
D03*
X281693D02*
D03*
X283661D02*
D03*
X285630D02*
D03*
Y259842D02*
D03*
X283661D02*
D03*
X281693D02*
D03*
X279724D02*
D03*
X277756D02*
D03*
X275787D02*
D03*
X273819D02*
D03*
X271850D02*
D03*
X269882D02*
D03*
X267913D02*
D03*
X265945D02*
D03*
X263976D02*
D03*
Y102050D02*
D03*
X265945D02*
D03*
X267913D02*
D03*
X269882D02*
D03*
X271850D02*
D03*
X273819D02*
D03*
X275787D02*
D03*
X277756D02*
D03*
X279724D02*
D03*
X281693D02*
D03*
X283661D02*
D03*
X285630D02*
D03*
Y128822D02*
D03*
X283661D02*
D03*
X281693D02*
D03*
X279724D02*
D03*
X277756D02*
D03*
X275787D02*
D03*
X273819D02*
D03*
X271850D02*
D03*
X269882D02*
D03*
X267913D02*
D03*
X265945D02*
D03*
X263976D02*
D03*
Y154648D02*
D03*
X265945D02*
D03*
X267913D02*
D03*
X269882D02*
D03*
X271850D02*
D03*
X273819D02*
D03*
X275787D02*
D03*
X277756D02*
D03*
X279724D02*
D03*
X281693D02*
D03*
X283661D02*
D03*
X285630D02*
D03*
Y181419D02*
D03*
X283661D02*
D03*
X281693D02*
D03*
X279724D02*
D03*
X277756D02*
D03*
X275787D02*
D03*
X273819D02*
D03*
X271850D02*
D03*
X269882D02*
D03*
X267913D02*
D03*
X265945D02*
D03*
X263976D02*
D03*
Y207245D02*
D03*
X265945D02*
D03*
X267913D02*
D03*
X269882D02*
D03*
X271850D02*
D03*
X273819D02*
D03*
X275787D02*
D03*
X277756D02*
D03*
X279724D02*
D03*
X281693D02*
D03*
X283661D02*
D03*
X285630D02*
D03*
Y234017D02*
D03*
X283661D02*
D03*
X281693D02*
D03*
X279724D02*
D03*
X277756D02*
D03*
X275787D02*
D03*
X273819D02*
D03*
X271850D02*
D03*
X269882D02*
D03*
X267913D02*
D03*
X265945D02*
D03*
X263976D02*
D03*
D70*
X222256Y51418D02*
D03*
X198752D02*
D03*
D71*
X225661Y8800D02*
D03*
X221331D02*
D03*
X217000D02*
D03*
X212669D02*
D03*
X208339D02*
D03*
X204008D02*
D03*
X199677D02*
D03*
D72*
X195543D02*
D03*
D73*
X235347Y9292D02*
D03*
D74*
X190779Y10178D02*
D03*
D75*
X236035Y33013D02*
D03*
Y47580D02*
D03*
D76*
X295785Y314890D02*
D03*
Y321110D02*
D03*
X13386Y290512D02*
D03*
X12992Y191378D02*
D03*
Y197598D02*
D03*
X13386Y284291D02*
D03*
X12992Y237835D02*
D03*
Y244055D02*
D03*
X13386Y144921D02*
D03*
Y151142D02*
D03*
Y98465D02*
D03*
Y104685D02*
D03*
D77*
X19390Y178150D02*
D03*
Y185630D02*
D03*
X30217D02*
D03*
Y181890D02*
D03*
Y178150D02*
D03*
X30610Y271063D02*
D03*
Y274803D02*
D03*
Y278543D02*
D03*
X19783D02*
D03*
Y271063D02*
D03*
X19390Y224606D02*
D03*
Y232087D02*
D03*
X30217D02*
D03*
Y228346D02*
D03*
Y224606D02*
D03*
X19783Y131693D02*
D03*
Y139173D02*
D03*
X30610D02*
D03*
Y135433D02*
D03*
Y131693D02*
D03*
X19783Y85131D02*
D03*
Y92612D02*
D03*
X30610D02*
D03*
Y88872D02*
D03*
Y85131D02*
D03*
D78*
X35236Y195669D02*
D03*
X28543D02*
D03*
X28937Y102756D02*
D03*
X35630D02*
D03*
X28937Y288583D02*
D03*
X35630D02*
D03*
X35236Y242126D02*
D03*
X28543D02*
D03*
X35630Y149213D02*
D03*
X28937D02*
D03*
D79*
X103150Y180709D02*
D03*
X106299D02*
D03*
X109449D02*
D03*
X112598D02*
D03*
X115748D02*
D03*
X118898D02*
D03*
X122047D02*
D03*
X125197D02*
D03*
X128347D02*
D03*
X131496D02*
D03*
X134646D02*
D03*
X137795D02*
D03*
X140945D02*
D03*
X144095D02*
D03*
X147244D02*
D03*
X150394D02*
D03*
X103150Y183858D02*
D03*
X106299D02*
D03*
X109449D02*
D03*
X112598D02*
D03*
X115748D02*
D03*
X118898D02*
D03*
X122047D02*
D03*
X125197D02*
D03*
X128347D02*
D03*
X131496D02*
D03*
X134646D02*
D03*
X137795D02*
D03*
X140945D02*
D03*
X144095D02*
D03*
X147244D02*
D03*
X150394D02*
D03*
X103150Y187008D02*
D03*
X106299D02*
D03*
X109449D02*
D03*
X112598D02*
D03*
X115748D02*
D03*
X118898D02*
D03*
X122047D02*
D03*
X125197D02*
D03*
X128347D02*
D03*
X131496D02*
D03*
X134646D02*
D03*
X137795D02*
D03*
X140945D02*
D03*
X144095D02*
D03*
X147244D02*
D03*
X150394D02*
D03*
X103150Y199606D02*
D03*
X106299D02*
D03*
X109449D02*
D03*
X112598D02*
D03*
X115748D02*
D03*
X118898D02*
D03*
X122047D02*
D03*
X125197D02*
D03*
X128347D02*
D03*
X131496D02*
D03*
X134646D02*
D03*
X137795D02*
D03*
X140945D02*
D03*
X144095D02*
D03*
X147244D02*
D03*
X150394D02*
D03*
X103150Y202756D02*
D03*
X106299D02*
D03*
X109449D02*
D03*
X112598D02*
D03*
X115748D02*
D03*
X118898D02*
D03*
X122047D02*
D03*
X125197D02*
D03*
X128347D02*
D03*
X131496D02*
D03*
X134646D02*
D03*
X137795D02*
D03*
X140945D02*
D03*
X144095D02*
D03*
X147244D02*
D03*
X150394D02*
D03*
X103150Y205906D02*
D03*
X106299D02*
D03*
X109449D02*
D03*
X112598D02*
D03*
X115748D02*
D03*
X118898D02*
D03*
X122047D02*
D03*
X125197D02*
D03*
X128347D02*
D03*
X131496D02*
D03*
X134646D02*
D03*
X137795D02*
D03*
X140945D02*
D03*
X144095D02*
D03*
X147244D02*
D03*
X150394D02*
D03*
D80*
X173228Y220472D02*
D03*
X176378D02*
D03*
X179527D02*
D03*
X182677D02*
D03*
X185827D02*
D03*
X188976D02*
D03*
X192126D02*
D03*
X195276D02*
D03*
X198425D02*
D03*
X201575D02*
D03*
X204724D02*
D03*
X207874D02*
D03*
X211024D02*
D03*
X214173D02*
D03*
X217323D02*
D03*
X220472D02*
D03*
X173228Y217323D02*
D03*
X176378D02*
D03*
X179527D02*
D03*
X182677D02*
D03*
X185827D02*
D03*
X188976D02*
D03*
X192126D02*
D03*
X195276D02*
D03*
X198425D02*
D03*
X201575D02*
D03*
X204724D02*
D03*
X207874D02*
D03*
X211024D02*
D03*
X214173D02*
D03*
X217323D02*
D03*
X220472D02*
D03*
X173228Y214173D02*
D03*
X176378D02*
D03*
X179527D02*
D03*
X182677D02*
D03*
X185827D02*
D03*
X188976D02*
D03*
X192126D02*
D03*
X195276D02*
D03*
X198425D02*
D03*
X201575D02*
D03*
X204724D02*
D03*
X207874D02*
D03*
X211024D02*
D03*
X214173D02*
D03*
X217323D02*
D03*
X220472D02*
D03*
X173228Y211024D02*
D03*
X176378D02*
D03*
X179527D02*
D03*
X182677D02*
D03*
X185827D02*
D03*
X188976D02*
D03*
X192126D02*
D03*
X195276D02*
D03*
X198425D02*
D03*
X201575D02*
D03*
X204724D02*
D03*
X207874D02*
D03*
X211024D02*
D03*
X214173D02*
D03*
X217323D02*
D03*
X220472D02*
D03*
X173228Y207874D02*
D03*
X176378Y207874D02*
D03*
X179527Y207874D02*
D03*
X182677D02*
D03*
X185827D02*
D03*
X188976D02*
D03*
X192126D02*
D03*
X195276D02*
D03*
X198425D02*
D03*
X201575D02*
D03*
X204724D02*
D03*
X207874D02*
D03*
X211024D02*
D03*
X214173Y207874D02*
D03*
X217323D02*
D03*
X220472Y207874D02*
D03*
X173228Y204724D02*
D03*
X176378D02*
D03*
X179527D02*
D03*
X182677D02*
D03*
X185827D02*
D03*
X188976D02*
D03*
X192126D02*
D03*
X195276D02*
D03*
X198425D02*
D03*
X201575D02*
D03*
X204724D02*
D03*
X207874D02*
D03*
X211024D02*
D03*
X214173Y204724D02*
D03*
X217323Y204724D02*
D03*
X220472D02*
D03*
X173228Y201575D02*
D03*
X176378D02*
D03*
X179527D02*
D03*
X182677D02*
D03*
X185827D02*
D03*
X188976D02*
D03*
X192126D02*
D03*
X195276D02*
D03*
X198425D02*
D03*
X201575D02*
D03*
X204724D02*
D03*
X207874D02*
D03*
X211024D02*
D03*
X214173D02*
D03*
X217323D02*
D03*
X220472D02*
D03*
X173228Y198425D02*
D03*
X176378D02*
D03*
X179527D02*
D03*
X182677D02*
D03*
X185827D02*
D03*
X188976D02*
D03*
X192126D02*
D03*
X195276D02*
D03*
X198425D02*
D03*
X201575D02*
D03*
X204724D02*
D03*
X207874D02*
D03*
X211024D02*
D03*
X214173D02*
D03*
X217323D02*
D03*
X220472D02*
D03*
X173228Y195276D02*
D03*
X176378D02*
D03*
X179527D02*
D03*
X182677D02*
D03*
X185827D02*
D03*
X188976D02*
D03*
X192126D02*
D03*
X195276D02*
D03*
X198425D02*
D03*
X201575D02*
D03*
X204724D02*
D03*
X207874D02*
D03*
X211024D02*
D03*
X214173D02*
D03*
X217323D02*
D03*
X220472D02*
D03*
X173228Y192126D02*
D03*
X176378D02*
D03*
X179527D02*
D03*
X182677D02*
D03*
X185827D02*
D03*
X188976D02*
D03*
X192126D02*
D03*
X195276D02*
D03*
X198425D02*
D03*
X201575D02*
D03*
X204724D02*
D03*
X207874D02*
D03*
X211024D02*
D03*
X214173D02*
D03*
X217323D02*
D03*
X220472D02*
D03*
X173228Y188976D02*
D03*
X176378D02*
D03*
X179527D02*
D03*
X182677D02*
D03*
X185827D02*
D03*
X188976D02*
D03*
X192126D02*
D03*
X195276D02*
D03*
X198425D02*
D03*
X201575D02*
D03*
X204724D02*
D03*
X207874D02*
D03*
X211024D02*
D03*
X214173D02*
D03*
X217323D02*
D03*
X220472D02*
D03*
X173228Y185827D02*
D03*
X176378Y185827D02*
D03*
X179527Y185827D02*
D03*
X182677D02*
D03*
X185827D02*
D03*
X188976D02*
D03*
X192126D02*
D03*
X195276D02*
D03*
X198425D02*
D03*
X201575D02*
D03*
X204724D02*
D03*
X207874D02*
D03*
X211024D02*
D03*
X214173Y185827D02*
D03*
X217323D02*
D03*
X220472Y185827D02*
D03*
X173228Y182677D02*
D03*
X176378D02*
D03*
X179527D02*
D03*
X182677D02*
D03*
X185827D02*
D03*
X188976D02*
D03*
X192126D02*
D03*
X195276D02*
D03*
X198425D02*
D03*
X201575D02*
D03*
X204724D02*
D03*
X207874D02*
D03*
X211024D02*
D03*
X214173D02*
D03*
X217323D02*
D03*
X220472D02*
D03*
X173228Y179527D02*
D03*
X176378D02*
D03*
X179527D02*
D03*
X182677D02*
D03*
X185827D02*
D03*
X188976D02*
D03*
X192126D02*
D03*
X195276D02*
D03*
X198425D02*
D03*
X201575D02*
D03*
X204724D02*
D03*
X207874D02*
D03*
X211024D02*
D03*
X214173D02*
D03*
X217323D02*
D03*
X220472D02*
D03*
X173228Y176378D02*
D03*
X176378D02*
D03*
X179527D02*
D03*
X182677D02*
D03*
X185827D02*
D03*
X188976D02*
D03*
X192126D02*
D03*
X195276D02*
D03*
X198425D02*
D03*
X201575D02*
D03*
X204724D02*
D03*
X207874D02*
D03*
X211024D02*
D03*
X214173D02*
D03*
X217323D02*
D03*
X220472D02*
D03*
X173228Y173228D02*
D03*
X176378D02*
D03*
X179527D02*
D03*
X182677D02*
D03*
X185827D02*
D03*
X188976D02*
D03*
X192126D02*
D03*
X195276D02*
D03*
X198425D02*
D03*
X201575D02*
D03*
X204724D02*
D03*
X207874D02*
D03*
X211024D02*
D03*
X214173D02*
D03*
X217323D02*
D03*
X220472D02*
D03*
D81*
X27228Y370158D02*
D03*
Y336142D02*
D03*
D82*
X6126Y370158D02*
D03*
Y336142D02*
D03*
D83*
X292500Y49394D02*
D03*
Y39394D02*
D03*
Y29394D02*
D03*
Y19394D02*
D03*
X255000Y49394D02*
D03*
Y39394D02*
D03*
Y29394D02*
D03*
Y19394D02*
D03*
X280000Y49394D02*
D03*
Y39394D02*
D03*
Y29394D02*
D03*
Y19394D02*
D03*
X267500Y49394D02*
D03*
Y39394D02*
D03*
Y29394D02*
D03*
Y19394D02*
D03*
X174600Y10500D02*
D03*
X164600Y20500D02*
D03*
X174600D02*
D03*
X164600Y30500D02*
D03*
X174600D02*
D03*
Y60500D02*
D03*
X164600D02*
D03*
X174600Y50500D02*
D03*
X164600D02*
D03*
X174600Y40500D02*
D03*
X164600D02*
D03*
Y70500D02*
D03*
X174600D02*
D03*
Y90500D02*
D03*
X164600D02*
D03*
Y80500D02*
D03*
X174600D02*
D03*
X44094Y195669D02*
D03*
X11417Y298819D02*
D03*
X44488Y102756D02*
D03*
Y149213D02*
D03*
X44190Y242222D02*
D03*
X44488Y288583D02*
D03*
D84*
X292500Y9394D02*
D03*
X255000D02*
D03*
X280000D02*
D03*
X267500D02*
D03*
X164600Y10500D02*
D03*
D85*
X292500Y382500D02*
D03*
X272500D02*
D03*
X292500Y362500D02*
D03*
X272500D02*
D03*
D86*
X282500Y372500D02*
D03*
D87*
X316300Y100200D02*
D03*
Y150200D02*
D03*
Y201300D02*
D03*
Y258200D02*
D03*
D88*
X326300Y100200D02*
D03*
Y150200D02*
D03*
Y201300D02*
D03*
Y258200D02*
D03*
D89*
X181181Y366929D02*
D03*
X191181D02*
D03*
X181181Y376929D02*
D03*
X191181D02*
D03*
X201181Y366929D02*
D03*
Y376929D02*
D03*
X211181Y366929D02*
D03*
Y376929D02*
D03*
X221181Y366929D02*
D03*
D90*
Y376929D02*
D03*
D91*
X283465Y281890D02*
D03*
Y277559D02*
D03*
Y273228D02*
D03*
Y268898D02*
D03*
Y264567D02*
D03*
X279134Y281890D02*
D03*
Y277559D02*
D03*
Y273228D02*
D03*
Y268898D02*
D03*
Y264567D02*
D03*
X274803Y281890D02*
D03*
Y277559D02*
D03*
Y273228D02*
D03*
Y268898D02*
D03*
Y264567D02*
D03*
X270472Y281890D02*
D03*
Y277559D02*
D03*
Y273228D02*
D03*
Y268898D02*
D03*
Y264567D02*
D03*
X266142Y281890D02*
D03*
Y277559D02*
D03*
Y273228D02*
D03*
Y268898D02*
D03*
Y264567D02*
D03*
Y106775D02*
D03*
Y111106D02*
D03*
Y115436D02*
D03*
Y119767D02*
D03*
Y124098D02*
D03*
X270472Y106775D02*
D03*
Y111106D02*
D03*
Y115436D02*
D03*
Y119767D02*
D03*
Y124098D02*
D03*
X274803Y106775D02*
D03*
Y111106D02*
D03*
Y115436D02*
D03*
Y119767D02*
D03*
Y124098D02*
D03*
X279134Y106775D02*
D03*
Y111106D02*
D03*
Y115436D02*
D03*
Y119767D02*
D03*
Y124098D02*
D03*
X283465Y106775D02*
D03*
Y111106D02*
D03*
Y115436D02*
D03*
Y119767D02*
D03*
Y124098D02*
D03*
X266142Y159372D02*
D03*
Y163703D02*
D03*
Y168034D02*
D03*
Y172364D02*
D03*
Y176695D02*
D03*
X270472Y159372D02*
D03*
Y163703D02*
D03*
Y168034D02*
D03*
Y172364D02*
D03*
Y176695D02*
D03*
X274803Y159372D02*
D03*
Y163703D02*
D03*
Y168034D02*
D03*
Y172364D02*
D03*
Y176695D02*
D03*
X279134Y159372D02*
D03*
Y163703D02*
D03*
Y168034D02*
D03*
Y172364D02*
D03*
Y176695D02*
D03*
X283465Y159372D02*
D03*
Y163703D02*
D03*
Y168034D02*
D03*
Y172364D02*
D03*
Y176695D02*
D03*
X266142Y211970D02*
D03*
Y216300D02*
D03*
Y220631D02*
D03*
Y224962D02*
D03*
Y229292D02*
D03*
X270472Y211970D02*
D03*
Y216300D02*
D03*
Y220631D02*
D03*
Y224962D02*
D03*
Y229292D02*
D03*
X274803Y211970D02*
D03*
Y216300D02*
D03*
Y220631D02*
D03*
Y224962D02*
D03*
Y229292D02*
D03*
X279134Y211970D02*
D03*
Y216300D02*
D03*
Y220631D02*
D03*
Y224962D02*
D03*
Y229292D02*
D03*
X283465Y211970D02*
D03*
Y216300D02*
D03*
Y220631D02*
D03*
Y224962D02*
D03*
Y229292D02*
D03*
M02*
