G04*
G04 #@! TF.GenerationSoftware,Altium Limited,Altium Designer,21.2.1 (34)*
G04*
G04 Layer_Color=16711935*
%FSLAX25Y25*%
%MOIN*%
G70*
G04*
G04 #@! TF.SameCoordinates,0D780EAB-B6EC-48A9-9064-61573679FFEB*
G04*
G04*
G04 #@! TF.FilePolarity,Negative*
G04*
G01*
G75*
%ADD44R,0.17953X0.03937*%
%ADD52R,0.04737X0.05131*%
%ADD55R,0.04343X0.03950*%
%ADD57R,0.03950X0.04343*%
%ADD62R,0.05131X0.04737*%
%ADD81O,0.09461X0.05131*%
%ADD82O,0.11036X0.05918*%
%ADD83C,0.06706*%
%ADD84R,0.06706X0.06706*%
%ADD85C,0.11824*%
%ADD86C,0.10642*%
G04:AMPARAMS|DCode=87|XSize=78.87mil|YSize=78.87mil|CornerRadius=12.86mil|HoleSize=0mil|Usage=FLASHONLY|Rotation=0.000|XOffset=0mil|YOffset=0mil|HoleType=Round|Shape=RoundedRectangle|*
%AMROUNDEDRECTD87*
21,1,0.07887,0.05315,0,0,0.0*
21,1,0.05315,0.07887,0,0,0.0*
1,1,0.02572,0.02657,-0.02657*
1,1,0.02572,-0.02657,-0.02657*
1,1,0.02572,-0.02657,0.02657*
1,1,0.02572,0.02657,0.02657*
%
%ADD87ROUNDEDRECTD87*%
%ADD88C,0.07887*%
%ADD89C,0.07099*%
%ADD90R,0.07099X0.07099*%
%ADD91C,0.02769*%
%ADD121C,0.05800*%
%ADD122R,0.05131X0.05131*%
G36*
X134911Y327088D02*
X135850D01*
Y327010D01*
X136241D01*
Y326932D01*
X136711D01*
Y326854D01*
X136946D01*
Y326776D01*
X137337D01*
Y326697D01*
X137572D01*
Y326619D01*
X137885D01*
Y326541D01*
X138120D01*
Y326462D01*
X138355D01*
Y326384D01*
X138590D01*
Y326306D01*
X138746D01*
Y326227D01*
X138981D01*
Y326149D01*
X139216D01*
Y326071D01*
X139372D01*
Y325993D01*
X139529D01*
Y325914D01*
X139685D01*
Y325836D01*
X139842D01*
Y325758D01*
X139999D01*
Y325680D01*
X140155D01*
Y325601D01*
X140312D01*
Y325523D01*
X140468D01*
Y325445D01*
X140625D01*
Y325366D01*
X140703D01*
Y325288D01*
X140860D01*
Y325210D01*
X141016D01*
Y325132D01*
X141094D01*
Y325053D01*
X141251D01*
Y324975D01*
X141329D01*
Y324897D01*
X141486D01*
Y324819D01*
X141564D01*
Y324740D01*
X141642D01*
Y324662D01*
X141799D01*
Y324584D01*
X141877D01*
Y324505D01*
X141955D01*
Y324427D01*
X142034D01*
Y324349D01*
X142112D01*
Y324271D01*
X142190D01*
Y324192D01*
X142269D01*
Y324114D01*
X142347D01*
Y324036D01*
X142425D01*
Y323958D01*
X142503D01*
Y323879D01*
X142582D01*
Y323801D01*
Y323723D01*
X142660D01*
Y323644D01*
X142738D01*
Y323566D01*
Y323488D01*
X142816D01*
Y323410D01*
Y323331D01*
X142895D01*
Y323253D01*
Y323175D01*
Y323096D01*
X142973D01*
Y323018D01*
Y322940D01*
Y322862D01*
Y322783D01*
Y322705D01*
Y322627D01*
Y322549D01*
Y322470D01*
Y322392D01*
Y322314D01*
Y322235D01*
Y322157D01*
X142895D01*
Y322079D01*
Y322001D01*
Y321922D01*
X142816D01*
Y321844D01*
Y321766D01*
Y321688D01*
Y321609D01*
X142738D01*
Y321531D01*
Y321453D01*
Y321375D01*
X142660D01*
Y321296D01*
Y321218D01*
X142582D01*
Y321140D01*
Y321061D01*
Y320983D01*
X142503D01*
Y320905D01*
Y320827D01*
X142425D01*
Y320748D01*
Y320670D01*
Y320592D01*
X142347D01*
Y320514D01*
Y320435D01*
X142269D01*
Y320357D01*
Y320279D01*
Y320200D01*
X142190D01*
Y320122D01*
Y320044D01*
Y319966D01*
X142112D01*
Y319887D01*
Y319809D01*
X142034D01*
Y319731D01*
Y319652D01*
Y319574D01*
X141955D01*
Y319496D01*
Y319418D01*
X141877D01*
Y319339D01*
Y319261D01*
X141799D01*
Y319183D01*
Y319105D01*
Y319026D01*
X141721D01*
Y318948D01*
Y318870D01*
X141642D01*
Y318792D01*
Y318713D01*
Y318635D01*
X141564D01*
Y318557D01*
Y318478D01*
X141486D01*
Y318400D01*
Y318322D01*
Y318244D01*
X141408D01*
Y318165D01*
Y318087D01*
X141329D01*
Y318009D01*
Y317930D01*
Y317852D01*
X141251D01*
Y317774D01*
Y317696D01*
X141173D01*
Y317617D01*
Y317539D01*
Y317461D01*
X141094D01*
Y317383D01*
Y317304D01*
X141016D01*
Y317226D01*
Y317148D01*
X140938D01*
Y317069D01*
Y316991D01*
Y316913D01*
X140860D01*
Y316835D01*
Y316756D01*
Y316678D01*
X140781D01*
Y316600D01*
Y316522D01*
X140703D01*
Y316443D01*
Y316365D01*
Y316287D01*
X140625D01*
Y316208D01*
Y316130D01*
X140547D01*
Y316052D01*
Y315974D01*
Y315895D01*
X140468D01*
Y315817D01*
Y315739D01*
X140390D01*
Y315660D01*
Y315582D01*
Y315504D01*
X140312D01*
Y315426D01*
Y315347D01*
X140233D01*
Y315269D01*
Y315191D01*
Y315112D01*
X140155D01*
Y315034D01*
Y314956D01*
X140077D01*
Y314878D01*
Y314799D01*
X139999D01*
Y314721D01*
Y314643D01*
Y314565D01*
X139920D01*
Y314486D01*
Y314408D01*
Y314330D01*
X139842D01*
Y314251D01*
Y314173D01*
X139764D01*
Y314095D01*
Y314017D01*
Y313938D01*
X139685D01*
Y313860D01*
Y313782D01*
X139607D01*
Y313704D01*
Y313625D01*
X139529D01*
Y313547D01*
Y313469D01*
X139451D01*
Y313390D01*
Y313312D01*
Y313234D01*
X139372D01*
Y313156D01*
Y313077D01*
X139294D01*
Y312999D01*
Y312921D01*
X139216D01*
Y312842D01*
Y312764D01*
X139138D01*
Y312686D01*
Y312608D01*
X139059D01*
Y312529D01*
X138981D01*
Y312451D01*
Y312373D01*
X138903D01*
Y312295D01*
Y312216D01*
X138824D01*
Y312138D01*
X138746D01*
Y312060D01*
Y311982D01*
X138668D01*
Y311903D01*
X138590D01*
Y311825D01*
X138511D01*
Y311747D01*
X138433D01*
Y311668D01*
X138355D01*
Y311590D01*
X138277D01*
Y311512D01*
X138198D01*
Y311434D01*
X138120D01*
Y311355D01*
X138042D01*
Y311277D01*
X137963D01*
Y311199D01*
X137885D01*
Y311121D01*
X137729D01*
Y311042D01*
X137572D01*
Y310964D01*
X137494D01*
Y310886D01*
X137337D01*
Y310807D01*
X137181D01*
Y310729D01*
X137024D01*
Y310651D01*
X136789D01*
Y310573D01*
X136555D01*
Y310494D01*
X136398D01*
Y310416D01*
X136085D01*
Y310338D01*
X135772D01*
Y310260D01*
X135302D01*
Y310181D01*
X134284D01*
Y310103D01*
X134050D01*
Y310181D01*
X132954D01*
Y310260D01*
X132406D01*
Y310338D01*
X132171D01*
Y310416D01*
X131780D01*
Y310494D01*
X131545D01*
Y310573D01*
X131310D01*
Y310651D01*
X131075D01*
Y310729D01*
X130841D01*
Y310807D01*
X130684D01*
Y310886D01*
X130527D01*
Y310964D01*
X130371D01*
Y311042D01*
X130214D01*
Y311121D01*
X130058D01*
Y311199D01*
X129901D01*
Y311277D01*
X129823D01*
Y311355D01*
X129745D01*
Y311434D01*
X129588D01*
Y311512D01*
X129510D01*
Y311590D01*
X129431D01*
Y311668D01*
X129353D01*
Y311747D01*
X129275D01*
Y311825D01*
Y311903D01*
X129197D01*
Y311982D01*
X129118D01*
Y312060D01*
X129040D01*
Y312138D01*
Y312216D01*
X128962D01*
Y312295D01*
Y312373D01*
X128884D01*
Y312451D01*
Y312529D01*
X128805D01*
Y312608D01*
Y312686D01*
X128727D01*
Y312764D01*
Y312842D01*
X128649D01*
Y312921D01*
Y312999D01*
Y313077D01*
X128570D01*
Y313156D01*
Y313234D01*
X128492D01*
Y313312D01*
Y313390D01*
Y313469D01*
X128414D01*
Y313547D01*
Y313625D01*
Y313704D01*
Y313782D01*
X128336D01*
Y313860D01*
Y313938D01*
Y314017D01*
X128257D01*
Y314095D01*
Y314173D01*
Y314251D01*
X128179D01*
Y314330D01*
Y314408D01*
Y314486D01*
X128101D01*
Y314565D01*
Y314643D01*
Y314721D01*
X128023D01*
Y314799D01*
Y314878D01*
Y314956D01*
X127944D01*
Y315034D01*
Y315112D01*
Y315191D01*
Y315269D01*
X127866D01*
Y315347D01*
Y315426D01*
Y315504D01*
X127788D01*
Y315582D01*
Y315660D01*
Y315739D01*
X127709D01*
Y315817D01*
Y315895D01*
Y315974D01*
Y316052D01*
X127631D01*
Y316130D01*
Y316208D01*
Y316287D01*
X127553D01*
Y316365D01*
Y316443D01*
Y316522D01*
X127475D01*
Y316600D01*
Y316678D01*
Y316756D01*
X127396D01*
Y316835D01*
Y316913D01*
Y316991D01*
X127318D01*
Y317069D01*
Y317148D01*
Y317226D01*
X127240D01*
Y317304D01*
Y317383D01*
Y317461D01*
Y317539D01*
X127162D01*
Y317617D01*
Y317696D01*
Y317774D01*
X127083D01*
Y317852D01*
Y317930D01*
Y318009D01*
X127005D01*
Y318087D01*
Y318165D01*
Y318244D01*
X126927D01*
Y318322D01*
Y318400D01*
Y318478D01*
X126848D01*
Y318557D01*
Y318635D01*
Y318713D01*
X126770D01*
Y318792D01*
Y318870D01*
Y318948D01*
Y319026D01*
X126692D01*
Y319105D01*
Y319183D01*
Y319261D01*
X126614D01*
Y319339D01*
Y319418D01*
Y319496D01*
X126535D01*
Y319574D01*
Y319652D01*
Y319731D01*
X126457D01*
Y319809D01*
Y319887D01*
Y319966D01*
X126379D01*
Y320044D01*
Y320122D01*
Y320200D01*
X126301D01*
Y320279D01*
Y320357D01*
Y320435D01*
Y320514D01*
X126222D01*
Y320592D01*
Y320670D01*
Y320748D01*
X126144D01*
Y320827D01*
Y320905D01*
Y320983D01*
X126066D01*
Y321061D01*
Y321140D01*
Y321218D01*
X125987D01*
Y321296D01*
Y321375D01*
X125909D01*
Y321453D01*
Y321531D01*
Y321609D01*
Y321688D01*
X125831D01*
Y321766D01*
Y321844D01*
Y321922D01*
Y322001D01*
X125753D01*
Y322079D01*
Y322157D01*
Y322235D01*
Y322314D01*
Y322392D01*
Y322470D01*
Y322549D01*
Y322627D01*
Y322705D01*
X125831D01*
Y322783D01*
Y322862D01*
Y322940D01*
Y323018D01*
X125909D01*
Y323096D01*
Y323175D01*
X125987D01*
Y323253D01*
Y323331D01*
X126066D01*
Y323410D01*
X126144D01*
Y323488D01*
Y323566D01*
X126222D01*
Y323644D01*
X126301D01*
Y323723D01*
X126379D01*
Y323801D01*
Y323879D01*
X126457D01*
Y323958D01*
X126535D01*
Y324036D01*
X126614D01*
Y324114D01*
X126692D01*
Y324192D01*
X126770D01*
Y324271D01*
X126927D01*
Y324349D01*
X127005D01*
Y324427D01*
X127083D01*
Y324505D01*
X127162D01*
Y324584D01*
X127240D01*
Y324662D01*
X127396D01*
Y324740D01*
X127475D01*
Y324819D01*
X127553D01*
Y324897D01*
X127709D01*
Y324975D01*
X127788D01*
Y325053D01*
X127944D01*
Y325132D01*
X128023D01*
Y325210D01*
X128179D01*
Y325288D01*
X128257D01*
Y325366D01*
X128414D01*
Y325445D01*
X128570D01*
Y325523D01*
X128649D01*
Y325601D01*
X128805D01*
Y325680D01*
X128962D01*
Y325758D01*
X129118D01*
Y325836D01*
X129275D01*
Y325914D01*
X129431D01*
Y325993D01*
X129588D01*
Y326071D01*
X129745D01*
Y326149D01*
X129979D01*
Y326227D01*
X130136D01*
Y326306D01*
X130292D01*
Y326384D01*
X130527D01*
Y326462D01*
X130762D01*
Y326541D01*
X130997D01*
Y326619D01*
X131232D01*
Y326697D01*
X131467D01*
Y326776D01*
X131858D01*
Y326854D01*
X132093D01*
Y326932D01*
X132562D01*
Y327010D01*
X132876D01*
Y327088D01*
X133815D01*
Y327167D01*
X134911D01*
Y327088D01*
D02*
G37*
G36*
X124109Y321922D02*
Y321844D01*
Y321766D01*
X124187D01*
Y321688D01*
Y321609D01*
Y321531D01*
Y321453D01*
X124265D01*
Y321375D01*
Y321296D01*
Y321218D01*
Y321140D01*
X124344D01*
Y321061D01*
Y320983D01*
Y320905D01*
X124422D01*
Y320827D01*
Y320748D01*
Y320670D01*
X124500D01*
Y320592D01*
Y320514D01*
Y320435D01*
X124578D01*
Y320357D01*
Y320279D01*
Y320200D01*
X124657D01*
Y320122D01*
Y320044D01*
Y319966D01*
X124735D01*
Y319887D01*
Y319809D01*
Y319731D01*
X124813D01*
Y319652D01*
Y319574D01*
Y319496D01*
Y319418D01*
X124892D01*
Y319339D01*
Y319261D01*
Y319183D01*
X124970D01*
Y319105D01*
Y319026D01*
Y318948D01*
X125048D01*
Y318870D01*
Y318792D01*
Y318713D01*
X125126D01*
Y318635D01*
Y318557D01*
Y318478D01*
X125205D01*
Y318400D01*
Y318322D01*
Y318244D01*
Y318165D01*
X125283D01*
Y318087D01*
Y318009D01*
X125361D01*
Y317930D01*
Y317852D01*
Y317774D01*
Y317696D01*
X125440D01*
Y317617D01*
Y317539D01*
Y317461D01*
X125518D01*
Y317383D01*
Y317304D01*
Y317226D01*
X125596D01*
Y317148D01*
Y317069D01*
Y316991D01*
Y316913D01*
X125674D01*
Y316835D01*
Y316756D01*
X125753D01*
Y316678D01*
Y316600D01*
Y316522D01*
Y316443D01*
X125831D01*
Y316365D01*
Y316287D01*
Y316208D01*
X125909D01*
Y316130D01*
Y316052D01*
Y315974D01*
X125987D01*
Y315895D01*
Y315817D01*
Y315739D01*
Y315660D01*
X126066D01*
Y315582D01*
Y315504D01*
X126144D01*
Y315426D01*
Y315347D01*
Y315269D01*
Y315191D01*
X126222D01*
Y315112D01*
Y315034D01*
X126301D01*
Y314956D01*
Y314878D01*
Y314799D01*
Y314721D01*
X126379D01*
Y314643D01*
Y314565D01*
Y314486D01*
X126457D01*
Y314408D01*
Y314330D01*
Y314251D01*
X126535D01*
Y314173D01*
Y314095D01*
Y314017D01*
Y313938D01*
X126614D01*
Y313860D01*
Y313782D01*
X126692D01*
Y313704D01*
Y313625D01*
Y313547D01*
Y313469D01*
X126770D01*
Y313390D01*
Y313312D01*
Y313234D01*
X126848D01*
Y313156D01*
Y313077D01*
Y312999D01*
X126927D01*
Y312921D01*
Y312842D01*
Y312764D01*
X127005D01*
Y312686D01*
Y312608D01*
Y312529D01*
X127083D01*
Y312451D01*
Y312373D01*
Y312295D01*
X127162D01*
Y312216D01*
Y312138D01*
X127240D01*
Y312060D01*
Y311982D01*
X127318D01*
Y311903D01*
Y311825D01*
X127396D01*
Y311747D01*
Y311668D01*
X127475D01*
Y311590D01*
Y311512D01*
X127553D01*
Y311434D01*
Y311355D01*
X127631D01*
Y311277D01*
Y311199D01*
X127709D01*
Y311121D01*
X127788D01*
Y311042D01*
X127866D01*
Y310964D01*
Y310886D01*
X127944D01*
Y310807D01*
X128023D01*
Y310729D01*
X128101D01*
Y310651D01*
X128179D01*
Y310573D01*
X128023D01*
Y310494D01*
X127866D01*
Y310416D01*
X127631D01*
Y310338D01*
X127475D01*
Y310260D01*
X127318D01*
Y310181D01*
X127083D01*
Y310103D01*
X126927D01*
Y310025D01*
X126692D01*
Y309946D01*
X126535D01*
Y309868D01*
X126301D01*
Y309790D01*
X126066D01*
Y309712D01*
X125753D01*
Y309633D01*
X124735D01*
Y309712D01*
X124578D01*
Y309790D01*
X124422D01*
Y309868D01*
X124344D01*
Y309946D01*
X124265D01*
Y310025D01*
X124109D01*
Y310103D01*
X124031D01*
Y310181D01*
X123952D01*
Y310260D01*
X123874D01*
Y310338D01*
X123796D01*
Y310416D01*
Y310494D01*
X123717D01*
Y310573D01*
X123639D01*
Y310651D01*
X123561D01*
Y310729D01*
X123483D01*
Y310807D01*
Y310886D01*
X123404D01*
Y310964D01*
X123326D01*
Y311042D01*
X123248D01*
Y311121D01*
Y311199D01*
X123170D01*
Y311277D01*
X123091D01*
Y311355D01*
Y311434D01*
X123013D01*
Y311512D01*
X122935D01*
Y311590D01*
Y311668D01*
X122856D01*
Y311747D01*
X122778D01*
Y311825D01*
Y311903D01*
X122700D01*
Y311982D01*
X122622D01*
Y312060D01*
Y312138D01*
X122543D01*
Y312216D01*
X122465D01*
Y312295D01*
Y312373D01*
X122387D01*
Y312451D01*
X122309D01*
Y312529D01*
Y312608D01*
X122230D01*
Y312686D01*
X122152D01*
Y312764D01*
Y312842D01*
X122074D01*
Y312921D01*
Y312999D01*
X121995D01*
Y313077D01*
X121917D01*
Y313156D01*
Y313234D01*
X121839D01*
Y313312D01*
X121761D01*
Y313390D01*
Y313469D01*
X121682D01*
Y313547D01*
Y313625D01*
X121604D01*
Y313704D01*
X121526D01*
Y313782D01*
Y313860D01*
X121448D01*
Y313938D01*
Y314017D01*
X121369D01*
Y314095D01*
X121291D01*
Y314173D01*
Y314251D01*
X121213D01*
Y314330D01*
X121134D01*
Y314408D01*
Y314486D01*
X121056D01*
Y314565D01*
Y314643D01*
X120978D01*
Y314721D01*
X120900D01*
Y314799D01*
Y314878D01*
X120821D01*
Y314956D01*
Y315034D01*
X120743D01*
Y315112D01*
X120665D01*
Y315191D01*
Y315269D01*
X120587D01*
Y315347D01*
Y315426D01*
X120508D01*
Y315504D01*
X120430D01*
Y315582D01*
Y315660D01*
X120352D01*
Y315739D01*
X120273D01*
Y315817D01*
Y315895D01*
X120195D01*
Y315974D01*
Y316052D01*
X120117D01*
Y316130D01*
Y316208D01*
X120039D01*
Y316287D01*
Y316365D01*
X119960D01*
Y316443D01*
Y316522D01*
X119882D01*
Y316600D01*
Y316678D01*
Y316756D01*
X119804D01*
Y316835D01*
Y316913D01*
X119725D01*
Y316991D01*
Y317069D01*
X119647D01*
Y317148D01*
Y317226D01*
Y317304D01*
X119569D01*
Y317383D01*
Y317461D01*
Y317539D01*
X119491D01*
Y317617D01*
Y317696D01*
X119412D01*
Y317774D01*
Y317852D01*
Y317930D01*
Y318009D01*
X119334D01*
Y318087D01*
Y318165D01*
Y318244D01*
Y318322D01*
Y318400D01*
Y318478D01*
Y318557D01*
Y318635D01*
Y318713D01*
Y318792D01*
Y318870D01*
Y318948D01*
Y319026D01*
Y319105D01*
X119412D01*
Y319183D01*
Y319261D01*
X119491D01*
Y319339D01*
Y319418D01*
X119569D01*
Y319496D01*
Y319574D01*
X119647D01*
Y319652D01*
X119725D01*
Y319731D01*
X119804D01*
Y319809D01*
X119882D01*
Y319887D01*
X119960D01*
Y319966D01*
X120039D01*
Y320044D01*
X120117D01*
Y320122D01*
X120273D01*
Y320200D01*
X120352D01*
Y320279D01*
X120430D01*
Y320357D01*
X120587D01*
Y320435D01*
X120743D01*
Y320514D01*
X120821D01*
Y320592D01*
X120978D01*
Y320670D01*
X121134D01*
Y320748D01*
X121291D01*
Y320827D01*
X121448D01*
Y320905D01*
X121526D01*
Y320983D01*
X121761D01*
Y321061D01*
X121917D01*
Y321140D01*
X122074D01*
Y321218D01*
X122230D01*
Y321296D01*
X122387D01*
Y321375D01*
X122622D01*
Y321453D01*
X122778D01*
Y321531D01*
X123013D01*
Y321609D01*
X123170D01*
Y321688D01*
X123404D01*
Y321766D01*
X123561D01*
Y321844D01*
X123796D01*
Y321922D01*
X124031D01*
Y322001D01*
X124109D01*
Y321922D01*
D02*
G37*
G36*
X144773Y321609D02*
X144930D01*
Y321531D01*
X145165D01*
Y321453D01*
X145321D01*
Y321375D01*
X145478D01*
Y321296D01*
X145713D01*
Y321218D01*
X145869D01*
Y321140D01*
X146104D01*
Y321061D01*
X146182D01*
Y320983D01*
X146417D01*
Y320905D01*
X146574D01*
Y320827D01*
X146730D01*
Y320748D01*
X146887D01*
Y320670D01*
X147043D01*
Y320592D01*
X147278D01*
Y320514D01*
X147356D01*
Y320435D01*
X147513D01*
Y320357D01*
X147669D01*
Y320279D01*
X147826D01*
Y320200D01*
X147983D01*
Y320122D01*
X148061D01*
Y320044D01*
X148217D01*
Y319966D01*
X148374D01*
Y319887D01*
X148452D01*
Y319809D01*
X148609D01*
Y319731D01*
X148687D01*
Y319652D01*
X148844D01*
Y319574D01*
X148922D01*
Y319496D01*
X149000D01*
Y319418D01*
X149078D01*
Y319339D01*
X149157D01*
Y319261D01*
X149235D01*
Y319183D01*
X149313D01*
Y319105D01*
Y319026D01*
X149391D01*
Y318948D01*
Y318870D01*
X149470D01*
Y318792D01*
Y318713D01*
Y318635D01*
Y318557D01*
Y318478D01*
Y318400D01*
Y318322D01*
Y318244D01*
X149391D01*
Y318165D01*
Y318087D01*
X149313D01*
Y318009D01*
Y317930D01*
Y317852D01*
X149235D01*
Y317774D01*
Y317696D01*
X149157D01*
Y317617D01*
Y317539D01*
X149078D01*
Y317461D01*
Y317383D01*
X149000D01*
Y317304D01*
Y317226D01*
X148922D01*
Y317148D01*
Y317069D01*
X148844D01*
Y316991D01*
X148765D01*
Y316913D01*
Y316835D01*
X148687D01*
Y316756D01*
Y316678D01*
X148609D01*
Y316600D01*
Y316522D01*
X148530D01*
Y316443D01*
Y316365D01*
X148452D01*
Y316287D01*
X148374D01*
Y316208D01*
Y316130D01*
X148296D01*
Y316052D01*
Y315974D01*
X148217D01*
Y315895D01*
Y315817D01*
X148139D01*
Y315739D01*
Y315660D01*
X148061D01*
Y315582D01*
Y315504D01*
X147983D01*
Y315426D01*
Y315347D01*
X147904D01*
Y315269D01*
X147826D01*
Y315191D01*
Y315112D01*
X147748D01*
Y315034D01*
Y314956D01*
X147669D01*
Y314878D01*
Y314799D01*
X147591D01*
Y314721D01*
Y314643D01*
X147513D01*
Y314565D01*
X147435D01*
Y314486D01*
Y314408D01*
X147356D01*
Y314330D01*
Y314251D01*
X147278D01*
Y314173D01*
Y314095D01*
X147200D01*
Y314017D01*
Y313938D01*
X147122D01*
Y313860D01*
X147043D01*
Y313782D01*
Y313704D01*
X146965D01*
Y313625D01*
Y313547D01*
X146887D01*
Y313469D01*
Y313390D01*
X146809D01*
Y313312D01*
Y313234D01*
X146730D01*
Y313156D01*
Y313077D01*
X146652D01*
Y312999D01*
Y312921D01*
X146574D01*
Y312842D01*
X146495D01*
Y312764D01*
Y312686D01*
X146417D01*
Y312608D01*
Y312529D01*
X146339D01*
Y312451D01*
Y312373D01*
X146260D01*
Y312295D01*
Y312216D01*
X146182D01*
Y312138D01*
X146104D01*
Y312060D01*
Y311982D01*
X146026D01*
Y311903D01*
Y311825D01*
X145948D01*
Y311747D01*
Y311668D01*
X145869D01*
Y311590D01*
Y311512D01*
X145791D01*
Y311434D01*
X145713D01*
Y311355D01*
X145634D01*
Y311277D01*
Y311199D01*
X145556D01*
Y311121D01*
X145478D01*
Y311042D01*
X145399D01*
Y310964D01*
X145321D01*
Y310886D01*
Y310807D01*
X145243D01*
Y310729D01*
X145165D01*
Y310651D01*
X145086D01*
Y310573D01*
X145008D01*
Y310494D01*
X144930D01*
Y310416D01*
X144852D01*
Y310338D01*
X144773D01*
Y310260D01*
X144695D01*
Y310181D01*
X144617D01*
Y310103D01*
X144538D01*
Y310025D01*
X144460D01*
Y309946D01*
X144304D01*
Y309868D01*
X144225D01*
Y309790D01*
X144069D01*
Y309712D01*
X143912D01*
Y309633D01*
X143677D01*
Y309555D01*
X142582D01*
Y309633D01*
X142190D01*
Y309712D01*
X141877D01*
Y309790D01*
X141642D01*
Y309868D01*
X141329D01*
Y309946D01*
X141173D01*
Y310025D01*
X140938D01*
Y310103D01*
X140703D01*
Y310181D01*
X140547D01*
Y310260D01*
X140312D01*
Y310338D01*
X140155D01*
Y310416D01*
X139920D01*
Y310494D01*
X139764D01*
Y310573D01*
X139685D01*
Y310651D01*
X139764D01*
Y310729D01*
X139842D01*
Y310807D01*
Y310886D01*
X139920D01*
Y310964D01*
X139999D01*
Y311042D01*
X140077D01*
Y311121D01*
X140155D01*
Y311199D01*
Y311277D01*
X140233D01*
Y311355D01*
X140312D01*
Y311434D01*
Y311512D01*
X140390D01*
Y311590D01*
X140468D01*
Y311668D01*
Y311747D01*
X140547D01*
Y311825D01*
Y311903D01*
X140625D01*
Y311982D01*
Y312060D01*
X140703D01*
Y312138D01*
Y312216D01*
X140781D01*
Y312295D01*
Y312373D01*
X140860D01*
Y312451D01*
Y312529D01*
X140938D01*
Y312608D01*
Y312686D01*
X141016D01*
Y312764D01*
Y312842D01*
X141094D01*
Y312921D01*
Y312999D01*
Y313077D01*
X141173D01*
Y313156D01*
Y313234D01*
X141251D01*
Y313312D01*
Y313390D01*
X141329D01*
Y313469D01*
Y313547D01*
Y313625D01*
X141408D01*
Y313704D01*
Y313782D01*
X141486D01*
Y313860D01*
Y313938D01*
Y314017D01*
X141564D01*
Y314095D01*
Y314173D01*
X141642D01*
Y314251D01*
Y314330D01*
Y314408D01*
X141721D01*
Y314486D01*
Y314565D01*
X141799D01*
Y314643D01*
Y314721D01*
Y314799D01*
X141877D01*
Y314878D01*
Y314956D01*
X141955D01*
Y315034D01*
Y315112D01*
Y315191D01*
X142034D01*
Y315269D01*
Y315347D01*
X142112D01*
Y315426D01*
Y315504D01*
Y315582D01*
X142190D01*
Y315660D01*
Y315739D01*
X142269D01*
Y315817D01*
Y315895D01*
Y315974D01*
X142347D01*
Y316052D01*
Y316130D01*
X142425D01*
Y316208D01*
Y316287D01*
Y316365D01*
X142503D01*
Y316443D01*
Y316522D01*
X142582D01*
Y316600D01*
Y316678D01*
Y316756D01*
X142660D01*
Y316835D01*
Y316913D01*
X142738D01*
Y316991D01*
Y317069D01*
Y317148D01*
X142816D01*
Y317226D01*
Y317304D01*
X142895D01*
Y317383D01*
Y317461D01*
X142973D01*
Y317539D01*
Y317617D01*
Y317696D01*
X143051D01*
Y317774D01*
Y317852D01*
Y317930D01*
X143130D01*
Y318009D01*
Y318087D01*
X143208D01*
Y318165D01*
Y318244D01*
X143286D01*
Y318322D01*
Y318400D01*
Y318478D01*
X143364D01*
Y318557D01*
Y318635D01*
X143443D01*
Y318713D01*
Y318792D01*
Y318870D01*
X143521D01*
Y318948D01*
Y319026D01*
X143599D01*
Y319105D01*
Y319183D01*
Y319261D01*
X143677D01*
Y319339D01*
Y319418D01*
X143756D01*
Y319496D01*
Y319574D01*
Y319652D01*
X143834D01*
Y319731D01*
Y319809D01*
X143912D01*
Y319887D01*
Y319966D01*
Y320044D01*
X143991D01*
Y320122D01*
Y320200D01*
X144069D01*
Y320279D01*
Y320357D01*
Y320435D01*
X144147D01*
Y320514D01*
Y320592D01*
X144225D01*
Y320670D01*
Y320748D01*
Y320827D01*
X144304D01*
Y320905D01*
Y320983D01*
Y321061D01*
X144382D01*
Y321140D01*
Y321218D01*
Y321296D01*
X144460D01*
Y321375D01*
Y321453D01*
Y321531D01*
X144538D01*
Y321609D01*
Y321688D01*
X144773D01*
Y321609D01*
D02*
G37*
G36*
X118551Y315582D02*
Y315504D01*
X118630D01*
Y315426D01*
Y315347D01*
X118708D01*
Y315269D01*
Y315191D01*
X118786D01*
Y315112D01*
Y315034D01*
X118864D01*
Y314956D01*
Y314878D01*
X118943D01*
Y314799D01*
X119021D01*
Y314721D01*
Y314643D01*
X119099D01*
Y314565D01*
X119177D01*
Y314486D01*
Y314408D01*
X119256D01*
Y314330D01*
Y314251D01*
X119334D01*
Y314173D01*
X119412D01*
Y314095D01*
Y314017D01*
X119491D01*
Y313938D01*
Y313860D01*
X119569D01*
Y313782D01*
X119647D01*
Y313704D01*
Y313625D01*
X119725D01*
Y313547D01*
Y313469D01*
X119804D01*
Y313390D01*
X119882D01*
Y313312D01*
Y313234D01*
X119960D01*
Y313156D01*
Y313077D01*
X120039D01*
Y312999D01*
X120117D01*
Y312921D01*
Y312842D01*
X120195D01*
Y312764D01*
X120273D01*
Y312686D01*
Y312608D01*
X120352D01*
Y312529D01*
Y312451D01*
X120430D01*
Y312373D01*
X120508D01*
Y312295D01*
Y312216D01*
X120587D01*
Y312138D01*
X120665D01*
Y312060D01*
Y311982D01*
X120743D01*
Y311903D01*
Y311825D01*
X120821D01*
Y311747D01*
X120900D01*
Y311668D01*
Y311590D01*
X120978D01*
Y311512D01*
X121056D01*
Y311434D01*
Y311355D01*
X121134D01*
Y311277D01*
X121213D01*
Y311199D01*
Y311121D01*
X121291D01*
Y311042D01*
X121369D01*
Y310964D01*
Y310886D01*
X121291D01*
Y310807D01*
X121056D01*
Y310729D01*
X120900D01*
Y310651D01*
X120665D01*
Y310573D01*
X120508D01*
Y310494D01*
X120352D01*
Y310416D01*
X120117D01*
Y310338D01*
X119960D01*
Y310260D01*
X119725D01*
Y310181D01*
X119569D01*
Y310103D01*
X119334D01*
Y310025D01*
X119177D01*
Y309946D01*
X119021D01*
Y309868D01*
X118786D01*
Y309790D01*
X118630D01*
Y309712D01*
X118473D01*
Y309633D01*
X118238D01*
Y309555D01*
X118082D01*
Y309477D01*
X117847D01*
Y309399D01*
X117690D01*
Y309320D01*
X117455D01*
Y309242D01*
X117299D01*
Y309164D01*
X117064D01*
Y309085D01*
X116829D01*
Y309007D01*
X116595D01*
Y308929D01*
X116047D01*
Y309007D01*
Y309085D01*
Y309164D01*
X115968D01*
Y309242D01*
Y309320D01*
Y309399D01*
Y309477D01*
Y309555D01*
Y309633D01*
Y309712D01*
Y309790D01*
X115890D01*
Y309868D01*
Y309946D01*
Y310025D01*
Y310103D01*
Y310181D01*
Y310260D01*
Y310338D01*
Y310416D01*
Y310494D01*
Y310573D01*
X115968D01*
Y310651D01*
Y310729D01*
Y310807D01*
Y310886D01*
Y310964D01*
Y311042D01*
Y311121D01*
Y311199D01*
Y311277D01*
X116047D01*
Y311355D01*
Y311434D01*
Y311512D01*
Y311590D01*
Y311668D01*
X116125D01*
Y311747D01*
Y311825D01*
Y311903D01*
Y311982D01*
X116203D01*
Y312060D01*
Y312138D01*
Y312216D01*
Y312295D01*
X116281D01*
Y312373D01*
Y312451D01*
Y312529D01*
X116360D01*
Y312608D01*
Y312686D01*
Y312764D01*
X116438D01*
Y312842D01*
Y312921D01*
X116516D01*
Y312999D01*
Y313077D01*
Y313156D01*
X116595D01*
Y313234D01*
Y313312D01*
X116673D01*
Y313390D01*
Y313469D01*
X116751D01*
Y313547D01*
Y313625D01*
X116829D01*
Y313704D01*
X116908D01*
Y313782D01*
Y313860D01*
X116986D01*
Y313938D01*
Y314017D01*
X117064D01*
Y314095D01*
X117142D01*
Y314173D01*
Y314251D01*
X117221D01*
Y314330D01*
X117299D01*
Y314408D01*
Y314486D01*
X117377D01*
Y314565D01*
X117455D01*
Y314643D01*
X117534D01*
Y314721D01*
X117612D01*
Y314799D01*
Y314878D01*
X117690D01*
Y314956D01*
X117769D01*
Y315034D01*
X117847D01*
Y315112D01*
X117925D01*
Y315191D01*
X118003D01*
Y315269D01*
X118082D01*
Y315347D01*
X118160D01*
Y315426D01*
X118238D01*
Y315504D01*
X118395D01*
Y315582D01*
X118473D01*
Y315660D01*
X118551D01*
Y315582D01*
D02*
G37*
G36*
X149940Y315426D02*
X150018D01*
Y315347D01*
X150174D01*
Y315269D01*
Y315191D01*
X150331D01*
Y315112D01*
X150409D01*
Y315034D01*
X150487D01*
Y314956D01*
X150566D01*
Y314878D01*
Y314799D01*
X150644D01*
Y314721D01*
X150722D01*
Y314643D01*
X150801D01*
Y314565D01*
X150879D01*
Y314486D01*
X150957D01*
Y314408D01*
Y314330D01*
X151035D01*
Y314251D01*
X151114D01*
Y314173D01*
X151192D01*
Y314095D01*
Y314017D01*
X151270D01*
Y313938D01*
X151348D01*
Y313860D01*
Y313782D01*
X151427D01*
Y313704D01*
Y313625D01*
X151505D01*
Y313547D01*
Y313469D01*
X151583D01*
Y313390D01*
Y313312D01*
X151662D01*
Y313234D01*
Y313156D01*
X151740D01*
Y313077D01*
Y312999D01*
X151818D01*
Y312921D01*
Y312842D01*
X151896D01*
Y312764D01*
Y312686D01*
Y312608D01*
X151975D01*
Y312529D01*
Y312451D01*
Y312373D01*
X152053D01*
Y312295D01*
Y312216D01*
Y312138D01*
X152131D01*
Y312060D01*
Y311982D01*
Y311903D01*
Y311825D01*
Y311747D01*
X152209D01*
Y311668D01*
Y311590D01*
Y311512D01*
Y311434D01*
X152288D01*
Y311355D01*
Y311277D01*
Y311199D01*
Y311121D01*
Y311042D01*
Y310964D01*
Y310886D01*
Y310807D01*
Y310729D01*
X152366D01*
Y310651D01*
Y310573D01*
Y310494D01*
Y310416D01*
Y310338D01*
Y310260D01*
Y310181D01*
Y310103D01*
Y310025D01*
Y309946D01*
Y309868D01*
Y309790D01*
Y309712D01*
Y309633D01*
X152288D01*
Y309555D01*
Y309477D01*
Y309399D01*
Y309320D01*
Y309242D01*
Y309164D01*
Y309085D01*
X152209D01*
Y309007D01*
Y308929D01*
Y308851D01*
X152131D01*
Y308772D01*
Y308694D01*
X151896D01*
Y308772D01*
X151583D01*
Y308851D01*
X151348D01*
Y308929D01*
X151114D01*
Y309007D01*
X150879D01*
Y309085D01*
X150722D01*
Y309164D01*
X150487D01*
Y309242D01*
X150331D01*
Y309320D01*
X150096D01*
Y309399D01*
X149940D01*
Y309477D01*
X149783D01*
Y309555D01*
X149548D01*
Y309633D01*
X149391D01*
Y309712D01*
X149235D01*
Y309790D01*
X149000D01*
Y309868D01*
X148844D01*
Y309946D01*
X148687D01*
Y310025D01*
X148452D01*
Y310103D01*
X148296D01*
Y310181D01*
X148061D01*
Y310260D01*
X147904D01*
Y310338D01*
X147748D01*
Y310416D01*
X147513D01*
Y310494D01*
X147356D01*
Y310573D01*
X147200D01*
Y310651D01*
X147278D01*
Y310729D01*
Y310807D01*
X147356D01*
Y310886D01*
Y310964D01*
X147435D01*
Y311042D01*
Y311121D01*
X147513D01*
Y311199D01*
X147591D01*
Y311277D01*
Y311355D01*
X147669D01*
Y311434D01*
Y311512D01*
X147748D01*
Y311590D01*
Y311668D01*
X147826D01*
Y311747D01*
Y311825D01*
X147904D01*
Y311903D01*
X147983D01*
Y311982D01*
Y312060D01*
X148061D01*
Y312138D01*
Y312216D01*
X148139D01*
Y312295D01*
Y312373D01*
X148217D01*
Y312451D01*
Y312529D01*
X148296D01*
Y312608D01*
Y312686D01*
X148374D01*
Y312764D01*
X148452D01*
Y312842D01*
Y312921D01*
X148530D01*
Y312999D01*
Y313077D01*
X148609D01*
Y313156D01*
Y313234D01*
X148687D01*
Y313312D01*
Y313390D01*
X148765D01*
Y313469D01*
Y313547D01*
X148844D01*
Y313625D01*
X148922D01*
Y313704D01*
Y313782D01*
X149000D01*
Y313860D01*
Y313938D01*
X149078D01*
Y314017D01*
Y314095D01*
X149157D01*
Y314173D01*
Y314251D01*
X149235D01*
Y314330D01*
X149313D01*
Y314408D01*
Y314486D01*
X149391D01*
Y314565D01*
Y314643D01*
X149470D01*
Y314721D01*
Y314799D01*
X149548D01*
Y314878D01*
Y314956D01*
X149626D01*
Y315034D01*
Y315112D01*
X149705D01*
Y315191D01*
X149783D01*
Y315269D01*
Y315347D01*
X149861D01*
Y315426D01*
Y315504D01*
X149940D01*
Y315426D01*
D02*
G37*
D44*
X384724Y309567D02*
D03*
Y330197D02*
D03*
Y358780D02*
D03*
Y379410D02*
D03*
Y211142D02*
D03*
Y231772D02*
D03*
Y260354D02*
D03*
Y280984D02*
D03*
Y112716D02*
D03*
Y133346D02*
D03*
Y161929D02*
D03*
Y182559D02*
D03*
Y14291D02*
D03*
Y34921D02*
D03*
Y63504D02*
D03*
Y84134D02*
D03*
D52*
X312800Y127954D02*
D03*
Y134646D02*
D03*
X306700Y127954D02*
D03*
Y134646D02*
D03*
X300600Y127954D02*
D03*
Y134646D02*
D03*
X294600Y127954D02*
D03*
Y134646D02*
D03*
X283900Y103446D02*
D03*
Y96754D02*
D03*
X269400Y86807D02*
D03*
Y100193D02*
D03*
X283900Y155993D02*
D03*
Y149300D02*
D03*
X269800Y139307D02*
D03*
Y152693D02*
D03*
X312800Y179941D02*
D03*
Y186634D02*
D03*
X306700Y179941D02*
D03*
Y186634D02*
D03*
X300600Y179941D02*
D03*
Y186634D02*
D03*
X294600Y179941D02*
D03*
Y186634D02*
D03*
X269400Y192307D02*
D03*
Y205693D02*
D03*
X283900Y208546D02*
D03*
Y201853D02*
D03*
X314500Y233284D02*
D03*
Y239977D02*
D03*
X308400Y233284D02*
D03*
Y239977D02*
D03*
X302300Y233284D02*
D03*
Y239977D02*
D03*
X296300Y233284D02*
D03*
Y239977D02*
D03*
X269100Y241207D02*
D03*
Y254593D02*
D03*
X282600Y259546D02*
D03*
Y252853D02*
D03*
D55*
X212200Y19038D02*
D03*
Y23762D02*
D03*
X211900Y165462D02*
D03*
Y160738D02*
D03*
X216800Y165462D02*
D03*
Y160738D02*
D03*
X221700Y165462D02*
D03*
Y160738D02*
D03*
X199300Y209638D02*
D03*
Y214362D02*
D03*
X194200Y209638D02*
D03*
Y214362D02*
D03*
X187500Y204238D02*
D03*
Y208962D02*
D03*
X195000Y198538D02*
D03*
Y203262D02*
D03*
X199900Y198538D02*
D03*
Y203262D02*
D03*
X206200D02*
D03*
Y198538D02*
D03*
X263000Y106024D02*
D03*
Y101300D02*
D03*
Y124876D02*
D03*
Y129600D02*
D03*
Y158624D02*
D03*
Y153900D02*
D03*
Y177476D02*
D03*
Y182200D02*
D03*
Y211162D02*
D03*
Y206438D02*
D03*
Y228876D02*
D03*
Y233600D02*
D03*
Y281438D02*
D03*
Y286162D02*
D03*
Y263762D02*
D03*
Y259038D02*
D03*
D57*
X208138Y185900D02*
D03*
X212862D02*
D03*
X208138Y190400D02*
D03*
X212862D02*
D03*
X189238Y193700D02*
D03*
X193962D02*
D03*
X189476Y187800D02*
D03*
X194200D02*
D03*
X203362D02*
D03*
X198638D02*
D03*
D62*
X276093Y93500D02*
D03*
X262707D02*
D03*
X276493Y146000D02*
D03*
X263107D02*
D03*
X276093Y199000D02*
D03*
X262707D02*
D03*
X275793Y247900D02*
D03*
X262407D02*
D03*
D81*
X27228Y370158D02*
D03*
Y336142D02*
D03*
D82*
X6126Y370158D02*
D03*
Y336142D02*
D03*
D83*
X292500Y49394D02*
D03*
Y39394D02*
D03*
Y29394D02*
D03*
Y19394D02*
D03*
X255000Y49394D02*
D03*
Y39394D02*
D03*
Y29394D02*
D03*
Y19394D02*
D03*
X280000Y49394D02*
D03*
Y39394D02*
D03*
Y29394D02*
D03*
Y19394D02*
D03*
X267500Y49394D02*
D03*
Y39394D02*
D03*
Y29394D02*
D03*
Y19394D02*
D03*
X174600Y10500D02*
D03*
X164600Y20500D02*
D03*
X174600D02*
D03*
X164600Y30500D02*
D03*
X174600D02*
D03*
Y60500D02*
D03*
X164600D02*
D03*
X174600Y50500D02*
D03*
X164600D02*
D03*
X174600Y40500D02*
D03*
X164600D02*
D03*
Y70500D02*
D03*
X174600D02*
D03*
Y90500D02*
D03*
X164600D02*
D03*
Y80500D02*
D03*
X174600D02*
D03*
X44094Y195669D02*
D03*
X11417Y298819D02*
D03*
X44488Y102756D02*
D03*
Y149213D02*
D03*
X44190Y242222D02*
D03*
X44488Y288583D02*
D03*
D84*
X292500Y9394D02*
D03*
X255000D02*
D03*
X280000D02*
D03*
X267500D02*
D03*
X164600Y10500D02*
D03*
D85*
X292500Y382500D02*
D03*
X272500D02*
D03*
X292500Y362500D02*
D03*
X272500D02*
D03*
D86*
X282500Y372500D02*
D03*
D87*
X316300Y100200D02*
D03*
Y150200D02*
D03*
Y201300D02*
D03*
Y258200D02*
D03*
D88*
X326300Y100200D02*
D03*
Y150200D02*
D03*
Y201300D02*
D03*
Y258200D02*
D03*
D89*
X181181Y366929D02*
D03*
X191181D02*
D03*
X181181Y376929D02*
D03*
X191181D02*
D03*
X201181Y366929D02*
D03*
Y376929D02*
D03*
X211181Y366929D02*
D03*
Y376929D02*
D03*
X221181Y366929D02*
D03*
D90*
Y376929D02*
D03*
D91*
X283465Y281890D02*
D03*
Y277559D02*
D03*
Y273228D02*
D03*
Y268898D02*
D03*
Y264567D02*
D03*
X279134Y281890D02*
D03*
Y277559D02*
D03*
Y273228D02*
D03*
Y268898D02*
D03*
Y264567D02*
D03*
X274803Y281890D02*
D03*
Y277559D02*
D03*
Y273228D02*
D03*
Y268898D02*
D03*
Y264567D02*
D03*
X270472Y281890D02*
D03*
Y277559D02*
D03*
Y273228D02*
D03*
Y268898D02*
D03*
Y264567D02*
D03*
X266142Y281890D02*
D03*
Y277559D02*
D03*
Y273228D02*
D03*
Y268898D02*
D03*
Y264567D02*
D03*
Y106775D02*
D03*
Y111106D02*
D03*
Y115436D02*
D03*
Y119767D02*
D03*
Y124098D02*
D03*
X270472Y106775D02*
D03*
Y111106D02*
D03*
Y115436D02*
D03*
Y119767D02*
D03*
Y124098D02*
D03*
X274803Y106775D02*
D03*
Y111106D02*
D03*
Y115436D02*
D03*
Y119767D02*
D03*
Y124098D02*
D03*
X279134Y106775D02*
D03*
Y111106D02*
D03*
Y115436D02*
D03*
Y119767D02*
D03*
Y124098D02*
D03*
X283465Y106775D02*
D03*
Y111106D02*
D03*
Y115436D02*
D03*
Y119767D02*
D03*
Y124098D02*
D03*
X266142Y159372D02*
D03*
Y163703D02*
D03*
Y168034D02*
D03*
Y172364D02*
D03*
Y176695D02*
D03*
X270472Y159372D02*
D03*
Y163703D02*
D03*
Y168034D02*
D03*
Y172364D02*
D03*
Y176695D02*
D03*
X274803Y159372D02*
D03*
Y163703D02*
D03*
Y168034D02*
D03*
Y172364D02*
D03*
Y176695D02*
D03*
X279134Y159372D02*
D03*
Y163703D02*
D03*
Y168034D02*
D03*
Y172364D02*
D03*
Y176695D02*
D03*
X283465Y159372D02*
D03*
Y163703D02*
D03*
Y168034D02*
D03*
Y172364D02*
D03*
Y176695D02*
D03*
X266142Y211970D02*
D03*
Y216300D02*
D03*
Y220631D02*
D03*
Y224962D02*
D03*
Y229292D02*
D03*
X270472Y211970D02*
D03*
Y216300D02*
D03*
Y220631D02*
D03*
Y224962D02*
D03*
Y229292D02*
D03*
X274803Y211970D02*
D03*
Y216300D02*
D03*
Y220631D02*
D03*
Y224962D02*
D03*
Y229292D02*
D03*
X279134Y211970D02*
D03*
Y216300D02*
D03*
Y220631D02*
D03*
Y224962D02*
D03*
Y229292D02*
D03*
X283465Y211970D02*
D03*
Y216300D02*
D03*
Y220631D02*
D03*
Y224962D02*
D03*
Y229292D02*
D03*
D121*
X252700Y100000D02*
D03*
X253300Y152800D02*
D03*
Y205200D02*
D03*
X252800Y256800D02*
D03*
D122*
X269400Y93500D02*
D03*
X269800Y146000D02*
D03*
X269400Y199000D02*
D03*
X269100Y247900D02*
D03*
M02*
