G04*
G04 #@! TF.GenerationSoftware,Altium Limited,Altium Designer,21.2.1 (34)*
G04*
G04 Layer_Physical_Order=1*
G04 Layer_Color=255*
%FSLAX25Y25*%
%MOIN*%
G70*
G04*
G04 #@! TF.SameCoordinates,0D780EAB-B6EC-48A9-9064-61573679FFEB*
G04*
G04*
G04 #@! TF.FilePolarity,Positive*
G04*
G01*
G75*
%ADD14C,0.00500*%
%ADD15C,0.01000*%
%ADD19R,0.03150X0.03937*%
%ADD20R,0.03937X0.04331*%
%ADD21R,0.02756X0.01181*%
%ADD22R,0.02756X0.03937*%
%ADD23R,0.03543X0.03150*%
%ADD24R,0.03150X0.02362*%
%ADD25R,0.03150X0.03543*%
%ADD26R,0.03701X0.04016*%
%ADD27R,0.02362X0.03150*%
%ADD28O,0.01181X0.08268*%
%ADD29O,0.08268X0.01181*%
%ADD30R,0.04331X0.03937*%
%ADD31R,0.05906X0.02362*%
%ADD32R,0.05512X0.04724*%
%ADD33R,0.03937X0.06693*%
%ADD34R,0.01968X0.01772*%
%ADD35R,0.22047X0.22047*%
%ADD36R,0.02362X0.00945*%
%ADD37R,0.00945X0.02362*%
G04:AMPARAMS|DCode=38|XSize=74.8mil|YSize=53.15mil|CornerRadius=13.29mil|HoleSize=0mil|Usage=FLASHONLY|Rotation=0.000|XOffset=0mil|YOffset=0mil|HoleType=Round|Shape=RoundedRectangle|*
%AMROUNDEDRECTD38*
21,1,0.07480,0.02657,0,0,0.0*
21,1,0.04823,0.05315,0,0,0.0*
1,1,0.02657,0.02411,-0.01329*
1,1,0.02657,-0.02411,-0.01329*
1,1,0.02657,-0.02411,0.01329*
1,1,0.02657,0.02411,0.01329*
%
%ADD38ROUNDEDRECTD38*%
G04:AMPARAMS|DCode=39|XSize=33.47mil|YSize=43.31mil|CornerRadius=8.37mil|HoleSize=0mil|Usage=FLASHONLY|Rotation=0.000|XOffset=0mil|YOffset=0mil|HoleType=Round|Shape=RoundedRectangle|*
%AMROUNDEDRECTD39*
21,1,0.03347,0.02657,0,0,0.0*
21,1,0.01673,0.04331,0,0,0.0*
1,1,0.01673,0.00837,-0.01329*
1,1,0.01673,-0.00837,-0.01329*
1,1,0.01673,-0.00837,0.01329*
1,1,0.01673,0.00837,0.01329*
%
%ADD39ROUNDEDRECTD39*%
G04:AMPARAMS|DCode=40|XSize=29.53mil|YSize=43.31mil|CornerRadius=7.38mil|HoleSize=0mil|Usage=FLASHONLY|Rotation=0.000|XOffset=0mil|YOffset=0mil|HoleType=Round|Shape=RoundedRectangle|*
%AMROUNDEDRECTD40*
21,1,0.02953,0.02854,0,0,0.0*
21,1,0.01476,0.04331,0,0,0.0*
1,1,0.01476,0.00738,-0.01427*
1,1,0.01476,-0.00738,-0.01427*
1,1,0.01476,-0.00738,0.01427*
1,1,0.01476,0.00738,0.01427*
%
%ADD40ROUNDEDRECTD40*%
G04:AMPARAMS|DCode=41|XSize=61.02mil|YSize=53.15mil|CornerRadius=13.29mil|HoleSize=0mil|Usage=FLASHONLY|Rotation=0.000|XOffset=0mil|YOffset=0mil|HoleType=Round|Shape=RoundedRectangle|*
%AMROUNDEDRECTD41*
21,1,0.06102,0.02657,0,0,0.0*
21,1,0.03445,0.05315,0,0,0.0*
1,1,0.02657,0.01722,-0.01329*
1,1,0.02657,-0.01722,-0.01329*
1,1,0.02657,-0.01722,0.01329*
1,1,0.02657,0.01722,0.01329*
%
%ADD41ROUNDEDRECTD41*%
G04:AMPARAMS|DCode=42|XSize=46.06mil|YSize=70.87mil|CornerRadius=11.52mil|HoleSize=0mil|Usage=FLASHONLY|Rotation=0.000|XOffset=0mil|YOffset=0mil|HoleType=Round|Shape=RoundedRectangle|*
%AMROUNDEDRECTD42*
21,1,0.04606,0.04783,0,0,0.0*
21,1,0.02303,0.07087,0,0,0.0*
1,1,0.02303,0.01152,-0.02392*
1,1,0.02303,-0.01152,-0.02392*
1,1,0.02303,-0.01152,0.02392*
1,1,0.02303,0.01152,0.02392*
%
%ADD42ROUNDEDRECTD42*%
G04:AMPARAMS|DCode=43|XSize=47.24mil|YSize=39.37mil|CornerRadius=9.84mil|HoleSize=0mil|Usage=FLASHONLY|Rotation=0.000|XOffset=0mil|YOffset=0mil|HoleType=Round|Shape=RoundedRectangle|*
%AMROUNDEDRECTD43*
21,1,0.04724,0.01968,0,0,0.0*
21,1,0.02756,0.03937,0,0,0.0*
1,1,0.01968,0.01378,-0.00984*
1,1,0.01968,-0.01378,-0.00984*
1,1,0.01968,-0.01378,0.00984*
1,1,0.01968,0.01378,0.00984*
%
%ADD43ROUNDEDRECTD43*%
%ADD44R,0.17953X0.03937*%
%ADD45R,0.17953X0.03347*%
%ADD46R,0.04016X0.03701*%
%ADD47R,0.03937X0.02362*%
%ADD48R,0.03543X0.08268*%
%ADD49C,0.01614*%
%ADD50C,0.01575*%
%ADD92C,0.00523*%
%ADD93C,0.01822*%
%ADD94C,0.00350*%
%ADD95C,0.00700*%
%ADD96C,0.00581*%
%ADD97O,0.08661X0.04331*%
%ADD98O,0.10236X0.05118*%
%ADD99C,0.05906*%
%ADD100R,0.05906X0.05906*%
%ADD101C,0.11024*%
%ADD102C,0.09843*%
G04:AMPARAMS|DCode=103|XSize=70.87mil|YSize=70.87mil|CornerRadius=8.86mil|HoleSize=0mil|Usage=FLASHONLY|Rotation=0.000|XOffset=0mil|YOffset=0mil|HoleType=Round|Shape=RoundedRectangle|*
%AMROUNDEDRECTD103*
21,1,0.07087,0.05315,0,0,0.0*
21,1,0.05315,0.07087,0,0,0.0*
1,1,0.01772,0.02657,-0.02657*
1,1,0.01772,-0.02657,-0.02657*
1,1,0.01772,-0.02657,0.02657*
1,1,0.01772,0.02657,0.02657*
%
%ADD103ROUNDEDRECTD103*%
%ADD104C,0.07087*%
%ADD105C,0.06299*%
%ADD106R,0.06299X0.06299*%
%ADD107C,0.01772*%
%ADD108C,0.02756*%
%ADD109C,0.01968*%
G36*
X32677Y393701D02*
X32677Y374997D01*
X32215Y374806D01*
X30327Y376694D01*
X30321Y376696D01*
Y378006D01*
X30271Y378125D01*
Y382240D01*
X25634D01*
Y377209D01*
X29022D01*
Y376234D01*
X29212Y375775D01*
X29548Y375636D01*
X32028Y373156D01*
Y363917D01*
X31890Y363779D01*
X30571D01*
Y363933D01*
X27115D01*
Y363779D01*
X26378D01*
X25591Y362992D01*
X0D01*
Y383701D01*
X45Y383745D01*
X0Y383778D01*
Y384686D01*
X384Y386618D01*
X1138Y388438D01*
X2232Y390075D01*
X3625Y391468D01*
X5263Y392563D01*
X7083Y393317D01*
X9015Y393701D01*
X9923D01*
X9955Y393656D01*
X10000Y393701D01*
X32677Y393701D01*
D02*
G37*
G36*
X393701Y374016D02*
X375197D01*
Y385039D01*
X393701D01*
Y374016D01*
D02*
G37*
G36*
X32028Y363309D02*
Y358143D01*
X31621Y357736D01*
X30571D01*
Y358027D01*
X27115D01*
Y356146D01*
X27115D01*
Y356059D01*
X27115D01*
Y354178D01*
X28849D01*
X28933Y354161D01*
X30392D01*
X30448Y354024D01*
X30796Y353677D01*
X31250Y353489D01*
X31742D01*
X32196Y353677D01*
X32677Y353451D01*
Y352206D01*
X32374Y351957D01*
X30571D01*
Y352122D01*
X28836D01*
X28752Y352138D01*
X28324D01*
X25820Y354642D01*
X25806Y354656D01*
X25665Y354750D01*
X25487Y355094D01*
X25452Y355329D01*
X25452Y355574D01*
Y357043D01*
X21996D01*
X21996Y355162D01*
X21996Y354662D01*
Y353290D01*
X21655Y353064D01*
X21497Y353045D01*
X21112Y353204D01*
X20620D01*
X20166Y353016D01*
X19818Y352668D01*
X19630Y352214D01*
Y351723D01*
X19818Y351269D01*
X20164Y350923D01*
X20178Y350821D01*
X20113Y350401D01*
X19772Y350260D01*
X19425Y349913D01*
X19237Y349458D01*
Y348967D01*
X19425Y348513D01*
X19772Y348165D01*
X20227Y347977D01*
X20718D01*
X21172Y348165D01*
X21520Y348513D01*
X21676Y348889D01*
X21996Y349256D01*
X25452D01*
X25452Y351137D01*
X25452Y351905D01*
X25914Y352096D01*
X27115Y350896D01*
X27115Y350241D01*
X27115Y349741D01*
Y348272D01*
X30571D01*
X30571Y350153D01*
X31041Y350224D01*
X32015D01*
X32677Y349562D01*
Y348954D01*
X32371Y348827D01*
X32023Y348480D01*
X31835Y348025D01*
Y347534D01*
X32023Y347079D01*
X32371Y346732D01*
X32677Y346605D01*
Y342921D01*
X32215Y342730D01*
X32158Y342788D01*
X31890Y342899D01*
X30924D01*
X30571Y343252D01*
X30571Y344248D01*
X30571Y344748D01*
Y346216D01*
X27115D01*
X27115Y344335D01*
X27115Y343835D01*
Y342899D01*
X26535D01*
X25858Y343575D01*
X25591Y343686D01*
X25452Y343824D01*
X25452Y345232D01*
X25452Y345732D01*
Y347200D01*
X21996D01*
X21996Y345319D01*
X21996Y344819D01*
Y343686D01*
X0D01*
Y362613D01*
X21643D01*
X21996Y362260D01*
X21996Y361067D01*
X21996Y360567D01*
Y359099D01*
X25452D01*
X25452Y360980D01*
X25452Y361480D01*
Y362613D01*
X25591D01*
X25858Y362724D01*
X26341Y363207D01*
X26955D01*
X27115Y363047D01*
X27115Y362052D01*
X27115Y361552D01*
Y360083D01*
X30571D01*
X30571Y361964D01*
X30571Y362464D01*
Y363401D01*
X31890D01*
X32028Y363309D01*
D02*
G37*
G36*
X393701Y353386D02*
X375197D01*
Y364409D01*
X393701D01*
Y353386D01*
D02*
G37*
G36*
X26378Y342520D02*
X27115D01*
Y342367D01*
X30571D01*
Y342520D01*
X31890D01*
X32677Y341732D01*
Y332677D01*
X0D01*
Y343307D01*
X25591D01*
X26378Y342520D01*
D02*
G37*
G36*
X393701Y324803D02*
X375197D01*
Y335827D01*
X393701D01*
Y324803D01*
D02*
G37*
G36*
X298425Y326378D02*
X298425Y318504D01*
X298031Y318110D01*
X272047D01*
X270866Y319291D01*
Y326378D01*
X272441Y327953D01*
X296850D01*
X298425Y326378D01*
D02*
G37*
G36*
X272047Y317731D02*
X291747D01*
X291747Y310315D01*
X273149D01*
X270866Y312598D01*
Y316929D01*
X271779Y317842D01*
X272047Y317731D01*
D02*
G37*
G36*
X305906Y317323D02*
X305906Y311024D01*
X305118Y310236D01*
X292126Y310236D01*
X292126Y317731D01*
X298031D01*
X298299Y317842D01*
X298567Y318110D01*
X305118D01*
X305906Y317323D01*
D02*
G37*
G36*
X393701Y304173D02*
X375197D01*
Y315197D01*
X393701D01*
Y304173D01*
D02*
G37*
G36*
X37312Y292913D02*
X38159Y292126D01*
X46063Y292126D01*
X48031Y290158D01*
Y278740D01*
X47244Y277953D01*
X37795D01*
X37008Y278740D01*
Y283858D01*
X36614Y284252D01*
X33858D01*
X33465Y284646D01*
Y292520D01*
X33858Y292913D01*
X37312Y292913D01*
D02*
G37*
G36*
X31299Y292717D02*
Y282677D01*
X32579Y281398D01*
Y277362D01*
X28642D01*
X26673Y279331D01*
Y292618D01*
X27264Y293209D01*
X30807D01*
X31299Y292717D01*
D02*
G37*
G36*
X16535Y286221D02*
Y281102D01*
X17323Y280315D01*
X22047D01*
X22441Y279921D01*
Y277165D01*
X22047Y276772D01*
X11024D01*
X10630Y277165D01*
Y286221D01*
X11024Y286614D01*
X16142D01*
X16535Y286221D01*
D02*
G37*
G36*
X393701Y275590D02*
X375197D01*
Y286614D01*
X393701D01*
Y275590D01*
D02*
G37*
G36*
X48031Y277165D02*
Y253937D01*
X46063Y251969D01*
X11024D01*
X10236Y252756D01*
Y275984D01*
X10756Y276504D01*
X11024Y276393D01*
X21265D01*
X27115Y270543D01*
X27396Y270355D01*
X27727Y270289D01*
X28292D01*
Y269532D01*
X32929D01*
Y272594D01*
X28292D01*
Y272525D01*
X27792Y272318D01*
X23799Y276310D01*
X23991Y276772D01*
X33162D01*
X33949Y277559D01*
X47638D01*
X48031Y277165D01*
D02*
G37*
G36*
X393701Y254961D02*
X375197D01*
Y265984D01*
X393701D01*
Y254961D01*
D02*
G37*
G36*
X36919Y246457D02*
X37765Y245669D01*
X45669Y245669D01*
X47638Y243701D01*
Y232283D01*
X46850Y231496D01*
X37402D01*
X36614Y232283D01*
Y237402D01*
X36220Y237795D01*
X33465D01*
X33071Y238189D01*
Y246063D01*
X33465Y246457D01*
X36919Y246457D01*
D02*
G37*
G36*
X30906Y246260D02*
Y236221D01*
X32185Y234941D01*
Y230906D01*
X28248D01*
X26280Y232874D01*
Y246161D01*
X26870Y246752D01*
X30413D01*
X30906Y246260D01*
D02*
G37*
G36*
X16142Y239764D02*
Y234646D01*
X16929Y233858D01*
X21654D01*
X22047Y233465D01*
Y230709D01*
X21654Y230315D01*
X10630D01*
X10236Y230709D01*
Y239764D01*
X10630Y240158D01*
X15748D01*
X16142Y239764D01*
D02*
G37*
G36*
X393701Y226378D02*
X375197D01*
Y237402D01*
X393701D01*
Y226378D01*
D02*
G37*
G36*
X47638Y230709D02*
Y207480D01*
X45669Y205512D01*
X10630D01*
X9843Y206299D01*
Y229528D01*
X10362Y230047D01*
X10630Y229936D01*
X20871D01*
X26721Y224086D01*
X27002Y223899D01*
X27334Y223833D01*
X27898D01*
Y223075D01*
X32535D01*
Y226137D01*
X27898D01*
Y226068D01*
X27398Y225861D01*
X23406Y229853D01*
X23597Y230315D01*
X32768D01*
X33556Y231102D01*
X47244D01*
X47638Y230709D01*
D02*
G37*
G36*
X393701Y205748D02*
X375197D01*
Y216772D01*
X393701D01*
Y205748D01*
D02*
G37*
G36*
X119800Y223474D02*
X119800Y208539D01*
X119772Y208528D01*
X119425Y208180D01*
X119385Y208085D01*
X116432Y205132D01*
X115133Y205118D01*
X114873Y205378D01*
X114580Y205500D01*
X114552Y205567D01*
Y207316D01*
X115768Y208532D01*
X115879Y208800D01*
Y220000D01*
X115768Y220268D01*
X115500Y220379D01*
X103300D01*
X103032Y220268D01*
X102921Y220000D01*
Y207063D01*
X103032Y206795D01*
X103300Y206684D01*
X103304D01*
X103590Y206565D01*
X103809Y206346D01*
X103928Y206060D01*
Y205751D01*
X103809Y205465D01*
X103700Y205355D01*
X103589Y205087D01*
X103528Y204996D01*
X102641Y204987D01*
X102622Y205031D01*
X102275Y205378D01*
X102013Y205487D01*
X98800Y208700D01*
X98800Y223574D01*
X99859Y224633D01*
X118641D01*
X119800Y223474D01*
D02*
G37*
G36*
X151995Y223900D02*
X151978Y220272D01*
X151958Y220232D01*
X151621Y219879D01*
X151621Y219879D01*
X142800D01*
X142532Y219768D01*
X140094Y217330D01*
X139983Y217062D01*
Y207298D01*
X139998Y207262D01*
X139991Y207224D01*
X140052Y207132D01*
X140094Y207030D01*
X140130Y207015D01*
X140152Y206983D01*
X140504Y206748D01*
X140613Y206726D01*
X140715Y206684D01*
X141100D01*
X141386Y206565D01*
X141605Y206346D01*
X141723Y206060D01*
Y205751D01*
X141605Y205465D01*
X141386Y205246D01*
X141100Y205127D01*
X141068D01*
X141004Y205101D01*
X140936Y205103D01*
X140549Y204959D01*
X140520Y204933D01*
X140481Y204926D01*
X140417Y204837D01*
X140336Y204762D01*
X140335Y204723D01*
X140312Y204691D01*
X140237Y204373D01*
X140244Y204328D01*
X140227Y204287D01*
Y204160D01*
X140097Y203845D01*
X140094Y203843D01*
X139983Y203575D01*
Y203431D01*
X139964Y203411D01*
X139788Y202986D01*
Y202526D01*
X139964Y202100D01*
X140289Y201775D01*
X140339Y201754D01*
X140553Y201540D01*
X140553Y201540D01*
X140699Y201395D01*
X140892Y201315D01*
X141000Y201029D01*
X141033Y200784D01*
X141008Y200763D01*
X140715D01*
X140289Y200587D01*
X139964Y200262D01*
X139788Y199836D01*
Y199729D01*
X139718Y199543D01*
X139377Y199466D01*
X138952Y199827D01*
Y199836D01*
X138776Y200262D01*
X138451Y200587D01*
X138025Y200763D01*
X137837D01*
X137456Y201144D01*
Y201427D01*
X137268Y201881D01*
X136920Y202229D01*
X136472Y202415D01*
X136466Y202417D01*
X136341Y202595D01*
X136386Y202775D01*
X136570Y203138D01*
X136920Y203283D01*
X137268Y203631D01*
X137456Y204085D01*
Y204576D01*
X137268Y205031D01*
X136920Y205378D01*
X136466Y205567D01*
X136265D01*
X135947Y205641D01*
X135803Y206029D01*
Y206136D01*
X135627Y206561D01*
X135301Y206886D01*
X134876Y207063D01*
X134415D01*
X134409Y207060D01*
X133698Y207772D01*
X133239Y207962D01*
X131408D01*
Y220100D01*
X126800D01*
Y224400D01*
X151498Y224400D01*
X151995Y223900D01*
D02*
G37*
G36*
X203760Y204080D02*
X204080Y203760D01*
X204498Y203587D01*
X204951D01*
X205369Y203760D01*
X205500Y203891D01*
X206000Y203684D01*
Y199465D01*
X205500Y199258D01*
X205369Y199389D01*
X204951Y199563D01*
X204498D01*
X204080Y199389D01*
X203760Y199069D01*
X203587Y198651D01*
Y198640D01*
X203181Y198287D01*
X202786Y198370D01*
X202712Y198548D01*
Y198651D01*
X202539Y199069D01*
X202219Y199389D01*
X201801Y199563D01*
X201349D01*
X200931Y199389D01*
X200611Y199069D01*
X200437Y198651D01*
Y198513D01*
X200010Y198086D01*
X199754D01*
X199300Y197898D01*
X198952Y197550D01*
X198764Y197096D01*
Y196605D01*
X198952Y196150D01*
X199300Y195803D01*
X199754Y195615D01*
X200010D01*
X200437Y195187D01*
Y195049D01*
X200500Y194898D01*
Y192503D01*
X200437Y192352D01*
Y191900D01*
X200500Y191749D01*
Y189354D01*
X200437Y189203D01*
Y188750D01*
X200500Y188599D01*
Y188000D01*
X193453Y188000D01*
X193376Y188070D01*
X193160Y188500D01*
X193263Y188750D01*
Y189203D01*
X193090Y189621D01*
X192770Y189941D01*
X192352Y190114D01*
X192214D01*
X191787Y190541D01*
Y190797D01*
X191599Y191251D01*
X191251Y191599D01*
X190920Y191736D01*
X190718Y192130D01*
X190682Y192287D01*
X190791Y192456D01*
X190826Y192477D01*
X191251Y192653D01*
X191599Y193001D01*
X191787Y193455D01*
Y193947D01*
X191599Y194401D01*
X191251Y194748D01*
X190920Y194886D01*
X190718Y195280D01*
X190682Y195437D01*
X190791Y195606D01*
X190826Y195626D01*
X191251Y195803D01*
X191599Y196150D01*
X191787Y196605D01*
Y197096D01*
X191599Y197550D01*
X191251Y197898D01*
X190797Y198086D01*
X190541D01*
X190114Y198513D01*
Y198651D01*
X189941Y199069D01*
X189764Y199246D01*
Y200754D01*
X189941Y200931D01*
X190018Y201118D01*
X190826Y201926D01*
X191251Y202102D01*
X191599Y202450D01*
X191775Y202875D01*
X192582Y203682D01*
X192770Y203760D01*
X193090Y204080D01*
X193098Y204100D01*
X194303D01*
X194311Y204080D01*
X194631Y203760D01*
X195049Y203587D01*
X195502D01*
X195920Y203760D01*
X196240Y204080D01*
X196248Y204100D01*
X197453D01*
X197461Y204080D01*
X197781Y203760D01*
X198199Y203587D01*
X198651D01*
X199069Y203760D01*
X199389Y204080D01*
X199398Y204100D01*
X200602D01*
X200611Y204080D01*
X200931Y203760D01*
X201349Y203587D01*
X201801D01*
X202219Y203760D01*
X202539Y204080D01*
X202547Y204100D01*
X203752D01*
X203760Y204080D01*
D02*
G37*
G36*
X115500Y208800D02*
X114173Y207473D01*
Y205567D01*
X113927D01*
X113473Y205378D01*
X113126Y205031D01*
X112937Y204576D01*
Y204375D01*
X112863Y204057D01*
X112476Y203913D01*
X112368D01*
X111943Y203737D01*
X111618Y203411D01*
X111441Y202986D01*
Y202756D01*
X110606D01*
Y202986D01*
X110430Y203411D01*
X110104Y203737D01*
X109679Y203913D01*
X109572D01*
X109185Y204057D01*
X109120Y204331D01*
X109185Y204604D01*
X109572Y204748D01*
X109679D01*
X110104Y204925D01*
X110430Y205250D01*
X110606Y205675D01*
Y206136D01*
X110430Y206561D01*
X110104Y206886D01*
X109679Y207063D01*
X109517D01*
X109110Y207470D01*
Y207726D01*
X108922Y208180D01*
X108574Y208528D01*
X108120Y208716D01*
X107628D01*
X107174Y208528D01*
X106826Y208180D01*
X106638Y207726D01*
Y207235D01*
X106826Y206780D01*
X107174Y206433D01*
X107600Y206256D01*
X107634Y206236D01*
X107744Y206066D01*
X107708Y205910D01*
X107505Y205516D01*
X107174Y205378D01*
X106826Y205031D01*
X106638Y204576D01*
Y204375D01*
X106563Y204057D01*
X106176Y203913D01*
X106069D01*
X105644Y203737D01*
X105481Y203574D01*
X103968Y205087D01*
X104130Y205250D01*
X104307Y205675D01*
Y206136D01*
X104130Y206561D01*
X103805Y206886D01*
X103380Y207063D01*
X103300D01*
Y220000D01*
X115500D01*
Y208800D01*
D02*
G37*
G36*
X151974Y219146D02*
X151969Y205567D01*
X151723D01*
X151268Y205378D01*
X150921Y205031D01*
X150733Y204576D01*
Y204233D01*
X150413Y203913D01*
X150163D01*
X149738Y203737D01*
X149413Y203411D01*
X149237Y202986D01*
Y202737D01*
X147849Y201349D01*
X146905D01*
Y201427D01*
X146717Y201881D01*
X146369Y202229D01*
X145915Y202417D01*
X145786D01*
X145622Y202664D01*
X145588Y202756D01*
X145622Y202848D01*
X145786Y203095D01*
X145915D01*
X146369Y203283D01*
X146717Y203631D01*
X146905Y204085D01*
Y204287D01*
X146980Y204604D01*
X147367Y204748D01*
X147474D01*
X147899Y204925D01*
X148225Y205250D01*
X148401Y205675D01*
Y206136D01*
X148225Y206561D01*
X147899Y206886D01*
X147474Y207063D01*
X147367D01*
X146980Y207207D01*
X146905Y207524D01*
Y207726D01*
X146717Y208180D01*
X146369Y208528D01*
X145915Y208716D01*
X145423D01*
X144969Y208528D01*
X144622Y208180D01*
X144433Y207726D01*
Y207235D01*
X144622Y206780D01*
X144969Y206433D01*
X145423Y206244D01*
X145553D01*
X145717Y205998D01*
X145751Y205906D01*
X145717Y205814D01*
X145553Y205567D01*
X145423D01*
X144969Y205378D01*
X144622Y205031D01*
X144433Y204576D01*
Y204375D01*
X144359Y204057D01*
X143972Y203913D01*
X143864D01*
X143439Y203737D01*
X143114Y203411D01*
X142937Y202986D01*
Y202526D01*
X143114Y202100D01*
X143365Y201849D01*
X143292Y201500D01*
X143212Y201349D01*
X142111D01*
X141987Y201473D01*
X141528Y201663D01*
X140967D01*
X140821Y201808D01*
X140821Y201808D01*
X140362Y202267D01*
Y203575D01*
X140418Y203631D01*
X140606Y204085D01*
Y204287D01*
X140681Y204604D01*
X141068Y204748D01*
X141175D01*
X141600Y204925D01*
X141926Y205250D01*
X142102Y205675D01*
Y206136D01*
X141926Y206561D01*
X141600Y206886D01*
X141175Y207063D01*
X140715D01*
X140362Y207298D01*
Y217062D01*
X142800Y219500D01*
X151621D01*
X151974Y219146D01*
D02*
G37*
G36*
X205154Y199068D02*
X205232Y198990D01*
X205302Y198961D01*
X205355Y198908D01*
X205430D01*
X205500Y198879D01*
X205949Y198705D01*
X206000Y198671D01*
Y193700D01*
X204385D01*
Y193947D01*
X204197Y194401D01*
X203850Y194748D01*
X203395Y194937D01*
X202904D01*
X202450Y194748D01*
X202102Y194401D01*
X201914Y193947D01*
Y193700D01*
X200879D01*
Y194898D01*
X200850Y194968D01*
Y195043D01*
X200816Y195125D01*
Y195187D01*
X200705Y195455D01*
X200278Y195882D01*
X200010Y195993D01*
X199829D01*
X199515Y196124D01*
X199274Y196365D01*
X199143Y196680D01*
Y197021D01*
X199274Y197336D01*
X199515Y197577D01*
X199829Y197707D01*
X200010D01*
X200278Y197818D01*
X200705Y198246D01*
X200816Y198513D01*
Y198576D01*
X200932Y198855D01*
X201145Y199068D01*
X201424Y199184D01*
X201726D01*
X202005Y199068D01*
X202218Y198855D01*
X202333Y198576D01*
Y198548D01*
X202362Y198478D01*
X202362Y198403D01*
X202436Y198225D01*
X202462Y198199D01*
X202469Y198163D01*
X202561Y198100D01*
X202641Y198020D01*
X202678Y198020D01*
X202708Y198000D01*
X203103Y197917D01*
X203129Y197922D01*
X203154Y197910D01*
X203269Y197948D01*
X203388Y197970D01*
X203403Y197993D01*
X203429Y198001D01*
X203835Y198354D01*
X203842Y198366D01*
X203855Y198372D01*
X203892Y198461D01*
X203937Y198506D01*
X204081Y198855D01*
X204295Y199068D01*
X204573Y199184D01*
X204875D01*
X205154Y199068D01*
D02*
G37*
G36*
X203760Y191482D02*
X204080Y191162D01*
X204498Y190989D01*
X204951D01*
X205369Y191162D01*
X205400Y191193D01*
X205900Y190986D01*
Y186967D01*
X205400Y186760D01*
X205369Y186791D01*
X204951Y186964D01*
X204498D01*
X204080Y186791D01*
X203760Y186471D01*
X203731Y186400D01*
X202569D01*
X202539Y186471D01*
X202219Y186791D01*
X201801Y186964D01*
X201349D01*
X200931Y186791D01*
X200611Y186471D01*
X200581Y186400D01*
X199419D01*
X199389Y186471D01*
X199069Y186791D01*
X198651Y186964D01*
X198199D01*
X197781Y186791D01*
X197461Y186471D01*
X197432Y186400D01*
X196269Y186400D01*
X196240Y186471D01*
X195920Y186791D01*
X195502Y186964D01*
X195049D01*
X194631Y186791D01*
X194311Y186471D01*
X194282Y186400D01*
X193120D01*
X193090Y186471D01*
X192770Y186791D01*
X192352Y186964D01*
X191900D01*
X191482Y186791D01*
X191162Y186471D01*
X191132Y186400D01*
X189970D01*
X189941Y186471D01*
X189621Y186791D01*
X189203Y186964D01*
X188750D01*
X188332Y186791D01*
X188200Y186659D01*
X187700Y186866D01*
X187700Y191087D01*
X188200Y191294D01*
X188332Y191162D01*
X188750Y190989D01*
X189203D01*
X189621Y191162D01*
X189941Y191482D01*
X189958Y191524D01*
X190620Y191531D01*
X190683Y191478D01*
X190775Y191386D01*
X191037Y191278D01*
X191278Y191037D01*
X191408Y190722D01*
Y190541D01*
X191519Y190273D01*
X191946Y189846D01*
X192214Y189735D01*
X192277D01*
X192556Y189620D01*
X192769Y189406D01*
X192885Y189127D01*
Y188826D01*
X192810Y188645D01*
Y188630D01*
X192800Y188619D01*
X192810Y188487D01*
Y188355D01*
X192820Y188345D01*
X192821Y188330D01*
X193038Y187900D01*
X193091Y187854D01*
X193120Y187791D01*
X193197Y187721D01*
X193326Y187674D01*
X193453Y187621D01*
X200500Y187621D01*
X200768Y187732D01*
X200879Y188000D01*
Y188599D01*
X200850Y188669D01*
Y188744D01*
X200816Y188826D01*
Y189127D01*
X200850Y189209D01*
Y189284D01*
X200879Y189354D01*
Y190642D01*
X201349Y190989D01*
X201801D01*
X202219Y191162D01*
X202539Y191482D01*
X202604Y191638D01*
X203696D01*
X203760Y191482D01*
D02*
G37*
G36*
X36919Y200000D02*
X37765Y199213D01*
X45669Y199213D01*
X47638Y197244D01*
Y185827D01*
X46850Y185039D01*
X37402D01*
X36614Y185827D01*
Y190945D01*
X36220Y191339D01*
X33465D01*
X33071Y191732D01*
Y199606D01*
X33465Y200000D01*
X36919Y200000D01*
D02*
G37*
G36*
X30906Y199803D02*
Y189764D01*
X32185Y188484D01*
Y184449D01*
X28248D01*
X26280Y186417D01*
Y199705D01*
X26870Y200295D01*
X30413D01*
X30906Y199803D01*
D02*
G37*
G36*
X16142Y193202D02*
Y188084D01*
X16929Y187297D01*
X21654D01*
X22047Y186903D01*
Y184147D01*
X21654Y183753D01*
X10630D01*
X10236Y184147D01*
Y193202D01*
X10630Y193596D01*
X15748D01*
X16142Y193202D01*
D02*
G37*
G36*
X141284Y185187D02*
X141472Y184733D01*
X141820Y184385D01*
X142274Y184197D01*
X142600D01*
Y182200D01*
X137800D01*
X137396Y181796D01*
X137140Y181690D01*
X136814Y181364D01*
X136708Y181108D01*
X136300Y180700D01*
Y179134D01*
X130500D01*
Y184335D01*
X130621Y184385D01*
X130969Y184733D01*
X131065Y184965D01*
X131335Y185235D01*
X131533Y185216D01*
X131874Y185094D01*
X132023Y184733D01*
X132371Y184385D01*
X132825Y184197D01*
X133027D01*
X133345Y184122D01*
X133489Y183735D01*
Y183628D01*
X133665Y183203D01*
X133990Y182877D01*
X134415Y182701D01*
X134876D01*
X135301Y182877D01*
X135627Y183203D01*
X135803Y183628D01*
Y183735D01*
X135947Y184122D01*
X136265Y184197D01*
X136466D01*
X136920Y184385D01*
X137268Y184733D01*
X137456Y185187D01*
Y185418D01*
X141042Y185429D01*
X141284Y185187D01*
D02*
G37*
G36*
X111441Y183628D02*
X111618Y183203D01*
X111943Y182877D01*
X112368Y182701D01*
X112829D01*
X113100Y182272D01*
Y169862D01*
X112767D01*
Y166057D01*
X110910Y164200D01*
X105889D01*
X105784Y164303D01*
X105554Y164700D01*
X105591Y164887D01*
Y168410D01*
X105772Y168591D01*
X105960Y169045D01*
Y169537D01*
X105772Y169991D01*
X105591Y170172D01*
Y175625D01*
X109517Y179552D01*
X109679D01*
X110104Y179728D01*
X110430Y180053D01*
X110606Y180479D01*
Y180939D01*
X110430Y181364D01*
X110104Y181690D01*
X109679Y181866D01*
X109219D01*
X108793Y181690D01*
X108468Y181364D01*
X108292Y180939D01*
Y180777D01*
X104112Y176597D01*
X103924Y176316D01*
X103858Y175984D01*
Y170172D01*
X103677Y169991D01*
X103489Y169537D01*
Y169045D01*
X103677Y168591D01*
X103858Y168410D01*
Y165246D01*
X102812Y164200D01*
X98900D01*
Y175233D01*
X103218Y179552D01*
X103380D01*
X103805Y179728D01*
X104130Y180053D01*
X104307Y180479D01*
Y180939D01*
X104226Y181134D01*
X104514Y181634D01*
X106983D01*
X107443Y181824D01*
X108645Y183026D01*
X108793Y182877D01*
X109219Y182701D01*
X109679D01*
X110104Y182877D01*
X110430Y183203D01*
X110606Y183628D01*
Y183703D01*
X111441D01*
Y183628D01*
D02*
G37*
G36*
X145346Y182200D02*
X145700Y181846D01*
X145700Y170400D01*
X148600Y168200D01*
Y164200D01*
X145700Y164200D01*
X131890Y164200D01*
X131890Y176290D01*
Y178740D01*
X131915Y178755D01*
X136300D01*
X136568Y178866D01*
X136679Y179134D01*
Y180543D01*
X136976Y180841D01*
X137005Y180910D01*
X137058Y180964D01*
X137136Y181149D01*
X137354Y181368D01*
X137540Y181446D01*
X137594Y181499D01*
X137663Y181528D01*
X137763Y181627D01*
X138322Y181583D01*
X138670Y181236D01*
X139124Y181048D01*
X139616D01*
X140070Y181236D01*
X140418Y181583D01*
X140516Y181821D01*
X142600D01*
X142868Y181932D01*
X142979Y182200D01*
X145346D01*
D02*
G37*
G36*
X393701Y177165D02*
X375197D01*
Y188189D01*
X393701D01*
Y177165D01*
D02*
G37*
G36*
X47638Y184147D02*
Y160919D01*
X45669Y158950D01*
X10630D01*
X9843Y159738D01*
Y182966D01*
X10362Y183486D01*
X10630Y183375D01*
X20871D01*
X26721Y177525D01*
X27002Y177337D01*
X27334Y177271D01*
X27898D01*
Y176619D01*
X32535D01*
Y179681D01*
X27898D01*
Y179506D01*
X27398Y179299D01*
X23406Y183291D01*
X23597Y183753D01*
X32768D01*
X33556Y184541D01*
X47244D01*
X47638Y184147D01*
D02*
G37*
G36*
X151800Y182200D02*
Y174000D01*
X151731Y161156D01*
X149074Y158500D01*
X112200D01*
X112150Y162988D01*
X113993Y164831D01*
X117404D01*
Y169862D01*
X115138D01*
Y179842D01*
X115072Y180174D01*
X114921Y180400D01*
Y181821D01*
X115100Y182000D01*
X116800D01*
X117776Y181024D01*
X117741Y180939D01*
Y180479D01*
X117917Y180053D01*
X118007Y179963D01*
Y175300D01*
X118031Y175276D01*
Y174409D01*
X118097Y174078D01*
X118285Y173797D01*
X120781Y171301D01*
Y169862D01*
X119329D01*
Y164831D01*
X121600D01*
Y163779D01*
X136300D01*
Y163821D01*
X145700Y163821D01*
X148600Y163821D01*
X148868Y163932D01*
X148979Y164200D01*
Y168200D01*
X148968Y168225D01*
X148975Y168252D01*
X148914Y168356D01*
X148868Y168468D01*
X148843Y168478D01*
X148829Y168502D01*
X146079Y170588D01*
X146079Y181570D01*
X148819D01*
X149092Y181624D01*
X149324Y181779D01*
X149828Y182283D01*
X151716D01*
X151800Y182200D01*
D02*
G37*
G36*
X393701Y156535D02*
X375197D01*
Y167559D01*
X393701D01*
Y156535D01*
D02*
G37*
G36*
X37312Y153543D02*
X38159Y152756D01*
X46063Y152756D01*
X48031Y150787D01*
Y139370D01*
X47244Y138583D01*
X37795D01*
X37008Y139370D01*
Y144488D01*
X36614Y144882D01*
X33858D01*
X33465Y145276D01*
Y153150D01*
X33858Y153543D01*
X37312Y153543D01*
D02*
G37*
G36*
X31299Y153347D02*
Y143307D01*
X32579Y142028D01*
Y137992D01*
X28642D01*
X26673Y139961D01*
Y153248D01*
X27264Y153839D01*
X30807D01*
X31299Y153347D01*
D02*
G37*
G36*
X16535Y146850D02*
Y141732D01*
X17323Y140945D01*
X22047D01*
X22441Y140551D01*
Y137795D01*
X22047Y137402D01*
X11024D01*
X10630Y137795D01*
Y146850D01*
X11024Y147244D01*
X16142D01*
X16535Y146850D01*
D02*
G37*
G36*
X48031Y137795D02*
Y114567D01*
X46063Y112598D01*
X11024D01*
X10236Y113386D01*
Y136614D01*
X10756Y137134D01*
X11024Y137023D01*
X21265D01*
X27115Y131173D01*
X27396Y130985D01*
X27727Y130919D01*
X28292D01*
Y130162D01*
X32929D01*
Y133224D01*
X28292D01*
Y133154D01*
X27792Y132947D01*
X23799Y136940D01*
X23991Y137402D01*
X33162D01*
X33949Y138189D01*
X47638D01*
X48031Y137795D01*
D02*
G37*
G36*
X393701Y127953D02*
X375197D01*
Y138976D01*
X393701D01*
Y127953D01*
D02*
G37*
G36*
Y107323D02*
X375197D01*
Y118347D01*
X393701D01*
Y107323D01*
D02*
G37*
G36*
X37312Y107087D02*
X38159Y106299D01*
X46063Y106299D01*
X48031Y104331D01*
Y92913D01*
X47244Y92126D01*
X37795D01*
X37008Y92913D01*
Y98032D01*
X36614Y98425D01*
X33858D01*
X33465Y98819D01*
Y106693D01*
X33858Y107087D01*
X37312Y107087D01*
D02*
G37*
G36*
X31299Y106890D02*
Y96850D01*
X32579Y95571D01*
Y91535D01*
X28642D01*
X26673Y93504D01*
Y106791D01*
X27264Y107382D01*
X30807D01*
X31299Y106890D01*
D02*
G37*
G36*
X16535Y100289D02*
Y95171D01*
X17323Y94383D01*
X22047D01*
X22441Y93990D01*
Y91234D01*
X22047Y90840D01*
X11024D01*
X10630Y91234D01*
Y100289D01*
X11024Y100683D01*
X16142D01*
X16535Y100289D01*
D02*
G37*
G36*
X48031Y91234D02*
Y68005D01*
X46063Y66037D01*
X11024D01*
X10236Y66824D01*
Y90053D01*
X10756Y90572D01*
X11024Y90461D01*
X21265D01*
X27115Y84612D01*
X27396Y84424D01*
X27727Y84358D01*
X28292D01*
Y83600D01*
X32929D01*
Y86663D01*
X28292D01*
Y86593D01*
X27792Y86386D01*
X23799Y90378D01*
X23991Y90840D01*
X33162D01*
X33949Y91628D01*
X47638D01*
X48031Y91234D01*
D02*
G37*
G36*
X393701Y78740D02*
X375197D01*
Y89764D01*
X393701D01*
Y78740D01*
D02*
G37*
G36*
Y58110D02*
X375197D01*
Y69134D01*
X393701D01*
Y58110D01*
D02*
G37*
G36*
Y29528D02*
X375197D01*
Y40551D01*
X393701D01*
Y29528D01*
D02*
G37*
G36*
Y8898D02*
X375197D01*
Y19921D01*
X393701D01*
Y8898D01*
D02*
G37*
%LPC*%
G36*
X23185Y382240D02*
X18548D01*
Y377209D01*
X19636D01*
X19843Y376709D01*
X19818Y376684D01*
X19630Y376230D01*
Y375738D01*
X19818Y375284D01*
X20166Y374937D01*
X20620Y374748D01*
X21112D01*
X21566Y374937D01*
X21914Y375284D01*
X22102Y375738D01*
Y376230D01*
X21914Y376684D01*
X21889Y376709D01*
X22096Y377209D01*
X23185D01*
Y382240D01*
D02*
G37*
G36*
X25350Y262161D02*
X22288D01*
Y258311D01*
X22952D01*
Y257440D01*
X21863D01*
Y253197D01*
X25712D01*
Y257440D01*
X24686D01*
Y258311D01*
X25350D01*
Y258550D01*
X25850Y258779D01*
X26246Y258514D01*
X26920Y258380D01*
X27594Y258514D01*
X28166Y258896D01*
X28547Y259468D01*
X28682Y260142D01*
X28547Y260816D01*
X28166Y261388D01*
X27594Y261770D01*
X26920Y261904D01*
X26246Y261770D01*
X25850Y261505D01*
X25350Y261734D01*
Y262161D01*
D02*
G37*
G36*
X22102Y272594D02*
X17465D01*
Y269532D01*
X18196D01*
Y266885D01*
X17170D01*
Y263036D01*
X18196D01*
Y262161D01*
X17170D01*
Y258311D01*
X18196D01*
Y257440D01*
X17138D01*
Y253197D01*
X20988D01*
Y257440D01*
X19930D01*
Y258311D01*
X20232D01*
Y262161D01*
X19930D01*
Y263036D01*
X20232D01*
Y266885D01*
X19930D01*
Y269532D01*
X22102D01*
Y272594D01*
D02*
G37*
G36*
X24956Y215704D02*
X21894D01*
Y211855D01*
X22591D01*
Y210986D01*
X21501D01*
Y206742D01*
X25351D01*
Y210986D01*
X24324D01*
Y211855D01*
X24956D01*
Y212122D01*
X25227Y212258D01*
X25456Y212314D01*
X25978Y211965D01*
X26653Y211831D01*
X27327Y211965D01*
X27898Y212347D01*
X28280Y212919D01*
X28414Y213593D01*
X28280Y214267D01*
X27898Y214839D01*
X27327Y215221D01*
X26653Y215355D01*
X25978Y215221D01*
X25456Y214872D01*
X25227Y214929D01*
X24956Y215065D01*
Y215704D01*
D02*
G37*
G36*
X21708Y226137D02*
X17071D01*
Y223075D01*
X17803D01*
Y220429D01*
X16776D01*
Y216579D01*
X17803D01*
Y215704D01*
X16776D01*
Y211855D01*
X17803D01*
Y210986D01*
X16777D01*
Y206742D01*
X20626D01*
Y210986D01*
X19536D01*
Y211855D01*
X19838D01*
Y215704D01*
X19536D01*
Y216579D01*
X19838D01*
Y220429D01*
X19536D01*
Y223075D01*
X21708D01*
Y226137D01*
D02*
G37*
G36*
X197096Y194937D02*
X196605D01*
X196150Y194748D01*
X195803Y194401D01*
X195615Y193947D01*
Y193691D01*
X195187Y193263D01*
X195049D01*
X194631Y193090D01*
X194311Y192770D01*
X194138Y192352D01*
Y191900D01*
X194311Y191482D01*
X194631Y191162D01*
X195049Y190989D01*
X195502D01*
X195920Y191162D01*
X196240Y191482D01*
X196413Y191900D01*
Y192038D01*
X196840Y192465D01*
X197096D01*
X197550Y192653D01*
X197898Y193001D01*
X198086Y193455D01*
Y193947D01*
X197898Y194401D01*
X197550Y194748D01*
X197096Y194937D01*
D02*
G37*
G36*
X24956Y169248D02*
X21894D01*
Y165398D01*
X22591D01*
Y164404D01*
X21562D01*
Y160161D01*
X25412D01*
Y164404D01*
X24324D01*
Y165398D01*
X24956D01*
Y165563D01*
X24996Y165598D01*
X25456Y165784D01*
X25884Y165498D01*
X26558Y165364D01*
X27233Y165498D01*
X27804Y165880D01*
X28186Y166452D01*
X28320Y167126D01*
X28186Y167800D01*
X27804Y168372D01*
X27233Y168754D01*
X26558Y168888D01*
X25884Y168754D01*
X25456Y168468D01*
X24996Y168654D01*
X24956Y168689D01*
Y169248D01*
D02*
G37*
G36*
X21708Y179681D02*
X17071D01*
Y176619D01*
X17803D01*
Y173972D01*
X16776D01*
Y170122D01*
X17803D01*
Y169248D01*
X16776D01*
Y165398D01*
X17803D01*
Y164404D01*
X16838D01*
Y160161D01*
X20688D01*
Y164404D01*
X19536D01*
Y165398D01*
X19838D01*
Y169248D01*
X19536D01*
Y170122D01*
X19838D01*
Y173972D01*
X19536D01*
Y176619D01*
X21708D01*
Y179681D01*
D02*
G37*
G36*
X25350Y122791D02*
X22288D01*
Y118941D01*
X22985D01*
Y118080D01*
X21878D01*
Y113837D01*
X25728D01*
Y118080D01*
X24718D01*
Y118941D01*
X25350D01*
Y119211D01*
X25390Y119246D01*
X25850Y119432D01*
X26278Y119146D01*
X26952Y119012D01*
X27626Y119146D01*
X28198Y119528D01*
X28580Y120100D01*
X28714Y120774D01*
X28580Y121448D01*
X28198Y122020D01*
X27626Y122402D01*
X26952Y122536D01*
X26278Y122402D01*
X25850Y122116D01*
X25390Y122302D01*
X25350Y122337D01*
Y122791D01*
D02*
G37*
G36*
X22102Y133224D02*
X17465D01*
Y130162D01*
X18196D01*
Y127515D01*
X17170D01*
Y123666D01*
X18196D01*
Y122791D01*
X17170D01*
Y118941D01*
X18196D01*
Y118080D01*
X17154D01*
Y113837D01*
X21003D01*
Y118080D01*
X19930D01*
Y118941D01*
X20232D01*
Y122791D01*
X19930D01*
Y123666D01*
X20232D01*
Y127515D01*
X19930D01*
Y130162D01*
X22102D01*
Y133224D01*
D02*
G37*
G36*
X25350Y76334D02*
X22288D01*
Y72485D01*
X22985D01*
Y71640D01*
X21877D01*
Y67397D01*
X25727D01*
Y71640D01*
X24718D01*
Y72485D01*
X25350D01*
Y72649D01*
X25390Y72685D01*
X25850Y72871D01*
X26278Y72585D01*
X26952Y72451D01*
X27626Y72585D01*
X28198Y72967D01*
X28580Y73538D01*
X28714Y74213D01*
X28580Y74887D01*
X28198Y75458D01*
X27626Y75840D01*
X26952Y75974D01*
X26278Y75840D01*
X25850Y75554D01*
X25390Y75741D01*
X25350Y75776D01*
Y76334D01*
D02*
G37*
G36*
X22102Y86663D02*
X17465D01*
Y83600D01*
X18196D01*
Y81059D01*
X17170D01*
Y77209D01*
X18196D01*
Y76334D01*
X17170D01*
Y72485D01*
X18196D01*
Y71640D01*
X17153D01*
Y67397D01*
X21002D01*
Y71640D01*
X19930D01*
Y72485D01*
X20232D01*
Y76334D01*
X19930D01*
Y77209D01*
X20232D01*
Y81059D01*
X19930D01*
Y83600D01*
X22102D01*
Y86663D01*
D02*
G37*
%LPD*%
D14*
X157204Y211304D02*
G03*
X157557Y210450I354J-353D01*
G01*
X159375Y210065D02*
G03*
X158990Y210450I-385J0D01*
G01*
Y209350D02*
G03*
X159375Y209735I0J385D01*
G01*
X156885Y209350D02*
G03*
X156500Y208965I0J-385D01*
G01*
Y208635D02*
G03*
X156885Y208250I385J0D01*
G01*
X159375Y207865D02*
G03*
X158990Y208250I-385J0D01*
G01*
Y207150D02*
G03*
X159375Y207535I0J385D01*
G01*
X156885Y207150D02*
G03*
X156500Y206765I0J-385D01*
G01*
Y206435D02*
G03*
X156885Y206050I385J0D01*
G01*
X159375Y205665D02*
G03*
X158990Y206050I-385J0D01*
G01*
Y204950D02*
G03*
X159375Y205335I0J385D01*
G01*
X156885Y204950D02*
G03*
X156500Y204565I0J-385D01*
G01*
Y204235D02*
G03*
X156885Y203850I385J0D01*
G01*
X159375Y203465D02*
G03*
X158990Y203850I-385J0D01*
G01*
Y202750D02*
G03*
X159375Y203135I0J385D01*
G01*
X155885Y202750D02*
G03*
X155500Y202365I0J-385D01*
G01*
Y202035D02*
G03*
X155885Y201650I385J0D01*
G01*
X156500Y201150D02*
G03*
X156000Y201650I-500J0D01*
G01*
X166628Y222638D02*
G03*
X167335Y222638I353J354D01*
G01*
X166205Y223060D02*
G03*
X165661Y223060I-272J-272D01*
G01*
X165427Y222827D02*
G03*
X165427Y222283I272J-272D01*
G01*
X165932Y221234D02*
G03*
X165932Y221778I-272J272D01*
G01*
X165154Y221001D02*
G03*
X165699Y221001I272J272D01*
G01*
X164437Y221718D02*
G03*
X163892Y221718I-272J-272D01*
G01*
X163659Y221484D02*
G03*
X163659Y220940I272J-272D01*
G01*
X164376Y219678D02*
G03*
X164376Y220223I-272J272D01*
G01*
X163598Y219445D02*
G03*
X164143Y219445I272J272D01*
G01*
X162881Y220162D02*
G03*
X162337Y220162I-272J-272D01*
G01*
X162103Y219929D02*
G03*
X162103Y219384I272J-272D01*
G01*
X162820Y218123D02*
G03*
X162820Y218667I-272J272D01*
G01*
X162043Y217889D02*
G03*
X162587Y217889I272J272D01*
G01*
X161326Y218606D02*
G03*
X160781Y218606I-272J-272D01*
G01*
X160548Y218373D02*
G03*
X160548Y217829I272J-272D01*
G01*
X161265Y216567D02*
G03*
X161265Y217111I-272J272D01*
G01*
X160487Y216334D02*
G03*
X161032Y216334I272J272D01*
G01*
X159770Y217051D02*
G03*
X159225Y217051I-272J-272D01*
G01*
X158992Y216817D02*
G03*
X158992Y216273I272J-272D01*
G01*
X159709Y215011D02*
G03*
X159709Y215556I-272J272D01*
G01*
X158931Y214778D02*
G03*
X159476Y214778I272J272D01*
G01*
X158214Y215495D02*
G03*
X157670Y215495I-272J-272D01*
G01*
X157436Y215262D02*
G03*
X157436Y214717I272J-272D01*
G01*
X158072Y213374D02*
G03*
X158072Y214082I-354J353D01*
G01*
X155472Y210981D02*
G03*
X155825Y211127I0J500D01*
G01*
X153166Y210981D02*
G03*
X152781Y210596I0J-385D01*
G01*
Y210266D02*
G03*
X153166Y209881I385J0D01*
G01*
X155650Y209496D02*
G03*
X155265Y209881I-385J0D01*
G01*
Y208781D02*
G03*
X155650Y209166I0J385D01*
G01*
X153166Y208781D02*
G03*
X152781Y208396I0J-385D01*
G01*
Y208066D02*
G03*
X153166Y207681I385J0D01*
G01*
X155650Y207296D02*
G03*
X155265Y207681I-385J0D01*
G01*
Y206581D02*
G03*
X155650Y206966I0J385D01*
G01*
X153305Y206581D02*
G03*
X152920Y206196I0J-385D01*
G01*
Y205866D02*
G03*
X153305Y205481I385J0D01*
G01*
X155650Y205096D02*
G03*
X155265Y205481I-385J0D01*
G01*
Y204381D02*
G03*
X155650Y204766I0J385D01*
G01*
X153839Y204381D02*
G03*
X153454Y203996I0J-385D01*
G01*
Y203666D02*
G03*
X153839Y203281I385J0D01*
G01*
X154480Y202427D02*
G03*
X154126Y203281I-354J353D01*
G01*
X156324Y195694D02*
G03*
X156324Y194987I354J-353D01*
G01*
X159452Y191315D02*
G03*
X159452Y191860I-272J272D01*
G01*
X158674Y191082D02*
G03*
X159218Y191082I272J272D01*
G01*
X153478Y196278D02*
G03*
X152933Y196278I-272J-272D01*
G01*
X152700Y196044D02*
G03*
X152700Y195500I272J-272D01*
G01*
X158100Y189556D02*
G03*
X158100Y190100I-272J272D01*
G01*
X157322Y189322D02*
G03*
X157867Y189322I272J272D01*
G01*
X150919Y195725D02*
G03*
X150374Y195725I-272J-272D01*
G01*
X150141Y195492D02*
G03*
X150141Y194948I272J-272D01*
G01*
X156544Y188000D02*
G03*
X156544Y188545I-272J272D01*
G01*
X155766Y187767D02*
G03*
X156311Y187767I272J272D01*
G01*
X151362Y192171D02*
G03*
X150818Y192171I-272J-272D01*
G01*
X150584Y191938D02*
G03*
X150584Y191393I272J-272D01*
G01*
X154989Y186444D02*
G03*
X154989Y186989I-272J272D01*
G01*
X154211Y186211D02*
G03*
X154755Y186211I272J272D01*
G01*
X151247Y189175D02*
G03*
X150394Y188821I-353J-354D01*
G01*
X148519Y194814D02*
G03*
X149019Y195314I0J500D01*
G01*
X143958Y194814D02*
G03*
X143608Y194464I0J-350D01*
G01*
Y194164D02*
G03*
X143958Y193814I350J0D01*
G01*
X149464Y193464D02*
G03*
X149114Y193814I-350J0D01*
G01*
Y192814D02*
G03*
X149464Y193164I0J350D01*
G01*
X143073Y192814D02*
G03*
X142723Y192464I0J-350D01*
G01*
Y192164D02*
G03*
X143073Y191814I350J0D01*
G01*
X149464Y191464D02*
G03*
X149114Y191814I-350J0D01*
G01*
Y190814D02*
G03*
X149464Y191164I0J350D01*
G01*
X146889Y190814D02*
G03*
X146539Y190464I0J-350D01*
G01*
Y190164D02*
G03*
X146889Y189814I350J0D01*
G01*
X148700Y189314D02*
G03*
X148200Y189814I-500J0D01*
G01*
X177953Y203150D02*
X179528Y204724D01*
X129753Y206153D02*
X130913Y207313D01*
X129753Y204163D02*
Y206153D01*
X128347Y202756D02*
X129753Y204163D01*
X133239Y207313D02*
X134646Y205906D01*
X130913Y207313D02*
X133239D01*
X20866Y375984D02*
Y379724D01*
X29671Y376234D02*
Y378006D01*
X27953Y379724D02*
X29671Y378006D01*
Y376234D02*
X29868D01*
X32677Y373425D01*
Y357874D02*
Y373425D01*
X31890Y357087D02*
X32677Y357874D01*
X28842Y357087D02*
X31890D01*
X21596Y349992D02*
X23520D01*
X20472Y349213D02*
X20817D01*
X23520Y349992D02*
X23724Y350197D01*
X20817Y349213D02*
X21596Y349992D01*
X295669Y169291D02*
X296850Y168110D01*
X291375Y170986D02*
X293070Y169291D01*
X295669D01*
X288189Y167049D02*
X295790D01*
X296850Y168110D01*
X288189Y170986D02*
X291375D01*
X288189Y174923D02*
X289884D01*
X290945Y175984D01*
X288189Y178860D02*
X288360D01*
X288583Y179083D01*
Y181102D01*
X277756Y151825D02*
X278914Y150667D01*
Y146283D02*
Y150667D01*
Y146283D02*
X280315Y144882D01*
X277756Y151825D02*
Y154648D01*
X291916Y123862D02*
Y124783D01*
X290436Y126263D02*
X291916Y124783D01*
Y123862D02*
X292052Y123726D01*
X288189Y122326D02*
X290759D01*
X292159Y123726D01*
X283661Y234017D02*
Y236417D01*
X283661Y236417D01*
X281686Y234010D02*
Y238062D01*
X282321Y238697D01*
X284131D01*
X275787Y234017D02*
Y238227D01*
X282670Y240386D02*
X286213D01*
X279717Y237433D02*
X282670Y240386D01*
X279717Y234010D02*
Y237433D01*
X277749Y234010D02*
Y238220D01*
X279914Y240386D01*
X277756Y185630D02*
X279921Y187795D01*
X277756Y181419D02*
Y185630D01*
X279724Y181419D02*
Y184843D01*
X282677Y187795D01*
X286221D01*
X275787Y181419D02*
X275794Y181426D01*
Y185637D01*
X275801Y185644D01*
X282328Y186107D02*
X284138D01*
X281693Y185471D02*
X282328Y186107D01*
X284138D02*
X284214Y186182D01*
X283655Y128829D02*
Y131221D01*
X283648Y181603D02*
X283655Y181610D01*
Y183818D01*
X283648Y183825D02*
X283655Y183818D01*
Y128829D02*
X283661Y128822D01*
X283648Y131228D02*
X283655Y131221D01*
X281693Y181419D02*
Y185471D01*
X283249Y134430D02*
X284132D01*
X284347Y134646D01*
X281693Y132874D02*
X283249Y134430D01*
X279724Y133661D02*
X282283Y136221D01*
X279724Y128822D02*
Y133661D01*
X275787Y134079D02*
X276870Y135161D01*
Y135309D01*
X275787Y128822D02*
Y134079D01*
X281693Y128822D02*
Y132874D01*
X277756Y134055D02*
X279528Y135827D01*
X277756Y128822D02*
Y134055D01*
X277978Y100319D02*
Y101828D01*
X277756Y102050D02*
X277978Y101828D01*
Y100319D02*
X278346Y99950D01*
Y99606D02*
Y99950D01*
X290550Y118112D02*
X290945Y117717D01*
X290272Y118389D02*
X290550Y118112D01*
X290945Y114567D02*
Y117717D01*
X288189Y118389D02*
X290272D01*
X288246Y114509D02*
X290887D01*
X290945Y114567D01*
X288189Y114452D02*
X288246Y114509D01*
X288189Y126263D02*
X290436D01*
X279134Y211970D02*
X279724Y211379D01*
Y207245D02*
Y211379D01*
X277854Y204823D02*
Y207147D01*
X277756Y207245D02*
X277854Y207147D01*
Y204823D02*
X277953Y204724D01*
X275744Y203648D02*
X276772Y202620D01*
Y202362D02*
Y202620D01*
X275744Y203648D02*
Y207201D01*
X291339Y219685D02*
Y222835D01*
X290589Y223584D02*
X291339Y222835D01*
X288189Y223584D02*
X290589D01*
X291319Y219666D02*
X291339Y219685D01*
X288189Y219647D02*
X288208Y219666D01*
X291319D01*
X291339Y228207D02*
Y231496D01*
X290652Y227521D02*
X291339Y228207D01*
X288189Y227521D02*
X290652D01*
X288208Y231477D02*
X291319D01*
X288189Y231458D02*
X288208Y231477D01*
X291319D02*
X291339Y231496D01*
X277559Y257087D02*
X277658Y257185D01*
Y259744D02*
X277756Y259842D01*
X277658Y257185D02*
Y259744D01*
X290550Y275986D02*
X291732Y274803D01*
X290354Y276181D02*
X290550Y275986D01*
X291732Y272441D02*
Y274803D01*
X288189Y276181D02*
X290354D01*
X288189Y272244D02*
X288287Y272342D01*
X291634D01*
X291732Y272441D01*
Y281496D02*
Y283858D01*
X290354Y280118D02*
X291732Y281496D01*
X288189Y280118D02*
X290354D01*
X288189Y284055D02*
X288287Y283957D01*
X291634D01*
X291732Y283858D01*
X283760Y286713D02*
Y289665D01*
X283661Y286614D02*
X283760Y286713D01*
Y289665D02*
X283858Y289764D01*
X258129Y97019D02*
X266519D01*
X267913Y98413D02*
Y102050D01*
X266519Y97019D02*
X267913Y98413D01*
X257200Y97800D02*
X257348D01*
X258129Y97019D01*
X275744Y99139D02*
X277000Y97882D01*
X275744Y99139D02*
Y102007D01*
X273810Y97917D02*
Y102041D01*
X266100Y148200D02*
X267913Y150013D01*
Y154648D01*
X257800Y150600D02*
X260200Y148200D01*
X266100D01*
X273810Y150515D02*
Y154638D01*
X275744Y151736D02*
Y154604D01*
Y151736D02*
X277000Y150480D01*
X293649Y209804D02*
X294153Y209300D01*
X288189Y209804D02*
X293649D01*
X257800Y203000D02*
X259338Y201462D01*
X266400D01*
X267913Y202975D01*
Y207245D01*
X273810Y203112D02*
Y207236D01*
X275744Y207201D02*
X275787Y207245D01*
X276400Y254700D02*
Y254972D01*
X275744Y255629D02*
Y259799D01*
Y255629D02*
X276400Y254972D01*
X275744Y259799D02*
X275787Y259842D01*
X258695Y254405D02*
X265405D01*
X257500Y255600D02*
X257500D01*
X258695Y254405D01*
X267913Y256913D02*
Y259842D01*
X265405Y254405D02*
X267913Y256913D01*
X282761Y291861D02*
X284912D01*
X285827Y292776D02*
Y296260D01*
X284912Y291861D02*
X285827Y292776D01*
X281693Y290793D02*
X282761Y291861D01*
X281693Y286614D02*
Y290793D01*
X274500Y291900D02*
X275787Y290613D01*
X271000Y291900D02*
X274500D01*
X275787Y286614D02*
Y290613D01*
X269269Y293631D02*
X271000Y291900D01*
X269269Y293631D02*
Y295085D01*
X268100Y296253D02*
X269269Y295085D01*
X279724Y286614D02*
Y296063D01*
X279921Y296260D01*
X277756Y286614D02*
Y292323D01*
X274016Y296063D02*
X277756Y292323D01*
X274016Y296063D02*
Y296260D01*
X273810Y259833D02*
X273819Y259842D01*
X273810Y255710D02*
Y259833D01*
X273800Y255700D02*
X273810Y255710D01*
X68672Y311191D02*
X73913Y305950D01*
X106752D01*
X188976Y223726D01*
X106400Y305100D02*
X187413Y224087D01*
X72474Y305100D02*
X106400D01*
X64684Y312890D02*
X72474Y305100D01*
X143512Y198199D02*
X145837D01*
X147244Y199606D01*
X142552Y199159D02*
X143512Y198199D01*
X142552Y199159D02*
Y199989D01*
X68484Y311191D02*
X68672D01*
X188976Y220472D02*
Y223726D01*
X187413Y218886D02*
X188976Y217323D01*
X187413Y218886D02*
Y224087D01*
X64684Y312890D02*
Y315691D01*
X64671Y315705D02*
Y324487D01*
Y315705D02*
X64684Y315691D01*
X64657Y324500D02*
X64671Y324487D01*
X68539Y311246D02*
Y324445D01*
X68484Y311191D02*
X68539Y311246D01*
X57420Y331737D02*
X64638D01*
X57374Y331784D02*
X57420Y331737D01*
X64638D02*
X64684Y331691D01*
X66584Y313591D02*
X66605Y313612D01*
Y324479D01*
X66626Y324500D01*
X68539Y324445D02*
X68594Y324500D01*
X112620Y180730D02*
Y181889D01*
X114139Y183409D01*
X112598Y180709D02*
X112620Y180730D01*
X114139Y183409D02*
Y184239D01*
X115400Y185500D01*
X120405D01*
X115748Y183816D02*
Y183858D01*
X114271Y182339D02*
X115748Y183816D01*
X114271Y179842D02*
Y182339D01*
X111008Y182299D02*
X112598Y180709D01*
X120405Y185500D02*
X122047Y183858D01*
X120472Y174803D02*
X126014Y169262D01*
X120472Y174803D02*
Y182283D01*
X118898Y183858D02*
X120472Y182283D01*
X126014Y169262D02*
X126490D01*
X128209Y167543D01*
Y167347D02*
Y167543D01*
X185827Y170472D02*
Y173228D01*
X172745Y160933D02*
X182677Y170866D01*
X176772Y159527D02*
X188976Y171732D01*
X175394Y160039D02*
X185827Y170472D01*
X188976Y171732D02*
Y173228D01*
X184252Y170866D02*
Y174803D01*
X174409Y161024D02*
X184252Y170866D01*
X182677D02*
Y173228D01*
X167325Y164175D02*
X176378Y173228D01*
X168898Y163386D02*
X177854Y172343D01*
X170022Y162148D02*
X172387Y164513D01*
X171653Y161811D02*
X181102Y171260D01*
X184252Y174803D02*
X185827Y176378D01*
X181102Y171260D02*
Y174803D01*
X182677Y176378D01*
X172441Y164567D02*
X179527Y171653D01*
Y173228D01*
X177854Y174705D02*
X179527Y176378D01*
X177854Y172343D02*
Y174705D01*
X190600Y171800D02*
Y174852D01*
X192126Y176378D01*
X125197Y177403D02*
Y180709D01*
Y177403D02*
X130000Y172600D01*
X101575Y204331D02*
X103150Y202756D01*
X171653Y212598D02*
X173228Y211024D01*
X171653Y218898D02*
X173228Y217323D01*
X181102Y203150D02*
X182677Y204724D01*
X181102Y203150D02*
X181102D01*
X157204Y211304D02*
X159381Y213481D01*
X157557Y210450D02*
X158990D01*
X159375Y209735D02*
Y210065D01*
X156885Y209350D02*
X158990D01*
X156500Y208635D02*
Y208965D01*
X156885Y208250D02*
X158990D01*
X159375Y207535D02*
Y207865D01*
X156885Y207150D02*
X158990D01*
X156500Y206435D02*
Y206765D01*
X156885Y206050D02*
X158990D01*
X159375Y205335D02*
Y205665D01*
X156885Y204950D02*
X158990D01*
X156500Y204235D02*
Y204565D01*
X156885Y203850D02*
X158990D01*
X159375Y203135D02*
Y203465D01*
X155885Y202750D02*
X158990D01*
X155500Y202035D02*
Y202365D01*
X155885Y201650D02*
X156000D01*
X156500Y200900D02*
Y201150D01*
X159381Y213481D02*
X169600Y223700D01*
X167335Y222638D02*
X168480Y223782D01*
X166205Y223060D02*
X166628Y222638D01*
X165427Y222827D02*
X165661Y223060D01*
X165427Y222283D02*
X165932Y221778D01*
X165932Y221778D02*
X165932Y221778D01*
X165699Y221001D02*
X165932Y221234D01*
X165154Y221001D02*
X165154Y221001D01*
X164437Y221718D02*
X165154Y221001D01*
X164437Y221718D02*
X164437Y221718D01*
X163659Y221484D02*
X163892Y221718D01*
X163659Y220940D02*
X163659Y220940D01*
X164376Y220223D01*
X164376Y220223D02*
X164376Y220223D01*
X164143Y219445D02*
X164376Y219678D01*
X163598Y219445D02*
X163598Y219445D01*
X162881Y220162D02*
X163598Y219445D01*
X162881Y220162D02*
X162881Y220162D01*
X162103Y219929D02*
X162337Y220162D01*
X162103Y219384D02*
X162103Y219384D01*
X162820Y218667D01*
X162820Y218667D02*
X162820Y218667D01*
X162587Y217889D02*
X162820Y218123D01*
X162043Y217889D02*
X162043Y217889D01*
X161326Y218606D02*
X162043Y217889D01*
X161326Y218606D02*
X161326Y218606D01*
X160548Y218373D02*
X160781Y218606D01*
X160548Y217829D02*
X160548Y217829D01*
X161265Y217111D01*
X161265Y217111D02*
X161265Y217111D01*
X161032Y216334D02*
X161265Y216567D01*
X160487Y216334D02*
X160487Y216334D01*
X159770Y217051D02*
X160487Y216334D01*
X159770Y217051D02*
X159770Y217051D01*
X158992Y216817D02*
X159225Y217051D01*
X158992Y216273D02*
X158992Y216273D01*
X159709Y215556D01*
X159709Y215556D02*
X159709Y215556D01*
X159476Y214778D02*
X159709Y215011D01*
X158931Y214778D02*
X158931Y214778D01*
X158214Y215495D02*
X158931Y214778D01*
X158214Y215495D02*
X158214Y215495D01*
X157436Y215262D02*
X157670Y215495D01*
X157436Y214717D02*
X157436Y214717D01*
X158072Y214082D01*
X158072Y214082D02*
X158072Y214082D01*
X157896Y213198D02*
X158072Y213374D01*
X168480Y223782D02*
X169248Y224550D01*
X157584Y212886D02*
X157896Y213198D01*
X155825Y211127D02*
X157584Y212886D01*
X153166Y210981D02*
X155472D01*
X152781Y210266D02*
Y210596D01*
X153166Y209881D02*
X155265D01*
X155650Y209166D02*
Y209496D01*
X153166Y208781D02*
X155265D01*
X152781Y208066D02*
Y208396D01*
X153166Y207681D02*
X155265D01*
X155650Y206966D02*
Y207296D01*
X153305Y206581D02*
X155265D01*
X152920Y205866D02*
Y206196D01*
X153305Y205481D02*
X155265D01*
X155650Y204766D02*
Y205096D01*
X153839Y204381D02*
X155265D01*
X153454Y203666D02*
Y203996D01*
X153839Y203281D02*
X154126D01*
X154083Y202031D02*
X154480Y202427D01*
X153284Y201231D02*
X154083Y202031D01*
X150029Y201231D02*
X153284D01*
X169248Y224550D02*
X176252D01*
X148819Y200021D02*
X150029Y201231D01*
X148819Y198095D02*
Y200021D01*
X142176Y197349D02*
X148073D01*
X148819Y198095D01*
X177765Y220273D02*
X179164Y218874D01*
X181126D02*
X182677Y217323D01*
X179164Y218874D02*
X181126D01*
X178615Y221385D02*
X179527Y220473D01*
X178615Y221385D02*
Y222187D01*
X179527Y220472D02*
Y220473D01*
X176252Y224550D02*
X178615Y222187D01*
X177765Y220273D02*
Y221835D01*
X175900Y223700D02*
X177765Y221835D01*
X169600Y223700D02*
X175900D01*
X156324Y195694D02*
X157365Y196735D01*
X156324Y194987D02*
X159452Y191860D01*
X159218Y191082D02*
X159452Y191315D01*
X153478Y196278D02*
X158674Y191082D01*
X152700Y196044D02*
X152933Y196278D01*
X152700Y195500D02*
X158100Y190100D01*
X157867Y189322D02*
X158100Y189556D01*
X150919Y195725D02*
X157322Y189322D01*
X150141Y195492D02*
X150374Y195725D01*
X150141Y194948D02*
X156544Y188545D01*
X156311Y187767D02*
X156544Y188000D01*
X151362Y192171D02*
X155766Y187767D01*
X150584Y191938D02*
X150818Y192171D01*
X150584Y191393D02*
X154989Y186989D01*
X154755Y186211D02*
X154989Y186444D01*
X151247Y189175D02*
X154211Y186211D01*
X151247Y189175D02*
X151247Y189175D01*
X150394Y187847D02*
Y188821D01*
X149019Y195891D02*
X149669Y196541D01*
X149019Y195314D02*
Y195891D01*
X143958Y194814D02*
X148519D01*
X143608Y194164D02*
Y194464D01*
X143958Y193814D02*
X149114D01*
X149464Y193164D02*
Y193464D01*
X143073Y192814D02*
X149114D01*
X142723Y192164D02*
Y192464D01*
X143073Y191814D02*
X149114D01*
X149464Y191164D02*
Y191464D01*
X146889Y190814D02*
X149114D01*
X146539Y190164D02*
Y190464D01*
X146889Y189814D02*
X148200D01*
X148700Y189064D02*
Y189314D01*
X149669Y196541D02*
X150528Y197400D01*
X148700Y185314D02*
Y189064D01*
X144053Y196499D02*
X148425D01*
X150125Y198199D01*
X150528Y197400D02*
X155668D01*
X158268Y200000D01*
X137795Y190242D02*
X144053Y196499D01*
X137795Y187008D02*
Y190242D01*
X123622Y185433D02*
X125197Y183858D01*
X111024Y185433D02*
X112598Y183858D01*
X106299Y180709D02*
X106512Y180922D01*
X107212D02*
X108589Y182299D01*
X106512Y180922D02*
X107212D01*
X108589Y182299D02*
X111008D01*
X108403Y183703D02*
X109293D01*
X106983Y182283D02*
X108403Y183703D01*
X99896Y182283D02*
X106983D01*
X109293Y183703D02*
X109449Y183858D01*
X140698Y201013D02*
X141528D01*
X140362Y201349D02*
X140698Y201013D01*
X139370Y202341D02*
X140362Y201349D01*
X140362D01*
X139370Y202341D02*
Y204331D01*
X141528Y201013D02*
X142552Y199989D01*
X141033Y198492D02*
X142176Y197349D01*
X140945Y199606D02*
X141033Y199518D01*
Y198492D02*
Y199518D01*
X115748Y202756D02*
X117323Y201181D01*
X123622Y204331D02*
X125197Y202756D01*
X122047D02*
X123622Y201181D01*
X118898Y202756D02*
X120472Y204331D01*
X118898Y205906D02*
X120472Y207480D01*
X122047Y205906D02*
X123622Y207480D01*
X125197Y205906D02*
X126772Y204331D01*
X125197Y199606D02*
X126772Y198031D01*
X122047Y199606D02*
X123622Y198031D01*
X118898Y199606D02*
X120472Y198031D01*
X115748Y199606D02*
X117323Y198031D01*
X174803Y212598D02*
X176378Y214173D01*
X171653Y215748D02*
X173228Y214173D01*
X179527Y211024D02*
X181102Y209449D01*
X182677Y207874D02*
X184252Y206299D01*
X179527Y207874D02*
X181102Y206299D01*
X182677Y211023D02*
X184300Y209401D01*
X182677Y211023D02*
Y211024D01*
X184300Y209401D02*
Y209401D01*
X173228Y201575D02*
X173228D01*
X147244Y183858D02*
X148700Y185314D01*
X111024Y204331D02*
X112598Y205906D01*
X181102Y187402D02*
X182677Y188976D01*
X181102Y200000D02*
X182677Y201575D01*
X174803Y206299D02*
X176378Y207874D01*
X109449Y187008D02*
X111024Y188583D01*
X174803Y184252D02*
X176378Y185827D01*
X174803Y184252D02*
X174803D01*
X171653Y177953D02*
X171653D01*
X173228Y179527D01*
X174803Y174803D02*
X176378Y176378D01*
X171653Y174803D02*
X173228Y176378D01*
X177953Y177953D02*
X179527Y179527D01*
Y182677D02*
Y182677D01*
X177953Y181102D02*
X179527Y182677D01*
X184252Y200000D02*
X185827Y201575D01*
X171653Y181102D02*
X173228Y182677D01*
X106299Y183858D02*
X107874Y185433D01*
X112598Y202756D02*
X114173Y204331D01*
X116929Y188490D02*
Y191732D01*
X115748Y187008D02*
Y187309D01*
X116929Y188490D01*
X101575Y198031D02*
X103150Y199606D01*
X104724Y201181D02*
X107874D01*
X109449Y202756D01*
X106299D02*
X107874Y204331D01*
X179527Y214173D02*
X181102Y212598D01*
X118898Y187008D02*
X120472Y188583D01*
X112598Y187008D02*
X114173Y188583D01*
X106299Y187008D02*
X107874Y188583D01*
X103150Y183858D02*
X104724Y185433D01*
X103150Y187008D02*
X104724Y188583D01*
X106299Y199606D02*
X107874Y198031D01*
X109449Y199606D02*
X111024Y198031D01*
X112598Y199606D02*
X114173Y198031D01*
X158268Y200000D02*
X158268D01*
X157365Y196735D02*
X157480Y196850D01*
X150394Y187008D02*
Y187847D01*
X173227Y188976D02*
X173228D01*
X171653Y187403D02*
X173227Y188976D01*
X134646Y202756D02*
X134646D01*
X136221Y201181D02*
Y201182D01*
X171653Y187402D02*
Y187403D01*
X134646Y202756D02*
X136221Y201182D01*
X187402Y200000D02*
Y200000D01*
X185827Y198425D02*
X187402Y200000D01*
X150394Y199606D02*
X150695D01*
X151089Y200000D02*
X154331D01*
X150695Y199606D02*
X151089Y200000D01*
X128347Y187008D02*
X128347D01*
X126772Y185433D02*
X128347Y187008D01*
X131496Y205906D02*
X133071Y204331D01*
X134646Y205906D02*
X136221Y204331D01*
X145669Y207480D02*
X147244Y205906D01*
X140945Y202756D02*
X142520Y204331D01*
X144095Y205906D01*
X139370Y204331D02*
X139370D01*
X137795Y205906D02*
X139370Y204331D01*
X137795Y202756D02*
X139370Y204331D01*
X140945Y205906D01*
X150394Y202756D02*
X151969Y204331D01*
X147244Y202756D02*
X148819Y204331D01*
X150394Y205906D01*
X137795Y199606D02*
X137795D01*
X139370Y198031D01*
X128347Y199606D02*
X129921Y198031D01*
X128347Y199606D02*
X128347D01*
X140945Y187008D02*
X140945D01*
X142520Y185433D01*
X144095Y183858D02*
X145669Y185433D01*
X136221Y185433D02*
Y185433D01*
X128347Y183858D02*
X129921Y185433D01*
X177953Y193701D02*
X179528Y195276D01*
X174803Y190551D02*
X176378Y192126D01*
X134646Y183858D02*
X136221Y185433D01*
X133071Y185433D02*
X134646Y187008D01*
X144095Y202756D02*
X145669Y204331D01*
X144095Y199606D02*
X145669Y201181D01*
X171653Y196850D02*
X173228Y198425D01*
X184252Y203150D02*
X185827Y204724D01*
X184252Y187402D02*
X185827Y188976D01*
X184252Y190551D02*
X185827Y192126D01*
X181102Y190551D02*
X182677Y192126D01*
X177953Y187402D02*
X179528Y188976D01*
X177953Y184252D02*
X179528Y185827D01*
X174803Y177953D02*
X176378Y179528D01*
X177953Y190551D02*
X179528Y192126D01*
X184252Y193701D02*
X185827Y195276D01*
X182677Y195276D02*
Y195669D01*
X181102Y193701D02*
X182677Y195276D01*
X181102Y196850D02*
X182677Y198425D01*
X177953Y196850D02*
X179176Y198074D01*
X179485D02*
X179528Y198031D01*
X179176Y198074D02*
X179485D01*
X174803Y196850D02*
X176378Y198425D01*
Y198425D01*
X177953Y200000D02*
X179528Y201575D01*
X174803Y200000D02*
X176378Y201575D01*
X171653Y200000D02*
X173228Y201575D01*
X171653Y184252D02*
X173228Y185827D01*
X174803Y187402D02*
X176378Y188976D01*
Y188976D01*
X131496Y202756D02*
X133071Y201181D01*
X133071D01*
D15*
X201575Y92339D02*
G03*
X201868Y91632I1000J0D01*
G01*
X291296Y213729D02*
G03*
X291139Y213741I-157J-988D01*
G01*
X292966Y260971D02*
G03*
X293022Y260920I703J711D01*
G01*
X201868Y91632D02*
X236035Y57465D01*
X201575Y92339D02*
Y173228D01*
X204659Y93241D02*
X239900Y58000D01*
X204659Y93241D02*
Y173163D01*
X204724Y173228D01*
X186614Y141732D02*
Y148031D01*
X196063Y137992D02*
Y141732D01*
X193701Y135630D02*
X196063Y137992D01*
X193701Y135433D02*
Y135630D01*
X186614Y137992D02*
X188976Y135630D01*
X186614Y137992D02*
Y141732D01*
X188976Y135433D02*
Y135630D01*
X294488Y263779D02*
X298688D01*
X288189Y264370D02*
X293689D01*
X294279Y263779D01*
X294488D01*
Y271260D02*
X298688D01*
X293295Y270276D02*
X294279Y271260D01*
X294488D01*
X288189Y270276D02*
X293295D01*
X104701Y193468D02*
X125036D01*
X104146Y192913D02*
X104701Y193468D01*
X103937Y192913D02*
X104146D01*
X125036Y193468D02*
X131496Y187008D01*
X137008Y177953D02*
X137795Y178740D01*
X129134Y177953D02*
X137008D01*
X128464Y178623D02*
X129134Y177953D01*
X23851Y115982D02*
Y120868D01*
X137795Y178740D02*
Y180709D01*
X101000Y170886D02*
Y175409D01*
Y166362D02*
Y170886D01*
X128347Y180709D02*
X128464Y180591D01*
Y178623D02*
Y180591D01*
X165378Y177929D02*
Y183938D01*
Y177929D02*
X171653Y171653D01*
X165575Y197262D02*
X169136Y193701D01*
X171653D01*
X165378Y197262D02*
X165575D01*
X164605Y187889D02*
X165378Y188662D01*
X160100Y165562D02*
Y185297D01*
X162692Y187889D01*
X164605D01*
X165378Y188662D02*
Y192538D01*
X160100Y165562D02*
X162700D01*
X157500D02*
X160100D01*
X37795Y339370D02*
Y344094D01*
X29394Y336142D02*
X32622Y339370D01*
X27228Y336142D02*
X29394D01*
X32622Y339370D02*
X37795D01*
X28933Y355028D02*
X30984D01*
X31287Y354724D01*
X31496D01*
X28842Y355118D02*
X28933Y355028D01*
X20973Y352075D02*
X23634D01*
X23724Y352165D01*
X20866Y351969D02*
X20973Y352075D01*
X32374Y351091D02*
X34335Y349130D01*
X50700D01*
X28933Y351091D02*
X32374D01*
X23815Y354043D02*
X25193D01*
X25207Y354029D01*
X23724Y354134D02*
X23815Y354043D01*
X25207Y354029D02*
X25207D01*
X27965Y351272D01*
X28752D01*
X28933Y351091D01*
X33071Y347779D02*
X50700D01*
X50948Y347532D01*
X57374D01*
X51070Y349500D02*
X57374D01*
X50700Y349130D02*
X51070Y349500D01*
X41445Y340445D02*
Y343020D01*
X42520Y344094D01*
X43791Y329815D02*
X44271D01*
X43110Y328740D02*
Y329134D01*
X43791Y329815D01*
X44271D02*
X44377Y329921D01*
X45948D01*
X47529Y331502D01*
Y332929D01*
X37988Y328736D02*
X37992Y328740D01*
Y333307D01*
X37441Y333858D02*
X37992Y333307D01*
X50321Y335720D02*
X57374D01*
X47529Y332929D02*
X50321Y335720D01*
X42311Y335209D02*
X43661Y333858D01*
X42311Y335209D02*
Y339161D01*
X42520Y339370D01*
X41445Y340445D02*
X42520Y339370D01*
Y344291D02*
X43791Y345563D01*
X57374D01*
X43110Y352150D02*
Y352362D01*
Y352150D02*
X43791Y351468D01*
X57374D01*
X41839Y360933D02*
X42913Y362008D01*
X41839Y358555D02*
Y360933D01*
Y358555D02*
X42913Y357480D01*
Y362008D02*
Y362205D01*
X41949Y356516D02*
X42913Y357480D01*
X43060Y355405D02*
X57374D01*
X41949Y356516D02*
X43060Y355405D01*
X41839Y363280D02*
X42913Y362205D01*
X41839Y363280D02*
Y366681D01*
X42874Y367717D01*
X35016Y362385D02*
X38009D01*
X38189Y362205D01*
X35016Y357661D02*
X38009D01*
X38189Y357480D01*
X34819Y352542D02*
X37812D01*
X37992Y352362D01*
X45467Y35246D02*
X52300D01*
X38633D02*
X45467D01*
X31800D02*
X38633D01*
X24967D02*
X31800D01*
X18133D02*
X24967D01*
X11300D02*
X18133D01*
X313901Y102599D02*
X316300Y100200D01*
X306935Y102599D02*
X313901D01*
X306693Y102841D02*
X306935Y102599D01*
X311059Y155441D02*
X316300Y150200D01*
X306693Y155441D02*
X311059D01*
X291315Y278150D02*
X291365Y278200D01*
X293838D01*
X288189Y278150D02*
X291315D01*
X50465Y353472D02*
X57339D01*
X50394Y353543D02*
X50465Y353472D01*
X57339D02*
X57374Y353437D01*
X50603Y342520D02*
X51496Y341626D01*
X50394Y342520D02*
X50603D01*
X51496Y341626D02*
X57374D01*
X50603Y342520D02*
X51677Y343595D01*
X57374D01*
X50394Y337795D02*
X50465Y337724D01*
X57339D02*
X57374Y337689D01*
X50465Y337724D02*
X57339D01*
Y333717D02*
X57374Y333752D01*
X52221Y333717D02*
X57339D01*
X50000Y331496D02*
X52221Y333717D01*
X88583Y375941D02*
X90248Y374275D01*
Y368595D02*
Y374275D01*
X88583Y375941D02*
Y375984D01*
X101503Y335755D02*
X109377D01*
X101469Y335720D02*
X101503Y335755D01*
X109377D02*
X109449Y335827D01*
X75989Y309449D02*
Y309830D01*
X80405Y314247D02*
Y324500D01*
X75989Y309830D02*
X80405Y314247D01*
X162704Y156861D02*
Y160834D01*
X157504Y156861D02*
Y160834D01*
X165378Y192538D02*
X166183Y191732D01*
X173073Y192126D02*
X173228D01*
X169609Y188662D02*
X173073Y192126D01*
X165378Y188662D02*
X169609D01*
X165378Y188662D02*
X165378Y188662D01*
X204204Y234067D02*
Y238039D01*
X204196Y225361D02*
Y229333D01*
X184409Y277563D02*
X188382D01*
X160393D02*
X164366D01*
X174803Y193701D02*
X176378Y195276D01*
X173228Y192126D02*
X174803Y193701D01*
X201248Y342722D02*
X202122D01*
X204111Y344711D01*
X204111D01*
X200567Y342041D02*
X201248Y342722D01*
X204111Y344711D02*
X206100Y346700D01*
X191500Y342041D02*
X200567D01*
X221435D02*
X222371Y342977D01*
X222375Y342975D02*
X225900Y346500D01*
X222371Y342977D02*
X222377D01*
X218700Y342041D02*
X221435D01*
X36658Y367721D02*
Y371693D01*
X37988Y324763D02*
Y328736D01*
X145961Y375513D02*
X149934D01*
X151767Y354396D02*
X155739D01*
X143061Y354503D02*
X147034D01*
X88704Y384366D02*
Y388339D01*
X80004Y384366D02*
Y388339D01*
X88564Y379774D02*
X88700Y379638D01*
X84323Y379774D02*
X88564D01*
X101503Y349535D02*
X111552D01*
X80546Y379774D02*
X84323D01*
X80405Y379633D02*
X80546Y379774D01*
X101469Y349500D02*
X101503Y349535D01*
X111662Y349645D02*
X115147D01*
X111552Y349535D02*
X111662Y349645D01*
X110331Y376674D02*
X114304D01*
X110331Y370769D02*
X114304D01*
X80000Y379638D02*
X80405Y379232D01*
Y368595D02*
Y379232D01*
X88897Y379638D02*
X92216Y376318D01*
X88700Y379638D02*
X88897D01*
X92216Y368595D02*
Y376318D01*
X120017Y349500D02*
X120123Y349606D01*
X123228D01*
X114961Y349832D02*
X115288Y349504D01*
X114308Y358953D02*
X114961Y358301D01*
Y349832D02*
Y358301D01*
X89268Y309347D02*
X91826D01*
X92216Y309738D01*
X75989Y309449D02*
X78347D01*
X72546Y314462D02*
X75503D01*
X75700D01*
X73000Y311959D02*
X75503Y314462D01*
X72589Y311959D02*
X73000D01*
X72441Y311811D02*
X72589Y311959D01*
X92216Y314462D02*
Y324500D01*
X70563Y316445D02*
X72546Y314462D01*
X70563Y316445D02*
Y324500D01*
X313392Y315441D02*
X317000D01*
X309784D02*
X313392D01*
X306176Y320559D02*
X309784D01*
X302568D02*
X306176D01*
X267909Y296063D02*
X268100Y296253D01*
X260630Y296063D02*
X267909D01*
X285827Y302953D02*
Y306103D01*
X279921Y302953D02*
Y306103D01*
X274016Y302953D02*
Y306103D01*
X270866Y309449D02*
X293307D01*
X268100Y302946D02*
Y306683D01*
X270866Y309449D01*
X293307D02*
X295669Y311811D01*
X279134Y216300D02*
X283661Y211773D01*
X316929Y320630D02*
X317000Y320559D01*
X316929Y320630D02*
Y324803D01*
X302205Y102841D02*
X306693D01*
X301147Y103900D02*
X302205Y102841D01*
X293744Y104609D02*
X294454Y103900D01*
X288189Y104609D02*
X293744D01*
X306660Y116092D02*
X306693Y116059D01*
X306660Y116092D02*
Y118272D01*
X306693Y100676D02*
Y102841D01*
X298562Y120300D02*
X301500D01*
X298562Y173100D02*
X301500D01*
X298562Y225400D02*
X301500D01*
X288189Y120358D02*
X293780D01*
X293838Y120300D01*
X279134Y163703D02*
X283661Y159175D01*
X279134Y111106D02*
X283661Y106578D01*
X264921Y132058D02*
X265945Y131034D01*
X263648Y132058D02*
X264921D01*
X265945Y128822D02*
Y131034D01*
X264600Y98505D02*
X265945Y99850D01*
Y102050D01*
X264280Y125960D02*
X270472Y119767D01*
X302006Y155441D02*
X306693D01*
X301046Y156400D02*
X302006Y155441D01*
X288189Y157207D02*
X293547D01*
X294354Y156400D01*
X306660Y168692D02*
Y170872D01*
Y168692D02*
X306693Y168659D01*
Y153276D02*
Y155441D01*
X288189Y172955D02*
X293693D01*
X293838Y173100D01*
X283661Y106578D02*
X288189D01*
X277756Y112483D02*
X288189D01*
X283661Y106578D02*
X285300Y104939D01*
X277756Y112483D02*
X279134Y111106D01*
X274803Y115436D02*
X277756Y112483D01*
X285300Y104000D02*
Y104939D01*
X285602Y102078D02*
X285630Y102050D01*
X285602Y102078D02*
Y103698D01*
X285300Y104000D02*
X285602Y103698D01*
X270472Y111106D02*
X274803Y115436D01*
X266142Y106775D02*
X270472Y111106D01*
X264300Y104933D02*
X266142Y106775D01*
X264300Y103800D02*
Y104933D01*
X264004Y102078D02*
Y103504D01*
X264300Y103800D01*
X263976Y102050D02*
X264004Y102078D01*
X279724Y102050D02*
Y106184D01*
X279134Y106775D02*
X279724Y106184D01*
X283465Y115436D02*
X284449Y116420D01*
X288189D01*
X283465Y124098D02*
X285300Y125933D01*
X279134Y119767D02*
X283465Y124098D01*
X274803Y115436D02*
X279134Y119767D01*
X285300Y125933D02*
Y126800D01*
X285602Y127102D01*
Y128795D01*
X285630Y128822D01*
X270472Y119767D02*
X274803Y115436D01*
X264280Y125960D02*
Y126920D01*
X264004Y127196D02*
X264280Y126920D01*
X264004Y127196D02*
Y128795D01*
X263976Y128822D02*
X264004Y128795D01*
X285327Y156573D02*
X285602Y156298D01*
X283661Y159175D02*
X285327Y157510D01*
Y156573D02*
Y157510D01*
X275787Y169018D02*
X288189D01*
X270472Y163703D02*
X274803Y168034D01*
X266142Y159372D02*
X270472Y163703D01*
X264298Y157529D02*
X266142Y159372D01*
X264004Y156504D02*
X264298Y156798D01*
Y157529D01*
X264004Y154675D02*
Y156504D01*
X263976Y154648D02*
X264004Y154675D01*
X279724Y154648D02*
Y158782D01*
X279134Y159372D02*
X279724Y158782D01*
X283661Y159175D02*
X288189D01*
X277756Y165081D02*
X288189D01*
X277756D02*
X279134Y163703D01*
X274803Y168034D02*
X277756Y165081D01*
X285602Y154675D02*
X285630Y154648D01*
X285602Y154675D02*
Y156298D01*
X275787Y169018D02*
X279134Y172364D01*
X274803Y168034D02*
X275787Y169018D01*
X283465Y176695D02*
X285200Y178430D01*
X279134Y172364D02*
X283465Y176695D01*
X285200Y178430D02*
Y179200D01*
X285602Y181392D02*
X285630Y181419D01*
X285602Y179602D02*
Y181392D01*
X285200Y179200D02*
X285602Y179602D01*
X270472Y172364D02*
X274803Y168034D01*
X264500Y178337D02*
X270472Y172364D01*
X264500Y178337D02*
Y179100D01*
X264004Y179596D02*
X264500Y179100D01*
X263976Y181419D02*
X264004Y181392D01*
Y179596D02*
Y181392D01*
X285602Y232383D02*
Y233989D01*
X279134Y224962D02*
X285327Y231155D01*
Y232107D02*
X285602Y232383D01*
X285327Y231155D02*
Y232107D01*
X285602Y233989D02*
X285630Y234017D01*
X275787Y221615D02*
X288189D01*
X270472Y224962D02*
X274803Y220631D01*
X264280Y231155D02*
X270472Y224962D01*
X264280Y231155D02*
Y232020D01*
X264004Y232296D02*
X264280Y232020D01*
X263976Y234017D02*
X264004Y233989D01*
Y232296D02*
Y233989D01*
X275787Y221615D02*
X279134Y224962D01*
X274803Y220631D02*
X275787Y221615D01*
X277756Y217678D02*
X288189D01*
X277756D02*
X279134Y216300D01*
X274803Y220631D02*
X277756Y217678D01*
X283661Y211773D02*
X288189D01*
X283661D02*
X283661D01*
X285300Y210134D01*
X283465Y211970D02*
X283661Y211773D01*
X285300Y209400D02*
Y210134D01*
X285602Y207273D02*
X285630Y207245D01*
X285602Y207273D02*
Y209098D01*
X285300Y209400D02*
X285602Y209098D01*
X270472Y216300D02*
X274803Y220631D01*
X266142Y211970D02*
X270472Y216300D01*
X264298Y210126D02*
X266142Y211970D01*
X264004Y208904D02*
X264298Y209198D01*
Y210126D01*
X264004Y207273D02*
Y208904D01*
X263976Y207245D02*
X264004Y207273D01*
X265945Y181419D02*
Y183631D01*
X263648Y184655D02*
X264921D01*
X265945Y183631D01*
Y152447D02*
Y154648D01*
X264600Y151103D02*
X265945Y152447D01*
X288189Y225552D02*
X293686D01*
X293838Y225400D01*
X288189Y163112D02*
X291300D01*
X288189Y161144D02*
X291139D01*
X300984Y259842D02*
X301575Y260433D01*
X306693D01*
X300847Y209300D02*
X302006Y208141D01*
X306693D01*
X309459D01*
X316300Y201300D01*
X314105Y260395D02*
X316300Y258200D01*
X306693Y260433D02*
X306731Y260395D01*
X314105D01*
X306693Y205976D02*
Y208141D01*
X306660Y221392D02*
X306693Y221359D01*
X306660Y221392D02*
Y223572D01*
X264600Y203700D02*
X265945Y205045D01*
Y207245D01*
X298562Y278200D02*
X301500D01*
X283465Y281890D02*
X285630Y284055D01*
X279134Y277559D02*
X283465Y281890D01*
X274803Y273228D02*
X279134Y277559D01*
X285630Y284055D02*
Y286614D01*
X270472Y277559D02*
X274803Y273228D01*
X263976Y284055D02*
X270472Y277559D01*
X263976Y284055D02*
Y286614D01*
X284449Y274213D02*
X288189D01*
X283465Y273228D02*
X284449Y274213D01*
X279134Y268898D02*
X283661Y264370D01*
X283465Y268898D02*
X284842Y270276D01*
X288189D01*
X283661Y264370D02*
X285300Y262732D01*
X283661Y264370D02*
X288189D01*
X283661D02*
X283661D01*
X283465Y264567D02*
X283661Y264370D01*
X274803Y273228D02*
X279134Y268898D01*
X285300Y261900D02*
Y262732D01*
Y261900D02*
X285602Y261598D01*
Y259870D02*
X285630Y259842D01*
X285602Y259870D02*
Y261598D01*
X279724Y259842D02*
Y263976D01*
X279134Y264567D02*
X279724Y263976D01*
X264298Y262724D02*
X266142Y264567D01*
X264004Y261604D02*
X264298Y261898D01*
Y262724D01*
X264004Y259870D02*
Y261604D01*
X264000Y256200D02*
X265945Y258145D01*
Y259842D01*
X263500Y237400D02*
X263648Y237252D01*
X264921D02*
X265945Y236229D01*
X263648Y237252D02*
X264921D01*
X265278Y289493D02*
Y289702D01*
X265917Y286642D02*
Y288854D01*
Y286642D02*
X265945Y286614D01*
X265278Y289493D02*
X265917Y288854D01*
X265945Y234017D02*
Y236229D01*
X153200Y161400D02*
Y183100D01*
X160664Y190565D01*
Y204664D01*
X163874Y207874D01*
X188976Y195276D02*
X190551Y196850D01*
X188976Y198425D02*
X190551Y196850D01*
X190600Y200044D02*
X192126Y198519D01*
X192081Y201575D02*
X192126D01*
X190600Y200138D02*
X190645D01*
X192126Y198425D02*
Y198519D01*
X190600Y200044D02*
Y200138D01*
X190645D02*
X192081Y201575D01*
X94000Y384449D02*
Y387900D01*
Y384449D02*
X94087Y384362D01*
X93988D02*
X94185D01*
X108068Y360368D02*
Y362621D01*
X108200Y362754D01*
X107043Y359343D02*
X108068Y360368D01*
X101469Y359343D02*
X107043D01*
X57374Y361311D02*
Y366165D01*
X64600Y384420D02*
X64657Y384362D01*
X64600Y384420D02*
Y387600D01*
X59300Y374721D02*
Y379574D01*
X52731Y373700D02*
Y378554D01*
X44100Y385277D02*
Y389300D01*
X44069Y385246D02*
X44100Y385277D01*
X37306Y384298D02*
Y389152D01*
X46325Y361775D02*
X50726Y357374D01*
X46325Y361775D02*
Y376691D01*
X50726Y357374D02*
X57374D01*
X48500Y381410D02*
X52337Y385246D01*
X48500Y362600D02*
Y381410D01*
Y362600D02*
X51758Y359343D01*
X43049Y379574D02*
X44069Y378554D01*
X51758Y359343D02*
X57374D01*
X44069Y378554D02*
X44463D01*
X46325Y376691D01*
X208800Y381500D02*
X216610D01*
X206100Y378800D02*
X208800Y381500D01*
X206100Y346700D02*
Y378800D01*
X216610Y381500D02*
X223831Y374279D01*
X211181Y376929D02*
X215900Y372210D01*
X211005Y342041D02*
X215900Y346936D01*
Y372210D01*
X210611Y342041D02*
X211005D01*
X225900Y346500D02*
Y372210D01*
X223831Y374279D02*
X225900Y372210D01*
X223831Y374279D02*
Y374279D01*
X163874Y207874D02*
X173228D01*
X148200Y156400D02*
X153200Y161400D01*
X108300Y156400D02*
X148200D01*
X100100D02*
X108300D01*
Y160430D02*
X108524Y160653D01*
X95800Y160700D02*
X100100Y156400D01*
X108300D02*
Y160430D01*
X104454Y158746D02*
Y162377D01*
X95800Y160700D02*
Y221800D01*
X99500Y225500D01*
X119000D01*
X125787Y218713D01*
X127328D01*
X128347Y205906D02*
Y217694D01*
X127328Y218713D02*
X128347Y217694D01*
X94300Y339657D02*
X101469D01*
X57374D02*
X94300D01*
X94185Y339772D02*
X94300Y339657D01*
X94185Y339772D02*
Y368595D01*
X64657Y339700D02*
Y368595D01*
X151081Y360509D02*
X151762Y359828D01*
X149938Y360509D02*
X151081D01*
X151762Y354400D02*
Y359828D01*
X145300Y364500D02*
X146071Y365271D01*
X145300Y356258D02*
Y364500D01*
X146071Y365271D02*
X149700D01*
X149938Y365509D01*
X145886Y355672D02*
X145963D01*
X145300Y356258D02*
X145886Y355672D01*
X145963D02*
X147038Y354597D01*
Y354400D02*
Y354597D01*
X118855Y360509D02*
X128678D01*
X114505Y364859D02*
X118855Y360509D01*
X114308Y364859D02*
X114505D01*
X121650Y365509D02*
X128678D01*
X121001Y364859D02*
X121650Y365509D01*
X121257Y370509D02*
X128678D01*
X121001Y370765D02*
X121257Y370509D01*
X121001Y376670D02*
X122162Y375509D01*
X128678D01*
X128732Y365454D02*
X133746D01*
X128732Y370454D02*
X133746D01*
X128732Y375454D02*
X133746D01*
X128678Y375509D02*
X128732Y375454D01*
X133746D02*
X133800Y375400D01*
X68574Y357707D02*
Y368574D01*
X70508Y355341D02*
Y368539D01*
X66639Y359799D02*
Y368581D01*
X94185Y368595D02*
Y379638D01*
X64657Y368595D02*
Y379638D01*
X37306Y379574D02*
X43049D01*
X52337Y385246D02*
X52731D01*
X53679Y384298D02*
X59300D01*
X52731Y385246D02*
X53679Y384298D01*
X191181Y347478D02*
X191500Y347159D01*
X191181Y347478D02*
Y366929D01*
X201181Y347774D02*
Y366929D01*
X200567Y347159D02*
X201181Y347774D01*
X218700Y363014D02*
X221181Y365495D01*
X218700Y347159D02*
Y363014D01*
X221181Y365495D02*
Y366929D01*
X211181Y347729D02*
Y366929D01*
X210611Y347159D02*
X211181Y347729D01*
X185557Y283858D02*
X189370D01*
X165313Y283900D02*
X165354Y283858D01*
X161500Y283900D02*
X165313D01*
X183465Y303740D02*
Y328543D01*
X159449Y303740D02*
Y328543D01*
X190551Y222047D02*
X192126Y220472D01*
X195276Y220472D02*
Y253862D01*
X198425Y220472D02*
Y277559D01*
X174409Y274728D02*
X195276Y253862D01*
X142585Y161638D02*
X146457D01*
X138714D02*
X142585D01*
X118168Y160653D02*
Y172777D01*
Y160630D02*
Y160653D01*
X128209D01*
X97638Y169488D02*
Y175197D01*
Y164156D02*
Y169488D01*
Y164156D02*
X99081Y162713D01*
X99925D02*
X101000Y161638D01*
X99081Y162713D02*
X99925D01*
X97638Y175197D02*
X103150Y180709D01*
X108524Y167347D02*
Y167543D01*
X104454Y162377D02*
X107055Y164978D01*
Y165878D02*
X108524Y167347D01*
X107055Y164978D02*
Y165878D01*
X118898Y174409D02*
X121647Y171660D01*
Y167347D02*
Y171660D01*
X115085Y160653D02*
X118168D01*
X115085Y160850D02*
X116554Y162319D01*
X115085Y160653D02*
Y160850D01*
X115748Y175197D02*
X118168Y172777D01*
X118898Y174409D02*
Y180709D01*
X128209Y160653D02*
X128209Y160653D01*
X115748Y175197D02*
Y180709D01*
X102075Y162713D02*
X102550D01*
X104724Y164887D02*
Y169291D01*
X102550Y162713D02*
X104724Y164887D01*
Y169291D02*
Y175984D01*
X101000Y161638D02*
X102075Y162713D01*
X101000Y175409D02*
X106299Y180709D01*
X104724Y175984D02*
X109449Y180709D01*
X108524Y167543D02*
X112598Y171618D01*
Y180709D01*
X110255Y162319D02*
X115085Y167150D01*
X108524Y160850D02*
X109992Y162319D01*
X108524Y160653D02*
Y160850D01*
X115085Y167150D02*
Y167347D01*
X109992Y162319D02*
X110255D01*
X114271Y168161D02*
X115085Y167347D01*
X114271Y168161D02*
Y179842D01*
X23458Y208895D02*
Y213782D01*
X110376Y14547D02*
X117161D01*
X103590D02*
X110376D01*
X96804D02*
X103590D01*
X90018D02*
X96804D01*
X83233D02*
X90018D01*
X76447D02*
X83233D01*
X69661D02*
X76447D01*
X117161Y8261D02*
Y14547D01*
X69661Y8261D02*
Y14547D01*
X52300Y8268D02*
Y14554D01*
X45467Y8268D02*
Y14554D01*
X38633Y8268D02*
Y14554D01*
X31800Y8268D02*
Y14554D01*
X24967Y8268D02*
Y14554D01*
X18133Y8268D02*
Y14554D01*
X11300Y8268D02*
Y14554D01*
X212205Y9265D02*
Y14961D01*
X174409Y283858D02*
Y303740D01*
Y277559D02*
Y283858D01*
X170079D02*
X174409D01*
X198425Y303740D02*
Y328543D01*
Y283858D02*
Y303740D01*
Y281177D02*
Y283858D01*
X194095D02*
X198425D01*
Y277559D02*
Y281102D01*
X195079Y277559D02*
X198425D01*
X174409Y303740D02*
Y328543D01*
Y274728D02*
Y277559D01*
X171063D02*
X174409D01*
X176772Y108661D02*
Y159527D01*
X143516Y52474D02*
X151069Y60027D01*
X142957Y53824D02*
X149719Y60587D01*
X142398Y55174D02*
X148369Y61146D01*
X145194Y48424D02*
X155119Y58350D01*
X141838Y56524D02*
X147019Y61705D01*
X144634Y49774D02*
X153769Y58909D01*
X144075Y51124D02*
X152419Y59468D01*
X85433Y57874D02*
X141279D01*
X145669Y62264D02*
Y100550D01*
X141279Y57874D02*
X145669Y62264D01*
X90776Y56524D02*
X141838D01*
X149719Y60587D02*
Y98873D01*
X96513Y55174D02*
X142398D01*
X112541Y51124D02*
X144075D01*
X101856Y53824D02*
X142957D01*
X152419Y59468D02*
Y97695D01*
X118278Y49774D02*
X144634D01*
X123621Y48424D02*
X145194D01*
X153769Y58909D02*
Y97076D01*
X147019Y61705D02*
Y99991D01*
X155119Y58350D02*
Y96458D01*
X151069Y60027D02*
Y98313D01*
X107198Y52474D02*
X143516D01*
X148369Y61146D02*
Y99432D01*
X155015Y107987D02*
X164642D01*
X170022Y111457D02*
Y162148D01*
X155575Y106637D02*
X165201D01*
X170022Y111457D01*
X166320Y103937D02*
X172722Y110339D01*
X168672Y112016D02*
Y163160D01*
X156134Y105287D02*
X165761D01*
X167322Y112576D02*
Y164172D01*
X154456Y109337D02*
X164083D01*
X175422Y109221D02*
Y160039D01*
X167438Y101237D02*
X175422Y109221D01*
X157930Y101237D02*
X167438D01*
X164642Y107987D02*
X168672Y112016D01*
X165761Y105287D02*
X171372Y110898D01*
X158548Y99887D02*
X167997D01*
X164083Y109337D02*
X167322Y112576D01*
X167997Y99887D02*
X176772Y108661D01*
X157311Y102587D02*
X166879D01*
X172722Y110339D02*
Y160911D01*
X171372Y110898D02*
Y161529D01*
X156693Y103937D02*
X166320D01*
X166879Y102587D02*
X174072Y109780D01*
Y160686D01*
X152419Y97695D02*
X157311Y102587D01*
X151069Y98313D02*
X156693Y103937D01*
X148369Y99432D02*
X155575Y106637D01*
X147019Y99991D02*
X155015Y107987D01*
X153769Y97076D02*
X157930Y101237D01*
X145669Y100550D02*
X154456Y109337D01*
X149719Y98873D02*
X156134Y105287D01*
X155119Y96458D02*
X158548Y99887D01*
X110376Y41872D02*
X118278Y49774D01*
X90018Y41987D02*
X101856Y53824D01*
X69661Y42102D02*
X85433Y57874D01*
X117161Y41965D02*
X123621Y48424D01*
X96804Y42080D02*
X107198Y52474D01*
X76447Y42195D02*
X90776Y56524D01*
X83233Y41894D02*
X96513Y55174D01*
X103590Y42173D02*
X112541Y51124D01*
X174600Y30500D02*
X182300Y38200D01*
X180950Y46850D02*
Y160241D01*
X192126Y171417D01*
X182300Y38200D02*
Y159682D01*
X179600Y55500D02*
Y160800D01*
X190600Y171800D01*
X182300Y159682D02*
X187493Y164874D01*
X174600Y50500D02*
X179600Y55500D01*
X174600Y40500D02*
X180950Y46850D01*
X96804Y35394D02*
Y42080D01*
X69661Y35394D02*
Y42102D01*
X76447Y35394D02*
Y42195D01*
X83233Y35394D02*
Y41894D01*
X90018Y35394D02*
Y41987D01*
X103590Y35394D02*
Y42173D01*
X110376Y35394D02*
Y41872D01*
X117161Y35394D02*
Y41965D01*
X198819Y46457D02*
Y51351D01*
X198752Y51418D02*
X198819Y51351D01*
X222441Y46063D02*
Y51233D01*
X222256Y51418D02*
X222441Y51233D01*
X235039Y9599D02*
Y15748D01*
Y9599D02*
X235347Y9292D01*
X203691Y9117D02*
Y14813D01*
Y9117D02*
X204008Y8800D01*
X203543Y14961D02*
X203691Y14813D01*
X190779Y10178D02*
X190852Y10250D01*
Y16495D01*
X190924Y16567D01*
X195276Y9068D02*
X195543Y8800D01*
X195276Y9068D02*
Y15017D01*
X199213Y9265D02*
X199677Y8800D01*
X199213Y9265D02*
Y14961D01*
X207874Y9265D02*
Y14961D01*
Y9265D02*
X208339Y8800D01*
X216142Y9658D02*
Y15354D01*
Y9658D02*
X217000Y8800D01*
X220866Y9265D02*
Y15748D01*
Y9265D02*
X221331Y8800D01*
X225661D02*
Y15677D01*
X239900Y36877D02*
Y58000D01*
X237599Y34576D02*
X239900Y36877D01*
X236035Y47580D02*
Y57465D01*
Y33013D02*
X236167D01*
X237599Y34444D01*
Y34576D01*
X195166Y172547D02*
Y173118D01*
X187493Y164874D02*
X195166Y172547D01*
X187493Y164874D02*
X187493D01*
X195166Y173118D02*
X195276Y173228D01*
X192126Y171417D02*
Y173168D01*
X193701Y174803D02*
X195276Y176378D01*
X201575Y185827D02*
X203150Y184252D01*
X201575Y182677D02*
X203150Y181102D01*
X204724Y179527D02*
X206299Y177953D01*
X204724Y176378D02*
X206299Y174803D01*
X201575Y179527D02*
X203150Y177953D01*
X201575Y176378D02*
X203150Y174803D01*
X195276Y179527D02*
X196850Y177953D01*
X192126Y179527D02*
X193701Y177953D01*
X198425Y182677D02*
X200000Y181102D01*
X195276Y182677D02*
X196850Y181102D01*
X192126Y182677D02*
X193701Y181102D01*
X198425Y185827D02*
X200000Y184252D01*
X195276Y185827D02*
X196850Y184252D01*
X192126Y185827D02*
X193701Y184252D01*
X139370Y182283D02*
X140945Y183858D01*
X137795D02*
X137795D01*
X139370Y182283D01*
X101575Y207480D02*
X103150Y205906D01*
X104724Y207480D02*
X106299Y205906D01*
X107874Y207480D02*
X109449Y205906D01*
X107874Y207480D02*
X107956Y207563D01*
X171653Y193701D02*
X173228Y195276D01*
X171653Y193701D02*
X171653D01*
X174803Y181102D02*
X176378Y182677D01*
X220472Y220472D02*
Y220472D01*
X222047Y222047D01*
X206299Y218898D02*
X207874Y220472D01*
X207874D01*
X288189Y268310D02*
X291300D01*
X288189Y266341D02*
X291139D01*
X288189Y110510D02*
X291300D01*
X288189Y108541D02*
X291139D01*
X288189Y213741D02*
X291139D01*
X288189Y215710D02*
X291300D01*
X223228Y195276D02*
Y195276D01*
X220472Y195276D02*
X223228D01*
X306693Y274213D02*
Y276378D01*
Y258268D02*
Y260433D01*
X292965Y260972D02*
X292966Y260971D01*
X293022Y260920D02*
X294291Y259842D01*
X292626Y261311D02*
X292965Y260972D01*
X292626Y261311D02*
Y261508D01*
X291732Y262402D02*
X292626Y261508D01*
X288189Y262402D02*
X291732D01*
X171653Y171653D02*
X173228Y173228D01*
X176378Y211024D02*
X177953Y212598D01*
X171653Y222047D02*
X173228Y220472D01*
X171653Y222047D02*
Y222047D01*
X184252D02*
X185827Y220472D01*
Y220472D02*
Y220472D01*
X220472Y173228D02*
X222047Y171653D01*
X215748Y184252D02*
Y184252D01*
Y184252D02*
X217323Y182677D01*
X220472Y195276D02*
Y195276D01*
X215748Y212598D02*
X217323Y211024D01*
X215748Y212598D02*
Y212598D01*
X190551Y209449D02*
X192126Y207874D01*
X190551Y209449D02*
Y209449D01*
X176378Y195276D02*
X176378D01*
X203150Y200000D02*
X204724Y201575D01*
X201575D02*
X203150Y200000D01*
X201575Y201575D02*
X201575D01*
X196850Y190551D02*
X198425Y192126D01*
X196850Y190551D02*
X198425Y188976D01*
Y188976D02*
Y188976D01*
X195276D02*
X196850Y190551D01*
X195276Y188976D02*
Y188976D01*
X203150Y206299D02*
Y206299D01*
Y206299D02*
X204724Y204724D01*
X200000Y206299D02*
X201575Y204724D01*
X200000Y206299D02*
Y206299D01*
X196850Y206299D02*
X198425Y204724D01*
X196850Y206299D02*
Y206299D01*
X193701Y206299D02*
X195276Y204724D01*
X193701Y206299D02*
Y206299D01*
X192126Y204724D02*
X193701Y206299D01*
X195276Y192126D02*
Y192126D01*
X196850Y193701D01*
X203150Y193701D02*
Y193701D01*
Y193701D02*
X204724Y192126D01*
X201575D02*
X203150Y193701D01*
Y190551D02*
X204724Y188976D01*
Y188976D02*
Y188976D01*
X201575Y188976D02*
X203150Y190551D01*
X192126Y195276D02*
X193701Y193701D01*
X193701D01*
X192126Y192126D02*
X193701Y193701D01*
X195276Y195276D02*
Y195276D01*
X203150Y196850D02*
Y196850D01*
Y196850D02*
X204724Y195276D01*
X203150Y196850D02*
X204724Y198425D01*
X200000Y196850D02*
X201575Y195276D01*
Y195276D02*
Y195276D01*
X200000Y196850D02*
X201575Y198425D01*
X198425Y201575D02*
X198425D01*
X195276Y198425D02*
Y198425D01*
X188976Y192126D02*
X190551Y193701D01*
Y190551D02*
X192126Y188976D01*
Y188976D02*
Y188976D01*
X188976Y188976D02*
X190551Y190551D01*
X188976Y198425D02*
X188976D01*
X188976Y204724D02*
X190551Y203150D01*
X190551D01*
X188976Y201575D02*
X190551Y203150D01*
X52300Y21246D02*
Y28554D01*
X45467Y21246D02*
Y28554D01*
X38633Y21246D02*
Y28554D01*
X31800Y21246D02*
Y28554D01*
X24967Y21246D02*
Y28554D01*
X18133Y21246D02*
Y28554D01*
X11300Y21246D02*
Y28554D01*
X117161Y21240D02*
Y28701D01*
X110376Y21240D02*
Y28701D01*
X103590Y21240D02*
Y28701D01*
X96804Y21240D02*
Y28701D01*
X90018Y21240D02*
Y28701D01*
X83233Y21240D02*
Y28701D01*
X76447Y21240D02*
Y28701D01*
X69661Y21240D02*
Y28701D01*
X19350Y178045D02*
X19390D01*
X18669Y162282D02*
Y177364D01*
X23426Y162302D02*
X23458Y162334D01*
Y167220D01*
X23552Y167126D01*
X26558D01*
X18669Y177364D02*
X19350Y178045D01*
X19390Y185525D02*
X20177D01*
X27334Y178138D02*
X30123D01*
X20177Y185525D02*
X20858Y184844D01*
Y184613D02*
Y184844D01*
Y184613D02*
X27334Y178138D01*
X30123D02*
X30217Y178045D01*
X23945Y74213D02*
X26952D01*
X23851Y74307D02*
X23945Y74213D01*
X23851Y69421D02*
Y74307D01*
X23820Y69389D02*
X23851Y69421D01*
X30517Y85224D02*
X30610Y85131D01*
X21252Y91700D02*
X27727Y85224D01*
X21252Y91700D02*
Y91931D01*
X20571Y92612D02*
X21252Y91931D01*
X27727Y85224D02*
X30517D01*
X19783Y92612D02*
X20571D01*
X19744Y85131D02*
X19783D01*
X19063Y84450D02*
X19744Y85131D01*
X19063Y69387D02*
Y84450D01*
X23820Y115951D02*
X23851Y115982D01*
Y120868D02*
X23945Y120774D01*
X26952D01*
X19063Y115948D02*
Y131012D01*
X19744Y131693D01*
X19783D01*
Y139173D02*
X20571D01*
X27727Y131786D02*
X30517D01*
X20571Y139173D02*
X21252Y138492D01*
Y138261D02*
Y138492D01*
Y138261D02*
X27727Y131786D01*
X30517D02*
X30610Y131693D01*
X23552Y213687D02*
X26558D01*
X23458Y213782D02*
X23552Y213687D01*
X23426Y208864D02*
X23458Y208895D01*
X19350Y224606D02*
X19390D01*
X18669Y223925D02*
X19350Y224606D01*
X18669Y208862D02*
Y223925D01*
X30123Y224699D02*
X30217Y224606D01*
X20858Y231175D02*
X27334Y224699D01*
X20858Y231175D02*
Y231405D01*
X20177Y232087D02*
X20858Y231405D01*
X27334Y224699D02*
X30123D01*
X19390Y232087D02*
X20177D01*
X23787Y255318D02*
X23819Y255350D01*
Y260236D01*
X23913Y260142D01*
X26920D01*
X19783Y278543D02*
X20571D01*
X27727Y271156D02*
X30517D01*
X20571Y278543D02*
X21252Y277862D01*
Y277632D02*
Y277862D01*
Y277632D02*
X27727Y271156D01*
X30517D02*
X30610Y271063D01*
X19063Y255318D02*
Y270382D01*
X19744Y271063D01*
X19783D01*
D19*
X196063Y141732D02*
D03*
Y148031D02*
D03*
X186614D02*
D03*
Y141732D02*
D03*
X191339Y148031D02*
D03*
Y141732D02*
D03*
D20*
X20866Y379724D02*
D03*
Y386417D02*
D03*
X27953Y379724D02*
D03*
Y386417D02*
D03*
X11300Y28554D02*
D03*
Y35246D02*
D03*
X18133Y28554D02*
D03*
Y35246D02*
D03*
X24967Y28554D02*
D03*
Y35246D02*
D03*
X31800Y28554D02*
D03*
Y35246D02*
D03*
X38633Y28554D02*
D03*
Y35246D02*
D03*
X45467Y28554D02*
D03*
Y35246D02*
D03*
X52300Y28554D02*
D03*
Y35246D02*
D03*
X69661Y28701D02*
D03*
Y35394D02*
D03*
X76447Y28701D02*
D03*
Y35394D02*
D03*
X83233Y28701D02*
D03*
Y35394D02*
D03*
X90018Y28701D02*
D03*
Y35394D02*
D03*
X96804Y28701D02*
D03*
Y35394D02*
D03*
X103590Y28701D02*
D03*
Y35394D02*
D03*
X110376Y28701D02*
D03*
Y35394D02*
D03*
X117161Y28701D02*
D03*
Y35394D02*
D03*
X115085Y167347D02*
D03*
Y160653D02*
D03*
X128209Y160653D02*
D03*
Y167347D02*
D03*
X121647Y160653D02*
D03*
Y167347D02*
D03*
X108524Y167347D02*
D03*
Y160653D02*
D03*
X52300Y21246D02*
D03*
Y14554D02*
D03*
X45467Y21246D02*
D03*
Y14554D02*
D03*
X38633Y21246D02*
D03*
Y14554D02*
D03*
X31800Y21246D02*
D03*
Y14554D02*
D03*
X24967Y21246D02*
D03*
Y14554D02*
D03*
X18133Y21246D02*
D03*
Y14554D02*
D03*
X11300Y21246D02*
D03*
Y14554D02*
D03*
X117161Y21240D02*
D03*
Y14547D02*
D03*
X110376Y21240D02*
D03*
Y14547D02*
D03*
X103590Y21240D02*
D03*
Y14547D02*
D03*
X96804Y21240D02*
D03*
Y14547D02*
D03*
X90018Y21240D02*
D03*
Y14547D02*
D03*
X83233Y21240D02*
D03*
Y14547D02*
D03*
X76447Y21240D02*
D03*
Y14547D02*
D03*
X69661Y21240D02*
D03*
Y14547D02*
D03*
X274016Y296260D02*
D03*
Y302953D02*
D03*
X279921Y296260D02*
D03*
Y302953D02*
D03*
X285827Y296260D02*
D03*
Y302953D02*
D03*
X268100Y302946D02*
D03*
Y296253D02*
D03*
D21*
X28842Y364961D02*
D03*
Y362992D02*
D03*
Y361024D02*
D03*
Y359055D02*
D03*
Y357087D02*
D03*
Y355118D02*
D03*
Y351181D02*
D03*
Y349213D02*
D03*
Y347244D02*
D03*
Y345276D02*
D03*
Y343307D02*
D03*
Y341339D02*
D03*
X23724Y344291D02*
D03*
Y346260D02*
D03*
Y348228D02*
D03*
Y350197D02*
D03*
Y352165D02*
D03*
Y354134D02*
D03*
Y356102D02*
D03*
Y358071D02*
D03*
Y360039D02*
D03*
Y362008D02*
D03*
D22*
Y340945D02*
D03*
Y365354D02*
D03*
D23*
X288332Y315638D02*
D03*
Y320362D02*
D03*
X281116Y315638D02*
D03*
Y320362D02*
D03*
X273900Y315638D02*
D03*
Y320362D02*
D03*
X75700Y314462D02*
D03*
Y309738D02*
D03*
X92216Y314462D02*
D03*
Y309738D02*
D03*
X204200Y234062D02*
D03*
Y229338D02*
D03*
X162700Y165562D02*
D03*
Y160838D02*
D03*
X157500Y165562D02*
D03*
Y160838D02*
D03*
X165378Y188662D02*
D03*
Y183938D02*
D03*
Y192538D02*
D03*
Y197262D02*
D03*
X64657Y379638D02*
D03*
Y384362D02*
D03*
X94185Y379638D02*
D03*
Y384362D02*
D03*
X37306Y379574D02*
D03*
Y384298D02*
D03*
X59300Y384298D02*
D03*
Y379574D02*
D03*
X146457Y166362D02*
D03*
Y161638D02*
D03*
X138714Y166362D02*
D03*
Y161638D02*
D03*
X101000Y166362D02*
D03*
Y161638D02*
D03*
X146457Y217638D02*
D03*
Y222362D02*
D03*
X112992Y217638D02*
D03*
Y222362D02*
D03*
X105905Y217638D02*
D03*
Y222362D02*
D03*
X128600Y217638D02*
D03*
Y222362D02*
D03*
X88700Y384362D02*
D03*
Y379638D02*
D03*
X80000Y384362D02*
D03*
Y379638D02*
D03*
X44177Y182109D02*
D03*
Y186833D02*
D03*
X38986Y182175D02*
D03*
Y186899D02*
D03*
X12992Y181496D02*
D03*
Y186221D02*
D03*
X44475Y89284D02*
D03*
Y94008D02*
D03*
X44488Y135827D02*
D03*
Y140551D02*
D03*
X43701Y229134D02*
D03*
Y233858D02*
D03*
X44094Y275591D02*
D03*
Y280315D02*
D03*
X13386Y279134D02*
D03*
Y274410D02*
D03*
X38976Y275591D02*
D03*
Y280315D02*
D03*
X38554Y229130D02*
D03*
Y233855D02*
D03*
X12992Y227953D02*
D03*
Y232677D02*
D03*
X39370Y135827D02*
D03*
Y140551D02*
D03*
X13386Y135039D02*
D03*
Y139764D02*
D03*
X39370Y89265D02*
D03*
Y93990D02*
D03*
X13315Y88619D02*
D03*
Y93344D02*
D03*
D24*
X306693Y208141D02*
D03*
Y213259D02*
D03*
Y216241D02*
D03*
Y221359D02*
D03*
X302568Y320559D02*
D03*
Y315441D02*
D03*
X309784D02*
D03*
Y320559D02*
D03*
X317000D02*
D03*
Y315441D02*
D03*
X210611Y347159D02*
D03*
Y342041D02*
D03*
X306693Y260433D02*
D03*
Y265551D02*
D03*
Y269094D02*
D03*
Y274213D02*
D03*
X200567Y342041D02*
D03*
Y347159D02*
D03*
X191500Y342041D02*
D03*
Y347159D02*
D03*
X218700Y342041D02*
D03*
Y347159D02*
D03*
X306693Y107959D02*
D03*
Y102841D02*
D03*
Y116059D02*
D03*
Y110941D02*
D03*
Y160559D02*
D03*
Y155441D02*
D03*
Y168659D02*
D03*
Y163541D02*
D03*
D25*
X188976Y135433D02*
D03*
X193701D02*
D03*
X115292Y349500D02*
D03*
X120017D02*
D03*
X42520Y344094D02*
D03*
X37795D02*
D03*
X42520Y339370D02*
D03*
X37795D02*
D03*
X147038Y354400D02*
D03*
X151762D02*
D03*
X38189Y357480D02*
D03*
X42913D02*
D03*
X38189Y362205D02*
D03*
X42913D02*
D03*
X189370Y283858D02*
D03*
X194095D02*
D03*
X165354D02*
D03*
X170079D02*
D03*
X293838Y120300D02*
D03*
X298562D02*
D03*
X293838Y173100D02*
D03*
X298562D02*
D03*
X293838Y225400D02*
D03*
X298562D02*
D03*
X293838Y278200D02*
D03*
X298562D02*
D03*
X18763Y162282D02*
D03*
X23487D02*
D03*
X19063Y255318D02*
D03*
X23787D02*
D03*
X18701Y208864D02*
D03*
X23426D02*
D03*
X19079Y115958D02*
D03*
X23803D02*
D03*
X19078Y69519D02*
D03*
X23802D02*
D03*
D26*
X37441Y333858D02*
D03*
X43661D02*
D03*
X42874Y367717D02*
D03*
X36654D02*
D03*
D27*
X43110Y328740D02*
D03*
X37992D02*
D03*
X37992Y352362D02*
D03*
X43110D02*
D03*
X23425Y167323D02*
D03*
X18307D02*
D03*
X18307Y172047D02*
D03*
X23425D02*
D03*
X23425Y213779D02*
D03*
X18307D02*
D03*
X23819Y264961D02*
D03*
X18701D02*
D03*
X23819Y260236D02*
D03*
X18701D02*
D03*
X18307Y218504D02*
D03*
X23425D02*
D03*
X23819Y120866D02*
D03*
X18701D02*
D03*
X18701Y125591D02*
D03*
X23819D02*
D03*
X23819Y74410D02*
D03*
X18701D02*
D03*
X18701Y79134D02*
D03*
X23819D02*
D03*
D28*
X64657Y368595D02*
D03*
X66626D02*
D03*
X68594D02*
D03*
X70563D02*
D03*
X72531D02*
D03*
X74500D02*
D03*
X76468D02*
D03*
X78437D02*
D03*
X80405D02*
D03*
X82374D02*
D03*
X84342D02*
D03*
X86311D02*
D03*
X88279D02*
D03*
X90248D02*
D03*
X92216D02*
D03*
X94185D02*
D03*
Y324500D02*
D03*
X92216D02*
D03*
X90248D02*
D03*
X88279D02*
D03*
X86311D02*
D03*
X84342D02*
D03*
X82374D02*
D03*
X80405D02*
D03*
X78437D02*
D03*
X76468D02*
D03*
X74500D02*
D03*
X72531D02*
D03*
X70563D02*
D03*
X68594D02*
D03*
X66626D02*
D03*
X64657D02*
D03*
D29*
X101469Y361311D02*
D03*
Y359343D02*
D03*
Y357374D02*
D03*
Y355405D02*
D03*
Y353437D02*
D03*
Y351468D02*
D03*
Y349500D02*
D03*
Y347532D02*
D03*
Y345563D02*
D03*
Y343595D02*
D03*
Y341626D02*
D03*
Y339657D02*
D03*
Y337689D02*
D03*
Y335720D02*
D03*
Y333752D02*
D03*
Y331784D02*
D03*
X57374D02*
D03*
Y333752D02*
D03*
Y335720D02*
D03*
Y337689D02*
D03*
Y339657D02*
D03*
Y341626D02*
D03*
Y343595D02*
D03*
Y345563D02*
D03*
Y347532D02*
D03*
Y349500D02*
D03*
Y351468D02*
D03*
Y353437D02*
D03*
Y355405D02*
D03*
Y357374D02*
D03*
Y359343D02*
D03*
Y361311D02*
D03*
D30*
X114308Y358953D02*
D03*
X121001D02*
D03*
X114308Y370765D02*
D03*
X121001D02*
D03*
X114308Y364859D02*
D03*
X121001D02*
D03*
X114308Y376670D02*
D03*
X121001D02*
D03*
X171063Y277559D02*
D03*
X164370D02*
D03*
X188386D02*
D03*
X195079D02*
D03*
X294454Y103900D02*
D03*
X301147D02*
D03*
X294354Y156400D02*
D03*
X301046D02*
D03*
X294153Y209300D02*
D03*
X300847D02*
D03*
X294291Y259842D02*
D03*
X300984D02*
D03*
D31*
X128678Y375509D02*
D03*
Y370509D02*
D03*
Y365509D02*
D03*
Y360509D02*
D03*
X149938Y375509D02*
D03*
Y370509D02*
D03*
Y365509D02*
D03*
Y360509D02*
D03*
D32*
X52731Y378554D02*
D03*
X44069D02*
D03*
Y385246D02*
D03*
X52731D02*
D03*
D33*
X183465Y328543D02*
D03*
X198425D02*
D03*
Y303740D02*
D03*
X183465D02*
D03*
X159449Y328543D02*
D03*
X174409D02*
D03*
Y303740D02*
D03*
X159449D02*
D03*
D34*
X284147Y97358D02*
D03*
X281195D02*
D03*
X284139Y149629D02*
D03*
X281186D02*
D03*
X284176Y201900D02*
D03*
X281224D02*
D03*
X284055Y254724D02*
D03*
X281102D02*
D03*
X195177Y153543D02*
D03*
X192224D02*
D03*
D35*
X274803Y273228D02*
D03*
Y115436D02*
D03*
Y168034D02*
D03*
Y220631D02*
D03*
D36*
X261417Y262402D02*
D03*
Y264370D02*
D03*
Y266339D02*
D03*
Y268307D02*
D03*
Y270276D02*
D03*
Y272244D02*
D03*
Y274213D02*
D03*
Y276181D02*
D03*
Y278150D02*
D03*
Y280118D02*
D03*
Y282087D02*
D03*
Y284055D02*
D03*
X288189D02*
D03*
Y282087D02*
D03*
Y280118D02*
D03*
Y278150D02*
D03*
Y276181D02*
D03*
Y274213D02*
D03*
Y272244D02*
D03*
Y270276D02*
D03*
Y268307D02*
D03*
Y266339D02*
D03*
Y264370D02*
D03*
Y262402D02*
D03*
Y104609D02*
D03*
Y106578D02*
D03*
Y108546D02*
D03*
Y110515D02*
D03*
Y112483D02*
D03*
Y114452D02*
D03*
Y116420D02*
D03*
Y118389D02*
D03*
Y120358D02*
D03*
Y122326D02*
D03*
Y124294D02*
D03*
Y126263D02*
D03*
X261417D02*
D03*
Y124294D02*
D03*
Y122326D02*
D03*
Y120358D02*
D03*
Y118389D02*
D03*
Y116420D02*
D03*
Y114452D02*
D03*
Y112483D02*
D03*
Y110515D02*
D03*
Y108546D02*
D03*
Y106578D02*
D03*
Y104609D02*
D03*
X288189Y157207D02*
D03*
Y159175D02*
D03*
Y161144D02*
D03*
Y163112D02*
D03*
Y165081D02*
D03*
Y167049D02*
D03*
Y169018D02*
D03*
Y170986D02*
D03*
Y172955D02*
D03*
Y174923D02*
D03*
Y176892D02*
D03*
Y178860D02*
D03*
X261417D02*
D03*
Y176892D02*
D03*
Y174923D02*
D03*
Y172955D02*
D03*
Y170986D02*
D03*
Y169018D02*
D03*
Y167049D02*
D03*
Y165081D02*
D03*
Y163112D02*
D03*
Y161144D02*
D03*
Y159175D02*
D03*
Y157207D02*
D03*
X288189Y209804D02*
D03*
Y211773D02*
D03*
Y213741D02*
D03*
Y215710D02*
D03*
Y217678D02*
D03*
Y219647D02*
D03*
Y221615D02*
D03*
Y223584D02*
D03*
Y225552D02*
D03*
Y227521D02*
D03*
Y229489D02*
D03*
Y231458D02*
D03*
X261417D02*
D03*
Y229489D02*
D03*
Y227521D02*
D03*
Y225552D02*
D03*
Y223584D02*
D03*
Y221615D02*
D03*
Y219647D02*
D03*
Y217678D02*
D03*
Y215710D02*
D03*
Y213741D02*
D03*
Y211773D02*
D03*
Y209804D02*
D03*
D37*
X263976Y286614D02*
D03*
X265945D02*
D03*
X267913D02*
D03*
X269882D02*
D03*
X271850D02*
D03*
X273819D02*
D03*
X275787D02*
D03*
X277756D02*
D03*
X279724D02*
D03*
X281693D02*
D03*
X283661D02*
D03*
X285630D02*
D03*
Y259842D02*
D03*
X283661D02*
D03*
X281693D02*
D03*
X279724D02*
D03*
X277756D02*
D03*
X275787D02*
D03*
X273819D02*
D03*
X271850D02*
D03*
X269882D02*
D03*
X267913D02*
D03*
X265945D02*
D03*
X263976D02*
D03*
Y102050D02*
D03*
X265945D02*
D03*
X267913D02*
D03*
X269882D02*
D03*
X271850D02*
D03*
X273819D02*
D03*
X275787D02*
D03*
X277756D02*
D03*
X279724D02*
D03*
X281693D02*
D03*
X283661D02*
D03*
X285630D02*
D03*
Y128822D02*
D03*
X283661D02*
D03*
X281693D02*
D03*
X279724D02*
D03*
X277756D02*
D03*
X275787D02*
D03*
X273819D02*
D03*
X271850D02*
D03*
X269882D02*
D03*
X267913D02*
D03*
X265945D02*
D03*
X263976D02*
D03*
Y154648D02*
D03*
X265945D02*
D03*
X267913D02*
D03*
X269882D02*
D03*
X271850D02*
D03*
X273819D02*
D03*
X275787D02*
D03*
X277756D02*
D03*
X279724D02*
D03*
X281693D02*
D03*
X283661D02*
D03*
X285630D02*
D03*
Y181419D02*
D03*
X283661D02*
D03*
X281693D02*
D03*
X279724D02*
D03*
X277756D02*
D03*
X275787D02*
D03*
X273819D02*
D03*
X271850D02*
D03*
X269882D02*
D03*
X267913D02*
D03*
X265945D02*
D03*
X263976D02*
D03*
Y207245D02*
D03*
X265945D02*
D03*
X267913D02*
D03*
X269882D02*
D03*
X271850D02*
D03*
X273819D02*
D03*
X275787D02*
D03*
X277756D02*
D03*
X279724D02*
D03*
X281693D02*
D03*
X283661D02*
D03*
X285630D02*
D03*
Y234017D02*
D03*
X283661D02*
D03*
X281693D02*
D03*
X279724D02*
D03*
X277756D02*
D03*
X275787D02*
D03*
X273819D02*
D03*
X271850D02*
D03*
X269882D02*
D03*
X267913D02*
D03*
X265945D02*
D03*
X263976D02*
D03*
D38*
X222256Y51418D02*
D03*
X198752D02*
D03*
D39*
X225661Y8800D02*
D03*
X221331D02*
D03*
X217000D02*
D03*
X212669D02*
D03*
X208339D02*
D03*
X204008D02*
D03*
X199677D02*
D03*
D40*
X195543D02*
D03*
D41*
X235347Y9292D02*
D03*
D42*
X190779Y10178D02*
D03*
D43*
X236035Y33013D02*
D03*
Y47580D02*
D03*
D44*
X384724Y309567D02*
D03*
Y330197D02*
D03*
Y358780D02*
D03*
Y379410D02*
D03*
Y211142D02*
D03*
Y231772D02*
D03*
Y260354D02*
D03*
Y280984D02*
D03*
Y112716D02*
D03*
Y133346D02*
D03*
Y161929D02*
D03*
Y182559D02*
D03*
Y14291D02*
D03*
Y34921D02*
D03*
Y63504D02*
D03*
Y84134D02*
D03*
D45*
Y319882D02*
D03*
Y369094D02*
D03*
Y221457D02*
D03*
Y270669D02*
D03*
Y123031D02*
D03*
Y172244D02*
D03*
Y24606D02*
D03*
Y73819D02*
D03*
D46*
X295785Y314890D02*
D03*
Y321110D02*
D03*
X13386Y290512D02*
D03*
X12992Y191378D02*
D03*
Y197598D02*
D03*
X13386Y284291D02*
D03*
X12992Y237835D02*
D03*
Y244055D02*
D03*
X13386Y144921D02*
D03*
Y151142D02*
D03*
Y98465D02*
D03*
Y104685D02*
D03*
D47*
X19390Y178150D02*
D03*
Y185630D02*
D03*
X30217D02*
D03*
Y181890D02*
D03*
Y178150D02*
D03*
X30610Y271063D02*
D03*
Y274803D02*
D03*
Y278543D02*
D03*
X19783D02*
D03*
Y271063D02*
D03*
X19390Y224606D02*
D03*
Y232087D02*
D03*
X30217D02*
D03*
Y228346D02*
D03*
Y224606D02*
D03*
X19783Y131693D02*
D03*
Y139173D02*
D03*
X30610D02*
D03*
Y135433D02*
D03*
Y131693D02*
D03*
X19783Y85131D02*
D03*
Y92612D02*
D03*
X30610D02*
D03*
Y88872D02*
D03*
Y85131D02*
D03*
D48*
X35236Y195669D02*
D03*
X28543D02*
D03*
X28937Y102756D02*
D03*
X35630D02*
D03*
X28937Y288583D02*
D03*
X35630D02*
D03*
X35236Y242126D02*
D03*
X28543D02*
D03*
X35630Y149213D02*
D03*
X28937D02*
D03*
D49*
X103150Y180709D02*
D03*
X106299D02*
D03*
X109449D02*
D03*
X112598D02*
D03*
X115748D02*
D03*
X118898D02*
D03*
X122047D02*
D03*
X125197D02*
D03*
X128347D02*
D03*
X131496D02*
D03*
X134646D02*
D03*
X137795D02*
D03*
X140945D02*
D03*
X144095D02*
D03*
X147244D02*
D03*
X150394D02*
D03*
X103150Y183858D02*
D03*
X106299D02*
D03*
X109449D02*
D03*
X112598D02*
D03*
X115748D02*
D03*
X118898D02*
D03*
X122047D02*
D03*
X125197D02*
D03*
X128347D02*
D03*
X131496D02*
D03*
X134646D02*
D03*
X137795D02*
D03*
X140945D02*
D03*
X144095D02*
D03*
X147244D02*
D03*
X150394D02*
D03*
X103150Y187008D02*
D03*
X106299D02*
D03*
X109449D02*
D03*
X112598D02*
D03*
X115748D02*
D03*
X118898D02*
D03*
X122047D02*
D03*
X125197D02*
D03*
X128347D02*
D03*
X131496D02*
D03*
X134646D02*
D03*
X137795D02*
D03*
X140945D02*
D03*
X144095D02*
D03*
X147244D02*
D03*
X150394D02*
D03*
X103150Y199606D02*
D03*
X106299D02*
D03*
X109449D02*
D03*
X112598D02*
D03*
X115748D02*
D03*
X118898D02*
D03*
X122047D02*
D03*
X125197D02*
D03*
X128347D02*
D03*
X131496D02*
D03*
X134646D02*
D03*
X137795D02*
D03*
X140945D02*
D03*
X144095D02*
D03*
X147244D02*
D03*
X150394D02*
D03*
X103150Y202756D02*
D03*
X106299D02*
D03*
X109449D02*
D03*
X112598D02*
D03*
X115748D02*
D03*
X118898D02*
D03*
X122047D02*
D03*
X125197D02*
D03*
X128347D02*
D03*
X131496D02*
D03*
X134646D02*
D03*
X137795D02*
D03*
X140945D02*
D03*
X144095D02*
D03*
X147244D02*
D03*
X150394D02*
D03*
X103150Y205906D02*
D03*
X106299D02*
D03*
X109449D02*
D03*
X112598D02*
D03*
X115748D02*
D03*
X118898D02*
D03*
X122047D02*
D03*
X125197D02*
D03*
X128347D02*
D03*
X131496D02*
D03*
X134646D02*
D03*
X137795D02*
D03*
X140945D02*
D03*
X144095D02*
D03*
X147244D02*
D03*
X150394D02*
D03*
D50*
X173228Y220472D02*
D03*
X176378D02*
D03*
X179527D02*
D03*
X182677D02*
D03*
X185827D02*
D03*
X188976D02*
D03*
X192126D02*
D03*
X195276D02*
D03*
X198425D02*
D03*
X201575D02*
D03*
X204724D02*
D03*
X207874D02*
D03*
X211024D02*
D03*
X214173D02*
D03*
X217323D02*
D03*
X220472D02*
D03*
X173228Y217323D02*
D03*
X176378D02*
D03*
X179527D02*
D03*
X182677D02*
D03*
X185827D02*
D03*
X188976D02*
D03*
X192126D02*
D03*
X195276D02*
D03*
X198425D02*
D03*
X201575D02*
D03*
X204724D02*
D03*
X207874D02*
D03*
X211024D02*
D03*
X214173D02*
D03*
X217323D02*
D03*
X220472D02*
D03*
X173228Y214173D02*
D03*
X176378D02*
D03*
X179527D02*
D03*
X182677D02*
D03*
X185827D02*
D03*
X188976D02*
D03*
X192126D02*
D03*
X195276D02*
D03*
X198425D02*
D03*
X201575D02*
D03*
X204724D02*
D03*
X207874D02*
D03*
X211024D02*
D03*
X214173D02*
D03*
X217323D02*
D03*
X220472D02*
D03*
X173228Y211024D02*
D03*
X176378D02*
D03*
X179527D02*
D03*
X182677D02*
D03*
X185827D02*
D03*
X188976D02*
D03*
X192126D02*
D03*
X195276D02*
D03*
X198425D02*
D03*
X201575D02*
D03*
X204724D02*
D03*
X207874D02*
D03*
X211024D02*
D03*
X214173D02*
D03*
X217323D02*
D03*
X220472D02*
D03*
X173228Y207874D02*
D03*
X176378Y207874D02*
D03*
X179527Y207874D02*
D03*
X182677D02*
D03*
X185827D02*
D03*
X188976D02*
D03*
X192126D02*
D03*
X195276D02*
D03*
X198425D02*
D03*
X201575D02*
D03*
X204724D02*
D03*
X207874D02*
D03*
X211024D02*
D03*
X214173Y207874D02*
D03*
X217323D02*
D03*
X220472Y207874D02*
D03*
X173228Y204724D02*
D03*
X176378D02*
D03*
X179527D02*
D03*
X182677D02*
D03*
X185827D02*
D03*
X188976D02*
D03*
X192126D02*
D03*
X195276D02*
D03*
X198425D02*
D03*
X201575D02*
D03*
X204724D02*
D03*
X207874D02*
D03*
X211024D02*
D03*
X214173Y204724D02*
D03*
X217323Y204724D02*
D03*
X220472D02*
D03*
X173228Y201575D02*
D03*
X176378D02*
D03*
X179527D02*
D03*
X182677D02*
D03*
X185827D02*
D03*
X188976D02*
D03*
X192126D02*
D03*
X195276D02*
D03*
X198425D02*
D03*
X201575D02*
D03*
X204724D02*
D03*
X207874D02*
D03*
X211024D02*
D03*
X214173D02*
D03*
X217323D02*
D03*
X220472D02*
D03*
X173228Y198425D02*
D03*
X176378D02*
D03*
X179527D02*
D03*
X182677D02*
D03*
X185827D02*
D03*
X188976D02*
D03*
X192126D02*
D03*
X195276D02*
D03*
X198425D02*
D03*
X201575D02*
D03*
X204724D02*
D03*
X207874D02*
D03*
X211024D02*
D03*
X214173D02*
D03*
X217323D02*
D03*
X220472D02*
D03*
X173228Y195276D02*
D03*
X176378D02*
D03*
X179527D02*
D03*
X182677D02*
D03*
X185827D02*
D03*
X188976D02*
D03*
X192126D02*
D03*
X195276D02*
D03*
X198425D02*
D03*
X201575D02*
D03*
X204724D02*
D03*
X207874D02*
D03*
X211024D02*
D03*
X214173D02*
D03*
X217323D02*
D03*
X220472D02*
D03*
X173228Y192126D02*
D03*
X176378D02*
D03*
X179527D02*
D03*
X182677D02*
D03*
X185827D02*
D03*
X188976D02*
D03*
X192126D02*
D03*
X195276D02*
D03*
X198425D02*
D03*
X201575D02*
D03*
X204724D02*
D03*
X207874D02*
D03*
X211024D02*
D03*
X214173D02*
D03*
X217323D02*
D03*
X220472D02*
D03*
X173228Y188976D02*
D03*
X176378D02*
D03*
X179527D02*
D03*
X182677D02*
D03*
X185827D02*
D03*
X188976D02*
D03*
X192126D02*
D03*
X195276D02*
D03*
X198425D02*
D03*
X201575D02*
D03*
X204724D02*
D03*
X207874D02*
D03*
X211024D02*
D03*
X214173D02*
D03*
X217323D02*
D03*
X220472D02*
D03*
X173228Y185827D02*
D03*
X176378Y185827D02*
D03*
X179527Y185827D02*
D03*
X182677D02*
D03*
X185827D02*
D03*
X188976D02*
D03*
X192126D02*
D03*
X195276D02*
D03*
X198425D02*
D03*
X201575D02*
D03*
X204724D02*
D03*
X207874D02*
D03*
X211024D02*
D03*
X214173Y185827D02*
D03*
X217323D02*
D03*
X220472Y185827D02*
D03*
X173228Y182677D02*
D03*
X176378D02*
D03*
X179527D02*
D03*
X182677D02*
D03*
X185827D02*
D03*
X188976D02*
D03*
X192126D02*
D03*
X195276D02*
D03*
X198425D02*
D03*
X201575D02*
D03*
X204724D02*
D03*
X207874D02*
D03*
X211024D02*
D03*
X214173D02*
D03*
X217323D02*
D03*
X220472D02*
D03*
X173228Y179527D02*
D03*
X176378D02*
D03*
X179527D02*
D03*
X182677D02*
D03*
X185827D02*
D03*
X188976D02*
D03*
X192126D02*
D03*
X195276D02*
D03*
X198425D02*
D03*
X201575D02*
D03*
X204724D02*
D03*
X207874D02*
D03*
X211024D02*
D03*
X214173D02*
D03*
X217323D02*
D03*
X220472D02*
D03*
X173228Y176378D02*
D03*
X176378D02*
D03*
X179527D02*
D03*
X182677D02*
D03*
X185827D02*
D03*
X188976D02*
D03*
X192126D02*
D03*
X195276D02*
D03*
X198425D02*
D03*
X201575D02*
D03*
X204724D02*
D03*
X207874D02*
D03*
X211024D02*
D03*
X214173D02*
D03*
X217323D02*
D03*
X220472D02*
D03*
X173228Y173228D02*
D03*
X176378D02*
D03*
X179527D02*
D03*
X182677D02*
D03*
X185827D02*
D03*
X188976D02*
D03*
X192126D02*
D03*
X195276D02*
D03*
X198425D02*
D03*
X201575D02*
D03*
X204724D02*
D03*
X207874D02*
D03*
X211024D02*
D03*
X214173D02*
D03*
X217323D02*
D03*
X220472D02*
D03*
D92*
X199549Y172395D02*
G03*
X199448Y172090I422J-309D01*
G01*
X197047Y169133D02*
G03*
X198425Y170510I0J1378D01*
G01*
X198047Y174575D02*
G03*
X198049Y171881I378J-1347D01*
G01*
X198425Y171379D02*
G03*
X198049Y171881I-523J-0D01*
G01*
X197047Y168110D02*
G03*
X199448Y170511I0J2401D01*
G01*
Y174367D02*
G03*
X199549Y174062I523J3D01*
G01*
X199549Y172395D02*
G03*
X199549Y174062I-1124J833D01*
G01*
X195669Y168110D02*
G03*
X194212Y166653I0J-1457D01*
G01*
Y149882D02*
G03*
X196063Y148031I1851J0D01*
G01*
X199549Y175545D02*
G03*
X199448Y175240I422J-309D01*
G01*
Y177516D02*
G03*
X199549Y177212I523J3D01*
G01*
X199448Y178505D02*
G03*
X198425Y179527I-1023J0D01*
G01*
X195669Y169133D02*
G03*
X193189Y166653I0J-2480D01*
G01*
X198047Y174575D02*
G03*
X198425Y175075I-145J502D01*
G01*
X191339Y148031D02*
G03*
X193189Y149882I0J1851D01*
G01*
X199549Y175545D02*
G03*
X199549Y177212I-1124J833D01*
G01*
X252439Y213741D02*
G03*
X252362Y213665I0J-77D01*
G01*
X252242Y221615D02*
G03*
X252165Y221539I0J-77D01*
G01*
X251356Y270276D02*
G03*
X251279Y270199I0J-77D01*
G01*
X252362Y215786D02*
G03*
X252439Y215710I77J0D01*
G01*
X254429Y122479D02*
G03*
X254506Y122403I77J0D01*
G01*
X251279Y272321D02*
G03*
X251356Y272244I77J0D01*
G01*
X219409Y234686D02*
G03*
X217678Y232955I0J-1731D01*
G01*
X223403Y234686D02*
G03*
X224111Y235394I0J708D01*
G01*
Y236001D02*
G03*
X223403Y236709I-708J0D01*
G01*
X216326Y238440D02*
G03*
X218057Y236709I1731J0D01*
G01*
Y240778D02*
G03*
X216326Y239047I0J-1731D01*
G01*
X223403Y240778D02*
G03*
X224111Y241486I0J708D01*
G01*
Y242093D02*
G03*
X223403Y242801I-708J0D01*
G01*
X216326Y244533D02*
G03*
X218057Y242801I1731J0D01*
G01*
Y246871D02*
G03*
X216326Y245140I0J-1731D01*
G01*
X223403Y246871D02*
G03*
X224111Y247579I0J708D01*
G01*
Y248186D02*
G03*
X223403Y248894I-708J0D01*
G01*
X216326Y250625D02*
G03*
X218057Y248894I1731J0D01*
G01*
Y252963D02*
G03*
X216326Y251232I0J-1731D01*
G01*
X223403Y252963D02*
G03*
X224111Y253671I0J708D01*
G01*
Y254278D02*
G03*
X223403Y254986I-708J0D01*
G01*
X216326Y256717D02*
G03*
X218057Y254986I1731J0D01*
G01*
Y259055D02*
G03*
X216326Y257324I0J-1731D01*
G01*
X223403Y259055D02*
G03*
X224111Y259763I0J708D01*
G01*
Y260370D02*
G03*
X223403Y261078I-708J0D01*
G01*
X217678Y262809D02*
G03*
X219409Y261078I1731J0D01*
G01*
Y233663D02*
G03*
X218701Y232955I0J-708D01*
G01*
X223403Y233663D02*
G03*
X225134Y235394I0J1731D01*
G01*
Y236001D02*
G03*
X223403Y237732I-1731J0D01*
G01*
X217349Y238440D02*
G03*
X218057Y237732I708J0D01*
G01*
Y239755D02*
G03*
X217349Y239047I0J-708D01*
G01*
X223403Y239755D02*
G03*
X225134Y241486I0J1731D01*
G01*
Y242093D02*
G03*
X223403Y243825I-1731J0D01*
G01*
X217349Y244533D02*
G03*
X218057Y243825I708J0D01*
G01*
Y245848D02*
G03*
X217349Y245140I0J-708D01*
G01*
X223403Y245848D02*
G03*
X225134Y247579I0J1731D01*
G01*
Y248186D02*
G03*
X223403Y249917I-1731J0D01*
G01*
X217349Y250625D02*
G03*
X218057Y249917I708J0D01*
G01*
Y251940D02*
G03*
X217349Y251232I0J-708D01*
G01*
X223403Y251940D02*
G03*
X225134Y253671I0J1731D01*
G01*
Y254278D02*
G03*
X223403Y256009I-1731J0D01*
G01*
X217349Y256717D02*
G03*
X218057Y256009I708J0D01*
G01*
Y258032D02*
G03*
X217349Y257324I0J-708D01*
G01*
X223403Y258032D02*
G03*
X225134Y259763I0J1731D01*
G01*
Y260370D02*
G03*
X223403Y262102I-1731J0D01*
G01*
X218701Y262809D02*
G03*
X219409Y262102I708J0D01*
G01*
X221740Y267834D02*
G03*
X217678Y263773I0J-4062D01*
G01*
X221740Y266811D02*
G03*
X218701Y263773I0J-3039D01*
G01*
X247517Y274685D02*
G03*
X246984Y274152I0J-533D01*
G01*
X245428Y269319D02*
G03*
X246984Y270875I0J1556D01*
G01*
X243415D02*
G03*
X244971Y269319I1556J0D01*
G01*
X243415Y275193D02*
G03*
X242881Y275726I-533J0D01*
G01*
X242425D02*
G03*
X241892Y275193I0J-533D01*
G01*
X240335Y269319D02*
G03*
X241892Y270875I0J1556D01*
G01*
X238322D02*
G03*
X239878Y269319I1556J0D01*
G01*
X238322Y275193D02*
G03*
X237789Y275726I-533J0D01*
G01*
X237332D02*
G03*
X236799Y275193I0J-533D01*
G01*
X235243Y269319D02*
G03*
X236799Y270875I0J1556D01*
G01*
X233230D02*
G03*
X234786Y269319I1556J0D01*
G01*
X233230Y275193D02*
G03*
X232697Y275726I-533J0D01*
G01*
X232240D02*
G03*
X231707Y275193I0J-533D01*
G01*
X230151Y269319D02*
G03*
X231707Y270875I0J1556D01*
G01*
X228138D02*
G03*
X229694Y269319I1556J0D01*
G01*
X228138Y275193D02*
G03*
X227605Y275726I-533J0D01*
G01*
X227148D02*
G03*
X226614Y275193I0J-533D01*
G01*
X225058Y269319D02*
G03*
X226614Y270875I0J1556D01*
G01*
X223045D02*
G03*
X224601Y269319I1556J0D01*
G01*
X223045Y274152D02*
G03*
X222512Y274685I-533J0D01*
G01*
X247517Y275708D02*
G03*
X245961Y274152I0J-1556D01*
G01*
X245428Y270342D02*
G03*
X245961Y270875I0J533D01*
G01*
X244438D02*
G03*
X244971Y270342I533J0D01*
G01*
X244438Y275193D02*
G03*
X242881Y276749I-1556J0D01*
G01*
X242425D02*
G03*
X240868Y275193I0J-1556D01*
G01*
X240335Y270342D02*
G03*
X240868Y270875I0J533D01*
G01*
X239345D02*
G03*
X239878Y270342I533J0D01*
G01*
X239345Y275193D02*
G03*
X237789Y276749I-1556J0D01*
G01*
X237332D02*
G03*
X235776Y275193I0J-1556D01*
G01*
X235243Y270342D02*
G03*
X235776Y270875I0J533D01*
G01*
X234253D02*
G03*
X234786Y270342I533J0D01*
G01*
X234253Y275193D02*
G03*
X232697Y276749I-1556J0D01*
G01*
X232240D02*
G03*
X230684Y275193I0J-1556D01*
G01*
X230151Y270342D02*
G03*
X230684Y270875I0J533D01*
G01*
X229161D02*
G03*
X229694Y270342I533J0D01*
G01*
X229161Y275193D02*
G03*
X227605Y276749I-1556J0D01*
G01*
X227148D02*
G03*
X225591Y275193I0J-1556D01*
G01*
X225058Y270342D02*
G03*
X225591Y270875I0J533D01*
G01*
X224068D02*
G03*
X224601Y270342I533J0D01*
G01*
X224068Y274152D02*
G03*
X222512Y275708I-1556J0D01*
G01*
X219181D02*
G03*
X214430Y270909I0J-4751D01*
G01*
X219182Y274685D02*
G03*
X215453Y270912I0J-3730D01*
G01*
X213818Y228544D02*
G03*
X214430Y229155I0J612D01*
G01*
X213742Y228544D02*
G03*
X213742Y227321I0J-612D01*
G01*
X213818Y226097D02*
G03*
X213818Y227321I0J612D01*
G01*
X213742Y226097D02*
G03*
X213742Y224874I0J-612D01*
G01*
X213818Y223651D02*
G03*
X213818Y224874I0J612D01*
G01*
X213742Y223651D02*
G03*
X213742Y222428I0J-612D01*
G01*
X214430Y221817D02*
G03*
X213818Y222428I-612J0D01*
G01*
X255068Y280353D02*
G03*
X256799Y278622I1731J0D01*
G01*
X255068Y281912D02*
G03*
X254360Y282620I-708J0D01*
G01*
X253753D02*
G03*
X253045Y281912I0J-708D01*
G01*
X251313Y277622D02*
G03*
X253045Y279353I0J1731D01*
G01*
X248975D02*
G03*
X250707Y277622I1731J0D01*
G01*
X248975Y281912D02*
G03*
X248267Y282620I-708J0D01*
G01*
X247660D02*
G03*
X246952Y281912I0J-708D01*
G01*
X245221Y277622D02*
G03*
X246952Y279353I0J1731D01*
G01*
X242883D02*
G03*
X244614Y277622I1731J0D01*
G01*
X242883Y281912D02*
G03*
X242175Y282620I-708J0D01*
G01*
X241568D02*
G03*
X240860Y281912I0J-708D01*
G01*
X239129Y277622D02*
G03*
X240860Y279353I0J1731D01*
G01*
X236791D02*
G03*
X238522Y277622I1731J0D01*
G01*
X236791Y281912D02*
G03*
X236083Y282620I-708J0D01*
G01*
X235476D02*
G03*
X234768Y281912I0J-708D01*
G01*
X233036Y277622D02*
G03*
X234768Y279353I0J1731D01*
G01*
X230698D02*
G03*
X232430Y277622I1731J0D01*
G01*
X230698Y281912D02*
G03*
X229990Y282620I-708J0D01*
G01*
X229383D02*
G03*
X228675Y281912I0J-708D01*
G01*
X226944Y277622D02*
G03*
X228675Y279353I0J1731D01*
G01*
X224606D02*
G03*
X226337Y277622I1731J0D01*
G01*
X224606Y281912D02*
G03*
X223898Y282620I-708J0D01*
G01*
X223291D02*
G03*
X222583Y281912I0J-708D01*
G01*
X220852Y278622D02*
G03*
X222583Y280353I0J1731D01*
G01*
X256091D02*
G03*
X256799Y279645I708J0D01*
G01*
X256091Y281912D02*
G03*
X254360Y283643I-1731J0D01*
G01*
X253753D02*
G03*
X252022Y281912I0J-1731D01*
G01*
X251313Y278645D02*
G03*
X252022Y279353I0J708D01*
G01*
X249998D02*
G03*
X250707Y278645I708J0D01*
G01*
X249998Y281912D02*
G03*
X248267Y283643I-1731J0D01*
G01*
X247660D02*
G03*
X245929Y281912I0J-1731D01*
G01*
X245221Y278645D02*
G03*
X245929Y279353I0J708D01*
G01*
X243906D02*
G03*
X244614Y278645I708J0D01*
G01*
X243906Y281912D02*
G03*
X242175Y283643I-1731J0D01*
G01*
X241568D02*
G03*
X239837Y281912I0J-1731D01*
G01*
X239129Y278645D02*
G03*
X239837Y279353I0J708D01*
G01*
X237814D02*
G03*
X238522Y278645I708J0D01*
G01*
X237814Y281912D02*
G03*
X236083Y283643I-1731J0D01*
G01*
X235476D02*
G03*
X233745Y281912I0J-1731D01*
G01*
X233036Y278645D02*
G03*
X233745Y279353I0J708D01*
G01*
X231721D02*
G03*
X232430Y278645I708J0D01*
G01*
X231721Y281912D02*
G03*
X229990Y283643I-1731J0D01*
G01*
X229383D02*
G03*
X227652Y281912I0J-1731D01*
G01*
X226944Y278645D02*
G03*
X227652Y279353I0J708D01*
G01*
X225629D02*
G03*
X226337Y278645I708J0D01*
G01*
X225629Y281912D02*
G03*
X223898Y283643I-1731J0D01*
G01*
X223291D02*
G03*
X221560Y281912I0J-1731D01*
G01*
X220852Y279645D02*
G03*
X221560Y280353I0J708D01*
G01*
X254331Y211849D02*
G03*
X254407Y211773I77J0D01*
G01*
Y209804D02*
G03*
X254331Y209728I0J-77D01*
G01*
X252165Y223660D02*
G03*
X252242Y223584I77J0D01*
G01*
X254331Y219723D02*
G03*
X254407Y219647I77J0D01*
G01*
Y217678D02*
G03*
X254331Y217602I0J-77D01*
G01*
X254429Y227597D02*
G03*
X254506Y227521I77J0D01*
G01*
Y225552D02*
G03*
X254429Y225476I0J-77D01*
G01*
X254506Y120434D02*
G03*
X254429Y120358I0J-77D01*
G01*
X254407Y112560D02*
G03*
X254331Y112484I0J-77D01*
G01*
Y114605D02*
G03*
X254407Y114529I77J0D01*
G01*
Y104686D02*
G03*
X254331Y104610I0J-77D01*
G01*
Y106731D02*
G03*
X254407Y106655I77J0D01*
G01*
X252439Y108623D02*
G03*
X252362Y108546I0J-77D01*
G01*
Y110668D02*
G03*
X252439Y110592I77J0D01*
G01*
X252242Y116497D02*
G03*
X252165Y116420I0J-77D01*
G01*
Y118542D02*
G03*
X252242Y118466I77J0D01*
G01*
X254479Y157205D02*
G03*
X254402Y157129I0J-77D01*
G01*
Y159251D02*
G03*
X254479Y159174I77J0D01*
G01*
X252510Y161143D02*
G03*
X252434Y161066I0J-77D01*
G01*
Y163188D02*
G03*
X252510Y163111I77J0D01*
G01*
X254479Y165079D02*
G03*
X254402Y165003I0J-77D01*
G01*
Y167125D02*
G03*
X254479Y167048I77J0D01*
G01*
X252314Y169017D02*
G03*
X252237Y168940I0J-77D01*
G01*
Y171062D02*
G03*
X252314Y170985I77J0D01*
G01*
X254577Y172953D02*
G03*
X254501Y172877I0J-77D01*
G01*
Y174999D02*
G03*
X254577Y174922I77J0D01*
G01*
X217066Y226196D02*
G03*
X217678Y226807I0J612D01*
G01*
X217043Y226196D02*
G03*
X217043Y224973I0J-612D01*
G01*
X217066Y223750D02*
G03*
X217066Y224973I0J612D01*
G01*
X217043Y223750D02*
G03*
X217043Y222527I0J-612D01*
G01*
X217678Y221915D02*
G03*
X217066Y222527I-612J0D01*
G01*
X218956Y278622D02*
G03*
X212047Y271712I0J-6910D01*
G01*
X218956Y279645D02*
G03*
X211024Y271712I0J-7933D01*
G01*
X210916Y219078D02*
G03*
X212423Y220472I107J1395D01*
G01*
X212047Y237068D02*
G03*
X212047Y237070I-1023J1D01*
G01*
X210412Y233381D02*
G03*
X211024Y233993I0J612D01*
G01*
X209937Y233381D02*
G03*
X209937Y232158I0J-612D01*
G01*
X210412Y230935D02*
G03*
X210412Y232158I0J612D01*
G01*
X209937Y230935D02*
G03*
X209937Y229712I0J-612D01*
G01*
X211024Y229100D02*
G03*
X210412Y229712I-612J0D01*
G01*
X251181Y264447D02*
G03*
X251258Y264370I77J0D01*
G01*
Y262402D02*
G03*
X251181Y262325I0J-77D01*
G01*
X260945Y267834D02*
G03*
X261417Y268307I0J473D01*
G01*
Y266339D02*
G03*
X260945Y266811I-473J0D01*
G01*
X218701Y220752D02*
G03*
X218706Y220682I523J3D01*
G01*
X218706Y220264D02*
G03*
X218706Y220682I-1383J209D01*
G01*
X218706Y220264D02*
G03*
X218701Y220193I518J-74D01*
G01*
X217323Y220472D02*
G03*
X217678Y220827I0J355D01*
G01*
X217323Y217323D02*
G03*
X218701Y218701I0J1378D01*
G01*
X211365Y218054D02*
G03*
X212865Y218928I-934J3326D01*
G01*
X211365Y218054D02*
G03*
X211008Y217699I144J-503D01*
G01*
X213231Y219077D02*
G03*
X212865Y218928I0J-523D01*
G01*
X214073Y219077D02*
G03*
X215453Y221038I100J1395D01*
G01*
X212423Y220472D02*
G03*
X212134Y221428I-1727J-0D01*
G01*
X212047Y221714D02*
G03*
X212134Y221428I523J3D01*
G01*
X209629Y219078D02*
G03*
X207874Y217323I0J-1755D01*
G01*
X260945Y279645D02*
G03*
X261417Y280118I0J473D01*
G01*
Y278150D02*
G03*
X260945Y278622I-473J0D01*
G01*
X261417Y274213D02*
G03*
X260945Y274685I-473J0D01*
G01*
X214173Y220472D02*
G03*
X214430Y220729I0J256D01*
G01*
X260945Y275708D02*
G03*
X261417Y276181I0J473D01*
G01*
X243151Y240718D02*
G03*
X244882Y242449I0J1731D01*
G01*
X240278Y240718D02*
G03*
X239570Y240010I0J-708D01*
G01*
Y239403D02*
G03*
X240278Y238695I708J0D01*
G01*
X246135Y236964D02*
G03*
X244404Y238695I-1731J0D01*
G01*
Y234625D02*
G03*
X246135Y236356I0J1731D01*
G01*
X240278Y234625D02*
G03*
X239570Y233917I0J-708D01*
G01*
Y233310D02*
G03*
X240278Y232602I708J0D01*
G01*
X246135Y230871D02*
G03*
X244404Y232602I-1731J0D01*
G01*
Y228533D02*
G03*
X246135Y230264I0J1731D01*
G01*
X240278Y228533D02*
G03*
X239570Y227825I0J-708D01*
G01*
Y227218D02*
G03*
X240278Y226510I708J0D01*
G01*
X244882Y224779D02*
G03*
X243151Y226510I-1731J0D01*
G01*
Y241741D02*
G03*
X243859Y242449I0J708D01*
G01*
X240278Y241741D02*
G03*
X238547Y240010I0J-1731D01*
G01*
Y239403D02*
G03*
X240278Y237671I1731J0D01*
G01*
X245112Y236964D02*
G03*
X244404Y237671I-708J0D01*
G01*
Y235648D02*
G03*
X245112Y236356I0J708D01*
G01*
X240278Y235648D02*
G03*
X238547Y233917I0J-1731D01*
G01*
Y233310D02*
G03*
X240278Y231579I1731J0D01*
G01*
X245112Y230871D02*
G03*
X244404Y231579I-708J0D01*
G01*
Y229556D02*
G03*
X245112Y230264I0J708D01*
G01*
X240278Y229556D02*
G03*
X238547Y227825I0J-1731D01*
G01*
Y227218D02*
G03*
X240278Y225487I1731J0D01*
G01*
X243859Y224779D02*
G03*
X243151Y225487I-708J0D01*
G01*
X242913Y216142D02*
G03*
X243859Y217087I0J945D01*
G01*
X242913Y215119D02*
G03*
X244882Y217087I0J1969D01*
G01*
X247402Y253543D02*
G03*
X243859Y250000I0J-3543D01*
G01*
X247402Y252520D02*
G03*
X244882Y250000I0J-2520D01*
G01*
X238661Y216850D02*
G03*
X240392Y215119I1731J0D01*
G01*
X238661Y218775D02*
G03*
X237953Y219483I-708J0D01*
G01*
X237346D02*
G03*
X236638Y218775I0J-708D01*
G01*
X234907Y211867D02*
G03*
X236638Y213598I0J1731D01*
G01*
X232568D02*
G03*
X234300Y211867I1731J0D01*
G01*
X232568Y218775D02*
G03*
X231860Y219483I-708J0D01*
G01*
X231253D02*
G03*
X230545Y218775I0J-708D01*
G01*
X228814Y211867D02*
G03*
X230545Y213598I0J1731D01*
G01*
X226476D02*
G03*
X228207Y211867I1731J0D01*
G01*
X226476Y218775D02*
G03*
X225768Y219483I-708J0D01*
G01*
X225161D02*
G03*
X224453Y218775I0J-708D01*
G01*
X222722Y215119D02*
G03*
X224453Y216850I0J1731D01*
G01*
X239684D02*
G03*
X240392Y216142I708J0D01*
G01*
X239684Y218775D02*
G03*
X237953Y220506I-1731J0D01*
G01*
X237346D02*
G03*
X235615Y218775I0J-1731D01*
G01*
X234907Y212890D02*
G03*
X235615Y213598I0J708D01*
G01*
X233592D02*
G03*
X234300Y212890I708J0D01*
G01*
X233592Y218775D02*
G03*
X231860Y220506I-1731J0D01*
G01*
X231253D02*
G03*
X229522Y218775I0J-1731D01*
G01*
X228814Y212890D02*
G03*
X229522Y213598I0J708D01*
G01*
X227499D02*
G03*
X228207Y212890I708J0D01*
G01*
X227499Y218775D02*
G03*
X225768Y220506I-1731J0D01*
G01*
X225161D02*
G03*
X223430Y218775I0J-1731D01*
G01*
X222722Y216142D02*
G03*
X223430Y216850I0J708D01*
G01*
X270355Y101578D02*
G03*
X269882Y102050I-473J0D01*
G01*
X268780Y95669D02*
G03*
X270355Y97244I0J1575D01*
G01*
X247638Y96063D02*
G03*
X248031Y95669I394J0D01*
G01*
X245516Y96063D02*
G03*
X246933Y94646I1417J0D01*
G01*
X268780D02*
G03*
X271378Y97244I0J2598D01*
G01*
X271850Y102050D02*
G03*
X271378Y101578I0J-473D01*
G01*
X270355Y154175D02*
G03*
X269882Y154648I-473J0D01*
G01*
X269291Y146850D02*
G03*
X270355Y147914I0J1063D01*
G01*
X248327Y147400D02*
G03*
X248876Y146850I549J0D01*
G01*
X271850Y154648D02*
G03*
X271378Y154175I0J-473D01*
G01*
X269291Y145827D02*
G03*
X271378Y147914I0J2086D01*
G01*
X248876Y145827D02*
G03*
X248327Y145278I0J-549D01*
G01*
X270355Y206772D02*
G03*
X269882Y207245I-473J0D01*
G01*
X269655Y200600D02*
G03*
X270355Y201300I0J700D01*
G01*
X252400Y201149D02*
G03*
X252949Y200600I549J0D01*
G01*
X271850Y207245D02*
G03*
X271378Y206772I0J-473D01*
G01*
X269655Y199577D02*
G03*
X271378Y201300I0J1723D01*
G01*
X252949Y199577D02*
G03*
X252400Y199028I0J-549D01*
G01*
X226200Y209177D02*
G03*
X224951Y208245I0J-1303D01*
G01*
X224454Y207874D02*
G03*
X224951Y208245I-3J523D01*
G01*
X223810Y208897D02*
G03*
X224245Y209134I-3J523D01*
G01*
X226200Y210200D02*
G03*
X224245Y209134I0J-2326D01*
G01*
X245477Y210200D02*
G03*
X247008Y211732I0J1531D01*
G01*
X250000Y243465D02*
G03*
X248031Y241497I0J-1969D01*
G01*
X283661Y259842D02*
G03*
X283189Y259370I0J-473D01*
G01*
X281988Y243465D02*
G03*
X283189Y244666I0J1201D01*
G01*
X245484Y209177D02*
G03*
X248031Y211732I-7J2555D01*
G01*
X222319Y207874D02*
G03*
X221819Y207497I3J-523D01*
G01*
X219126Y207495D02*
G03*
X218626Y207874I-503J-144D01*
G01*
X250000Y244488D02*
G03*
X247008Y241497I0J-2992D01*
G01*
X282166Y259370D02*
G03*
X281693Y259842I-473J0D01*
G01*
X281773Y244488D02*
G03*
X282166Y244881I-117J510D01*
G01*
X221871Y208897D02*
G03*
X220907Y208217I0J-1023D01*
G01*
X220473Y207874D02*
G03*
X220907Y208217I-57J520D01*
G01*
X251073Y243465D02*
G03*
X252734Y245126I0J1661D01*
G01*
X253372Y249564D02*
G03*
X252734Y248926I0J-638D01*
G01*
X254557D02*
G03*
X253919Y249564I-638J0D01*
G01*
X254557Y243572D02*
G03*
X256219Y241911I1661J0D01*
G01*
X256766D02*
G03*
X258427Y243572I0J1661D01*
G01*
X259065Y249564D02*
G03*
X258427Y248926I0J-638D01*
G01*
X260250D02*
G03*
X259612Y249564I-638J0D01*
G01*
X260250Y243572D02*
G03*
X261911Y241911I1661J0D01*
G01*
X262458D02*
G03*
X264119Y243572I0J1661D01*
G01*
X264757Y249564D02*
G03*
X264119Y248926I0J-638D01*
G01*
X265942D02*
G03*
X265304Y249564I-638J0D01*
G01*
X265942Y243572D02*
G03*
X267603Y241911I1661J0D01*
G01*
X268150D02*
G03*
X269811Y243572I0J1661D01*
G01*
X270449Y249564D02*
G03*
X269811Y248926I0J-638D01*
G01*
X271634D02*
G03*
X270996Y249564I-638J0D01*
G01*
X271634Y243572D02*
G03*
X273295Y241911I1661J0D01*
G01*
X273842D02*
G03*
X275504Y243572I0J1661D01*
G01*
X276142Y249564D02*
G03*
X275504Y248926I0J-638D01*
G01*
X277327D02*
G03*
X276689Y249564I-638J0D01*
G01*
X277327Y245126D02*
G03*
X278988Y243465I1661J0D01*
G01*
X251073Y244488D02*
G03*
X251711Y245126I0J638D01*
G01*
X253372Y250587D02*
G03*
X251711Y248926I0J-1661D01*
G01*
X255580D02*
G03*
X253919Y250587I-1661J0D01*
G01*
X255580Y243572D02*
G03*
X256219Y242934I638J0D01*
G01*
X256766D02*
G03*
X257403Y243572I0J638D01*
G01*
X259065Y250587D02*
G03*
X257403Y248926I0J-1661D01*
G01*
X261273D02*
G03*
X259612Y250587I-1661J0D01*
G01*
X261273Y243572D02*
G03*
X261911Y242934I638J0D01*
G01*
X262458D02*
G03*
X263096Y243572I0J638D01*
G01*
X264757Y250587D02*
G03*
X263096Y248926I0J-1661D01*
G01*
X266965D02*
G03*
X265304Y250587I-1661J0D01*
G01*
X266965Y243572D02*
G03*
X267603Y242934I638J0D01*
G01*
X268150D02*
G03*
X268788Y243572I0J638D01*
G01*
X270449Y250587D02*
G03*
X268788Y248926I0J-1661D01*
G01*
X272657D02*
G03*
X270996Y250587I-1661J0D01*
G01*
X272657Y243572D02*
G03*
X273295Y242934I638J0D01*
G01*
X273842D02*
G03*
X274481Y243572I0J638D01*
G01*
X276142Y250587D02*
G03*
X274481Y248926I0J-1661D01*
G01*
X278350D02*
G03*
X276689Y250587I-1661J0D01*
G01*
X278350Y245126D02*
G03*
X278988Y244488I638J0D01*
G01*
X219126Y207495D02*
G03*
X221819Y207497I1347J379D01*
G01*
X254458Y191732D02*
G03*
X255096Y192370I0J638D01*
G01*
X256758Y198451D02*
G03*
X255096Y196790I0J-1661D01*
G01*
X258966D02*
G03*
X257305Y198451I-1661J0D01*
G01*
X258966Y189666D02*
G03*
X259604Y189028I638J0D01*
G01*
X260151D02*
G03*
X260789Y189666I0J638D01*
G01*
X262450Y198451D02*
G03*
X260789Y196790I0J-1661D01*
G01*
X264658D02*
G03*
X262997Y198451I-1661J0D01*
G01*
X264658Y189666D02*
G03*
X265296Y189028I638J0D01*
G01*
X265843D02*
G03*
X266481Y189666I0J638D01*
G01*
X268142Y198451D02*
G03*
X266481Y196790I0J-1661D01*
G01*
X270350D02*
G03*
X268689Y198451I-1661J0D01*
G01*
X270350Y189666D02*
G03*
X270988Y189028I638J0D01*
G01*
X271535D02*
G03*
X272173Y189666I0J638D01*
G01*
X273834Y198451D02*
G03*
X272173Y196790I0J-1661D01*
G01*
X276043D02*
G03*
X274381Y198451I-1661J0D01*
G01*
X276043Y189666D02*
G03*
X276681Y189028I638J0D01*
G01*
X277228D02*
G03*
X277866Y189666I0J638D01*
G01*
X279527Y191732D02*
G03*
X277866Y190071I0J-1661D01*
G01*
X254458Y190709D02*
G03*
X256119Y192370I0J1661D01*
G01*
X256758Y197428D02*
G03*
X256119Y196790I0J-638D01*
G01*
X257943D02*
G03*
X257305Y197428I-638J0D01*
G01*
X257943Y189666D02*
G03*
X259604Y188005I1661J0D01*
G01*
X260151D02*
G03*
X261812Y189666I0J1661D01*
G01*
X262450Y197428D02*
G03*
X261812Y196790I0J-638D01*
G01*
X263635D02*
G03*
X262997Y197428I-638J0D01*
G01*
X263635Y189666D02*
G03*
X265296Y188005I1661J0D01*
G01*
X265843D02*
G03*
X267504Y189666I0J1661D01*
G01*
X268142Y197428D02*
G03*
X267504Y196790I0J-638D01*
G01*
X269327D02*
G03*
X268689Y197428I-638J0D01*
G01*
X269327Y189666D02*
G03*
X270988Y188005I1661J0D01*
G01*
X271535D02*
G03*
X273197Y189666I0J1661D01*
G01*
X273834Y197428D02*
G03*
X273197Y196790I0J-638D01*
G01*
X275020D02*
G03*
X274381Y197428I-638J0D01*
G01*
X275020Y189666D02*
G03*
X276681Y188005I1661J0D01*
G01*
X277228D02*
G03*
X278889Y189666I0J1661D01*
G01*
X279527Y190709D02*
G03*
X278889Y190071I0J-638D01*
G01*
X247377Y203345D02*
G03*
X246000Y204724I-1375J5D01*
G01*
X248400Y203350D02*
G03*
X246000Y205748I-2398J-0D01*
G01*
X224511D02*
G03*
X225219Y206455I0J708D01*
G01*
X226950Y208228D02*
G03*
X225219Y206497I0J-1731D01*
G01*
X229288D02*
G03*
X227557Y208228I-1731J0D01*
G01*
X229288Y204179D02*
G03*
X229996Y203471I708J0D01*
G01*
X230603D02*
G03*
X231311Y204179I0J708D01*
G01*
X233042Y208228D02*
G03*
X231311Y206497I0J-1731D01*
G01*
X235380D02*
G03*
X233649Y208228I-1731J0D01*
G01*
X235380Y204179D02*
G03*
X236088Y203471I708J0D01*
G01*
X236695D02*
G03*
X237403Y204179I0J708D01*
G01*
X239135Y208228D02*
G03*
X237403Y206497I0J-1731D01*
G01*
X241473D02*
G03*
X239741Y208228I-1731J0D01*
G01*
X241473Y206455D02*
G03*
X242181Y205748I708J0D01*
G01*
X224511Y204724D02*
G03*
X226242Y206455I0J1731D01*
G01*
X226950Y207205D02*
G03*
X226242Y206497I0J-708D01*
G01*
X228265D02*
G03*
X227557Y207205I-708J0D01*
G01*
X228265Y204179D02*
G03*
X229996Y202448I1731J0D01*
G01*
X230603D02*
G03*
X232334Y204179I0J1731D01*
G01*
X233042Y207205D02*
G03*
X232334Y206497I0J-708D01*
G01*
X234357D02*
G03*
X233649Y207205I-708J0D01*
G01*
X234357Y204179D02*
G03*
X236088Y202448I1731J0D01*
G01*
X236695D02*
G03*
X238426Y204179I0J1731D01*
G01*
X239135Y207205D02*
G03*
X238426Y206497I0J-708D01*
G01*
X240450D02*
G03*
X239741Y207205I-708J0D01*
G01*
X240450Y206455D02*
G03*
X242181Y204724I1731J0D01*
G01*
X245040Y199831D02*
G03*
X244320Y200552I-720J1D01*
G01*
X221611D02*
G03*
X221306Y200451I3J-523D01*
G01*
X246063Y199842D02*
G03*
X244320Y201575I-1743J-10D01*
G01*
X220472Y200176D02*
G03*
X221306Y200451I0J1399D01*
G01*
X219126Y201195D02*
G03*
X220472Y200176I1347J379D01*
G01*
X239739Y199213D02*
G03*
X239748Y199213I6J523D01*
G01*
X243543Y196731D02*
G03*
X241041Y199213I-2475J7D01*
G01*
X239811D02*
G03*
X239809Y199213I-4J-523D01*
G01*
Y199213D02*
G03*
X239748Y199213I-30J-3764D01*
G01*
X243543Y195449D02*
G03*
X243543Y195462I-3764J0D01*
G01*
X242520Y196728D02*
G03*
X241045Y198189I-1452J10D01*
G01*
X243543Y96012D02*
G03*
X243543Y96006I523J-0D01*
G01*
X247377Y193361D02*
G03*
X250028Y190709I2651J0D01*
G01*
X248400Y193361D02*
G03*
X250028Y191732I1628J0D01*
G01*
X276141Y142440D02*
G03*
X277872Y140709I1731J0D01*
G01*
X276141Y142467D02*
G03*
X275433Y143175I-708J0D01*
G01*
X274826D02*
G03*
X274118Y142467I0J-708D01*
G01*
X272387Y137237D02*
G03*
X274118Y138968I0J1731D01*
G01*
X270048D02*
G03*
X271780Y137237I1731J0D01*
G01*
X270048Y142467D02*
G03*
X269340Y143175I-708J0D01*
G01*
X268733D02*
G03*
X268025Y142467I0J-708D01*
G01*
X266294Y137237D02*
G03*
X268025Y138968I0J1731D01*
G01*
X263956D02*
G03*
X265687Y137237I1731J0D01*
G01*
X263956Y142467D02*
G03*
X263248Y143175I-708J0D01*
G01*
X262641D02*
G03*
X261933Y142467I0J-708D01*
G01*
X260202Y137237D02*
G03*
X261933Y138968I0J1731D01*
G01*
X257864D02*
G03*
X259595Y137237I1731J0D01*
G01*
X257864Y142467D02*
G03*
X257156Y143175I-708J0D01*
G01*
X256549D02*
G03*
X255841Y142467I0J-708D01*
G01*
X254110Y137237D02*
G03*
X255841Y138968I0J1731D01*
G01*
X251771D02*
G03*
X253503Y137237I1731J0D01*
G01*
X251771Y142467D02*
G03*
X251063Y143175I-708J0D01*
G01*
X250456D02*
G03*
X249748Y142467I0J-708D01*
G01*
X248017Y140709D02*
G03*
X249748Y142440I0J1731D01*
G01*
X277164D02*
G03*
X277872Y141732I708J0D01*
G01*
X277164Y142467D02*
G03*
X275433Y144198I-1731J0D01*
G01*
X274826D02*
G03*
X273095Y142467I0J-1731D01*
G01*
X272387Y138260D02*
G03*
X273095Y138968I0J708D01*
G01*
X271072D02*
G03*
X271780Y138260I708J0D01*
G01*
X271072Y142467D02*
G03*
X269340Y144198I-1731J0D01*
G01*
X268733D02*
G03*
X267002Y142467I0J-1731D01*
G01*
X266294Y138260D02*
G03*
X267002Y138968I0J708D01*
G01*
X264979D02*
G03*
X265687Y138260I708J0D01*
G01*
X264979Y142467D02*
G03*
X263248Y144198I-1731J0D01*
G01*
X262641D02*
G03*
X260910Y142467I0J-1731D01*
G01*
X260202Y138260D02*
G03*
X260910Y138968I0J708D01*
G01*
X258887D02*
G03*
X259595Y138260I708J0D01*
G01*
X258887Y142467D02*
G03*
X257156Y144198I-1731J0D01*
G01*
X256549D02*
G03*
X254818Y142467I0J-1731D01*
G01*
X254110Y138260D02*
G03*
X254818Y138968I0J708D01*
G01*
X252795D02*
G03*
X253503Y138260I708J0D01*
G01*
X252795Y142467D02*
G03*
X251063Y144198I-1731J0D01*
G01*
X250456D02*
G03*
X248725Y142467I0J-1731D01*
G01*
X248017Y141732D02*
G03*
X248725Y142440I0J708D01*
G01*
X245040Y142755D02*
G03*
X247086Y140709I2046J0D01*
G01*
X246063Y142755D02*
G03*
X247086Y141732I1023J0D01*
G01*
X242520Y96036D02*
G03*
X242520Y96039I-523J6D01*
G01*
X242520Y95990D02*
G03*
X246651Y91890I4150J50D01*
G01*
X243543Y96006D02*
G03*
X246645Y92913I3127J35D01*
G01*
X242520Y96016D02*
G03*
X242520Y95990I1023J-6D01*
G01*
X246670Y91890D02*
G03*
X246729Y91890I31J4181D01*
G01*
X279874Y91890D02*
G03*
X283189Y95208I-4J3318D01*
G01*
X279880Y92913D02*
G03*
X282166Y95208I-10J2295D01*
G01*
Y101578D02*
G03*
X281693Y102050I-473J0D01*
G01*
X283661D02*
G03*
X283189Y101578I0J-473D01*
G01*
X222953Y199213D02*
G03*
X221800Y199065I-16J-4453D01*
G01*
X220988Y198726D02*
G03*
X221288Y198823I-3J523D01*
G01*
X221800Y199065D02*
G03*
X221288Y198823I394J-1495D01*
G01*
X219129Y198035D02*
G03*
X221726Y197803I1343J390D01*
G01*
X222950Y198189D02*
G03*
X222058Y198075I-13J-3430D01*
G01*
D02*
G03*
X221726Y197803I136J-505D01*
G01*
X219126Y198046D02*
G03*
X219128Y198037I807J227D01*
G01*
X219126Y198046D02*
G03*
X218626Y198425I-503J-144D01*
G01*
X280315Y141732D02*
G03*
X282166Y143583I0J1851D01*
G01*
Y154175D02*
G03*
X281693Y154648I-473J0D01*
G01*
X219126Y201196D02*
G03*
X218626Y201575I-503J-144D01*
G01*
X280315Y140709D02*
G03*
X283189Y143583I0J2874D01*
G01*
X283661Y154648D02*
G03*
X283189Y154175I0J-473D01*
G01*
X282194Y206722D02*
G03*
X281974Y207149I-523J0D01*
G01*
X280315Y191732D02*
G03*
X282194Y193611I0J1879D01*
G01*
X280315Y190709D02*
G03*
X283217Y193611I0J2902D01*
G01*
X283344Y207069D02*
G03*
X283217Y206728I396J-341D01*
G01*
X219126Y204345D02*
G03*
X218626Y204724I-503J-144D01*
G01*
X222319D02*
G03*
X221819Y204347I3J-523D01*
G01*
X221871Y205748D02*
G03*
X220907Y205067I0J-1023D01*
G01*
X220473Y204724D02*
G03*
X220907Y205067I-57J520D01*
G01*
X219126Y204345D02*
G03*
X221819Y204347I1347J379D01*
G01*
X220472Y217323D02*
G03*
X221654Y216142I1181J-0D01*
G01*
X221305Y215119D02*
G03*
X220581Y214450I-1J-726D01*
G01*
X220472Y214173D02*
G03*
X220581Y214450I-413J321D01*
G01*
X269961Y252520D02*
G03*
X271378Y253937I0J1417D01*
G01*
X271850Y259842D02*
G03*
X271378Y259370I0J-473D01*
G01*
X269961Y253543D02*
G03*
X270355Y253937I0J394D01*
G01*
Y259370D02*
G03*
X269882Y259842I-473J0D01*
G01*
X195669Y169133D02*
X197047D01*
X198425Y170510D02*
Y171379D01*
X198049Y171881D02*
X198049Y171881D01*
X199448Y170511D02*
Y172090D01*
X195669Y168110D02*
X197047D01*
X194212Y149882D02*
Y166653D01*
X199448Y174367D02*
Y175240D01*
Y174367D02*
Y174367D01*
Y177516D02*
Y178505D01*
Y177516D02*
Y177516D01*
X193189Y149882D02*
Y166653D01*
X198425Y175075D02*
Y176378D01*
Y175075D02*
Y175075D01*
X122047Y180709D02*
X123622Y182283D01*
X176378Y217323D02*
Y217323D01*
X174803Y215748D02*
X174803D01*
X142520Y188583D02*
X142520D01*
X144095Y187008D01*
Y187008D02*
Y187008D01*
X145669Y188583D02*
X147244Y187008D01*
X147244D01*
X145669Y188583D02*
Y188583D01*
X174803Y218898D02*
X176378Y220472D01*
X174803Y215748D02*
X176378Y217323D01*
X133071Y198031D02*
X133071D01*
X131496Y199606D02*
X131496D01*
X133071Y198031D01*
X136221D02*
X136221D01*
X134646Y199606D02*
X136221Y198031D01*
X134646Y199606D02*
X134646D01*
X181102Y215748D02*
X182677Y214173D01*
X177953Y215748D02*
X179527Y217323D01*
X174803Y203150D02*
X176378Y204724D01*
X171653Y203150D02*
X173228Y204724D01*
X171653Y203150D02*
X171653D01*
X122047Y187008D02*
X123622Y188583D01*
X122047Y187008D02*
X122047D01*
X125197D02*
X126772Y188583D01*
X125197Y187008D02*
X125197D01*
X252439Y213741D02*
X261417D01*
X252242Y221615D02*
X261417D01*
X251356Y270276D02*
X261417D01*
X252439Y215710D02*
X261417D01*
X254506Y122403D02*
X261417D01*
X251356Y272244D02*
X261417D01*
X211024Y214173D02*
Y214173D01*
X209449Y215748D02*
X211024Y214173D01*
X214173Y217323D02*
X214567D01*
X214173Y217323D02*
Y217421D01*
X212598Y215748D02*
X214173Y217323D01*
X217678Y227854D02*
Y232955D01*
X219409Y234686D02*
X223403D01*
X224111Y235394D02*
Y236001D01*
X218057Y236709D02*
X223403D01*
X216326Y238440D02*
Y239047D01*
X218057Y240778D02*
X223403D01*
X224111Y241486D02*
Y242093D01*
X218057Y242801D02*
X223403D01*
X216326Y244533D02*
Y245140D01*
X218057Y246871D02*
X223403D01*
X224111Y247579D02*
Y248186D01*
X218057Y248894D02*
X223403D01*
X216326Y250625D02*
Y251232D01*
X218057Y252963D02*
X223403D01*
X224111Y253671D02*
Y254278D01*
X218057Y254986D02*
X223403D01*
X216326Y256717D02*
Y257324D01*
X218057Y259055D02*
X223403D01*
X224111Y259763D02*
Y260370D01*
X219409Y261078D02*
X223403D01*
X217678Y262809D02*
Y263583D01*
X218701Y227854D02*
Y232955D01*
X219409Y233663D02*
X223403D01*
X225134Y235394D02*
Y236001D01*
X218057Y237732D02*
X223403D01*
X217349Y238440D02*
Y239047D01*
X218057Y239755D02*
X223403D01*
X225134Y241486D02*
Y242093D01*
X218057Y243825D02*
X223403D01*
X217349Y244533D02*
Y245140D01*
X218057Y245848D02*
X223403D01*
X225134Y247579D02*
Y248186D01*
X218057Y249917D02*
X223403D01*
X217349Y250625D02*
Y251232D01*
X218057Y251940D02*
X223403D01*
X225134Y253671D02*
Y254278D01*
X218057Y256009D02*
X223403D01*
X217349Y256717D02*
Y257324D01*
X218057Y258032D02*
X223403D01*
X225134Y259763D02*
Y260370D01*
X219409Y262102D02*
X223403D01*
X218701Y262809D02*
Y263583D01*
X217678Y227736D02*
Y227854D01*
Y263583D02*
Y263773D01*
X218701Y220752D02*
Y227854D01*
Y263583D02*
Y263773D01*
X221740Y267834D02*
X260945D01*
X221740Y266811D02*
X260945D01*
X247517Y274685D02*
X260138D01*
X246984Y270875D02*
Y274152D01*
X244971Y269319D02*
X245428D01*
X243415Y270875D02*
Y275193D01*
X242425Y275726D02*
X242881D01*
X241892Y270875D02*
Y275193D01*
X239878Y269319D02*
X240335D01*
X238322Y270875D02*
Y275193D01*
X237332Y275726D02*
X237789D01*
X236799Y270875D02*
Y275193D01*
X234786Y269319D02*
X235243D01*
X233230Y270875D02*
Y275193D01*
X232240Y275726D02*
X232697D01*
X231707Y270875D02*
Y275193D01*
X229694Y269319D02*
X230151D01*
X228138Y270875D02*
Y275193D01*
X227148Y275726D02*
X227605D01*
X226614Y270875D02*
Y275193D01*
X224601Y269319D02*
X225058D01*
X223045Y270875D02*
Y274152D01*
X219193Y274685D02*
X222512D01*
X247517Y275708D02*
X260138D01*
X245961Y270875D02*
Y274152D01*
X244971Y270342D02*
X245428D01*
X244438Y270875D02*
Y275193D01*
X242425Y276749D02*
X242881D01*
X240868Y270875D02*
Y275193D01*
X239878Y270342D02*
X240335D01*
X239345Y270875D02*
Y275193D01*
X237332Y276749D02*
X237789D01*
X235776Y270875D02*
Y275193D01*
X234786Y270342D02*
X235243D01*
X234253Y270875D02*
Y275193D01*
X232240Y276749D02*
X232697D01*
X230684Y270875D02*
Y275193D01*
X229694Y270342D02*
X230151D01*
X229161Y270875D02*
Y275193D01*
X227148Y276749D02*
X227605D01*
X225591Y270875D02*
Y275193D01*
X224601Y270342D02*
X225058D01*
X224068Y270875D02*
Y274152D01*
X219193Y275708D02*
X222512D01*
X260138Y274685D02*
X260945D01*
X219182D02*
X219193D01*
X260138Y275708D02*
X260945D01*
X219181D02*
X219193D01*
X215453Y221038D02*
Y270912D01*
X214430Y230059D02*
Y270909D01*
Y229155D02*
Y230059D01*
X213742Y228544D02*
X213818D01*
X213742Y227321D02*
X213818D01*
X213742Y226097D02*
X213818D01*
X213742Y224874D02*
X213818D01*
X213742Y223651D02*
X213818D01*
X213742Y222428D02*
X213818D01*
X214430Y221555D02*
Y221817D01*
X256799Y278622D02*
X259449D01*
X255068Y280353D02*
Y281912D01*
X253753Y282620D02*
X254360D01*
X253045Y279353D02*
Y281912D01*
X250707Y277622D02*
X251313D01*
X248975Y279353D02*
Y281912D01*
X247660Y282620D02*
X248267D01*
X246952Y279353D02*
Y281912D01*
X244614Y277622D02*
X245221D01*
X242883Y279353D02*
Y281912D01*
X241568Y282620D02*
X242175D01*
X240860Y279353D02*
Y281912D01*
X238522Y277622D02*
X239129D01*
X236791Y279353D02*
Y281912D01*
X235476Y282620D02*
X236083D01*
X234768Y279353D02*
Y281912D01*
X232430Y277622D02*
X233036D01*
X230698Y279353D02*
Y281912D01*
X229383Y282620D02*
X229990D01*
X228675Y279353D02*
Y281912D01*
X226337Y277622D02*
X226944D01*
X224606Y279353D02*
Y281912D01*
X223291Y282620D02*
X223898D01*
X222583Y280353D02*
Y281912D01*
X220079Y278622D02*
X220852D01*
X256799Y279645D02*
X259449D01*
X256091Y280353D02*
Y281912D01*
X253753Y283643D02*
X254360D01*
X252022Y279353D02*
Y281912D01*
X250707Y278645D02*
X251313D01*
X249998Y279353D02*
Y281912D01*
X247660Y283643D02*
X248267D01*
X245929Y279353D02*
Y281912D01*
X244614Y278645D02*
X245221D01*
X243906Y279353D02*
Y281912D01*
X241568Y283643D02*
X242175D01*
X239837Y279353D02*
Y281912D01*
X238522Y278645D02*
X239129D01*
X237814Y279353D02*
Y281912D01*
X235476Y283643D02*
X236083D01*
X233745Y279353D02*
Y281912D01*
X232430Y278645D02*
X233036D01*
X231721Y279353D02*
Y281912D01*
X229383Y283643D02*
X229990D01*
X227652Y279353D02*
Y281912D01*
X226337Y278645D02*
X226944D01*
X225629Y279353D02*
Y281912D01*
X223291Y283643D02*
X223898D01*
X221560Y280353D02*
Y281912D01*
X220079Y279645D02*
X220852D01*
X259449Y278622D02*
X260945D01*
X218956D02*
X220079D01*
X259449Y279645D02*
X260945D01*
X218956D02*
X220079D01*
X254407Y211773D02*
X261417D01*
X254407Y209804D02*
X261417D01*
X215748Y209449D02*
X215748D01*
X214173Y211024D02*
X214173D01*
X214173D02*
X215748Y209449D01*
X212598D02*
X212598D01*
X211024Y207874D02*
X211024D01*
X212598Y209449D01*
X252242Y223584D02*
X261417D01*
X204724Y214173D02*
Y214173D01*
X203150Y215748D02*
X204724Y214173D01*
X206299Y215748D02*
X207874Y214173D01*
X254407Y219647D02*
X261417D01*
X254407Y217678D02*
X261417D01*
X203150Y212598D02*
X204724Y211024D01*
Y211024D02*
Y211024D01*
X203150Y209449D02*
X204724Y207874D01*
X254506Y227521D02*
X261417D01*
X254506Y225552D02*
X261417D01*
X211024Y211024D02*
X212598Y212598D01*
X254506Y120434D02*
X261417D01*
X217323Y192126D02*
X217323D01*
X218898Y190551D01*
X220472Y188976D02*
X222047Y187402D01*
X254407Y112560D02*
X261417D01*
X254407Y114529D02*
X261417D01*
X220472Y182283D02*
X220523Y182334D01*
X220816D01*
X222047Y181102D01*
X218898Y184252D02*
X218898D01*
X217323Y185827D02*
X218898Y184252D01*
X254407Y104686D02*
X261417D01*
X254407Y106655D02*
X261417D01*
X214173Y179528D02*
X215748Y177953D01*
X214173Y182677D02*
X215748Y181102D01*
X252439Y108623D02*
X261417D01*
X252439Y110592D02*
X261417D01*
X220472Y179528D02*
X222047Y177953D01*
X217323Y179528D02*
X218898Y177953D01*
X252242Y116497D02*
X261417D01*
X252242Y118466D02*
X261417D01*
X215748Y187402D02*
X217323Y188976D01*
X218898Y187402D02*
X220472Y185827D01*
X254479Y157205D02*
X261489D01*
X254479Y159174D02*
X261489D01*
X207874Y195276D02*
X209449Y193701D01*
X209449D01*
X211024Y195276D02*
X212598Y193701D01*
X212598D01*
X252510Y161143D02*
X261489D01*
X252510Y163111D02*
X261489D01*
X211367Y198082D02*
X212598Y196850D01*
X211367Y198375D02*
X211417Y198425D01*
X211367Y198082D02*
Y198375D01*
X209449Y196850D02*
X209449D01*
X207874Y198425D02*
Y198425D01*
Y198425D02*
X209449Y196850D01*
X254479Y165079D02*
X261489D01*
X254479Y167048D02*
X261489D01*
X215748Y196850D02*
X215748D01*
X214173Y198425D02*
X215748Y196850D01*
X214173Y198425D02*
Y198425D01*
Y201575D02*
X215748Y200000D01*
X252314Y169017D02*
X261489D01*
X252314Y170985D02*
X261489D01*
X212598Y200000D02*
X212598D01*
X211024Y201575D02*
X212598Y200000D01*
X207874Y201575D02*
X209449Y200000D01*
X254577Y172953D02*
X261489D01*
X254577Y174922D02*
X261489D01*
X207874Y204724D02*
X209449Y203150D01*
X209449D01*
X211024Y204724D02*
X212598Y203150D01*
X212598D01*
X206299Y212598D02*
X207874Y211024D01*
X206299Y209449D02*
X207874Y207874D01*
X207874D01*
X217323Y195276D02*
X218898Y193701D01*
X218898D01*
X220472Y192126D02*
X222047Y190551D01*
X220472Y176378D02*
X222047Y174803D01*
X217323Y176378D02*
X217323D01*
X218898Y174803D01*
X214173Y204724D02*
X215748Y203150D01*
X213779Y204724D02*
X214173D01*
Y207874D02*
Y207874D01*
Y207874D02*
X215748Y206299D01*
X214173Y214173D02*
X215748Y215748D01*
X213779Y214173D02*
X214173D01*
X217323D02*
X218898Y215748D01*
Y212598D02*
X220472Y211024D01*
Y211024D02*
Y211024D01*
X217678Y226807D02*
Y227736D01*
X217043Y226196D02*
X217066D01*
X217043Y224973D02*
X217066D01*
X217043Y223750D02*
X217066D01*
X217043Y222527D02*
X217066D01*
X217678Y221654D02*
Y221915D01*
Y220827D02*
Y221654D01*
X211024Y237070D02*
Y271712D01*
X212047Y237070D02*
Y271712D01*
X212047Y221714D02*
Y237068D01*
X214430Y220729D02*
Y221555D01*
X211024Y233993D02*
Y237070D01*
X209937Y233381D02*
X210412D01*
X209937Y232158D02*
X210412D01*
X209937Y230935D02*
X210412D01*
X209937Y229712D02*
X210412D01*
X211024Y228839D02*
Y229100D01*
Y220472D02*
Y228839D01*
X251258Y264370D02*
X261417D01*
X251258Y262402D02*
X261417D01*
X218701Y220752D02*
Y220752D01*
Y218701D02*
Y220193D01*
X213231Y219077D02*
X214073D01*
X209629Y219078D02*
X210916D01*
X244882Y242449D02*
Y250000D01*
X240278Y240718D02*
X243151D01*
X239570Y239403D02*
Y240010D01*
X240278Y238695D02*
X244404D01*
X246135Y236356D02*
Y236964D01*
X240278Y234625D02*
X244404D01*
X239570Y233310D02*
Y233917D01*
X240278Y232602D02*
X244404D01*
X246135Y230264D02*
Y230871D01*
X240278Y228533D02*
X244404D01*
X239570Y227218D02*
Y227825D01*
X240278Y226510D02*
X243151D01*
X244882Y217913D02*
Y224779D01*
X243859Y242449D02*
Y250000D01*
X240278Y241741D02*
X243151D01*
X238547Y239403D02*
Y240010D01*
X240278Y237671D02*
X244404D01*
X245112Y236356D02*
Y236964D01*
X240278Y235648D02*
X244404D01*
X238547Y233310D02*
Y233917D01*
X240278Y231579D02*
X244404D01*
X245112Y230264D02*
Y230871D01*
X240278Y229556D02*
X244404D01*
X238547Y227218D02*
Y227825D01*
X240278Y225487D02*
X243151D01*
X243859Y217913D02*
Y224779D01*
X244882Y217087D02*
Y217913D01*
X243859Y217087D02*
Y217913D01*
X242913Y215119D02*
Y215119D01*
X240392Y215119D02*
X242913D01*
X238661Y216850D02*
Y218775D01*
X237346Y219483D02*
X237953D01*
X236638Y213598D02*
Y218775D01*
X234300Y211867D02*
X234907D01*
X232568Y213598D02*
Y218775D01*
X231253Y219483D02*
X231860D01*
X230545Y213598D02*
Y218775D01*
X228207Y211867D02*
X228814D01*
X226476Y213598D02*
Y218775D01*
X225161Y219483D02*
X225768D01*
X224453Y216850D02*
Y218775D01*
X222077Y215119D02*
X222722D01*
X222077Y215119D02*
X222077Y215119D01*
X221949Y215119D02*
X222077D01*
X221949D02*
Y215119D01*
X240392Y216142D02*
X242913D01*
X239684Y216850D02*
Y218775D01*
X237346Y220506D02*
X237953D01*
X235615Y213598D02*
Y218775D01*
X234300Y212890D02*
X234907D01*
X233592Y213598D02*
Y218775D01*
X231253Y220506D02*
X231860D01*
X229522Y213598D02*
Y218775D01*
X228207Y212890D02*
X228814D01*
X227499Y213598D02*
Y218775D01*
X225161Y220506D02*
X225768D01*
X223430Y216850D02*
Y218775D01*
X221949Y216142D02*
X222722D01*
X221305Y215119D02*
X221949D01*
X221654Y216142D02*
X221654Y216142D01*
X221949D01*
X270355Y97244D02*
Y101578D01*
X248031Y95669D02*
X268780D01*
X247638Y96063D02*
Y96144D01*
X246933Y94646D02*
X268780D01*
X271378Y97244D02*
Y101578D01*
X270355Y147914D02*
Y154175D01*
X248876Y146850D02*
X269291D01*
X271378Y147914D02*
Y154175D01*
X248876Y145827D02*
X269291D01*
X270355Y201300D02*
Y206772D01*
X252949Y200600D02*
X269655D01*
X271378Y201300D02*
Y206772D01*
X252949Y199577D02*
X269655D01*
X226200Y210200D02*
X227000D01*
X221871Y208897D02*
X223810D01*
X222319Y207874D02*
X224454D01*
X226200Y209177D02*
X245484D01*
X227000Y210200D02*
X245477Y210200D01*
X222319Y207874D02*
X222319D01*
X283189Y244666D02*
Y259370D01*
X250000Y243465D02*
X250300D01*
X281647D02*
X281988D01*
X248031Y211732D02*
Y241497D01*
X245477Y209177D02*
X245484Y209177D01*
X217323Y207874D02*
X218626D01*
X282166Y244881D02*
Y259370D01*
X250000Y244488D02*
X250300D01*
X281773D02*
X281773D01*
X281647D02*
X281773D01*
X247008Y211732D02*
Y241497D01*
X220472Y207874D02*
X220473D01*
X250300Y243465D02*
X251073D01*
X252734Y245126D02*
Y248926D01*
X253372Y249564D02*
X253919D01*
X254557Y243572D02*
Y248926D01*
X256219Y241911D02*
X256766D01*
X258427Y243572D02*
Y248926D01*
X259065Y249564D02*
X259612D01*
X260250Y243572D02*
Y248926D01*
X261911Y241911D02*
X262458D01*
X264119Y243572D02*
Y248926D01*
X264757Y249564D02*
X265304D01*
X265942Y243572D02*
Y248926D01*
X267603Y241911D02*
X268150D01*
X269811Y243572D02*
Y248926D01*
X270449Y249564D02*
X270996D01*
X271634Y243572D02*
Y248926D01*
X273295Y241911D02*
X273842D01*
X275504Y243572D02*
Y248926D01*
X276142Y249564D02*
X276689D01*
X277327Y245126D02*
Y248926D01*
X278988Y243465D02*
X281647D01*
X250300Y244488D02*
X251073D01*
X251711Y245126D02*
Y248926D01*
X253372Y250587D02*
X253919D01*
X255580Y243572D02*
Y248926D01*
X256219Y242934D02*
X256766D01*
X257403Y243572D02*
Y248926D01*
X259065Y250587D02*
X259612D01*
X261273Y243572D02*
Y248926D01*
X261911Y242934D02*
X262458D01*
X263096Y243572D02*
Y248926D01*
X264757Y250587D02*
X265304D01*
X266965Y243572D02*
Y248926D01*
X267603Y242934D02*
X268150D01*
X268788Y243572D02*
Y248926D01*
X270449Y250587D02*
X270996D01*
X272657Y243572D02*
Y248926D01*
X273295Y242934D02*
X273842D01*
X274481Y243572D02*
Y248926D01*
X276142Y250587D02*
X276689D01*
X278350Y245126D02*
Y248926D01*
X278988Y244488D02*
X281647D01*
X250100Y191732D02*
X254458D01*
X255096Y192370D02*
Y196790D01*
X256758Y198451D02*
X257305D01*
X258966Y189666D02*
Y196790D01*
X259604Y189028D02*
X260151D01*
X260789Y189666D02*
Y196790D01*
X262450Y198451D02*
X262997D01*
X264658Y189666D02*
Y196790D01*
X265296Y189028D02*
X265843D01*
X266481Y189666D02*
Y196790D01*
X268142Y198451D02*
X268689D01*
X270350Y189666D02*
Y196790D01*
X270988Y189028D02*
X271535D01*
X272173Y189666D02*
Y196790D01*
X273834Y198451D02*
X274381D01*
X276043Y189666D02*
Y196790D01*
X276681Y189028D02*
X277228D01*
X277866Y189666D02*
Y190071D01*
X279527Y191732D02*
X280300D01*
X250100Y190709D02*
X254458D01*
X256119Y192370D02*
Y196790D01*
X256758Y197428D02*
X257305D01*
X257943Y189666D02*
Y196790D01*
X259604Y188005D02*
X260151D01*
X261812Y189666D02*
Y196790D01*
X262450Y197428D02*
X262997D01*
X263635Y189666D02*
Y196790D01*
X265296Y188005D02*
X265843D01*
X267504Y189666D02*
Y196790D01*
X268142Y197428D02*
X268689D01*
X269327Y189666D02*
Y196790D01*
X270988Y188005D02*
X271535D01*
X273197Y189666D02*
Y196790D01*
X273834Y197428D02*
X274381D01*
X275020Y189666D02*
Y196790D01*
X276681Y188005D02*
X277228D01*
X278889Y189666D02*
Y190071D01*
X279527Y190709D02*
X280300D01*
X247377Y193361D02*
Y203341D01*
X248400Y203350D02*
X248400Y203347D01*
Y193361D02*
Y203347D01*
X247377Y203345D02*
X247377Y203341D01*
X222500Y205748D02*
X224511D01*
X225219Y206455D02*
Y206497D01*
X226950Y208228D02*
X227557D01*
X229288Y204179D02*
Y206497D01*
X229996Y203471D02*
X230603D01*
X231311Y204179D02*
Y206497D01*
X233042Y208228D02*
X233649D01*
X235380Y204179D02*
Y206497D01*
X236088Y203471D02*
X236695D01*
X237403Y204179D02*
Y206497D01*
X239135Y208228D02*
X239741D01*
X241473Y206455D02*
Y206497D01*
X242181Y205748D02*
X246000D01*
X222500Y204724D02*
X224511D01*
X226242Y206455D02*
Y206497D01*
X226950Y207205D02*
X227557D01*
X228265Y204179D02*
Y206497D01*
X229996Y202448D02*
X230603D01*
X232334Y204179D02*
Y206497D01*
X233042Y207205D02*
X233649D01*
X234357Y204179D02*
Y206497D01*
X236088Y202448D02*
X236695D01*
X238426Y204179D02*
Y206497D01*
X239135Y207205D02*
X239741D01*
X240450Y206455D02*
Y206497D01*
X242181Y204724D02*
X246000D01*
X221871Y205748D02*
X222500D01*
X222319Y204724D02*
X222500D01*
X221611Y200552D02*
X244320D01*
X220472Y200176D02*
Y200176D01*
X245040Y142755D02*
Y199831D01*
X220472Y201575D02*
X244320D01*
X250028Y191732D02*
X250100D01*
X280300D02*
X280315D01*
X250028Y190709D02*
X250100D01*
X280300D02*
X280315D01*
X239748Y199213D02*
Y199213D01*
X243543Y195462D02*
Y196731D01*
X239811Y199213D02*
X241041D01*
X242520Y196728D02*
X242520D01*
X241043Y198189D02*
X241045Y198189D01*
X235587Y199213D02*
X239739D01*
X242520Y196728D02*
X242520Y96039D01*
X222950Y198189D02*
X241043D01*
X246063Y199842D02*
X246063Y199839D01*
Y142755D02*
Y199839D01*
X277872Y140709D02*
X280305D01*
X276141Y142440D02*
Y142467D01*
X274826Y143175D02*
X275433D01*
X274118Y138968D02*
Y142467D01*
X271780Y137237D02*
X272387D01*
X270048Y138968D02*
Y142467D01*
X268733Y143175D02*
X269340D01*
X268025Y138968D02*
Y142467D01*
X265687Y137237D02*
X266294D01*
X263956Y138968D02*
Y142467D01*
X262641Y143175D02*
X263248D01*
X261933Y138968D02*
Y142467D01*
X259595Y137237D02*
X260202D01*
X257864Y138968D02*
Y142467D01*
X256549Y143175D02*
X257156D01*
X255841Y138968D02*
Y142467D01*
X253503Y137237D02*
X254110D01*
X251771Y138968D02*
Y142467D01*
X250456Y143175D02*
X251063D01*
X249748Y142440D02*
Y142467D01*
X247244Y140709D02*
X248017D01*
X277872Y141732D02*
X280305D01*
X277164Y142440D02*
Y142467D01*
X274826Y144198D02*
X275433D01*
X273095Y138968D02*
Y142467D01*
X271780Y138260D02*
X272387D01*
X271072Y138968D02*
Y142467D01*
X268733Y144198D02*
X269340D01*
X267002Y138968D02*
Y142467D01*
X265687Y138260D02*
X266294D01*
X264979Y138968D02*
Y142467D01*
X262641Y144198D02*
X263248D01*
X260910Y138968D02*
Y142467D01*
X259595Y138260D02*
X260202D01*
X258887Y138968D02*
Y142467D01*
X256549Y144198D02*
X257156D01*
X254818Y138968D02*
Y142467D01*
X253503Y138260D02*
X254110D01*
X252795Y138968D02*
Y142467D01*
X250456Y144198D02*
X251063D01*
X248725Y142440D02*
Y142467D01*
X247244Y141732D02*
X248017D01*
X280305Y140709D02*
X280315D01*
X247086D02*
X247244D01*
X280305Y141732D02*
X280315D01*
X247086D02*
X247244D01*
X243543Y96012D02*
Y195449D01*
X242520Y95990D02*
X242520Y95990D01*
X242520Y96036D02*
X242520Y96016D01*
X243543Y96006D02*
X243543Y96006D01*
X246651Y91890D02*
X246667Y91890D01*
X246670Y91890D01*
X246646Y92913D02*
X279880Y92913D01*
X246645Y92913D02*
X246646D01*
X246729Y91890D02*
X246729Y91890D01*
X279874Y91890D01*
X282166Y95208D02*
Y101578D01*
X283189Y95208D02*
Y101578D01*
X222953Y199213D02*
X230758D01*
X235587Y199213D01*
X220472Y198425D02*
X220913Y198726D01*
X219128Y198037D02*
X219129Y198035D01*
X221726Y197803D02*
Y197803D01*
X217323Y198425D02*
X218626D01*
X282166Y143583D02*
Y154175D01*
X217323Y201575D02*
X218626D01*
X283189Y143583D02*
Y154175D01*
X283344Y207069D02*
X283451D01*
X282194Y193611D02*
Y206722D01*
X283217Y193611D02*
Y206728D01*
X281693Y207245D02*
X281904Y207149D01*
X281974D01*
X283451Y207069D02*
X283661Y207245D01*
X222319Y204724D02*
X222319D01*
X217323D02*
X218626D01*
X220472D02*
X220473D01*
X220472Y217323D02*
X220472Y217323D01*
Y214173D02*
X220472D01*
X247402Y252520D02*
X269961D01*
X271378Y253937D02*
Y259370D01*
X247402Y253543D02*
X269961D01*
X270355Y253937D02*
Y259370D01*
D93*
X363779Y141339D02*
G03*
X358642Y146477I-5138J0D01*
G01*
X363779Y127972D02*
G03*
X368917Y122835I5137J0D01*
G01*
Y172441D02*
G03*
X363779Y167304I0J-5137D01*
G01*
X358642Y148799D02*
G03*
X363779Y153937I-0J5138D01*
G01*
X349922Y80352D02*
G03*
X345778Y76207I0J-4145D01*
G01*
X350026Y80352D02*
G03*
X351188Y81515I0J1163D01*
G01*
Y82512D02*
G03*
X350026Y83675I-1163J0D01*
G01*
X341711Y87160D02*
G03*
X345196Y83675I3485J0D01*
G01*
Y91642D02*
G03*
X341711Y88156I0J-3485D01*
G01*
X350181Y91642D02*
G03*
X351344Y92804I0J1163D01*
G01*
Y93801D02*
G03*
X350181Y94964I-1163J0D01*
G01*
X345778Y99109D02*
G03*
X349922Y94964I4145J0D01*
G01*
Y78030D02*
G03*
X348100Y76207I0J-1822D01*
G01*
X350026Y78030D02*
G03*
X353511Y81515I0J3485D01*
G01*
Y82512D02*
G03*
X350026Y85997I-3485J0D01*
G01*
X344033Y87160D02*
G03*
X345196Y85997I1163J0D01*
G01*
Y89319D02*
G03*
X344033Y88156I0J-1163D01*
G01*
X350181Y89319D02*
G03*
X353666Y92804I0J3485D01*
G01*
Y93801D02*
G03*
X350181Y97286I-3485J0D01*
G01*
X348100Y99109D02*
G03*
X349922Y97286I1822J0D01*
G01*
X334640Y165065D02*
G03*
X338785Y160920I4145J0D01*
G01*
X334640Y175497D02*
G03*
X332979Y177158I-1661J0D01*
G01*
X332979D02*
G03*
X331318Y175497I0J-1661D01*
G01*
X327334Y155005D02*
G03*
X331318Y158988I0J3983D01*
G01*
X323351D02*
G03*
X327334Y155005I3983J0D01*
G01*
X323351Y176010D02*
G03*
X321690Y177671I-1661J0D01*
G01*
X321690D02*
G03*
X320028Y176010I0J-1661D01*
G01*
X315884Y160920D02*
G03*
X320028Y165065I0J4145D01*
G01*
X336963D02*
G03*
X338785Y163243I1822J0D01*
G01*
X336963Y175497D02*
G03*
X332979Y179480I-3983J0D01*
G01*
X332979D02*
G03*
X328995Y175497I0J-3983D01*
G01*
X327334Y157327D02*
G03*
X328995Y158988I0J1661D01*
G01*
X325673D02*
G03*
X327334Y157327I1661J0D01*
G01*
X325673Y176010D02*
G03*
X321690Y179993I-3983J0D01*
G01*
X321690D02*
G03*
X317706Y176010I0J-3983D01*
G01*
X315884Y163243D02*
G03*
X317706Y165065I0J1822D01*
G01*
X328848Y217732D02*
G03*
X332993Y213587I4145J0D01*
G01*
X328848Y221131D02*
G03*
X327187Y222792I-1661J0D01*
G01*
X327187D02*
G03*
X325526Y221131I0J-1661D01*
G01*
X321542Y207432D02*
G03*
X325526Y211416I0J3983D01*
G01*
X317559D02*
G03*
X321542Y207432I3983J0D01*
G01*
X317559Y221286D02*
G03*
X315897Y222947I-1661J0D01*
G01*
X315897D02*
G03*
X314236Y221286I0J-1661D01*
G01*
X310091Y213587D02*
G03*
X314236Y217732I0J4145D01*
G01*
X331170D02*
G03*
X332993Y215910I1822J0D01*
G01*
X331170Y221131D02*
G03*
X327187Y225114I-3983J0D01*
G01*
X327187D02*
G03*
X323203Y221131I0J-3983D01*
G01*
X321542Y209755D02*
G03*
X323203Y211416I0J1661D01*
G01*
X319881D02*
G03*
X321542Y209755I1661J0D01*
G01*
X319881Y221286D02*
G03*
X315897Y225270I-3983J0D01*
G01*
X315897D02*
G03*
X311914Y221286I0J-3983D01*
G01*
X310091Y215910D02*
G03*
X311914Y217732I0J1822D01*
G01*
X349854Y231051D02*
G03*
X345709Y226907I0J-4145D01*
G01*
X351601Y231051D02*
G03*
X353262Y232713I0J1661D01*
G01*
Y232713D02*
G03*
X351601Y234374I-1661J0D01*
G01*
X345709Y238519D02*
G03*
X349854Y234374I4145J0D01*
G01*
Y228729D02*
G03*
X348031Y226907I0J-1822D01*
G01*
X351601Y228729D02*
G03*
X355585Y232713I0J3983D01*
G01*
Y232713D02*
G03*
X351601Y236696I-3983J0D01*
G01*
X348031Y238519D02*
G03*
X349854Y236696I1822J0D01*
G01*
X340753Y215910D02*
G03*
X345709Y220866I0J4957D01*
G01*
X352342Y247224D02*
G03*
X345709Y240591I0J-6633D01*
G01*
X368917Y270866D02*
G03*
X363779Y265729I0J-5137D01*
G01*
X358642Y247224D02*
G03*
X363779Y252362I-0J5138D01*
G01*
X355236Y149721D02*
G03*
X358652Y148799I3459J6028D01*
G01*
X351998Y154308D02*
G03*
X355235Y149721I6597J1219D01*
G01*
X351998Y154308D02*
G03*
X348220Y161823I-14751J-2710D01*
G01*
X368917Y369291D02*
G03*
X363779Y364154I0J-5137D01*
G01*
X358642Y345649D02*
G03*
X363779Y350787I0J5138D01*
G01*
X339528Y345649D02*
G03*
X327205Y333327I0J-12322D01*
G01*
X317205Y268501D02*
G03*
X327205Y278501I0J10000D01*
G01*
X363779Y338189D02*
G03*
X358642Y343327I-5138J0D01*
G01*
X339528D02*
G03*
X329528Y333327I0J-10000D01*
G01*
X363779Y324822D02*
G03*
X368917Y319685I5137J0D01*
G01*
X317205Y266179D02*
G03*
X329528Y278501I0J12322D01*
G01*
X348220Y161823D02*
G03*
X344950Y163243I-3263J-3041D01*
G01*
X346524Y160237D02*
G03*
X344945Y160920I-1567J-1454D01*
G01*
X344938Y160920D02*
G03*
X344945Y160920I12J2322D01*
G01*
X353518Y148059D02*
G03*
X354050Y147724I5077J7469D01*
G01*
X349421Y155130D02*
G03*
X346524Y160237I-12174J-3532D01*
G01*
X358670Y146476D02*
G03*
X358643Y146477I-29J-5138D01*
G01*
X349483Y154809D02*
G03*
X353517Y148060I9212J926D01*
G01*
X349482Y154815D02*
G03*
X349421Y155130I-1813J-188D01*
G01*
X354050Y147724D02*
G03*
X358643Y146477I4645J8025D01*
G01*
X358642Y50374D02*
G03*
X363779Y55512I-0J5138D01*
G01*
X368917Y74016D02*
G03*
X363779Y68879I0J-5137D01*
G01*
X348100Y101200D02*
G03*
X338678Y110622I-9422J0D01*
G01*
X348100Y54974D02*
G03*
X352700Y50374I4600J0D01*
G01*
X363779Y29546D02*
G03*
X368917Y24409I5137J0D01*
G01*
X363779Y42913D02*
G03*
X358642Y48051I-5138J0D01*
G01*
X345778Y101200D02*
G03*
X338678Y108300I-7100J0D01*
G01*
X345778Y54974D02*
G03*
X352700Y48051I6922J0D01*
G01*
X340753Y213587D02*
G03*
X348031Y220866I0J7279D01*
G01*
X352342Y244902D02*
G03*
X348031Y240591I0J-4311D01*
G01*
X363779Y239764D02*
G03*
X358642Y244902I-5138J0D01*
G01*
X363779Y226397D02*
G03*
X368917Y221260I5137J0D01*
G01*
X363779Y127972D02*
Y141339D01*
X368917Y122835D02*
X385827D01*
X368917Y172441D02*
X385827D01*
X363779Y153937D02*
Y167304D01*
X345778Y58268D02*
Y76207D01*
X349922Y80352D02*
X350026D01*
X351188Y81515D02*
Y82512D01*
X345196Y83675D02*
X350026D01*
X341711Y87160D02*
Y88156D01*
X345196Y91642D02*
X350181D01*
X351344Y92804D02*
Y93801D01*
X349922Y94964D02*
X350181D01*
X345778Y99109D02*
Y101181D01*
X348100Y58268D02*
X348100D01*
X348100D02*
Y76207D01*
X349922Y78030D02*
X350026D01*
X353511Y81515D02*
Y82512D01*
X345196Y85997D02*
X350026D01*
X344033Y87160D02*
Y88156D01*
X345196Y89319D02*
X350181D01*
X353666Y92804D02*
Y93801D01*
X349922Y97286D02*
X350181D01*
X348100Y99109D02*
Y101181D01*
X348100D01*
X291700Y108300D02*
X338678D01*
X291700Y110622D02*
X338678D01*
X345778Y54974D02*
Y58268D01*
Y101181D02*
Y101200D01*
X348100Y54974D02*
Y58268D01*
Y101181D02*
Y101200D01*
X338785Y160920D02*
X344859D01*
X334640Y165065D02*
Y175497D01*
X332979Y177158D02*
X332979D01*
X331318Y158988D02*
Y175497D01*
X327334Y155005D02*
X327334D01*
X323351Y158988D02*
Y176010D01*
X321690Y177671D02*
X321690D01*
X320028Y165065D02*
Y176010D01*
X313811Y160920D02*
X315884D01*
X344859Y163243D02*
Y163243D01*
X338785Y163243D02*
X344859D01*
X336963Y165065D02*
Y175497D01*
X332979Y179480D02*
X332979D01*
X328995Y158988D02*
Y175497D01*
X327334Y157327D02*
X327334D01*
X325673Y158988D02*
Y176010D01*
X321690Y179993D02*
X321690D01*
X317706Y165065D02*
Y176010D01*
X313811Y163243D02*
X315884D01*
X313811D02*
Y163243D01*
X291769Y160920D02*
X313811D01*
X291769Y163243D02*
X313811D01*
X332993Y213587D02*
X340581D01*
X328848Y217732D02*
Y221131D01*
X327187Y222792D02*
X327187D01*
X325526Y211416D02*
Y221131D01*
X321542Y207432D02*
X321542D01*
X317559Y211416D02*
Y221286D01*
X315897Y222947D02*
X315897D01*
X314236Y217732D02*
Y221286D01*
X308019Y213587D02*
X310091D01*
X340581Y215910D02*
Y215910D01*
X332993Y215910D02*
X340581D01*
X331170Y217732D02*
Y221131D01*
X327187Y225114D02*
X327187D01*
X323203Y211416D02*
Y221131D01*
X321542Y209755D02*
X321542D01*
X319881Y211416D02*
Y221286D01*
X315897Y225270D02*
X315897D01*
X311914Y217732D02*
Y221286D01*
X308019Y215910D02*
X310091D01*
X308019D02*
Y215910D01*
X292003Y213587D02*
X308019D01*
X292000Y215910D02*
X308019D01*
X344859Y160920D02*
X344938D01*
X344859Y163243D02*
X344950D01*
X340581Y213587D02*
X340753D01*
X340581Y215910D02*
X340753D01*
X345709Y220866D02*
Y226907D01*
X349854Y231051D02*
X351601D01*
X353262Y232713D02*
Y232713D01*
X349854Y234374D02*
X351601D01*
X345709Y238519D02*
Y240591D01*
X348031Y220866D02*
X348031D01*
X348031D02*
Y226907D01*
X349854Y228729D02*
X351601D01*
X355585Y232713D02*
Y232713D01*
X349854Y236696D02*
X351601D01*
X348031Y238519D02*
Y240591D01*
X348031D01*
X368917Y270866D02*
X385827D01*
X363779Y252362D02*
Y265729D01*
X358642Y247224D02*
X358642D01*
X355512Y247224D02*
X358642Y247224D01*
X352342Y247224D02*
X355512D01*
X351998Y154308D02*
X351998D01*
X358652Y148799D02*
X358657Y148799D01*
X355235Y149721D02*
X355236Y149721D01*
X368917Y369291D02*
X385827D01*
X363779Y350787D02*
Y364154D01*
X339528Y345649D02*
X358642D01*
X339528Y345649D02*
X356299D01*
X327205Y278501D02*
Y333327D01*
X363779Y324822D02*
Y338189D01*
X339528Y343327D02*
X358642D01*
X368917Y319685D02*
X385827D01*
X329528Y278501D02*
Y333327D01*
X291800Y266179D02*
X317205D01*
X291800Y268501D02*
X317205D01*
X344945Y160920D02*
Y160920D01*
X353517Y148060D02*
X353518Y148059D01*
X344950Y163243D02*
Y163243D01*
X358643Y146477D02*
X358643Y146477D01*
X354050Y147724D02*
X354050Y147724D01*
X349482Y154815D02*
X349483Y154809D01*
X363779Y55512D02*
Y68879D01*
X368917Y74016D02*
X385827D01*
X358642Y50374D02*
X358642D01*
X352700Y50374D02*
X358642Y50374D01*
X352700Y50374D02*
X352700D01*
X368917Y24409D02*
X385827D01*
X363779Y29546D02*
Y42913D01*
X352700Y48051D02*
X358642D01*
X352342Y244902D02*
X358642D01*
X363779Y226397D02*
Y239764D01*
X368917Y221260D02*
X385827D01*
D94*
X150200Y198199D02*
X150275Y198274D01*
X154600D02*
X156500Y200174D01*
X150275Y198274D02*
X154600D01*
X156500Y200174D02*
Y200900D01*
X128347Y202756D02*
X129921Y201181D01*
X129921D01*
D95*
X148819Y182283D02*
X150394Y183858D01*
X144095Y180709D02*
X145669Y182283D01*
X148819D01*
D96*
X218898Y215748D02*
Y215748D01*
D97*
X27228Y370158D02*
D03*
Y336142D02*
D03*
D98*
X6126Y370158D02*
D03*
Y336142D02*
D03*
D99*
X292500Y49394D02*
D03*
Y39394D02*
D03*
Y29394D02*
D03*
Y19394D02*
D03*
X255000Y49394D02*
D03*
Y39394D02*
D03*
Y29394D02*
D03*
Y19394D02*
D03*
X280000Y49394D02*
D03*
Y39394D02*
D03*
Y29394D02*
D03*
Y19394D02*
D03*
X267500Y49394D02*
D03*
Y39394D02*
D03*
Y29394D02*
D03*
Y19394D02*
D03*
X174600Y10500D02*
D03*
X164600Y20500D02*
D03*
X174600D02*
D03*
X164600Y30500D02*
D03*
X174600D02*
D03*
Y60500D02*
D03*
X164600D02*
D03*
X174600Y50500D02*
D03*
X164600D02*
D03*
X174600Y40500D02*
D03*
X164600D02*
D03*
Y70500D02*
D03*
X174600D02*
D03*
Y90500D02*
D03*
X164600D02*
D03*
Y80500D02*
D03*
X174600D02*
D03*
X44094Y195669D02*
D03*
X11417Y298819D02*
D03*
X44488Y102756D02*
D03*
Y149213D02*
D03*
X44190Y242222D02*
D03*
X44488Y288583D02*
D03*
D100*
X292500Y9394D02*
D03*
X255000D02*
D03*
X280000D02*
D03*
X267500D02*
D03*
X164600Y10500D02*
D03*
D101*
X292500Y382500D02*
D03*
X272500D02*
D03*
X292500Y362500D02*
D03*
X272500D02*
D03*
D102*
X282500Y372500D02*
D03*
D103*
X316300Y100200D02*
D03*
Y150200D02*
D03*
Y201300D02*
D03*
Y258200D02*
D03*
D104*
X326300Y100200D02*
D03*
Y150200D02*
D03*
Y201300D02*
D03*
Y258200D02*
D03*
D105*
X181181Y366929D02*
D03*
X191181D02*
D03*
X181181Y376929D02*
D03*
X191181D02*
D03*
X201181Y366929D02*
D03*
Y376929D02*
D03*
X211181Y366929D02*
D03*
Y376929D02*
D03*
X221181Y366929D02*
D03*
D106*
Y376929D02*
D03*
D107*
X187402Y152756D02*
D03*
X196063Y137992D02*
D03*
X186614Y137992D02*
D03*
X188976Y119948D02*
D03*
Y115748D02*
D03*
X193176D02*
D03*
Y119948D02*
D03*
X188976Y128348D02*
D03*
Y124148D02*
D03*
X193176D02*
D03*
Y128348D02*
D03*
X216405Y127953D02*
D03*
X212205D02*
D03*
X216405Y123753D02*
D03*
Y119553D02*
D03*
X212205Y123753D02*
D03*
X216405Y115353D02*
D03*
X212205D02*
D03*
Y119553D02*
D03*
X339107Y6036D02*
D03*
Y14436D02*
D03*
X347507D02*
D03*
X330707Y31236D02*
D03*
X322307D02*
D03*
Y22836D02*
D03*
X330707D02*
D03*
X347507Y31236D02*
D03*
X339107D02*
D03*
Y22836D02*
D03*
X347507D02*
D03*
X330707Y14436D02*
D03*
X322307D02*
D03*
Y6036D02*
D03*
X330707D02*
D03*
X85956Y101707D02*
D03*
X94356D02*
D03*
X111156Y110107D02*
D03*
Y118507D02*
D03*
X102756D02*
D03*
Y110107D02*
D03*
Y101707D02*
D03*
X94356Y110107D02*
D03*
Y118507D02*
D03*
X85956D02*
D03*
Y110107D02*
D03*
X111156Y93307D02*
D03*
Y101707D02*
D03*
X119556D02*
D03*
Y93307D02*
D03*
X136356Y110107D02*
D03*
Y118507D02*
D03*
X127956D02*
D03*
Y110107D02*
D03*
X136356Y101707D02*
D03*
X127956D02*
D03*
X119556Y110107D02*
D03*
Y118507D02*
D03*
X111156Y68107D02*
D03*
X102756D02*
D03*
Y76507D02*
D03*
X111156D02*
D03*
X94356Y93307D02*
D03*
X85956D02*
D03*
Y84907D02*
D03*
X94356D02*
D03*
X102756Y93307D02*
D03*
Y84907D02*
D03*
X111156D02*
D03*
X94356Y76507D02*
D03*
X85956D02*
D03*
Y68107D02*
D03*
X94356D02*
D03*
X332283Y358661D02*
D03*
X323884D02*
D03*
Y367061D02*
D03*
X332283D02*
D03*
X315483Y383861D02*
D03*
X307084D02*
D03*
Y375461D02*
D03*
X315483D02*
D03*
X332283Y383861D02*
D03*
X323884D02*
D03*
Y375461D02*
D03*
X332283D02*
D03*
X315483Y367061D02*
D03*
X307084D02*
D03*
Y358661D02*
D03*
X315483D02*
D03*
X239370Y300000D02*
D03*
X230970D02*
D03*
Y308400D02*
D03*
X239370D02*
D03*
X222570Y325200D02*
D03*
X214170D02*
D03*
Y316800D02*
D03*
X222570D02*
D03*
X239370Y325200D02*
D03*
X230970D02*
D03*
Y316800D02*
D03*
X239370D02*
D03*
X222570Y308400D02*
D03*
X214170D02*
D03*
Y300000D02*
D03*
X222570D02*
D03*
X128347Y247638D02*
D03*
X119947D02*
D03*
Y256038D02*
D03*
X128347D02*
D03*
X111547Y272838D02*
D03*
X103147D02*
D03*
Y264438D02*
D03*
X111547D02*
D03*
X128347Y272838D02*
D03*
X119947D02*
D03*
Y264438D02*
D03*
X128347D02*
D03*
X111547Y256038D02*
D03*
X103147D02*
D03*
Y247638D02*
D03*
X111547D02*
D03*
X119556Y68107D02*
D03*
Y76507D02*
D03*
X136356Y84907D02*
D03*
X127956D02*
D03*
Y93307D02*
D03*
X136356D02*
D03*
X119556Y84907D02*
D03*
X136356Y76507D02*
D03*
X127956D02*
D03*
Y68107D02*
D03*
X136356D02*
D03*
X141339Y26247D02*
D03*
Y22047D02*
D03*
X145539D02*
D03*
Y26247D02*
D03*
X191339Y64043D02*
D03*
Y59842D02*
D03*
X195539D02*
D03*
Y64043D02*
D03*
X213779Y64436D02*
D03*
Y60236D02*
D03*
X217980D02*
D03*
Y64436D02*
D03*
X381890Y10630D02*
D03*
X386090D02*
D03*
X381890Y17717D02*
D03*
X386090D02*
D03*
X381890Y31260D02*
D03*
X386090D02*
D03*
X381890Y38346D02*
D03*
X386090D02*
D03*
X381890Y59842D02*
D03*
X386090D02*
D03*
X381890Y66929D02*
D03*
X386090D02*
D03*
X381890Y80472D02*
D03*
X386090D02*
D03*
X381890Y87559D02*
D03*
X386090D02*
D03*
X381890Y109055D02*
D03*
X386090D02*
D03*
X381890Y116142D02*
D03*
X386090D02*
D03*
X381890Y129685D02*
D03*
X386090D02*
D03*
X381890Y136772D02*
D03*
X386090D02*
D03*
X381890Y158268D02*
D03*
X386090D02*
D03*
X381890Y165354D02*
D03*
X386090D02*
D03*
X381890Y178898D02*
D03*
X386090D02*
D03*
X381890Y185984D02*
D03*
X386090D02*
D03*
X381890Y207480D02*
D03*
X386090D02*
D03*
X381890Y214567D02*
D03*
X386090D02*
D03*
X381890Y228110D02*
D03*
X386090D02*
D03*
X381890Y235197D02*
D03*
X386090D02*
D03*
X381890Y256693D02*
D03*
X386090D02*
D03*
X381890Y263779D02*
D03*
X386090D02*
D03*
X381890Y277323D02*
D03*
X386090D02*
D03*
X381890Y284409D02*
D03*
X386090D02*
D03*
X381890Y305906D02*
D03*
X386090D02*
D03*
X381890Y312992D02*
D03*
X386090D02*
D03*
X381890Y326535D02*
D03*
X386090D02*
D03*
X381890Y333622D02*
D03*
X386090D02*
D03*
X381890Y375748D02*
D03*
X386090D02*
D03*
X381890Y382835D02*
D03*
X386090D02*
D03*
Y362205D02*
D03*
X381890D02*
D03*
X386090Y355118D02*
D03*
X381890D02*
D03*
Y347638D02*
D03*
Y343438D02*
D03*
X386090D02*
D03*
Y347638D02*
D03*
X357480Y350394D02*
D03*
X353280D02*
D03*
X357480Y338976D02*
D03*
X353280D02*
D03*
X381890Y249213D02*
D03*
Y245013D02*
D03*
X386090D02*
D03*
Y249213D02*
D03*
X357480Y251969D02*
D03*
X353280D02*
D03*
X357480Y240551D02*
D03*
X353280D02*
D03*
X381890Y150787D02*
D03*
Y146587D02*
D03*
X386090D02*
D03*
Y150787D02*
D03*
X357480Y153543D02*
D03*
Y142126D02*
D03*
X353280D02*
D03*
X324603Y332096D02*
D03*
Y327896D02*
D03*
X332084D02*
D03*
Y332096D02*
D03*
X324803Y288058D02*
D03*
Y283858D02*
D03*
X332283D02*
D03*
Y288058D02*
D03*
X298688Y263779D02*
D03*
X294488D02*
D03*
Y271260D02*
D03*
X298688D02*
D03*
X316011Y263386D02*
D03*
X311811D02*
D03*
Y271372D02*
D03*
X316011D02*
D03*
X315748Y157718D02*
D03*
X311548D02*
D03*
X311811Y166379D02*
D03*
X353280Y43701D02*
D03*
X357480D02*
D03*
X316011Y113779D02*
D03*
X311811D02*
D03*
X311548Y105118D02*
D03*
X315748D02*
D03*
X353280Y55118D02*
D03*
X357480D02*
D03*
X347507Y6036D02*
D03*
X386090Y52362D02*
D03*
Y48162D02*
D03*
X381890D02*
D03*
Y52362D02*
D03*
X103937Y192913D02*
D03*
X134252Y166142D02*
D03*
X142520D02*
D03*
X19685Y336221D02*
D03*
X14961D02*
D03*
X20866Y375984D02*
D03*
X20472Y349213D02*
D03*
X15354Y348950D02*
D03*
X20866Y351969D02*
D03*
X31496Y354724D02*
D03*
X33071Y347779D02*
D03*
X6600Y387400D02*
D03*
X10800D02*
D03*
X6600Y383200D02*
D03*
X10800D02*
D03*
X6600Y379000D02*
D03*
X10800D02*
D03*
X15000D02*
D03*
Y383200D02*
D03*
Y387400D02*
D03*
X15354Y357350D02*
D03*
Y353150D02*
D03*
X11154Y348950D02*
D03*
X6954D02*
D03*
X11154Y353150D02*
D03*
X6954D02*
D03*
X11154Y357350D02*
D03*
X6954D02*
D03*
X35016Y357661D02*
D03*
Y362385D02*
D03*
X34819Y352542D02*
D03*
X14717Y35246D02*
D03*
X35217D02*
D03*
X48883D02*
D03*
X296850Y168110D02*
D03*
X290945Y175984D02*
D03*
X288583Y181102D02*
D03*
X280315Y144882D02*
D03*
X50394Y353543D02*
D03*
Y337795D02*
D03*
Y342520D02*
D03*
X50000Y331496D02*
D03*
X88583Y375984D02*
D03*
X109449Y335827D02*
D03*
X290985Y120358D02*
D03*
X290941Y172955D02*
D03*
X290937Y225552D02*
D03*
X291365Y278200D02*
D03*
X160100Y165562D02*
D03*
X157504Y156861D02*
D03*
X162704D02*
D03*
X216804Y156761D02*
D03*
X204204Y238039D02*
D03*
X204196Y225361D02*
D03*
X184409Y277563D02*
D03*
X160393D02*
D03*
X204111Y344711D02*
D03*
X222377Y342977D02*
D03*
X36658Y371693D02*
D03*
X37988Y324763D02*
D03*
X145961Y375513D02*
D03*
X155739Y354396D02*
D03*
X143061Y354503D02*
D03*
X88704Y388339D02*
D03*
X80004D02*
D03*
X111662Y349645D02*
D03*
X84323Y379774D02*
D03*
X110331Y376674D02*
D03*
Y370769D02*
D03*
X123228Y349606D02*
D03*
X89268Y309347D02*
D03*
X78347Y309449D02*
D03*
X72441Y311811D02*
D03*
X92126Y317717D02*
D03*
X276772Y139370D02*
D03*
X260630Y296063D02*
D03*
X285827Y306103D02*
D03*
X279921D02*
D03*
X274016D02*
D03*
X296300Y230134D02*
D03*
X302300D02*
D03*
X308400Y229740D02*
D03*
X314500D02*
D03*
X307874Y247244D02*
D03*
X292159Y123726D02*
D03*
X294600Y176791D02*
D03*
X300600D02*
D03*
X306700Y176397D02*
D03*
X312800D02*
D03*
Y124409D02*
D03*
X306700D02*
D03*
X300600Y124803D02*
D03*
X294600D02*
D03*
X283661Y236417D02*
D03*
X284207Y238773D02*
D03*
X286213Y240386D02*
D03*
X275794Y238234D02*
D03*
X279914Y240386D02*
D03*
X279921Y187795D02*
D03*
X275801Y185644D02*
D03*
X286221Y187795D02*
D03*
X284214Y186182D02*
D03*
X283648Y183825D02*
D03*
Y131228D02*
D03*
X284347Y134646D02*
D03*
X282283Y136221D02*
D03*
X279528Y135827D02*
D03*
X276870Y135309D02*
D03*
X290551Y94882D02*
D03*
X277744Y193307D02*
D03*
X277444Y242207D02*
D03*
X305780Y142307D02*
D03*
X307480Y193326D02*
D03*
X278346Y99606D02*
D03*
X290945Y114567D02*
D03*
X276772Y202362D02*
D03*
X277953Y204724D02*
D03*
X291339Y219685D02*
D03*
Y231496D02*
D03*
X277559Y257087D02*
D03*
X291732Y272441D02*
D03*
Y283858D02*
D03*
X283858Y289764D02*
D03*
X299606Y314961D02*
D03*
X303543Y311811D02*
D03*
X284646Y312205D02*
D03*
X277559D02*
D03*
X295669Y311811D02*
D03*
X299606D02*
D03*
X284646Y315354D02*
D03*
X277559D02*
D03*
X306176Y320559D02*
D03*
X313392Y315441D02*
D03*
X316929Y324803D02*
D03*
X295669D02*
D03*
X288189D02*
D03*
X281102D02*
D03*
X273622D02*
D03*
X306660Y118272D02*
D03*
X306693Y100676D02*
D03*
X257200Y97800D02*
D03*
X301500Y120300D02*
D03*
Y173100D02*
D03*
Y225400D02*
D03*
X277000Y97882D02*
D03*
X273800Y97908D02*
D03*
X263500Y132205D02*
D03*
X264600Y98505D02*
D03*
X306693Y153276D02*
D03*
X306660Y170872D02*
D03*
X257800Y150600D02*
D03*
X273800Y150505D02*
D03*
X277000Y150480D02*
D03*
X263500Y184803D02*
D03*
X264600Y151103D02*
D03*
X306660Y223572D02*
D03*
X306693Y205976D02*
D03*
X257800Y203000D02*
D03*
X264600Y203700D02*
D03*
X273800Y203103D02*
D03*
X301500Y278200D02*
D03*
X276400Y254700D02*
D03*
X257500Y255600D02*
D03*
X264000Y256200D02*
D03*
X263500Y237400D02*
D03*
X265278Y289702D02*
D03*
X273800Y255700D02*
D03*
X190551Y196850D02*
D03*
X196850Y203150D02*
D03*
X190600Y200138D02*
D03*
X94000Y387900D02*
D03*
X108200Y362754D02*
D03*
X57374Y366165D02*
D03*
X64600Y387600D02*
D03*
X59300Y374721D02*
D03*
X52731Y373700D02*
D03*
X44100Y389300D02*
D03*
X37306Y389152D02*
D03*
X40301Y73739D02*
D03*
Y69539D02*
D03*
X44501D02*
D03*
Y73739D02*
D03*
X40332Y120332D02*
D03*
Y116132D02*
D03*
X44532D02*
D03*
Y120332D02*
D03*
X39939Y166684D02*
D03*
Y162484D02*
D03*
X44139D02*
D03*
Y166684D02*
D03*
X39939Y213246D02*
D03*
Y209046D02*
D03*
X44139D02*
D03*
Y213246D02*
D03*
X44500Y259700D02*
D03*
Y255500D02*
D03*
X40300D02*
D03*
Y259700D02*
D03*
X108300Y156400D02*
D03*
X104454Y158746D02*
D03*
X133800Y365400D02*
D03*
Y370400D02*
D03*
Y375400D02*
D03*
X70453Y355286D02*
D03*
X68553Y357686D02*
D03*
X66653Y359786D02*
D03*
X64684Y315691D02*
D03*
X66584Y313591D02*
D03*
X68484Y311191D02*
D03*
X64684Y331691D02*
D03*
X185557Y283858D02*
D03*
X161500Y283900D02*
D03*
X183465Y316142D02*
D03*
X159449D02*
D03*
X190551Y222047D02*
D03*
X117500Y222300D02*
D03*
X101100D02*
D03*
X109500D02*
D03*
X150400Y166000D02*
D03*
X133400Y161000D02*
D03*
X142585Y161638D02*
D03*
X124803Y160630D02*
D03*
X118168Y160653D02*
D03*
X104724Y169291D02*
D03*
X97638Y169488D02*
D03*
X101000Y170886D02*
D03*
X117161Y8261D02*
D03*
X69661D02*
D03*
X52300Y8268D02*
D03*
X45467D02*
D03*
X38633D02*
D03*
X31800D02*
D03*
X24967D02*
D03*
X18133D02*
D03*
X11300D02*
D03*
X212205Y14961D02*
D03*
X222441Y46063D02*
D03*
X198819Y46457D02*
D03*
X235039Y15748D02*
D03*
X203543Y14961D02*
D03*
X190924Y16567D02*
D03*
X220866Y15748D02*
D03*
X225661Y15677D02*
D03*
X216142Y15354D02*
D03*
X207874Y14961D02*
D03*
X199213D02*
D03*
X195276Y15017D02*
D03*
X193701Y174803D02*
D03*
X126772Y201181D02*
D03*
X130000Y172600D02*
D03*
X123622Y182283D02*
D03*
X101575Y204331D02*
D03*
X171653Y218898D02*
D03*
X203150Y184252D02*
D03*
Y181102D02*
D03*
X206299Y177953D02*
D03*
Y174803D02*
D03*
X203150Y177953D02*
D03*
Y174803D02*
D03*
X196850Y177953D02*
D03*
X193701D02*
D03*
X200000Y181102D02*
D03*
X196850D02*
D03*
X193701D02*
D03*
X200000Y184252D02*
D03*
X196850D02*
D03*
X193701D02*
D03*
X123622Y185433D02*
D03*
X111024D02*
D03*
X117323Y201181D02*
D03*
X123622Y204331D02*
D03*
X123622Y201181D02*
D03*
X120472Y204331D02*
D03*
Y207480D02*
D03*
X123622D02*
D03*
X126772Y204331D02*
D03*
Y198031D02*
D03*
X123622D02*
D03*
X120472D02*
D03*
X117323D02*
D03*
X174803Y212598D02*
D03*
X171653Y215748D02*
D03*
Y212598D02*
D03*
X181102Y209449D02*
D03*
X184252Y206299D02*
D03*
X181102D02*
D03*
X184300Y209401D02*
D03*
X142520Y188583D02*
D03*
X145669D02*
D03*
X133071Y198031D02*
D03*
X136221D02*
D03*
X174803Y218898D02*
D03*
X174803Y215748D02*
D03*
X181102Y215748D02*
D03*
X177953Y215748D02*
D03*
X174803Y203150D02*
D03*
X171653D02*
D03*
X123622Y188583D02*
D03*
X126772D02*
D03*
X139370Y182283D02*
D03*
X111024Y204331D02*
D03*
X107874Y207480D02*
D03*
X104724D02*
D03*
X101575D02*
D03*
X99896Y182283D02*
D03*
X116929Y191732D02*
D03*
X184252Y190551D02*
D03*
X101575Y198031D02*
D03*
X104724Y201181D02*
D03*
X114173Y204331D02*
D03*
X107874Y204331D02*
D03*
X181102Y212598D02*
D03*
X174803Y206299D02*
D03*
X120472Y188583D02*
D03*
X114173D02*
D03*
X111024D02*
D03*
X107874Y185433D02*
D03*
Y188583D02*
D03*
X104724Y185433D02*
D03*
Y188583D02*
D03*
X107874Y198031D02*
D03*
X111024D02*
D03*
X114173D02*
D03*
X187402Y200000D02*
D03*
X158268D02*
D03*
X157480Y196850D02*
D03*
X154331Y200000D02*
D03*
X126772Y185433D02*
D03*
X129921Y201181D02*
D03*
X133071Y204331D02*
D03*
X136221D02*
D03*
X145669Y207480D02*
D03*
X142520Y204331D02*
D03*
X139370D02*
D03*
X151969D02*
D03*
X148819D02*
D03*
X139370Y198031D02*
D03*
X129921D02*
D03*
X142520Y185433D02*
D03*
X145669D02*
D03*
X136221D02*
D03*
X129921D02*
D03*
X177953Y193701D02*
D03*
X174803Y190551D02*
D03*
X133071Y185433D02*
D03*
X145669Y204331D02*
D03*
Y201181D02*
D03*
X171653Y193701D02*
D03*
Y196850D02*
D03*
X177953Y203150D02*
D03*
X181102D02*
D03*
X184252D02*
D03*
Y200000D02*
D03*
X181102D02*
D03*
X184252Y187402D02*
D03*
X181102Y190551D02*
D03*
Y187402D02*
D03*
X177953D02*
D03*
Y181102D02*
D03*
X174803D02*
D03*
X177953Y177953D02*
D03*
Y184252D02*
D03*
X174803D02*
D03*
Y177953D02*
D03*
Y174803D02*
D03*
X171653D02*
D03*
Y177953D02*
D03*
Y181102D02*
D03*
X177953Y200000D02*
D03*
X174803D02*
D03*
X171653D02*
D03*
X174803Y196850D02*
D03*
X177953D02*
D03*
X181102D02*
D03*
X184252Y193701D02*
D03*
X181102D02*
D03*
X177953Y190551D02*
D03*
X171653Y184252D02*
D03*
Y187402D02*
D03*
X174803D02*
D03*
X133071Y201181D02*
D03*
X136221D02*
D03*
X251279Y272321D02*
D03*
X209449Y215748D02*
D03*
X251279Y270199D02*
D03*
X212598Y215748D02*
D03*
X254331Y211849D02*
D03*
X215748Y209449D02*
D03*
X212598D02*
D03*
X203150Y215748D02*
D03*
X252165Y223660D02*
D03*
X206299Y215748D02*
D03*
X203150Y212598D02*
D03*
Y209449D02*
D03*
X212598Y212598D02*
D03*
X218898Y190551D02*
D03*
X254429Y120358D02*
D03*
X222047Y187402D02*
D03*
X254429Y122479D02*
D03*
X254331Y112484D02*
D03*
X222047Y181102D02*
D03*
X218898Y184252D02*
D03*
X254331Y114605D02*
D03*
Y104610D02*
D03*
Y106731D02*
D03*
X215748Y177953D02*
D03*
Y181102D02*
D03*
X218898Y177953D02*
D03*
X252362Y110668D02*
D03*
Y108546D02*
D03*
X222047Y177953D02*
D03*
X215748Y187402D02*
D03*
X218898D02*
D03*
X252165Y116420D02*
D03*
Y118542D02*
D03*
X254402Y159251D02*
D03*
Y157129D02*
D03*
X212598Y196850D02*
D03*
X209449D02*
D03*
X252434Y163188D02*
D03*
Y161066D02*
D03*
X254402Y165003D02*
D03*
Y167125D02*
D03*
X212598Y200000D02*
D03*
X209449D02*
D03*
X252237Y171062D02*
D03*
Y168940D02*
D03*
X254501Y174999D02*
D03*
Y172877D02*
D03*
X209449Y193701D02*
D03*
X212598D02*
D03*
X215748Y196850D02*
D03*
Y200000D02*
D03*
X209449Y203150D02*
D03*
X212598D02*
D03*
X254331Y209728D02*
D03*
X206299Y212598D02*
D03*
Y209449D02*
D03*
X252362Y213665D02*
D03*
Y215786D02*
D03*
X254331Y219723D02*
D03*
Y217602D02*
D03*
X252165Y221539D02*
D03*
X215748Y215748D02*
D03*
X254429Y227597D02*
D03*
Y225476D02*
D03*
X218898Y215748D02*
D03*
Y212598D02*
D03*
X251181Y264447D02*
D03*
Y262325D02*
D03*
X247638Y96144D02*
D03*
X218898Y174803D02*
D03*
X245516Y96063D02*
D03*
X222047Y174803D02*
D03*
X248327Y147400D02*
D03*
X218898Y193701D02*
D03*
X248327Y145278D02*
D03*
X222047Y190551D02*
D03*
X252400Y201149D02*
D03*
Y199028D02*
D03*
X215748Y203150D02*
D03*
Y206299D02*
D03*
X223228Y195276D02*
D03*
X306693Y276378D02*
D03*
Y258268D02*
D03*
X171653Y171653D02*
D03*
X177953Y212598D02*
D03*
X171653Y222047D02*
D03*
X184252D02*
D03*
X222047Y171653D02*
D03*
X215748Y184252D02*
D03*
Y212598D02*
D03*
X222047Y222047D02*
D03*
X206299Y218898D02*
D03*
X190551Y209449D02*
D03*
X174803Y193701D02*
D03*
X203150Y200000D02*
D03*
X196850Y190551D02*
D03*
X203150Y206299D02*
D03*
X200000D02*
D03*
X196850D02*
D03*
Y193701D02*
D03*
X203150Y190551D02*
D03*
Y193701D02*
D03*
X193701D02*
D03*
X200000Y196850D02*
D03*
X190551Y193701D02*
D03*
Y190551D02*
D03*
X193701Y206299D02*
D03*
X190551Y203150D02*
D03*
X203150Y196850D02*
D03*
D108*
X10379Y104685D02*
D03*
Y151142D02*
D03*
X9985Y197598D02*
D03*
Y244055D02*
D03*
X10379Y290512D02*
D03*
X26558Y167126D02*
D03*
X26952Y74213D02*
D03*
Y120774D02*
D03*
X26653Y213593D02*
D03*
X26920Y260142D02*
D03*
D109*
X283465Y281890D02*
D03*
Y277559D02*
D03*
Y273228D02*
D03*
Y268898D02*
D03*
Y264567D02*
D03*
X279134Y281890D02*
D03*
Y277559D02*
D03*
Y273228D02*
D03*
Y268898D02*
D03*
Y264567D02*
D03*
X274803Y281890D02*
D03*
Y277559D02*
D03*
Y273228D02*
D03*
Y268898D02*
D03*
Y264567D02*
D03*
X270472Y281890D02*
D03*
Y277559D02*
D03*
Y273228D02*
D03*
Y268898D02*
D03*
Y264567D02*
D03*
X266142Y281890D02*
D03*
Y277559D02*
D03*
Y273228D02*
D03*
Y268898D02*
D03*
Y264567D02*
D03*
Y106775D02*
D03*
Y111106D02*
D03*
Y115436D02*
D03*
Y119767D02*
D03*
Y124098D02*
D03*
X270472Y106775D02*
D03*
Y111106D02*
D03*
Y115436D02*
D03*
Y119767D02*
D03*
Y124098D02*
D03*
X274803Y106775D02*
D03*
Y111106D02*
D03*
Y115436D02*
D03*
Y119767D02*
D03*
Y124098D02*
D03*
X279134Y106775D02*
D03*
Y111106D02*
D03*
Y115436D02*
D03*
Y119767D02*
D03*
Y124098D02*
D03*
X283465Y106775D02*
D03*
Y111106D02*
D03*
Y115436D02*
D03*
Y119767D02*
D03*
Y124098D02*
D03*
X266142Y159372D02*
D03*
Y163703D02*
D03*
Y168034D02*
D03*
Y172364D02*
D03*
Y176695D02*
D03*
X270472Y159372D02*
D03*
Y163703D02*
D03*
Y168034D02*
D03*
Y172364D02*
D03*
Y176695D02*
D03*
X274803Y159372D02*
D03*
Y163703D02*
D03*
Y168034D02*
D03*
Y172364D02*
D03*
Y176695D02*
D03*
X279134Y159372D02*
D03*
Y163703D02*
D03*
Y168034D02*
D03*
Y172364D02*
D03*
Y176695D02*
D03*
X283465Y159372D02*
D03*
Y163703D02*
D03*
Y168034D02*
D03*
Y172364D02*
D03*
Y176695D02*
D03*
X266142Y211970D02*
D03*
Y216300D02*
D03*
Y220631D02*
D03*
Y224962D02*
D03*
Y229292D02*
D03*
X270472Y211970D02*
D03*
Y216300D02*
D03*
Y220631D02*
D03*
Y224962D02*
D03*
Y229292D02*
D03*
X274803Y211970D02*
D03*
Y216300D02*
D03*
Y220631D02*
D03*
Y224962D02*
D03*
Y229292D02*
D03*
X279134Y211970D02*
D03*
Y216300D02*
D03*
Y220631D02*
D03*
Y224962D02*
D03*
Y229292D02*
D03*
X283465Y211970D02*
D03*
Y216300D02*
D03*
Y220631D02*
D03*
Y224962D02*
D03*
Y229292D02*
D03*
M02*
