G04*
G04 #@! TF.GenerationSoftware,Altium Limited,Altium Designer,21.2.1 (34)*
G04*
G04 Layer_Physical_Order=2*
G04 Layer_Color=32768*
%FSLAX25Y25*%
%MOIN*%
G70*
G04*
G04 #@! TF.SameCoordinates,0D780EAB-B6EC-48A9-9064-61573679FFEB*
G04*
G04*
G04 #@! TF.FilePolarity,Negative*
G04*
G01*
G75*
%ADD110C,0.04000*%
%ADD111C,0.06143*%
%ADD112C,0.08506*%
%ADD113C,0.06537*%
%ADD114C,0.06931*%
%ADD115C,0.03584*%
%ADD116C,0.03387*%
%ADD117C,0.04175*%
D110*
X383701D02*
G03*
X393701Y10000I0J10000D01*
G01*
X0D02*
G03*
X10000Y0I10000J0D01*
G01*
X10000Y393701D02*
G03*
X0Y383701I-0J-10000D01*
G01*
X393701D02*
G03*
X383701Y393701I-10000J0D01*
G01*
X393701Y10000D02*
Y383701D01*
X10000Y0D02*
X383701D01*
X0Y10000D02*
Y383701D01*
X10000Y393701D02*
X381890Y393701D01*
X383701D01*
D111*
X292500Y39394D02*
D03*
Y29394D02*
D03*
Y19394D02*
D03*
Y9394D02*
D03*
X255000Y39394D02*
D03*
Y29394D02*
D03*
Y19394D02*
D03*
Y9394D02*
D03*
X280000Y39394D02*
D03*
Y29394D02*
D03*
Y19394D02*
D03*
Y9394D02*
D03*
X267500Y39394D02*
D03*
Y29394D02*
D03*
Y19394D02*
D03*
Y9394D02*
D03*
X164600Y10500D02*
D03*
Y20500D02*
D03*
X174600D02*
D03*
X164600Y30500D02*
D03*
X174600D02*
D03*
Y60500D02*
D03*
X164600D02*
D03*
X174600Y50500D02*
D03*
Y40500D02*
D03*
X164600Y70500D02*
D03*
X174600D02*
D03*
Y90500D02*
D03*
X164600Y80500D02*
D03*
X174600D02*
D03*
D112*
X282500Y372500D02*
D03*
D113*
X316300Y100200D02*
D03*
Y150200D02*
D03*
Y201300D02*
D03*
Y258200D02*
D03*
X44094Y195669D02*
D03*
X11417Y298819D02*
D03*
X44488Y102756D02*
D03*
Y149213D02*
D03*
X44190Y242222D02*
D03*
X44488Y288583D02*
D03*
D114*
X181181Y366929D02*
D03*
X191181D02*
D03*
Y376929D02*
D03*
X201181Y366929D02*
D03*
X211181D02*
D03*
X221181D02*
D03*
Y376929D02*
D03*
D115*
X187402Y152756D02*
D03*
X186614Y137992D02*
D03*
X20866Y375984D02*
D03*
X20472Y349213D02*
D03*
X15354Y348950D02*
D03*
X20866Y351969D02*
D03*
X31496Y354724D02*
D03*
X33071Y347779D02*
D03*
X15354Y357350D02*
D03*
Y353150D02*
D03*
X11154Y348950D02*
D03*
X6954D02*
D03*
X11154Y353150D02*
D03*
X6954D02*
D03*
X11154Y357350D02*
D03*
X6954D02*
D03*
X108300Y156400D02*
D03*
X104454Y158746D02*
D03*
X133800Y365400D02*
D03*
Y370400D02*
D03*
Y375400D02*
D03*
X70453Y355286D02*
D03*
X68553Y357686D02*
D03*
X66653Y359786D02*
D03*
X64684Y315691D02*
D03*
X66584Y313591D02*
D03*
X68484Y311191D02*
D03*
X64684Y331691D02*
D03*
X101000Y170886D02*
D03*
X117161Y8261D02*
D03*
X69661D02*
D03*
X52300Y8268D02*
D03*
X45467D02*
D03*
X38633D02*
D03*
X31800D02*
D03*
X24967D02*
D03*
X18133D02*
D03*
X11300D02*
D03*
X212205Y14961D02*
D03*
X220866Y15748D02*
D03*
X225661Y15677D02*
D03*
X216142Y15354D02*
D03*
X207874Y14961D02*
D03*
X199213D02*
D03*
X195276Y15017D02*
D03*
D116*
X103937Y192913D02*
D03*
X134252Y166142D02*
D03*
X142520D02*
D03*
X296850Y168110D02*
D03*
X290945Y175984D02*
D03*
X288583Y181102D02*
D03*
X280315Y144882D02*
D03*
X290985Y120358D02*
D03*
X290941Y172955D02*
D03*
X290937Y225552D02*
D03*
X291365Y278200D02*
D03*
X160100Y165562D02*
D03*
X204196Y225361D02*
D03*
X184409Y277563D02*
D03*
X160393D02*
D03*
X204111Y344711D02*
D03*
X222377Y342977D02*
D03*
X36658Y371693D02*
D03*
X37988Y324763D02*
D03*
X145961Y375513D02*
D03*
X143061Y354503D02*
D03*
X111662Y349645D02*
D03*
X84323Y379774D02*
D03*
X110331Y376674D02*
D03*
Y370769D02*
D03*
X72441Y311811D02*
D03*
X92126Y317717D02*
D03*
X276772Y139370D02*
D03*
X260630Y296063D02*
D03*
X285827Y306103D02*
D03*
X279921D02*
D03*
X274016D02*
D03*
X296300Y230134D02*
D03*
X302300D02*
D03*
X308400Y229740D02*
D03*
X314500D02*
D03*
X307874Y247244D02*
D03*
X292159Y123726D02*
D03*
X294600Y176791D02*
D03*
X300600D02*
D03*
X306700Y176397D02*
D03*
X312800D02*
D03*
Y124409D02*
D03*
X306700D02*
D03*
X300600Y124803D02*
D03*
X294600D02*
D03*
X283661Y236417D02*
D03*
X284207Y238773D02*
D03*
X286213Y240386D02*
D03*
X275794Y238234D02*
D03*
X279914Y240386D02*
D03*
X279921Y187795D02*
D03*
X275801Y185644D02*
D03*
X286221Y187795D02*
D03*
X284214Y186182D02*
D03*
X283648Y183825D02*
D03*
Y131228D02*
D03*
X284347Y134646D02*
D03*
X282283Y136221D02*
D03*
X279528Y135827D02*
D03*
X276870Y135309D02*
D03*
X290551Y94882D02*
D03*
X277744Y193307D02*
D03*
X277444Y242207D02*
D03*
X305780Y142307D02*
D03*
X307480Y193326D02*
D03*
X278346Y99606D02*
D03*
X290945Y114567D02*
D03*
X276772Y202362D02*
D03*
X277953Y204724D02*
D03*
X291339Y219685D02*
D03*
Y231496D02*
D03*
X277559Y257087D02*
D03*
X291732Y272441D02*
D03*
Y283858D02*
D03*
X283858Y289764D02*
D03*
X299606Y314961D02*
D03*
X303543Y311811D02*
D03*
X295669D02*
D03*
X299606D02*
D03*
X306176Y320559D02*
D03*
X313392Y315441D02*
D03*
X295669Y324803D02*
D03*
X288189D02*
D03*
X281102D02*
D03*
X273622D02*
D03*
X306660Y118272D02*
D03*
X306693Y100676D02*
D03*
X257200Y97800D02*
D03*
X277000Y97882D02*
D03*
X273800Y97908D02*
D03*
X263500Y132205D02*
D03*
X264600Y98505D02*
D03*
X306693Y153276D02*
D03*
X306660Y170872D02*
D03*
X257800Y150600D02*
D03*
X273800Y150505D02*
D03*
X277000Y150480D02*
D03*
X263500Y184803D02*
D03*
X264600Y151103D02*
D03*
X306660Y223572D02*
D03*
X306693Y205976D02*
D03*
X257800Y203000D02*
D03*
X264600Y203700D02*
D03*
X273800Y203103D02*
D03*
X276400Y254700D02*
D03*
X257500Y255600D02*
D03*
X264000Y256200D02*
D03*
X263500Y237400D02*
D03*
X265278Y289702D02*
D03*
X273800Y255700D02*
D03*
X190551Y196850D02*
D03*
Y222047D02*
D03*
X193701Y174803D02*
D03*
X126772Y201181D02*
D03*
X130000Y172600D02*
D03*
X123622Y182283D02*
D03*
X101575Y204331D02*
D03*
X171653Y218898D02*
D03*
X203150Y184252D02*
D03*
Y181102D02*
D03*
X206299Y177953D02*
D03*
Y174803D02*
D03*
X203150Y177953D02*
D03*
Y174803D02*
D03*
X196850Y177953D02*
D03*
X193701D02*
D03*
X200000Y181102D02*
D03*
X196850D02*
D03*
X193701D02*
D03*
X200000Y184252D02*
D03*
X196850D02*
D03*
X193701D02*
D03*
X111024Y185433D02*
D03*
X117323Y201181D02*
D03*
X123622D02*
D03*
X120472Y204331D02*
D03*
Y207480D02*
D03*
X123622D02*
D03*
X126772Y204331D02*
D03*
Y198031D02*
D03*
X123622D02*
D03*
X120472D02*
D03*
X117323D02*
D03*
X174803Y212598D02*
D03*
X171653Y215748D02*
D03*
Y212598D02*
D03*
X181102Y209449D02*
D03*
X184252Y206299D02*
D03*
X181102D02*
D03*
X184300Y209401D02*
D03*
X142520Y188583D02*
D03*
X145669D02*
D03*
X133071Y198031D02*
D03*
X136221D02*
D03*
X174803Y218898D02*
D03*
X174803Y215748D02*
D03*
X181102Y215748D02*
D03*
X177953Y215748D02*
D03*
X174803Y203150D02*
D03*
X171653D02*
D03*
X123622Y188583D02*
D03*
X126772D02*
D03*
X111024Y204331D02*
D03*
X104724Y207480D02*
D03*
X99896Y182283D02*
D03*
X116929Y191732D02*
D03*
X184252Y190551D02*
D03*
X101575Y198031D02*
D03*
X104724Y201181D02*
D03*
X114173Y204331D02*
D03*
X107874Y204331D02*
D03*
X181102Y212598D02*
D03*
X174803Y206299D02*
D03*
X120472Y188583D02*
D03*
X114173D02*
D03*
X111024D02*
D03*
X107874Y185433D02*
D03*
Y188583D02*
D03*
X104724Y185433D02*
D03*
Y188583D02*
D03*
X107874Y198031D02*
D03*
X111024D02*
D03*
X114173D02*
D03*
X187402Y200000D02*
D03*
X158268D02*
D03*
X157480Y196850D02*
D03*
X154331Y200000D02*
D03*
X126772Y185433D02*
D03*
X129921Y201181D02*
D03*
X136221Y204331D02*
D03*
X142520D02*
D03*
X151969D02*
D03*
X148819D02*
D03*
X139370Y198031D02*
D03*
X129921D02*
D03*
X142520Y185433D02*
D03*
X145669D02*
D03*
X136221D02*
D03*
X129921D02*
D03*
X177953Y193701D02*
D03*
X174803Y190551D02*
D03*
X133071Y185433D02*
D03*
X145669Y204331D02*
D03*
Y201181D02*
D03*
X171653Y196850D02*
D03*
X177953Y203150D02*
D03*
X181102D02*
D03*
X184252D02*
D03*
Y200000D02*
D03*
X181102D02*
D03*
X184252Y187402D02*
D03*
X181102Y190551D02*
D03*
Y187402D02*
D03*
X177953D02*
D03*
Y181102D02*
D03*
Y177953D02*
D03*
Y184252D02*
D03*
X174803D02*
D03*
Y177953D02*
D03*
Y174803D02*
D03*
X171653D02*
D03*
Y177953D02*
D03*
Y181102D02*
D03*
X177953Y200000D02*
D03*
X174803D02*
D03*
X171653D02*
D03*
X174803Y196850D02*
D03*
X177953D02*
D03*
X181102D02*
D03*
X184252Y193701D02*
D03*
X181102D02*
D03*
X177953Y190551D02*
D03*
X171653Y184252D02*
D03*
Y187402D02*
D03*
X174803D02*
D03*
X133071Y201181D02*
D03*
X136221D02*
D03*
X251279Y272321D02*
D03*
X209449Y215748D02*
D03*
X251279Y270199D02*
D03*
X212598Y215748D02*
D03*
X254331Y211849D02*
D03*
X215748Y209449D02*
D03*
X212598D02*
D03*
X203150Y215748D02*
D03*
X252165Y223660D02*
D03*
X206299Y215748D02*
D03*
X203150Y212598D02*
D03*
Y209449D02*
D03*
X212598Y212598D02*
D03*
X218898Y190551D02*
D03*
X254429Y120358D02*
D03*
X222047Y187402D02*
D03*
X254429Y122479D02*
D03*
X254331Y112484D02*
D03*
X222047Y181102D02*
D03*
X218898Y184252D02*
D03*
X254331Y114605D02*
D03*
Y104610D02*
D03*
Y106731D02*
D03*
X215748Y177953D02*
D03*
Y181102D02*
D03*
X218898Y177953D02*
D03*
X252362Y110668D02*
D03*
Y108546D02*
D03*
X222047Y177953D02*
D03*
X215748Y187402D02*
D03*
X218898D02*
D03*
X252165Y116420D02*
D03*
Y118542D02*
D03*
X254402Y159251D02*
D03*
Y157129D02*
D03*
X212598Y196850D02*
D03*
X209449D02*
D03*
X252434Y163188D02*
D03*
Y161066D02*
D03*
X254402Y165003D02*
D03*
Y167125D02*
D03*
X212598Y200000D02*
D03*
X209449D02*
D03*
X252237Y171062D02*
D03*
Y168940D02*
D03*
X254501Y174999D02*
D03*
Y172877D02*
D03*
X209449Y193701D02*
D03*
X212598D02*
D03*
X215748Y196850D02*
D03*
Y200000D02*
D03*
X209449Y203150D02*
D03*
X212598D02*
D03*
X254331Y209728D02*
D03*
X206299Y212598D02*
D03*
Y209449D02*
D03*
X252362Y213665D02*
D03*
Y215786D02*
D03*
X254331Y219723D02*
D03*
Y217602D02*
D03*
X252165Y221539D02*
D03*
X215748Y215748D02*
D03*
X254429Y227597D02*
D03*
Y225476D02*
D03*
X218898Y215748D02*
D03*
Y212598D02*
D03*
X251181Y264447D02*
D03*
Y262325D02*
D03*
X247638Y96144D02*
D03*
X218898Y174803D02*
D03*
X245516Y96063D02*
D03*
X222047Y174803D02*
D03*
X248327Y147400D02*
D03*
X218898Y193701D02*
D03*
X248327Y145278D02*
D03*
X222047Y190551D02*
D03*
X252400Y201149D02*
D03*
Y199028D02*
D03*
X215748Y203150D02*
D03*
Y206299D02*
D03*
X306693Y276378D02*
D03*
Y258268D02*
D03*
X190551Y209449D02*
D03*
X174803Y193701D02*
D03*
X203150Y206299D02*
D03*
X200000D02*
D03*
X196850D02*
D03*
Y193701D02*
D03*
X203150Y190551D02*
D03*
Y193701D02*
D03*
X200000Y196850D02*
D03*
X190551Y193701D02*
D03*
Y190551D02*
D03*
X193701Y206299D02*
D03*
X190551Y203150D02*
D03*
X203150Y196850D02*
D03*
D117*
X10379Y104685D02*
D03*
Y151142D02*
D03*
X9985Y197598D02*
D03*
Y244055D02*
D03*
X10379Y290512D02*
D03*
X26558Y167126D02*
D03*
X26952Y74213D02*
D03*
Y120774D02*
D03*
X26653Y213593D02*
D03*
X26920Y260142D02*
D03*
M02*
